<?xml version="1.0" encoding="UTF-8" standalone="no"?>
<!DOCTYPE svg PUBLIC "-//W3C//DTD SVG 1.1//EN"
 "http://www.w3.org/Graphics/SVG/1.1/DTD/svg11.dtd">
<!-- Generated by graphviz version 2.43.0 (0)
 -->
<!-- Title: %3 Pages: 1 -->
<svg width="2097pt" height="1004pt"
 viewBox="0.00 0.00 2096.50 1004.00" xmlns="http://www.w3.org/2000/svg" xmlns:xlink="http://www.w3.org/1999/xlink">
<g id="graph0" class="graph" transform="scale(1 1) rotate(0) translate(4 1000)">
<title>%3</title>
<!-- node0x504000000010 -->
<g id="node1" class="node">
<title>node0x504000000010</title>
<path fill="#ffffd0" stroke="black" d="M454.5,-903.5C454.5,-903.5 836.5,-903.5 836.5,-903.5 842.5,-903.5 848.5,-909.5 848.5,-915.5 848.5,-915.5 848.5,-983.5 848.5,-983.5 848.5,-989.5 842.5,-995.5 836.5,-995.5 836.5,-995.5 454.5,-995.5 454.5,-995.5 448.5,-995.5 442.5,-989.5 442.5,-983.5 442.5,-983.5 442.5,-915.5 442.5,-915.5 442.5,-909.5 448.5,-903.5 454.5,-903.5"/>
<text text-anchor="middle" x="645.5" y="-980.3" font-family="Times,serif" font-size="14.00">[0x504000000010]</text>
<polyline fill="none" stroke="black" points="442.5,-972.5 848.5,-972.5 "/>
<text text-anchor="middle" x="645.5" y="-957.3" font-family="Times,serif" font-size="14.00">data = teacher</text>
<polyline fill="none" stroke="black" points="442.5,-949.5 848.5,-949.5 "/>
<text text-anchor="middle" x="645.5" y="-934.3" font-family="Times,serif" font-size="14.00">shoot_free = 0</text>
<polyline fill="none" stroke="black" points="442.5,-926.5 848.5,-926.5 "/>
<text text-anchor="middle" x="541" y="-911.3" font-family="Times,serif" font-size="14.00">left = [0x504000000050]</text>
<polyline fill="none" stroke="black" points="639.5,-903.5 639.5,-926.5 "/>
<text text-anchor="middle" x="744" y="-911.3" font-family="Times,serif" font-size="14.00">right = [0x504000000110]</text>
</g>
<!-- node0x504000000050 -->
<g id="node2" class="node">
<title>node0x504000000050</title>
<path fill="#ffffd0" stroke="black" d="M242.5,-774.5C242.5,-774.5 624.5,-774.5 624.5,-774.5 630.5,-774.5 636.5,-780.5 636.5,-786.5 636.5,-786.5 636.5,-854.5 636.5,-854.5 636.5,-860.5 630.5,-866.5 624.5,-866.5 624.5,-866.5 242.5,-866.5 242.5,-866.5 236.5,-866.5 230.5,-860.5 230.5,-854.5 230.5,-854.5 230.5,-786.5 230.5,-786.5 230.5,-780.5 236.5,-774.5 242.5,-774.5"/>
<text text-anchor="middle" x="433.5" y="-851.3" font-family="Times,serif" font-size="14.00">[0x504000000050]</text>
<polyline fill="none" stroke="black" points="230.5,-843.5 636.5,-843.5 "/>
<text text-anchor="middle" x="433.5" y="-828.3" font-family="Times,serif" font-size="14.00">data = teacher of programming</text>
<polyline fill="none" stroke="black" points="230.5,-820.5 636.5,-820.5 "/>
<text text-anchor="middle" x="433.5" y="-805.3" font-family="Times,serif" font-size="14.00">shoot_free = 0</text>
<polyline fill="none" stroke="black" points="230.5,-797.5 636.5,-797.5 "/>
<text text-anchor="middle" x="329" y="-782.3" font-family="Times,serif" font-size="14.00">left = [0x504000000090]</text>
<polyline fill="none" stroke="black" points="427.5,-774.5 427.5,-797.5 "/>
<text text-anchor="middle" x="532" y="-782.3" font-family="Times,serif" font-size="14.00">right = [0x5040000000d0]</text>
</g>
<!-- node0x504000000010&#45;&gt;node0x504000000050 -->
<g id="edge1" class="edge">
<title>node0x504000000010&#45;&gt;node0x504000000050</title>
<path fill="none" stroke="black" d="M570.16,-903.37C553.23,-893.23 535.17,-882.41 517.9,-872.06"/>
<polygon fill="black" stroke="black" points="519.33,-868.84 508.95,-866.7 515.73,-874.84 519.33,-868.84"/>
</g>
<!-- node0x504000000110 -->
<g id="node3" class="node">
<title>node0x504000000110</title>
<path fill="#ffffd0" stroke="black" d="M693.5,-774.5C693.5,-774.5 1075.5,-774.5 1075.5,-774.5 1081.5,-774.5 1087.5,-780.5 1087.5,-786.5 1087.5,-786.5 1087.5,-854.5 1087.5,-854.5 1087.5,-860.5 1081.5,-866.5 1075.5,-866.5 1075.5,-866.5 693.5,-866.5 693.5,-866.5 687.5,-866.5 681.5,-860.5 681.5,-854.5 681.5,-854.5 681.5,-786.5 681.5,-786.5 681.5,-780.5 687.5,-774.5 693.5,-774.5"/>
<text text-anchor="middle" x="884.5" y="-851.3" font-family="Times,serif" font-size="14.00">[0x504000000110]</text>
<polyline fill="none" stroke="black" points="681.5,-843.5 1087.5,-843.5 "/>
<text text-anchor="middle" x="884.5" y="-828.3" font-family="Times,serif" font-size="14.00">data = football player</text>
<polyline fill="none" stroke="black" points="681.5,-820.5 1087.5,-820.5 "/>
<text text-anchor="middle" x="884.5" y="-805.3" font-family="Times,serif" font-size="14.00">shoot_free = 0</text>
<polyline fill="none" stroke="black" points="681.5,-797.5 1087.5,-797.5 "/>
<text text-anchor="middle" x="780" y="-782.3" font-family="Times,serif" font-size="14.00">left = [0x504000000150]</text>
<polyline fill="none" stroke="black" points="878.5,-774.5 878.5,-797.5 "/>
<text text-anchor="middle" x="983" y="-782.3" font-family="Times,serif" font-size="14.00">right = [0x504000000490]</text>
</g>
<!-- node0x504000000010&#45;&gt;node0x504000000110 -->
<g id="edge2" class="edge">
<title>node0x504000000010&#45;&gt;node0x504000000110</title>
<path fill="none" stroke="black" d="M730.44,-903.37C749.87,-893.04 770.63,-882.01 790.42,-871.49"/>
<polygon fill="black" stroke="black" points="792.25,-874.48 799.44,-866.7 788.96,-868.3 792.25,-874.48"/>
</g>
<!-- node0x504000000090 -->
<g id="node4" class="node">
<title>node0x504000000090</title>
<path fill="#ffffd0" stroke="black" d="M12,-645.5C12,-645.5 201,-645.5 201,-645.5 207,-645.5 213,-651.5 213,-657.5 213,-657.5 213,-725.5 213,-725.5 213,-731.5 207,-737.5 201,-737.5 201,-737.5 12,-737.5 12,-737.5 6,-737.5 0,-731.5 0,-725.5 0,-725.5 0,-657.5 0,-657.5 0,-651.5 6,-645.5 12,-645.5"/>
<text text-anchor="middle" x="106.5" y="-722.3" font-family="Times,serif" font-size="14.00">[0x504000000090]</text>
<polyline fill="none" stroke="black" points="0,-714.5 213,-714.5 "/>
<text text-anchor="middle" x="106.5" y="-699.3" font-family="Times,serif" font-size="14.00">data = ded32</text>
<polyline fill="none" stroke="black" points="0,-691.5 213,-691.5 "/>
<text text-anchor="middle" x="106.5" y="-676.3" font-family="Times,serif" font-size="14.00">shoot_free = 0</text>
<polyline fill="none" stroke="black" points="0,-668.5 213,-668.5 "/>
<text text-anchor="middle" x="50.5" y="-653.3" font-family="Times,serif" font-size="14.00">left = [(nil)]</text>
<polyline fill="none" stroke="black" points="101,-645.5 101,-668.5 "/>
<text text-anchor="middle" x="157" y="-653.3" font-family="Times,serif" font-size="14.00">right = [(nil)]</text>
</g>
<!-- node0x504000000050&#45;&gt;node0x504000000090 -->
<g id="edge3" class="edge">
<title>node0x504000000050&#45;&gt;node0x504000000090</title>
<path fill="none" stroke="black" d="M315.68,-774.44C287.51,-763.61 257.39,-751.98 222.71,-738.47"/>
<polygon fill="black" stroke="black" points="223.89,-735.17 213.3,-734.8 221.35,-741.69 223.89,-735.17"/>
</g>
<!-- node0x5040000000d0 -->
<g id="node5" class="node">
<title>node0x5040000000d0</title>
<path fill="#ffe0e0" stroke="black" d="M242.5,-645.5C242.5,-645.5 624.5,-645.5 624.5,-645.5 630.5,-645.5 636.5,-651.5 636.5,-657.5 636.5,-657.5 636.5,-725.5 636.5,-725.5 636.5,-731.5 630.5,-737.5 624.5,-737.5 624.5,-737.5 242.5,-737.5 242.5,-737.5 236.5,-737.5 230.5,-731.5 230.5,-725.5 230.5,-725.5 230.5,-657.5 230.5,-657.5 230.5,-651.5 236.5,-645.5 242.5,-645.5"/>
<text text-anchor="middle" x="433.5" y="-722.3" font-family="Times,serif" font-size="14.00">[0x5040000000d0]</text>
<polyline fill="none" stroke="black" points="230.5,-714.5 636.5,-714.5 "/>
<text text-anchor="middle" x="433.5" y="-699.3" font-family="Times,serif" font-size="14.00">data = teaches in online&#45;school</text>
<polyline fill="none" stroke="black" points="230.5,-691.5 636.5,-691.5 "/>
<text text-anchor="middle" x="433.5" y="-676.3" font-family="Times,serif" font-size="14.00">shoot_free = 1</text>
<polyline fill="none" stroke="black" points="230.5,-668.5 636.5,-668.5 "/>
<text text-anchor="middle" x="329" y="-653.3" font-family="Times,serif" font-size="14.00">left = [0x5040000006d0]</text>
<polyline fill="none" stroke="black" points="427.5,-645.5 427.5,-668.5 "/>
<text text-anchor="middle" x="532" y="-653.3" font-family="Times,serif" font-size="14.00">right = [0x504000000710]</text>
</g>
<!-- node0x504000000050&#45;&gt;node0x5040000000d0 -->
<g id="edge4" class="edge">
<title>node0x504000000050&#45;&gt;node0x5040000000d0</title>
<path fill="none" stroke="black" d="M433.5,-774.37C433.5,-765.86 433.5,-756.87 433.5,-748.09"/>
<polygon fill="black" stroke="black" points="437,-747.92 433.5,-737.92 430,-747.92 437,-747.92"/>
</g>
<!-- node0x504000000150 -->
<g id="node8" class="node">
<title>node0x504000000150</title>
<path fill="#ffffd0" stroke="black" d="M693.5,-645.5C693.5,-645.5 1075.5,-645.5 1075.5,-645.5 1081.5,-645.5 1087.5,-651.5 1087.5,-657.5 1087.5,-657.5 1087.5,-725.5 1087.5,-725.5 1087.5,-731.5 1081.5,-737.5 1075.5,-737.5 1075.5,-737.5 693.5,-737.5 693.5,-737.5 687.5,-737.5 681.5,-731.5 681.5,-725.5 681.5,-725.5 681.5,-657.5 681.5,-657.5 681.5,-651.5 687.5,-645.5 693.5,-645.5"/>
<text text-anchor="middle" x="884.5" y="-722.3" font-family="Times,serif" font-size="14.00">[0x504000000150]</text>
<polyline fill="none" stroke="black" points="681.5,-714.5 1087.5,-714.5 "/>
<text text-anchor="middle" x="884.5" y="-699.3" font-family="Times,serif" font-size="14.00">data = plays for the caRTel</text>
<polyline fill="none" stroke="black" points="681.5,-691.5 1087.5,-691.5 "/>
<text text-anchor="middle" x="884.5" y="-676.3" font-family="Times,serif" font-size="14.00">shoot_free = 0</text>
<polyline fill="none" stroke="black" points="681.5,-668.5 1087.5,-668.5 "/>
<text text-anchor="middle" x="780" y="-653.3" font-family="Times,serif" font-size="14.00">left = [0x504000000190]</text>
<polyline fill="none" stroke="black" points="878.5,-645.5 878.5,-668.5 "/>
<text text-anchor="middle" x="983" y="-653.3" font-family="Times,serif" font-size="14.00">right = [0x504000000450]</text>
</g>
<!-- node0x504000000110&#45;&gt;node0x504000000150 -->
<g id="edge7" class="edge">
<title>node0x504000000110&#45;&gt;node0x504000000150</title>
<path fill="none" stroke="black" d="M884.5,-774.37C884.5,-765.86 884.5,-756.87 884.5,-748.09"/>
<polygon fill="black" stroke="black" points="888,-747.92 884.5,-737.92 881,-747.92 888,-747.92"/>
</g>
<!-- node0x504000000490 -->
<g id="node9" class="node">
<title>node0x504000000490</title>
<path fill="#ffffd0" stroke="black" d="M1145.5,-645.5C1145.5,-645.5 1527.5,-645.5 1527.5,-645.5 1533.5,-645.5 1539.5,-651.5 1539.5,-657.5 1539.5,-657.5 1539.5,-725.5 1539.5,-725.5 1539.5,-731.5 1533.5,-737.5 1527.5,-737.5 1527.5,-737.5 1145.5,-737.5 1145.5,-737.5 1139.5,-737.5 1133.5,-731.5 1133.5,-725.5 1133.5,-725.5 1133.5,-657.5 1133.5,-657.5 1133.5,-651.5 1139.5,-645.5 1145.5,-645.5"/>
<text text-anchor="middle" x="1336.5" y="-722.3" font-family="Times,serif" font-size="14.00">[0x504000000490]</text>
<polyline fill="none" stroke="black" points="1133.5,-714.5 1539.5,-714.5 "/>
<text text-anchor="middle" x="1336.5" y="-699.3" font-family="Times,serif" font-size="14.00">data = coach</text>
<polyline fill="none" stroke="black" points="1133.5,-691.5 1539.5,-691.5 "/>
<text text-anchor="middle" x="1336.5" y="-676.3" font-family="Times,serif" font-size="14.00">shoot_free = 0</text>
<polyline fill="none" stroke="black" points="1133.5,-668.5 1539.5,-668.5 "/>
<text text-anchor="middle" x="1232" y="-653.3" font-family="Times,serif" font-size="14.00">left = [0x5040000004d0]</text>
<polyline fill="none" stroke="black" points="1330.5,-645.5 1330.5,-668.5 "/>
<text text-anchor="middle" x="1435" y="-653.3" font-family="Times,serif" font-size="14.00">right = [0x504000000510]</text>
</g>
<!-- node0x504000000110&#45;&gt;node0x504000000490 -->
<g id="edge8" class="edge">
<title>node0x504000000110&#45;&gt;node0x504000000490</title>
<path fill="none" stroke="black" d="M1044.81,-774.46C1084.21,-763.39 1126.53,-751.5 1166.37,-740.3"/>
<polygon fill="black" stroke="black" points="1167.49,-743.62 1176.17,-737.55 1165.6,-736.88 1167.49,-743.62"/>
</g>
<!-- node0x5040000006d0 -->
<g id="node6" class="node">
<title>node0x5040000006d0</title>
<path fill="#ffe0e0" stroke="black" d="M108,-516.5C108,-516.5 297,-516.5 297,-516.5 303,-516.5 309,-522.5 309,-528.5 309,-528.5 309,-596.5 309,-596.5 309,-602.5 303,-608.5 297,-608.5 297,-608.5 108,-608.5 108,-608.5 102,-608.5 96,-602.5 96,-596.5 96,-596.5 96,-528.5 96,-528.5 96,-522.5 102,-516.5 108,-516.5"/>
<text text-anchor="middle" x="202.5" y="-593.3" font-family="Times,serif" font-size="14.00">[0x5040000006d0]</text>
<polyline fill="none" stroke="black" points="96,-585.5 309,-585.5 "/>
<text text-anchor="middle" x="202.5" y="-570.3" font-family="Times,serif" font-size="14.00">data = penkin</text>
<polyline fill="none" stroke="black" points="96,-562.5 309,-562.5 "/>
<text text-anchor="middle" x="202.5" y="-547.3" font-family="Times,serif" font-size="14.00">shoot_free = 1</text>
<polyline fill="none" stroke="black" points="96,-539.5 309,-539.5 "/>
<text text-anchor="middle" x="146.5" y="-524.3" font-family="Times,serif" font-size="14.00">left = [(nil)]</text>
<polyline fill="none" stroke="black" points="197,-516.5 197,-539.5 "/>
<text text-anchor="middle" x="253" y="-524.3" font-family="Times,serif" font-size="14.00">right = [(nil)]</text>
</g>
<!-- node0x5040000000d0&#45;&gt;node0x5040000006d0 -->
<g id="edge5" class="edge">
<title>node0x5040000000d0&#45;&gt;node0x5040000006d0</title>
<path fill="none" stroke="black" d="M351.41,-645.37C332.71,-635.09 312.74,-624.11 293.69,-613.63"/>
<polygon fill="black" stroke="black" points="295.17,-610.45 284.72,-608.7 291.79,-616.59 295.17,-610.45"/>
</g>
<!-- node0x504000000710 -->
<g id="node7" class="node">
<title>node0x504000000710</title>
<path fill="#ffffd0" stroke="black" d="M339,-516.5C339,-516.5 528,-516.5 528,-516.5 534,-516.5 540,-522.5 540,-528.5 540,-528.5 540,-596.5 540,-596.5 540,-602.5 534,-608.5 528,-608.5 528,-608.5 339,-608.5 339,-608.5 333,-608.5 327,-602.5 327,-596.5 327,-596.5 327,-528.5 327,-528.5 327,-522.5 333,-516.5 339,-516.5"/>
<text text-anchor="middle" x="433.5" y="-593.3" font-family="Times,serif" font-size="14.00">[0x504000000710]</text>
<polyline fill="none" stroke="black" points="327,-585.5 540,-585.5 "/>
<text text-anchor="middle" x="433.5" y="-570.3" font-family="Times,serif" font-size="14.00">data = ovchinkin</text>
<polyline fill="none" stroke="black" points="327,-562.5 540,-562.5 "/>
<text text-anchor="middle" x="433.5" y="-547.3" font-family="Times,serif" font-size="14.00">shoot_free = 0</text>
<polyline fill="none" stroke="black" points="327,-539.5 540,-539.5 "/>
<text text-anchor="middle" x="377.5" y="-524.3" font-family="Times,serif" font-size="14.00">left = [(nil)]</text>
<polyline fill="none" stroke="black" points="428,-516.5 428,-539.5 "/>
<text text-anchor="middle" x="484" y="-524.3" font-family="Times,serif" font-size="14.00">right = [(nil)]</text>
</g>
<!-- node0x5040000000d0&#45;&gt;node0x504000000710 -->
<g id="edge6" class="edge">
<title>node0x5040000000d0&#45;&gt;node0x504000000710</title>
<path fill="none" stroke="black" d="M433.5,-645.37C433.5,-636.86 433.5,-627.87 433.5,-619.09"/>
<polygon fill="black" stroke="black" points="437,-618.92 433.5,-608.92 430,-618.92 437,-618.92"/>
</g>
<!-- node0x504000000190 -->
<g id="node10" class="node">
<title>node0x504000000190</title>
<path fill="#ffffd0" stroke="black" d="M569.5,-516.5C569.5,-516.5 951.5,-516.5 951.5,-516.5 957.5,-516.5 963.5,-522.5 963.5,-528.5 963.5,-528.5 963.5,-596.5 963.5,-596.5 963.5,-602.5 957.5,-608.5 951.5,-608.5 951.5,-608.5 569.5,-608.5 569.5,-608.5 563.5,-608.5 557.5,-602.5 557.5,-596.5 557.5,-596.5 557.5,-528.5 557.5,-528.5 557.5,-522.5 563.5,-516.5 569.5,-516.5"/>
<text text-anchor="middle" x="760.5" y="-593.3" font-family="Times,serif" font-size="14.00">[0x504000000190]</text>
<polyline fill="none" stroke="black" points="557.5,-585.5 963.5,-585.5 "/>
<text text-anchor="middle" x="760.5" y="-570.3" font-family="Times,serif" font-size="14.00">data = defender</text>
<polyline fill="none" stroke="black" points="557.5,-562.5 963.5,-562.5 "/>
<text text-anchor="middle" x="760.5" y="-547.3" font-family="Times,serif" font-size="14.00">shoot_free = 0</text>
<polyline fill="none" stroke="black" points="557.5,-539.5 963.5,-539.5 "/>
<text text-anchor="middle" x="656" y="-524.3" font-family="Times,serif" font-size="14.00">left = [0x5040000001d0]</text>
<polyline fill="none" stroke="black" points="754.5,-516.5 754.5,-539.5 "/>
<text text-anchor="middle" x="859" y="-524.3" font-family="Times,serif" font-size="14.00">right = [0x504000000290]</text>
</g>
<!-- node0x504000000150&#45;&gt;node0x504000000190 -->
<g id="edge9" class="edge">
<title>node0x504000000150&#45;&gt;node0x504000000190</title>
<path fill="none" stroke="black" d="M840.43,-645.37C831.22,-635.94 821.44,-625.91 811.99,-616.23"/>
<polygon fill="black" stroke="black" points="814.33,-613.63 804.84,-608.92 809.32,-618.52 814.33,-613.63"/>
</g>
<!-- node0x504000000450 -->
<g id="node11" class="node">
<title>node0x504000000450</title>
<path fill="#ffffd0" stroke="black" d="M993,-516.5C993,-516.5 1182,-516.5 1182,-516.5 1188,-516.5 1194,-522.5 1194,-528.5 1194,-528.5 1194,-596.5 1194,-596.5 1194,-602.5 1188,-608.5 1182,-608.5 1182,-608.5 993,-608.5 993,-608.5 987,-608.5 981,-602.5 981,-596.5 981,-596.5 981,-528.5 981,-528.5 981,-522.5 987,-516.5 993,-516.5"/>
<text text-anchor="middle" x="1087.5" y="-593.3" font-family="Times,serif" font-size="14.00">[0x504000000450]</text>
<polyline fill="none" stroke="black" points="981,-585.5 1194,-585.5 "/>
<text text-anchor="middle" x="1087.5" y="-570.3" font-family="Times,serif" font-size="14.00">data = loh</text>
<polyline fill="none" stroke="black" points="981,-562.5 1194,-562.5 "/>
<text text-anchor="middle" x="1087.5" y="-547.3" font-family="Times,serif" font-size="14.00">shoot_free = 0</text>
<polyline fill="none" stroke="black" points="981,-539.5 1194,-539.5 "/>
<text text-anchor="middle" x="1031.5" y="-524.3" font-family="Times,serif" font-size="14.00">left = [(nil)]</text>
<polyline fill="none" stroke="black" points="1082,-516.5 1082,-539.5 "/>
<text text-anchor="middle" x="1138" y="-524.3" font-family="Times,serif" font-size="14.00">right = [(nil)]</text>
</g>
<!-- node0x504000000150&#45;&gt;node0x504000000450 -->
<g id="edge10" class="edge">
<title>node0x504000000150&#45;&gt;node0x504000000450</title>
<path fill="none" stroke="black" d="M956.64,-645.37C972.85,-635.23 990.15,-624.41 1006.68,-614.06"/>
<polygon fill="black" stroke="black" points="1008.63,-616.97 1015.25,-608.7 1004.91,-611.04 1008.63,-616.97"/>
</g>
<!-- node0x5040000004d0 -->
<g id="node22" class="node">
<title>node0x5040000004d0</title>
<path fill="#ffffd0" stroke="black" d="M1224,-516.5C1224,-516.5 1449,-516.5 1449,-516.5 1455,-516.5 1461,-522.5 1461,-528.5 1461,-528.5 1461,-596.5 1461,-596.5 1461,-602.5 1455,-608.5 1449,-608.5 1449,-608.5 1224,-608.5 1224,-608.5 1218,-608.5 1212,-602.5 1212,-596.5 1212,-596.5 1212,-528.5 1212,-528.5 1212,-522.5 1218,-516.5 1224,-516.5"/>
<text text-anchor="middle" x="1336.5" y="-593.3" font-family="Times,serif" font-size="14.00">[0x5040000004d0]</text>
<polyline fill="none" stroke="black" points="1212,-585.5 1461,-585.5 "/>
<text text-anchor="middle" x="1336.5" y="-570.3" font-family="Times,serif" font-size="14.00">data = valentin spivak guardiola</text>
<polyline fill="none" stroke="black" points="1212,-562.5 1461,-562.5 "/>
<text text-anchor="middle" x="1336.5" y="-547.3" font-family="Times,serif" font-size="14.00">shoot_free = 0</text>
<polyline fill="none" stroke="black" points="1212,-539.5 1461,-539.5 "/>
<text text-anchor="middle" x="1271.5" y="-524.3" font-family="Times,serif" font-size="14.00">left = [(nil)]</text>
<polyline fill="none" stroke="black" points="1331,-516.5 1331,-539.5 "/>
<text text-anchor="middle" x="1396" y="-524.3" font-family="Times,serif" font-size="14.00">right = [(nil)]</text>
</g>
<!-- node0x504000000490&#45;&gt;node0x5040000004d0 -->
<g id="edge21" class="edge">
<title>node0x504000000490&#45;&gt;node0x5040000004d0</title>
<path fill="none" stroke="black" d="M1336.5,-645.37C1336.5,-636.86 1336.5,-627.87 1336.5,-619.09"/>
<polygon fill="black" stroke="black" points="1340,-618.92 1336.5,-608.92 1333,-618.92 1340,-618.92"/>
</g>
<!-- node0x504000000510 -->
<g id="node23" class="node">
<title>node0x504000000510</title>
<path fill="#ffffd0" stroke="black" d="M1491.5,-516.5C1491.5,-516.5 1873.5,-516.5 1873.5,-516.5 1879.5,-516.5 1885.5,-522.5 1885.5,-528.5 1885.5,-528.5 1885.5,-596.5 1885.5,-596.5 1885.5,-602.5 1879.5,-608.5 1873.5,-608.5 1873.5,-608.5 1491.5,-608.5 1491.5,-608.5 1485.5,-608.5 1479.5,-602.5 1479.5,-596.5 1479.5,-596.5 1479.5,-528.5 1479.5,-528.5 1479.5,-522.5 1485.5,-516.5 1491.5,-516.5"/>
<text text-anchor="middle" x="1682.5" y="-593.3" font-family="Times,serif" font-size="14.00">[0x504000000510]</text>
<polyline fill="none" stroke="black" points="1479.5,-585.5 1885.5,-585.5 "/>
<text text-anchor="middle" x="1682.5" y="-570.3" font-family="Times,serif" font-size="14.00">data = lives in 209 room</text>
<polyline fill="none" stroke="black" points="1479.5,-562.5 1885.5,-562.5 "/>
<text text-anchor="middle" x="1682.5" y="-547.3" font-family="Times,serif" font-size="14.00">shoot_free = 0</text>
<polyline fill="none" stroke="black" points="1479.5,-539.5 1885.5,-539.5 "/>
<text text-anchor="middle" x="1578" y="-524.3" font-family="Times,serif" font-size="14.00">left = [0x504000000550]</text>
<polyline fill="none" stroke="black" points="1676.5,-516.5 1676.5,-539.5 "/>
<text text-anchor="middle" x="1781" y="-524.3" font-family="Times,serif" font-size="14.00">right = [0x504000000690]</text>
</g>
<!-- node0x504000000490&#45;&gt;node0x504000000510 -->
<g id="edge22" class="edge">
<title>node0x504000000490&#45;&gt;node0x504000000510</title>
<path fill="none" stroke="black" d="M1459.46,-645.37C1488.82,-634.59 1520.28,-623.04 1550.04,-612.12"/>
<polygon fill="black" stroke="black" points="1551.46,-615.33 1559.64,-608.59 1549.05,-608.75 1551.46,-615.33"/>
</g>
<!-- node0x5040000001d0 -->
<g id="node12" class="node">
<title>node0x5040000001d0</title>
<path fill="#ffffd0" stroke="black" d="M203.5,-387.5C203.5,-387.5 585.5,-387.5 585.5,-387.5 591.5,-387.5 597.5,-393.5 597.5,-399.5 597.5,-399.5 597.5,-467.5 597.5,-467.5 597.5,-473.5 591.5,-479.5 585.5,-479.5 585.5,-479.5 203.5,-479.5 203.5,-479.5 197.5,-479.5 191.5,-473.5 191.5,-467.5 191.5,-467.5 191.5,-399.5 191.5,-399.5 191.5,-393.5 197.5,-387.5 203.5,-387.5"/>
<text text-anchor="middle" x="394.5" y="-464.3" font-family="Times,serif" font-size="14.00">[0x5040000001d0]</text>
<polyline fill="none" stroke="black" points="191.5,-456.5 597.5,-456.5 "/>
<text text-anchor="middle" x="394.5" y="-441.3" font-family="Times,serif" font-size="14.00">data = left defender</text>
<polyline fill="none" stroke="black" points="191.5,-433.5 597.5,-433.5 "/>
<text text-anchor="middle" x="394.5" y="-418.3" font-family="Times,serif" font-size="14.00">shoot_free = 0</text>
<polyline fill="none" stroke="black" points="191.5,-410.5 597.5,-410.5 "/>
<text text-anchor="middle" x="290" y="-395.3" font-family="Times,serif" font-size="14.00">left = [0x504000000210]</text>
<polyline fill="none" stroke="black" points="388.5,-387.5 388.5,-410.5 "/>
<text text-anchor="middle" x="493" y="-395.3" font-family="Times,serif" font-size="14.00">right = [0x504000000250]</text>
</g>
<!-- node0x504000000190&#45;&gt;node0x5040000001d0 -->
<g id="edge11" class="edge">
<title>node0x504000000190&#45;&gt;node0x5040000001d0</title>
<path fill="none" stroke="black" d="M630.69,-516.46C599.39,-505.6 565.83,-493.95 534.1,-482.94"/>
<polygon fill="black" stroke="black" points="534.92,-479.52 524.32,-479.55 532.62,-486.13 534.92,-479.52"/>
</g>
<!-- node0x504000000290 -->
<g id="node13" class="node">
<title>node0x504000000290</title>
<path fill="#ffffd0" stroke="black" d="M627.5,-387.5C627.5,-387.5 1009.5,-387.5 1009.5,-387.5 1015.5,-387.5 1021.5,-393.5 1021.5,-399.5 1021.5,-399.5 1021.5,-467.5 1021.5,-467.5 1021.5,-473.5 1015.5,-479.5 1009.5,-479.5 1009.5,-479.5 627.5,-479.5 627.5,-479.5 621.5,-479.5 615.5,-473.5 615.5,-467.5 615.5,-467.5 615.5,-399.5 615.5,-399.5 615.5,-393.5 621.5,-387.5 627.5,-387.5"/>
<text text-anchor="middle" x="818.5" y="-464.3" font-family="Times,serif" font-size="14.00">[0x504000000290]</text>
<polyline fill="none" stroke="black" points="615.5,-456.5 1021.5,-456.5 "/>
<text text-anchor="middle" x="818.5" y="-441.3" font-family="Times,serif" font-size="14.00">data = center forward</text>
<polyline fill="none" stroke="black" points="615.5,-433.5 1021.5,-433.5 "/>
<text text-anchor="middle" x="818.5" y="-418.3" font-family="Times,serif" font-size="14.00">shoot_free = 0</text>
<polyline fill="none" stroke="black" points="615.5,-410.5 1021.5,-410.5 "/>
<text text-anchor="middle" x="714" y="-395.3" font-family="Times,serif" font-size="14.00">left = [0x5040000002d0]</text>
<polyline fill="none" stroke="black" points="812.5,-387.5 812.5,-410.5 "/>
<text text-anchor="middle" x="917" y="-395.3" font-family="Times,serif" font-size="14.00">right = [0x504000000310]</text>
</g>
<!-- node0x504000000190&#45;&gt;node0x504000000290 -->
<g id="edge12" class="edge">
<title>node0x504000000190&#45;&gt;node0x504000000290</title>
<path fill="none" stroke="black" d="M781.11,-516.37C785.12,-507.58 789.37,-498.29 793.5,-489.23"/>
<polygon fill="black" stroke="black" points="796.79,-490.47 797.76,-479.92 790.42,-487.56 796.79,-490.47"/>
</g>
<!-- node0x504000000210 -->
<g id="node14" class="node">
<title>node0x504000000210</title>
<path fill="#ffffd0" stroke="black" d="M118,-258.5C118,-258.5 307,-258.5 307,-258.5 313,-258.5 319,-264.5 319,-270.5 319,-270.5 319,-338.5 319,-338.5 319,-344.5 313,-350.5 307,-350.5 307,-350.5 118,-350.5 118,-350.5 112,-350.5 106,-344.5 106,-338.5 106,-338.5 106,-270.5 106,-270.5 106,-264.5 112,-258.5 118,-258.5"/>
<text text-anchor="middle" x="212.5" y="-335.3" font-family="Times,serif" font-size="14.00">[0x504000000210]</text>
<polyline fill="none" stroke="black" points="106,-327.5 319,-327.5 "/>
<text text-anchor="middle" x="212.5" y="-312.3" font-family="Times,serif" font-size="14.00">data = tolik</text>
<polyline fill="none" stroke="black" points="106,-304.5 319,-304.5 "/>
<text text-anchor="middle" x="212.5" y="-289.3" font-family="Times,serif" font-size="14.00">shoot_free = 0</text>
<polyline fill="none" stroke="black" points="106,-281.5 319,-281.5 "/>
<text text-anchor="middle" x="156.5" y="-266.3" font-family="Times,serif" font-size="14.00">left = [(nil)]</text>
<polyline fill="none" stroke="black" points="207,-258.5 207,-281.5 "/>
<text text-anchor="middle" x="263" y="-266.3" font-family="Times,serif" font-size="14.00">right = [(nil)]</text>
</g>
<!-- node0x5040000001d0&#45;&gt;node0x504000000210 -->
<g id="edge13" class="edge">
<title>node0x5040000001d0&#45;&gt;node0x504000000210</title>
<path fill="none" stroke="black" d="M329.82,-387.37C315.56,-377.41 300.35,-366.8 285.77,-356.63"/>
<polygon fill="black" stroke="black" points="287.48,-353.55 277.28,-350.7 283.47,-359.29 287.48,-353.55"/>
</g>
<!-- node0x504000000250 -->
<g id="node15" class="node">
<title>node0x504000000250</title>
<path fill="#ffffd0" stroke="black" d="M349,-258.5C349,-258.5 538,-258.5 538,-258.5 544,-258.5 550,-264.5 550,-270.5 550,-270.5 550,-338.5 550,-338.5 550,-344.5 544,-350.5 538,-350.5 538,-350.5 349,-350.5 349,-350.5 343,-350.5 337,-344.5 337,-338.5 337,-338.5 337,-270.5 337,-270.5 337,-264.5 343,-258.5 349,-258.5"/>
<text text-anchor="middle" x="443.5" y="-335.3" font-family="Times,serif" font-size="14.00">[0x504000000250]</text>
<polyline fill="none" stroke="black" points="337,-327.5 550,-327.5 "/>
<text text-anchor="middle" x="443.5" y="-312.3" font-family="Times,serif" font-size="14.00">data = dan</text>
<polyline fill="none" stroke="black" points="337,-304.5 550,-304.5 "/>
<text text-anchor="middle" x="443.5" y="-289.3" font-family="Times,serif" font-size="14.00">shoot_free = 0</text>
<polyline fill="none" stroke="black" points="337,-281.5 550,-281.5 "/>
<text text-anchor="middle" x="387.5" y="-266.3" font-family="Times,serif" font-size="14.00">left = [(nil)]</text>
<polyline fill="none" stroke="black" points="438,-258.5 438,-281.5 "/>
<text text-anchor="middle" x="494" y="-266.3" font-family="Times,serif" font-size="14.00">right = [(nil)]</text>
</g>
<!-- node0x5040000001d0&#45;&gt;node0x504000000250 -->
<g id="edge14" class="edge">
<title>node0x5040000001d0&#45;&gt;node0x504000000250</title>
<path fill="none" stroke="black" d="M411.91,-387.37C415.27,-378.68 418.81,-369.48 422.27,-360.52"/>
<polygon fill="black" stroke="black" points="425.64,-361.51 425.98,-350.92 419.11,-358.99 425.64,-361.51"/>
</g>
<!-- node0x5040000002d0 -->
<g id="node16" class="node">
<title>node0x5040000002d0</title>
<path fill="#ffffd0" stroke="black" d="M676,-258.5C676,-258.5 865,-258.5 865,-258.5 871,-258.5 877,-264.5 877,-270.5 877,-270.5 877,-338.5 877,-338.5 877,-344.5 871,-350.5 865,-350.5 865,-350.5 676,-350.5 676,-350.5 670,-350.5 664,-344.5 664,-338.5 664,-338.5 664,-270.5 664,-270.5 664,-264.5 670,-258.5 676,-258.5"/>
<text text-anchor="middle" x="770.5" y="-335.3" font-family="Times,serif" font-size="14.00">[0x5040000002d0]</text>
<polyline fill="none" stroke="black" points="664,-327.5 877,-327.5 "/>
<text text-anchor="middle" x="770.5" y="-312.3" font-family="Times,serif" font-size="14.00">data = artem</text>
<polyline fill="none" stroke="black" points="664,-304.5 877,-304.5 "/>
<text text-anchor="middle" x="770.5" y="-289.3" font-family="Times,serif" font-size="14.00">shoot_free = 0</text>
<polyline fill="none" stroke="black" points="664,-281.5 877,-281.5 "/>
<text text-anchor="middle" x="714.5" y="-266.3" font-family="Times,serif" font-size="14.00">left = [(nil)]</text>
<polyline fill="none" stroke="black" points="765,-258.5 765,-281.5 "/>
<text text-anchor="middle" x="821" y="-266.3" font-family="Times,serif" font-size="14.00">right = [(nil)]</text>
</g>
<!-- node0x504000000290&#45;&gt;node0x5040000002d0 -->
<g id="edge15" class="edge">
<title>node0x504000000290&#45;&gt;node0x5040000002d0</title>
<path fill="none" stroke="black" d="M801.44,-387.37C798.16,-378.68 794.68,-369.48 791.29,-360.52"/>
<polygon fill="black" stroke="black" points="794.47,-359.03 787.66,-350.92 787.93,-361.51 794.47,-359.03"/>
</g>
<!-- node0x504000000310 -->
<g id="node17" class="node">
<title>node0x504000000310</title>
<path fill="#ffffd0" stroke="black" d="M906.5,-258.5C906.5,-258.5 1288.5,-258.5 1288.5,-258.5 1294.5,-258.5 1300.5,-264.5 1300.5,-270.5 1300.5,-270.5 1300.5,-338.5 1300.5,-338.5 1300.5,-344.5 1294.5,-350.5 1288.5,-350.5 1288.5,-350.5 906.5,-350.5 906.5,-350.5 900.5,-350.5 894.5,-344.5 894.5,-338.5 894.5,-338.5 894.5,-270.5 894.5,-270.5 894.5,-264.5 900.5,-258.5 906.5,-258.5"/>
<text text-anchor="middle" x="1097.5" y="-335.3" font-family="Times,serif" font-size="14.00">[0x504000000310]</text>
<polyline fill="none" stroke="black" points="894.5,-327.5 1300.5,-327.5 "/>
<text text-anchor="middle" x="1097.5" y="-312.3" font-family="Times,serif" font-size="14.00">data = middle defender</text>
<polyline fill="none" stroke="black" points="894.5,-304.5 1300.5,-304.5 "/>
<text text-anchor="middle" x="1097.5" y="-289.3" font-family="Times,serif" font-size="14.00">shoot_free = 0</text>
<polyline fill="none" stroke="black" points="894.5,-281.5 1300.5,-281.5 "/>
<text text-anchor="middle" x="993" y="-266.3" font-family="Times,serif" font-size="14.00">left = [0x504000000350]</text>
<polyline fill="none" stroke="black" points="1091.5,-258.5 1091.5,-281.5 "/>
<text text-anchor="middle" x="1196" y="-266.3" font-family="Times,serif" font-size="14.00">right = [0x504000000390]</text>
</g>
<!-- node0x504000000290&#45;&gt;node0x504000000310 -->
<g id="edge16" class="edge">
<title>node0x504000000290&#45;&gt;node0x504000000310</title>
<path fill="none" stroke="black" d="M917.65,-387.37C940.74,-376.86 965.45,-365.61 988.92,-354.92"/>
<polygon fill="black" stroke="black" points="990.55,-358.03 998.2,-350.7 987.65,-351.66 990.55,-358.03"/>
</g>
<!-- node0x504000000350 -->
<g id="node18" class="node">
<title>node0x504000000350</title>
<path fill="#ffffd0" stroke="black" d="M930,-129.5C930,-129.5 1119,-129.5 1119,-129.5 1125,-129.5 1131,-135.5 1131,-141.5 1131,-141.5 1131,-209.5 1131,-209.5 1131,-215.5 1125,-221.5 1119,-221.5 1119,-221.5 930,-221.5 930,-221.5 924,-221.5 918,-215.5 918,-209.5 918,-209.5 918,-141.5 918,-141.5 918,-135.5 924,-129.5 930,-129.5"/>
<text text-anchor="middle" x="1024.5" y="-206.3" font-family="Times,serif" font-size="14.00">[0x504000000350]</text>
<polyline fill="none" stroke="black" points="918,-198.5 1131,-198.5 "/>
<text text-anchor="middle" x="1024.5" y="-183.3" font-family="Times,serif" font-size="14.00">data = maxon</text>
<polyline fill="none" stroke="black" points="918,-175.5 1131,-175.5 "/>
<text text-anchor="middle" x="1024.5" y="-160.3" font-family="Times,serif" font-size="14.00">shoot_free = 0</text>
<polyline fill="none" stroke="black" points="918,-152.5 1131,-152.5 "/>
<text text-anchor="middle" x="968.5" y="-137.3" font-family="Times,serif" font-size="14.00">left = [(nil)]</text>
<polyline fill="none" stroke="black" points="1019,-129.5 1019,-152.5 "/>
<text text-anchor="middle" x="1075" y="-137.3" font-family="Times,serif" font-size="14.00">right = [(nil)]</text>
</g>
<!-- node0x504000000310&#45;&gt;node0x504000000350 -->
<g id="edge17" class="edge">
<title>node0x504000000310&#45;&gt;node0x504000000350</title>
<path fill="none" stroke="black" d="M1071.56,-258.37C1066.4,-249.4 1060.94,-239.89 1055.63,-230.66"/>
<polygon fill="black" stroke="black" points="1058.62,-228.84 1050.61,-221.92 1052.55,-232.33 1058.62,-228.84"/>
</g>
<!-- node0x504000000390 -->
<g id="node19" class="node">
<title>node0x504000000390</title>
<path fill="#ffffd0" stroke="black" d="M1160.5,-129.5C1160.5,-129.5 1542.5,-129.5 1542.5,-129.5 1548.5,-129.5 1554.5,-135.5 1554.5,-141.5 1554.5,-141.5 1554.5,-209.5 1554.5,-209.5 1554.5,-215.5 1548.5,-221.5 1542.5,-221.5 1542.5,-221.5 1160.5,-221.5 1160.5,-221.5 1154.5,-221.5 1148.5,-215.5 1148.5,-209.5 1148.5,-209.5 1148.5,-141.5 1148.5,-141.5 1148.5,-135.5 1154.5,-129.5 1160.5,-129.5"/>
<text text-anchor="middle" x="1351.5" y="-206.3" font-family="Times,serif" font-size="14.00">[0x504000000390]</text>
<polyline fill="none" stroke="black" points="1148.5,-198.5 1554.5,-198.5 "/>
<text text-anchor="middle" x="1351.5" y="-183.3" font-family="Times,serif" font-size="14.00">data = goalkeeper</text>
<polyline fill="none" stroke="black" points="1148.5,-175.5 1554.5,-175.5 "/>
<text text-anchor="middle" x="1351.5" y="-160.3" font-family="Times,serif" font-size="14.00">shoot_free = 0</text>
<polyline fill="none" stroke="black" points="1148.5,-152.5 1554.5,-152.5 "/>
<text text-anchor="middle" x="1247" y="-137.3" font-family="Times,serif" font-size="14.00">left = [0x5040000003d0]</text>
<polyline fill="none" stroke="black" points="1345.5,-129.5 1345.5,-152.5 "/>
<text text-anchor="middle" x="1450" y="-137.3" font-family="Times,serif" font-size="14.00">right = [0x504000000410]</text>
</g>
<!-- node0x504000000310&#45;&gt;node0x504000000390 -->
<g id="edge18" class="edge">
<title>node0x504000000310&#45;&gt;node0x504000000390</title>
<path fill="none" stroke="black" d="M1187.77,-258.37C1208.6,-247.95 1230.88,-236.81 1252.08,-226.21"/>
<polygon fill="black" stroke="black" points="1253.72,-229.3 1261.1,-221.7 1250.59,-223.04 1253.72,-229.3"/>
</g>
<!-- node0x5040000003d0 -->
<g id="node20" class="node">
<title>node0x5040000003d0</title>
<path fill="#ffffd0" stroke="black" d="M1141,-0.5C1141,-0.5 1330,-0.5 1330,-0.5 1336,-0.5 1342,-6.5 1342,-12.5 1342,-12.5 1342,-80.5 1342,-80.5 1342,-86.5 1336,-92.5 1330,-92.5 1330,-92.5 1141,-92.5 1141,-92.5 1135,-92.5 1129,-86.5 1129,-80.5 1129,-80.5 1129,-12.5 1129,-12.5 1129,-6.5 1135,-0.5 1141,-0.5"/>
<text text-anchor="middle" x="1235.5" y="-77.3" font-family="Times,serif" font-size="14.00">[0x5040000003d0]</text>
<polyline fill="none" stroke="black" points="1129,-69.5 1342,-69.5 "/>
<text text-anchor="middle" x="1235.5" y="-54.3" font-family="Times,serif" font-size="14.00">data = dmitri</text>
<polyline fill="none" stroke="black" points="1129,-46.5 1342,-46.5 "/>
<text text-anchor="middle" x="1235.5" y="-31.3" font-family="Times,serif" font-size="14.00">shoot_free = 0</text>
<polyline fill="none" stroke="black" points="1129,-23.5 1342,-23.5 "/>
<text text-anchor="middle" x="1179.5" y="-8.3" font-family="Times,serif" font-size="14.00">left = [(nil)]</text>
<polyline fill="none" stroke="black" points="1230,-0.5 1230,-23.5 "/>
<text text-anchor="middle" x="1286" y="-8.3" font-family="Times,serif" font-size="14.00">right = [(nil)]</text>
</g>
<!-- node0x504000000390&#45;&gt;node0x5040000003d0 -->
<g id="edge19" class="edge">
<title>node0x504000000390&#45;&gt;node0x5040000003d0</title>
<path fill="none" stroke="black" d="M1310.28,-129.37C1301.75,-120.03 1292.69,-110.11 1283.93,-100.52"/>
<polygon fill="black" stroke="black" points="1286.31,-97.94 1276.98,-92.92 1281.14,-102.66 1286.31,-97.94"/>
</g>
<!-- node0x504000000410 -->
<g id="node21" class="node">
<title>node0x504000000410</title>
<path fill="#ffffd0" stroke="black" d="M1372,-0.5C1372,-0.5 1561,-0.5 1561,-0.5 1567,-0.5 1573,-6.5 1573,-12.5 1573,-12.5 1573,-80.5 1573,-80.5 1573,-86.5 1567,-92.5 1561,-92.5 1561,-92.5 1372,-92.5 1372,-92.5 1366,-92.5 1360,-86.5 1360,-80.5 1360,-80.5 1360,-12.5 1360,-12.5 1360,-6.5 1366,-0.5 1372,-0.5"/>
<text text-anchor="middle" x="1466.5" y="-77.3" font-family="Times,serif" font-size="14.00">[0x504000000410]</text>
<polyline fill="none" stroke="black" points="1360,-69.5 1573,-69.5 "/>
<text text-anchor="middle" x="1466.5" y="-54.3" font-family="Times,serif" font-size="14.00">data = gosha</text>
<polyline fill="none" stroke="black" points="1360,-46.5 1573,-46.5 "/>
<text text-anchor="middle" x="1466.5" y="-31.3" font-family="Times,serif" font-size="14.00">shoot_free = 0</text>
<polyline fill="none" stroke="black" points="1360,-23.5 1573,-23.5 "/>
<text text-anchor="middle" x="1410.5" y="-8.3" font-family="Times,serif" font-size="14.00">left = [(nil)]</text>
<polyline fill="none" stroke="black" points="1461,-0.5 1461,-23.5 "/>
<text text-anchor="middle" x="1517" y="-8.3" font-family="Times,serif" font-size="14.00">right = [(nil)]</text>
</g>
<!-- node0x504000000390&#45;&gt;node0x504000000410 -->
<g id="edge20" class="edge">
<title>node0x504000000390&#45;&gt;node0x504000000410</title>
<path fill="none" stroke="black" d="M1392.37,-129.37C1400.82,-120.03 1409.81,-110.11 1418.49,-100.52"/>
<polygon fill="black" stroke="black" points="1421.26,-102.68 1425.38,-92.92 1416.07,-97.98 1421.26,-102.68"/>
</g>
<!-- node0x504000000550 -->
<g id="node24" class="node">
<title>node0x504000000550</title>
<path fill="#ffffd0" stroke="black" d="M1424.5,-387.5C1424.5,-387.5 1806.5,-387.5 1806.5,-387.5 1812.5,-387.5 1818.5,-393.5 1818.5,-399.5 1818.5,-399.5 1818.5,-467.5 1818.5,-467.5 1818.5,-473.5 1812.5,-479.5 1806.5,-479.5 1806.5,-479.5 1424.5,-479.5 1424.5,-479.5 1418.5,-479.5 1412.5,-473.5 1412.5,-467.5 1412.5,-467.5 1412.5,-399.5 1412.5,-399.5 1412.5,-393.5 1418.5,-387.5 1424.5,-387.5"/>
<text text-anchor="middle" x="1615.5" y="-464.3" font-family="Times,serif" font-size="14.00">[0x504000000550]</text>
<polyline fill="none" stroke="black" points="1412.5,-456.5 1818.5,-456.5 "/>
<text text-anchor="middle" x="1615.5" y="-441.3" font-family="Times,serif" font-size="14.00">data = loves kefir</text>
<polyline fill="none" stroke="black" points="1412.5,-433.5 1818.5,-433.5 "/>
<text text-anchor="middle" x="1615.5" y="-418.3" font-family="Times,serif" font-size="14.00">shoot_free = 0</text>
<polyline fill="none" stroke="black" points="1412.5,-410.5 1818.5,-410.5 "/>
<text text-anchor="middle" x="1511" y="-395.3" font-family="Times,serif" font-size="14.00">left = [0x504000000590]</text>
<polyline fill="none" stroke="black" points="1609.5,-387.5 1609.5,-410.5 "/>
<text text-anchor="middle" x="1714" y="-395.3" font-family="Times,serif" font-size="14.00">right = [0x5040000005d0]</text>
</g>
<!-- node0x504000000510&#45;&gt;node0x504000000550 -->
<g id="edge23" class="edge">
<title>node0x504000000510&#45;&gt;node0x504000000550</title>
<path fill="none" stroke="black" d="M1658.69,-516.37C1654.01,-507.49 1649.05,-498.09 1644.22,-488.95"/>
<polygon fill="black" stroke="black" points="1647.22,-487.13 1639.46,-479.92 1641.03,-490.39 1647.22,-487.13"/>
</g>
<!-- node0x504000000690 -->
<g id="node25" class="node">
<title>node0x504000000690</title>
<path fill="#ffffd0" stroke="black" d="M1848,-387.5C1848,-387.5 2037,-387.5 2037,-387.5 2043,-387.5 2049,-393.5 2049,-399.5 2049,-399.5 2049,-467.5 2049,-467.5 2049,-473.5 2043,-479.5 2037,-479.5 2037,-479.5 1848,-479.5 1848,-479.5 1842,-479.5 1836,-473.5 1836,-467.5 1836,-467.5 1836,-399.5 1836,-399.5 1836,-393.5 1842,-387.5 1848,-387.5"/>
<text text-anchor="middle" x="1942.5" y="-464.3" font-family="Times,serif" font-size="14.00">[0x504000000690]</text>
<polyline fill="none" stroke="black" points="1836,-456.5 2049,-456.5 "/>
<text text-anchor="middle" x="1942.5" y="-441.3" font-family="Times,serif" font-size="14.00">data = FUPM REF</text>
<polyline fill="none" stroke="black" points="1836,-433.5 2049,-433.5 "/>
<text text-anchor="middle" x="1942.5" y="-418.3" font-family="Times,serif" font-size="14.00">shoot_free = 0</text>
<polyline fill="none" stroke="black" points="1836,-410.5 2049,-410.5 "/>
<text text-anchor="middle" x="1886.5" y="-395.3" font-family="Times,serif" font-size="14.00">left = [(nil)]</text>
<polyline fill="none" stroke="black" points="1937,-387.5 1937,-410.5 "/>
<text text-anchor="middle" x="1993" y="-395.3" font-family="Times,serif" font-size="14.00">right = [(nil)]</text>
</g>
<!-- node0x504000000510&#45;&gt;node0x504000000690 -->
<g id="edge24" class="edge">
<title>node0x504000000510&#45;&gt;node0x504000000690</title>
<path fill="none" stroke="black" d="M1774.9,-516.37C1796.23,-505.95 1819.03,-494.81 1840.74,-484.21"/>
<polygon fill="black" stroke="black" points="1842.51,-487.24 1849.96,-479.7 1839.44,-480.95 1842.51,-487.24"/>
</g>
<!-- node0x504000000590 -->
<g id="node26" class="node">
<title>node0x504000000590</title>
<path fill="#ffffd0" stroke="black" d="M1464,-258.5C1464,-258.5 1653,-258.5 1653,-258.5 1659,-258.5 1665,-264.5 1665,-270.5 1665,-270.5 1665,-338.5 1665,-338.5 1665,-344.5 1659,-350.5 1653,-350.5 1653,-350.5 1464,-350.5 1464,-350.5 1458,-350.5 1452,-344.5 1452,-338.5 1452,-338.5 1452,-270.5 1452,-270.5 1452,-264.5 1458,-258.5 1464,-258.5"/>
<text text-anchor="middle" x="1558.5" y="-335.3" font-family="Times,serif" font-size="14.00">[0x504000000590]</text>
<polyline fill="none" stroke="black" points="1452,-327.5 1665,-327.5 "/>
<text text-anchor="middle" x="1558.5" y="-312.3" font-family="Times,serif" font-size="14.00">data = damir</text>
<polyline fill="none" stroke="black" points="1452,-304.5 1665,-304.5 "/>
<text text-anchor="middle" x="1558.5" y="-289.3" font-family="Times,serif" font-size="14.00">shoot_free = 0</text>
<polyline fill="none" stroke="black" points="1452,-281.5 1665,-281.5 "/>
<text text-anchor="middle" x="1502.5" y="-266.3" font-family="Times,serif" font-size="14.00">left = [(nil)]</text>
<polyline fill="none" stroke="black" points="1553,-258.5 1553,-281.5 "/>
<text text-anchor="middle" x="1609" y="-266.3" font-family="Times,serif" font-size="14.00">right = [(nil)]</text>
</g>
<!-- node0x504000000550&#45;&gt;node0x504000000590 -->
<g id="edge25" class="edge">
<title>node0x504000000550&#45;&gt;node0x504000000590</title>
<path fill="none" stroke="black" d="M1595.24,-387.37C1591.3,-378.58 1587.13,-369.29 1583.06,-360.23"/>
<polygon fill="black" stroke="black" points="1586.17,-358.61 1578.88,-350.92 1579.78,-361.47 1586.17,-358.61"/>
</g>
<!-- node0x5040000005d0 -->
<g id="node27" class="node">
<title>node0x5040000005d0</title>
<path fill="#ffffd0" stroke="black" d="M1694.5,-258.5C1694.5,-258.5 2076.5,-258.5 2076.5,-258.5 2082.5,-258.5 2088.5,-264.5 2088.5,-270.5 2088.5,-270.5 2088.5,-338.5 2088.5,-338.5 2088.5,-344.5 2082.5,-350.5 2076.5,-350.5 2076.5,-350.5 1694.5,-350.5 1694.5,-350.5 1688.5,-350.5 1682.5,-344.5 1682.5,-338.5 1682.5,-338.5 1682.5,-270.5 1682.5,-270.5 1682.5,-264.5 1688.5,-258.5 1694.5,-258.5"/>
<text text-anchor="middle" x="1885.5" y="-335.3" font-family="Times,serif" font-size="14.00">[0x5040000005d0]</text>
<polyline fill="none" stroke="black" points="1682.5,-327.5 2088.5,-327.5 "/>
<text text-anchor="middle" x="1885.5" y="-312.3" font-family="Times,serif" font-size="14.00">data = has glasses</text>
<polyline fill="none" stroke="black" points="1682.5,-304.5 2088.5,-304.5 "/>
<text text-anchor="middle" x="1885.5" y="-289.3" font-family="Times,serif" font-size="14.00">shoot_free = 0</text>
<polyline fill="none" stroke="black" points="1682.5,-281.5 2088.5,-281.5 "/>
<text text-anchor="middle" x="1781" y="-266.3" font-family="Times,serif" font-size="14.00">left = [0x504000000610]</text>
<polyline fill="none" stroke="black" points="1879.5,-258.5 1879.5,-281.5 "/>
<text text-anchor="middle" x="1984" y="-266.3" font-family="Times,serif" font-size="14.00">right = [0x504000000650]</text>
</g>
<!-- node0x504000000550&#45;&gt;node0x5040000005d0 -->
<g id="edge26" class="edge">
<title>node0x504000000550&#45;&gt;node0x5040000005d0</title>
<path fill="none" stroke="black" d="M1711.45,-387.37C1733.7,-376.9 1757.5,-365.71 1780.12,-355.07"/>
<polygon fill="black" stroke="black" points="1781.84,-358.13 1789.4,-350.7 1778.86,-351.79 1781.84,-358.13"/>
</g>
<!-- node0x504000000610 -->
<g id="node28" class="node">
<title>node0x504000000610</title>
<path fill="#ffffd0" stroke="black" d="M1632,-129.5C1632,-129.5 1821,-129.5 1821,-129.5 1827,-129.5 1833,-135.5 1833,-141.5 1833,-141.5 1833,-209.5 1833,-209.5 1833,-215.5 1827,-221.5 1821,-221.5 1821,-221.5 1632,-221.5 1632,-221.5 1626,-221.5 1620,-215.5 1620,-209.5 1620,-209.5 1620,-141.5 1620,-141.5 1620,-135.5 1626,-129.5 1632,-129.5"/>
<text text-anchor="middle" x="1726.5" y="-206.3" font-family="Times,serif" font-size="14.00">[0x504000000610]</text>
<polyline fill="none" stroke="black" points="1620,-198.5 1833,-198.5 "/>
<text text-anchor="middle" x="1726.5" y="-183.3" font-family="Times,serif" font-size="14.00">data = yura</text>
<polyline fill="none" stroke="black" points="1620,-175.5 1833,-175.5 "/>
<text text-anchor="middle" x="1726.5" y="-160.3" font-family="Times,serif" font-size="14.00">shoot_free = 0</text>
<polyline fill="none" stroke="black" points="1620,-152.5 1833,-152.5 "/>
<text text-anchor="middle" x="1670.5" y="-137.3" font-family="Times,serif" font-size="14.00">left = [(nil)]</text>
<polyline fill="none" stroke="black" points="1721,-129.5 1721,-152.5 "/>
<text text-anchor="middle" x="1777" y="-137.3" font-family="Times,serif" font-size="14.00">right = [(nil)]</text>
</g>
<!-- node0x5040000005d0&#45;&gt;node0x504000000610 -->
<g id="edge27" class="edge">
<title>node0x5040000005d0&#45;&gt;node0x504000000610</title>
<path fill="none" stroke="black" d="M1828.99,-258.37C1816.77,-248.6 1803.74,-238.2 1791.23,-228.2"/>
<polygon fill="black" stroke="black" points="1793.09,-225.21 1783.09,-221.7 1788.72,-230.68 1793.09,-225.21"/>
</g>
<!-- node0x504000000650 -->
<g id="node29" class="node">
<title>node0x504000000650</title>
<path fill="#ffffd0" stroke="black" d="M1863,-129.5C1863,-129.5 2052,-129.5 2052,-129.5 2058,-129.5 2064,-135.5 2064,-141.5 2064,-141.5 2064,-209.5 2064,-209.5 2064,-215.5 2058,-221.5 2052,-221.5 2052,-221.5 1863,-221.5 1863,-221.5 1857,-221.5 1851,-215.5 1851,-209.5 1851,-209.5 1851,-141.5 1851,-141.5 1851,-135.5 1857,-129.5 1863,-129.5"/>
<text text-anchor="middle" x="1957.5" y="-206.3" font-family="Times,serif" font-size="14.00">[0x504000000650]</text>
<polyline fill="none" stroke="black" points="1851,-198.5 2064,-198.5 "/>
<text text-anchor="middle" x="1957.5" y="-183.3" font-family="Times,serif" font-size="14.00">data = dima</text>
<polyline fill="none" stroke="black" points="1851,-175.5 2064,-175.5 "/>
<text text-anchor="middle" x="1957.5" y="-160.3" font-family="Times,serif" font-size="14.00">shoot_free = 0</text>
<polyline fill="none" stroke="black" points="1851,-152.5 2064,-152.5 "/>
<text text-anchor="middle" x="1901.5" y="-137.3" font-family="Times,serif" font-size="14.00">left = [(nil)]</text>
<polyline fill="none" stroke="black" points="1952,-129.5 1952,-152.5 "/>
<text text-anchor="middle" x="2008" y="-137.3" font-family="Times,serif" font-size="14.00">right = [(nil)]</text>
</g>
<!-- node0x5040000005d0&#45;&gt;node0x504000000650 -->
<g id="edge28" class="edge">
<title>node0x5040000005d0&#45;&gt;node0x504000000650</title>
<path fill="none" stroke="black" d="M1911.09,-258.37C1916.17,-249.4 1921.56,-239.89 1926.79,-230.66"/>
<polygon fill="black" stroke="black" points="1929.87,-232.34 1931.75,-221.92 1923.78,-228.89 1929.87,-232.34"/>
</g>
</g>
</svg>
