<?xml version="1.0" encoding="UTF-8" standalone="no"?>
<!DOCTYPE svg PUBLIC "-//W3C//DTD SVG 1.1//EN"
 "http://www.w3.org/Graphics/SVG/1.1/DTD/svg11.dtd">
<!-- Generated by graphviz version 2.43.0 (0)
 -->
<!-- Title: %3 Pages: 1 -->
<svg width="803pt" height="290pt"
 viewBox="0.00 0.00 803.00 290.00" xmlns="http://www.w3.org/2000/svg" xmlns:xlink="http://www.w3.org/1999/xlink">
<g id="graph0" class="graph" transform="scale(1 1) rotate(0) translate(4 286)">
<title>%3</title>
<!-- node0x503000000040 -->
<g id="node1" class="node">
<title>node0x503000000040</title>
<path fill="#ffffd0" stroke="black" d="M262,-212.5C262,-212.5 643,-212.5 643,-212.5 649,-212.5 655,-218.5 655,-224.5 655,-224.5 655,-269.5 655,-269.5 655,-275.5 649,-281.5 643,-281.5 643,-281.5 262,-281.5 262,-281.5 256,-281.5 250,-275.5 250,-269.5 250,-269.5 250,-224.5 250,-224.5 250,-218.5 256,-212.5 262,-212.5"/>
<text text-anchor="middle" x="452.5" y="-266.3" font-family="Times,serif" font-size="14.00">[0x503000000040]</text>
<polyline fill="none" stroke="black" points="250,-258.5 655,-258.5 "/>
<text text-anchor="middle" x="452.5" y="-243.3" font-family="Times,serif" font-size="14.00">data = 50</text>
<polyline fill="none" stroke="black" points="250,-235.5 655,-235.5 "/>
<text text-anchor="middle" x="348.5" y="-220.3" font-family="Times,serif" font-size="14.00">left = [0x503000000070]</text>
<polyline fill="none" stroke="black" points="447,-212.5 447,-235.5 "/>
<text text-anchor="middle" x="551" y="-220.3" font-family="Times,serif" font-size="14.00">right = [0x5030000000a0]</text>
</g>
<!-- node0x503000000070 -->
<g id="node2" class="node">
<title>node0x503000000070</title>
<path fill="#ffffd0" stroke="black" d="M74.5,-106.5C74.5,-106.5 456.5,-106.5 456.5,-106.5 462.5,-106.5 468.5,-112.5 468.5,-118.5 468.5,-118.5 468.5,-163.5 468.5,-163.5 468.5,-169.5 462.5,-175.5 456.5,-175.5 456.5,-175.5 74.5,-175.5 74.5,-175.5 68.5,-175.5 62.5,-169.5 62.5,-163.5 62.5,-163.5 62.5,-118.5 62.5,-118.5 62.5,-112.5 68.5,-106.5 74.5,-106.5"/>
<text text-anchor="middle" x="265.5" y="-160.3" font-family="Times,serif" font-size="14.00">[0x503000000070]</text>
<polyline fill="none" stroke="black" points="62.5,-152.5 468.5,-152.5 "/>
<text text-anchor="middle" x="265.5" y="-137.3" font-family="Times,serif" font-size="14.00">data = 12</text>
<polyline fill="none" stroke="black" points="62.5,-129.5 468.5,-129.5 "/>
<text text-anchor="middle" x="161" y="-114.3" font-family="Times,serif" font-size="14.00">left = [0x5030000000d0]</text>
<polyline fill="none" stroke="black" points="259.5,-106.5 259.5,-129.5 "/>
<text text-anchor="middle" x="364" y="-114.3" font-family="Times,serif" font-size="14.00">right = [0x503000000100]</text>
</g>
<!-- node0x503000000040&#45;&gt;node0x503000000070 -->
<g id="edge1" class="edge">
<title>node0x503000000040&#45;&gt;node0x503000000070</title>
<path fill="none" stroke="black" d="M392.04,-212.38C373.71,-202.18 353.44,-190.91 334.58,-180.42"/>
<polygon fill="black" stroke="black" points="336.19,-177.31 325.75,-175.51 332.79,-183.43 336.19,-177.31"/>
</g>
<!-- node0x5030000000a0 -->
<g id="node3" class="node">
<title>node0x5030000000a0</title>
<path fill="#ffffd0" stroke="black" d="M498,-106.5C498,-106.5 783,-106.5 783,-106.5 789,-106.5 795,-112.5 795,-118.5 795,-118.5 795,-163.5 795,-163.5 795,-169.5 789,-175.5 783,-175.5 783,-175.5 498,-175.5 498,-175.5 492,-175.5 486,-169.5 486,-163.5 486,-163.5 486,-118.5 486,-118.5 486,-112.5 492,-106.5 498,-106.5"/>
<text text-anchor="middle" x="640.5" y="-160.3" font-family="Times,serif" font-size="14.00">[0x5030000000a0]</text>
<polyline fill="none" stroke="black" points="486,-152.5 795,-152.5 "/>
<text text-anchor="middle" x="640.5" y="-137.3" font-family="Times,serif" font-size="14.00">data = 70</text>
<polyline fill="none" stroke="black" points="486,-129.5 795,-129.5 "/>
<text text-anchor="middle" x="584.5" y="-114.3" font-family="Times,serif" font-size="14.00">left = [0x503000000130]</text>
<polyline fill="none" stroke="black" points="683,-106.5 683,-129.5 "/>
<text text-anchor="middle" x="739" y="-114.3" font-family="Times,serif" font-size="14.00">right = [(nil)]</text>
</g>
<!-- node0x503000000040&#45;&gt;node0x5030000000a0 -->
<g id="edge2" class="edge">
<title>node0x503000000040&#45;&gt;node0x5030000000a0</title>
<path fill="none" stroke="black" d="M513.28,-212.38C531.71,-202.18 552.09,-190.91 571.05,-180.42"/>
<polygon fill="black" stroke="black" points="572.87,-183.41 579.93,-175.51 569.49,-177.28 572.87,-183.41"/>
</g>
<!-- node0x5030000000d0 -->
<g id="node4" class="node">
<title>node0x5030000000d0</title>
<path fill="#ffffd0" stroke="black" d="M12,-0.5C12,-0.5 201,-0.5 201,-0.5 207,-0.5 213,-6.5 213,-12.5 213,-12.5 213,-57.5 213,-57.5 213,-63.5 207,-69.5 201,-69.5 201,-69.5 12,-69.5 12,-69.5 6,-69.5 0,-63.5 0,-57.5 0,-57.5 0,-12.5 0,-12.5 0,-6.5 6,-0.5 12,-0.5"/>
<text text-anchor="middle" x="106.5" y="-54.3" font-family="Times,serif" font-size="14.00">[0x5030000000d0]</text>
<polyline fill="none" stroke="black" points="0,-46.5 213,-46.5 "/>
<text text-anchor="middle" x="106.5" y="-31.3" font-family="Times,serif" font-size="14.00">data = 5</text>
<polyline fill="none" stroke="black" points="0,-23.5 213,-23.5 "/>
<text text-anchor="middle" x="50.5" y="-8.3" font-family="Times,serif" font-size="14.00">left = [(nil)]</text>
<polyline fill="none" stroke="black" points="101,-0.5 101,-23.5 "/>
<text text-anchor="middle" x="157" y="-8.3" font-family="Times,serif" font-size="14.00">right = [(nil)]</text>
</g>
<!-- node0x503000000070&#45;&gt;node0x5030000000d0 -->
<g id="edge3" class="edge">
<title>node0x503000000070&#45;&gt;node0x5030000000d0</title>
<path fill="none" stroke="black" d="M213.88,-106.23C198.73,-96.33 182.03,-85.41 166.41,-75.19"/>
<polygon fill="black" stroke="black" points="168.15,-72.14 157.86,-69.6 164.32,-78 168.15,-72.14"/>
</g>
<!-- node0x503000000100 -->
<g id="node5" class="node">
<title>node0x503000000100</title>
<path fill="#ffffd0" stroke="black" d="M243,-0.5C243,-0.5 432,-0.5 432,-0.5 438,-0.5 444,-6.5 444,-12.5 444,-12.5 444,-57.5 444,-57.5 444,-63.5 438,-69.5 432,-69.5 432,-69.5 243,-69.5 243,-69.5 237,-69.5 231,-63.5 231,-57.5 231,-57.5 231,-12.5 231,-12.5 231,-6.5 237,-0.5 243,-0.5"/>
<text text-anchor="middle" x="337.5" y="-54.3" font-family="Times,serif" font-size="14.00">[0x503000000100]</text>
<polyline fill="none" stroke="black" points="231,-46.5 444,-46.5 "/>
<text text-anchor="middle" x="337.5" y="-31.3" font-family="Times,serif" font-size="14.00">data = 15</text>
<polyline fill="none" stroke="black" points="231,-23.5 444,-23.5 "/>
<text text-anchor="middle" x="281.5" y="-8.3" font-family="Times,serif" font-size="14.00">left = [(nil)]</text>
<polyline fill="none" stroke="black" points="332,-0.5 332,-23.5 "/>
<text text-anchor="middle" x="388" y="-8.3" font-family="Times,serif" font-size="14.00">right = [(nil)]</text>
</g>
<!-- node0x503000000070&#45;&gt;node0x503000000100 -->
<g id="edge4" class="edge">
<title>node0x503000000070&#45;&gt;node0x503000000100</title>
<path fill="none" stroke="black" d="M288.88,-106.23C295.1,-97.24 301.9,-87.42 308.39,-78.04"/>
<polygon fill="black" stroke="black" points="311.43,-79.81 314.24,-69.6 305.67,-75.83 311.43,-79.81"/>
</g>
<!-- node0x503000000130 -->
<g id="node6" class="node">
<title>node0x503000000130</title>
<path fill="#ffffd0" stroke="black" d="M546,-0.5C546,-0.5 735,-0.5 735,-0.5 741,-0.5 747,-6.5 747,-12.5 747,-12.5 747,-57.5 747,-57.5 747,-63.5 741,-69.5 735,-69.5 735,-69.5 546,-69.5 546,-69.5 540,-69.5 534,-63.5 534,-57.5 534,-57.5 534,-12.5 534,-12.5 534,-6.5 540,-0.5 546,-0.5"/>
<text text-anchor="middle" x="640.5" y="-54.3" font-family="Times,serif" font-size="14.00">[0x503000000130]</text>
<polyline fill="none" stroke="black" points="534,-46.5 747,-46.5 "/>
<text text-anchor="middle" x="640.5" y="-31.3" font-family="Times,serif" font-size="14.00">data = 60</text>
<polyline fill="none" stroke="black" points="534,-23.5 747,-23.5 "/>
<text text-anchor="middle" x="584.5" y="-8.3" font-family="Times,serif" font-size="14.00">left = [(nil)]</text>
<polyline fill="none" stroke="black" points="635,-0.5 635,-23.5 "/>
<text text-anchor="middle" x="691" y="-8.3" font-family="Times,serif" font-size="14.00">right = [(nil)]</text>
</g>
<!-- node0x5030000000a0&#45;&gt;node0x503000000130 -->
<g id="edge5" class="edge">
<title>node0x5030000000a0&#45;&gt;node0x503000000130</title>
<path fill="none" stroke="black" d="M640.5,-106.23C640.5,-97.79 640.5,-88.62 640.5,-79.77"/>
<polygon fill="black" stroke="black" points="644,-79.6 640.5,-69.6 637,-79.6 644,-79.6"/>
</g>
</g>
</svg>
