<?xml version="1.0" encoding="UTF-8" standalone="no"?>
<!DOCTYPE svg PUBLIC "-//W3C//DTD SVG 1.1//EN"
 "http://www.w3.org/Graphics/SVG/1.1/DTD/svg11.dtd">
<!-- Generated by graphviz version 2.43.0 (0)
 -->
<!-- Title: %3 Pages: 1 -->
<svg width="452pt" height="230pt"
 viewBox="0.00 0.00 452.00 230.00" xmlns="http://www.w3.org/2000/svg" xmlns:xlink="http://www.w3.org/1999/xlink">
<g id="graph0" class="graph" transform="scale(1 1) rotate(0) translate(4 226)">
<title>%3</title>
<!-- node0x504000000310 -->
<g id="node1" class="node">
<title>node0x504000000310</title>
<path fill="#ffe0e0" stroke="black" d="M30.5,-129.5C30.5,-129.5 412.5,-129.5 412.5,-129.5 418.5,-129.5 424.5,-135.5 424.5,-141.5 424.5,-141.5 424.5,-209.5 424.5,-209.5 424.5,-215.5 418.5,-221.5 412.5,-221.5 412.5,-221.5 30.5,-221.5 30.5,-221.5 24.5,-221.5 18.5,-215.5 18.5,-209.5 18.5,-209.5 18.5,-141.5 18.5,-141.5 18.5,-135.5 24.5,-129.5 30.5,-129.5"/>
<text text-anchor="middle" x="221.5" y="-206.3" font-family="Times,serif" font-size="14.00">[0x504000000310]</text>
<polyline fill="none" stroke="black" points="18.5,-198.5 424.5,-198.5 "/>
<text text-anchor="middle" x="221.5" y="-183.3" font-family="Times,serif" font-size="14.00">data = middle defender</text>
<polyline fill="none" stroke="black" points="18.5,-175.5 424.5,-175.5 "/>
<text text-anchor="middle" x="221.5" y="-160.3" font-family="Times,serif" font-size="14.00">shoot_free = 1</text>
<polyline fill="none" stroke="black" points="18.5,-152.5 424.5,-152.5 "/>
<text text-anchor="middle" x="117" y="-137.3" font-family="Times,serif" font-size="14.00">left = [0x504000000450]</text>
<polyline fill="none" stroke="black" points="215.5,-129.5 215.5,-152.5 "/>
<text text-anchor="middle" x="320" y="-137.3" font-family="Times,serif" font-size="14.00">right = [0x504000000490]</text>
</g>
<!-- node0x504000000450 -->
<g id="node2" class="node">
<title>node0x504000000450</title>
<path fill="#ffe0e0" stroke="black" d="M12,-0.5C12,-0.5 201,-0.5 201,-0.5 207,-0.5 213,-6.5 213,-12.5 213,-12.5 213,-80.5 213,-80.5 213,-86.5 207,-92.5 201,-92.5 201,-92.5 12,-92.5 12,-92.5 6,-92.5 0,-86.5 0,-80.5 0,-80.5 0,-12.5 0,-12.5 0,-6.5 6,-0.5 12,-0.5"/>
<text text-anchor="middle" x="106.5" y="-77.3" font-family="Times,serif" font-size="14.00">[0x504000000450]</text>
<polyline fill="none" stroke="black" points="0,-69.5 213,-69.5 "/>
<text text-anchor="middle" x="106.5" y="-54.3" font-family="Times,serif" font-size="14.00">data = maxon</text>
<polyline fill="none" stroke="black" points="0,-46.5 213,-46.5 "/>
<text text-anchor="middle" x="106.5" y="-31.3" font-family="Times,serif" font-size="14.00">shoot_free = 1</text>
<polyline fill="none" stroke="black" points="0,-23.5 213,-23.5 "/>
<text text-anchor="middle" x="50.5" y="-8.3" font-family="Times,serif" font-size="14.00">left = [(nil)]</text>
<polyline fill="none" stroke="black" points="101,-0.5 101,-23.5 "/>
<text text-anchor="middle" x="157" y="-8.3" font-family="Times,serif" font-size="14.00">right = [(nil)]</text>
</g>
<!-- node0x504000000310&#45;&gt;node0x504000000450 -->
<g id="edge1" class="edge">
<title>node0x504000000310&#45;&gt;node0x504000000450</title>
<path fill="none" stroke="black" d="M180.63,-129.37C172.18,-120.03 163.19,-110.11 154.51,-100.52"/>
<polygon fill="black" stroke="black" points="156.93,-97.98 147.62,-92.92 151.74,-102.68 156.93,-97.98"/>
</g>
<!-- node0x504000000490 -->
<g id="node3" class="node">
<title>node0x504000000490</title>
<path fill="#ffffd0" stroke="black" d="M243,-0.5C243,-0.5 432,-0.5 432,-0.5 438,-0.5 444,-6.5 444,-12.5 444,-12.5 444,-80.5 444,-80.5 444,-86.5 438,-92.5 432,-92.5 432,-92.5 243,-92.5 243,-92.5 237,-92.5 231,-86.5 231,-80.5 231,-80.5 231,-12.5 231,-12.5 231,-6.5 237,-0.5 243,-0.5"/>
<text text-anchor="middle" x="337.5" y="-77.3" font-family="Times,serif" font-size="14.00">[0x504000000490]</text>
<polyline fill="none" stroke="black" points="231,-69.5 444,-69.5 "/>
<text text-anchor="middle" x="337.5" y="-54.3" font-family="Times,serif" font-size="14.00">data = gosha</text>
<polyline fill="none" stroke="black" points="231,-46.5 444,-46.5 "/>
<text text-anchor="middle" x="337.5" y="-31.3" font-family="Times,serif" font-size="14.00">shoot_free = 0</text>
<polyline fill="none" stroke="black" points="231,-23.5 444,-23.5 "/>
<text text-anchor="middle" x="281.5" y="-8.3" font-family="Times,serif" font-size="14.00">left = [(nil)]</text>
<polyline fill="none" stroke="black" points="332,-0.5 332,-23.5 "/>
<text text-anchor="middle" x="388" y="-8.3" font-family="Times,serif" font-size="14.00">right = [(nil)]</text>
</g>
<!-- node0x504000000310&#45;&gt;node0x504000000490 -->
<g id="edge2" class="edge">
<title>node0x504000000310&#45;&gt;node0x504000000490</title>
<path fill="none" stroke="black" d="M262.72,-129.37C271.25,-120.03 280.31,-110.11 289.07,-100.52"/>
<polygon fill="black" stroke="black" points="291.86,-102.66 296.02,-92.92 286.69,-97.94 291.86,-102.66"/>
</g>
</g>
</svg>
