<?xml version="1.0" encoding="UTF-8" standalone="no"?>
<!DOCTYPE svg PUBLIC "-//W3C//DTD SVG 1.1//EN"
 "http://www.w3.org/Graphics/SVG/1.1/DTD/svg11.dtd">
<!-- Generated by graphviz version 2.43.0 (0)
 -->
<!-- Title: %3 Pages: 1 -->
<svg width="876pt" height="396pt"
 viewBox="0.00 0.00 876.00 396.00" xmlns="http://www.w3.org/2000/svg" xmlns:xlink="http://www.w3.org/1999/xlink">
<g id="graph0" class="graph" transform="scale(1 1) rotate(0) translate(4 392)">
<title>%3</title>
<!-- node0x503000000040 -->
<g id="node1" class="node">
<title>node0x503000000040</title>
<path fill="#ffffd0" stroke="black" d="M335,-318.5C335,-318.5 716,-318.5 716,-318.5 722,-318.5 728,-324.5 728,-330.5 728,-330.5 728,-375.5 728,-375.5 728,-381.5 722,-387.5 716,-387.5 716,-387.5 335,-387.5 335,-387.5 329,-387.5 323,-381.5 323,-375.5 323,-375.5 323,-330.5 323,-330.5 323,-324.5 329,-318.5 335,-318.5"/>
<text text-anchor="middle" x="525.5" y="-372.3" font-family="Times,serif" font-size="14.00">[0x503000000040]</text>
<polyline fill="none" stroke="black" points="323,-364.5 728,-364.5 "/>
<text text-anchor="middle" x="525.5" y="-349.3" font-family="Times,serif" font-size="14.00">data = 50</text>
<polyline fill="none" stroke="black" points="323,-341.5 728,-341.5 "/>
<text text-anchor="middle" x="421.5" y="-326.3" font-family="Times,serif" font-size="14.00">left = [0x503000000070]</text>
<polyline fill="none" stroke="black" points="520,-318.5 520,-341.5 "/>
<text text-anchor="middle" x="624" y="-326.3" font-family="Times,serif" font-size="14.00">right = [0x5030000000a0]</text>
</g>
<!-- node0x503000000070 -->
<g id="node2" class="node">
<title>node0x503000000070</title>
<path fill="#ffffd0" stroke="black" d="M147.5,-212.5C147.5,-212.5 529.5,-212.5 529.5,-212.5 535.5,-212.5 541.5,-218.5 541.5,-224.5 541.5,-224.5 541.5,-269.5 541.5,-269.5 541.5,-275.5 535.5,-281.5 529.5,-281.5 529.5,-281.5 147.5,-281.5 147.5,-281.5 141.5,-281.5 135.5,-275.5 135.5,-269.5 135.5,-269.5 135.5,-224.5 135.5,-224.5 135.5,-218.5 141.5,-212.5 147.5,-212.5"/>
<text text-anchor="middle" x="338.5" y="-266.3" font-family="Times,serif" font-size="14.00">[0x503000000070]</text>
<polyline fill="none" stroke="black" points="135.5,-258.5 541.5,-258.5 "/>
<text text-anchor="middle" x="338.5" y="-243.3" font-family="Times,serif" font-size="14.00">data = 12</text>
<polyline fill="none" stroke="black" points="135.5,-235.5 541.5,-235.5 "/>
<text text-anchor="middle" x="234" y="-220.3" font-family="Times,serif" font-size="14.00">left = [0x5030000000d0]</text>
<polyline fill="none" stroke="black" points="332.5,-212.5 332.5,-235.5 "/>
<text text-anchor="middle" x="437" y="-220.3" font-family="Times,serif" font-size="14.00">right = [0x503000000100]</text>
</g>
<!-- node0x503000000040&#45;&gt;node0x503000000070 -->
<g id="edge1" class="edge">
<title>node0x503000000040&#45;&gt;node0x503000000070</title>
<path fill="none" stroke="black" d="M465.04,-318.38C446.71,-308.18 426.44,-296.91 407.58,-286.42"/>
<polygon fill="black" stroke="black" points="409.19,-283.31 398.75,-281.51 405.79,-289.43 409.19,-283.31"/>
</g>
<!-- node0x5030000000a0 -->
<g id="node3" class="node">
<title>node0x5030000000a0</title>
<path fill="#ffffd0" stroke="black" d="M571,-212.5C571,-212.5 856,-212.5 856,-212.5 862,-212.5 868,-218.5 868,-224.5 868,-224.5 868,-269.5 868,-269.5 868,-275.5 862,-281.5 856,-281.5 856,-281.5 571,-281.5 571,-281.5 565,-281.5 559,-275.5 559,-269.5 559,-269.5 559,-224.5 559,-224.5 559,-218.5 565,-212.5 571,-212.5"/>
<text text-anchor="middle" x="713.5" y="-266.3" font-family="Times,serif" font-size="14.00">[0x5030000000a0]</text>
<polyline fill="none" stroke="black" points="559,-258.5 868,-258.5 "/>
<text text-anchor="middle" x="713.5" y="-243.3" font-family="Times,serif" font-size="14.00">data = 70</text>
<polyline fill="none" stroke="black" points="559,-235.5 868,-235.5 "/>
<text text-anchor="middle" x="657.5" y="-220.3" font-family="Times,serif" font-size="14.00">left = [0x503000000130]</text>
<polyline fill="none" stroke="black" points="756,-212.5 756,-235.5 "/>
<text text-anchor="middle" x="812" y="-220.3" font-family="Times,serif" font-size="14.00">right = [(nil)]</text>
</g>
<!-- node0x503000000040&#45;&gt;node0x5030000000a0 -->
<g id="edge2" class="edge">
<title>node0x503000000040&#45;&gt;node0x5030000000a0</title>
<path fill="none" stroke="black" d="M586.28,-318.38C604.71,-308.18 625.09,-296.91 644.05,-286.42"/>
<polygon fill="black" stroke="black" points="645.87,-289.41 652.93,-281.51 642.49,-283.28 645.87,-289.41"/>
</g>
<!-- node0x5030000000d0 -->
<g id="node4" class="node">
<title>node0x5030000000d0</title>
<path fill="#ffffd0" stroke="black" d="M12,-106.5C12,-106.5 201,-106.5 201,-106.5 207,-106.5 213,-112.5 213,-118.5 213,-118.5 213,-163.5 213,-163.5 213,-169.5 207,-175.5 201,-175.5 201,-175.5 12,-175.5 12,-175.5 6,-175.5 0,-169.5 0,-163.5 0,-163.5 0,-118.5 0,-118.5 0,-112.5 6,-106.5 12,-106.5"/>
<text text-anchor="middle" x="106.5" y="-160.3" font-family="Times,serif" font-size="14.00">[0x5030000000d0]</text>
<polyline fill="none" stroke="black" points="0,-152.5 213,-152.5 "/>
<text text-anchor="middle" x="106.5" y="-137.3" font-family="Times,serif" font-size="14.00">data = 5</text>
<polyline fill="none" stroke="black" points="0,-129.5 213,-129.5 "/>
<text text-anchor="middle" x="50.5" y="-114.3" font-family="Times,serif" font-size="14.00">left = [(nil)]</text>
<polyline fill="none" stroke="black" points="101,-106.5 101,-129.5 "/>
<text text-anchor="middle" x="157" y="-114.3" font-family="Times,serif" font-size="14.00">right = [(nil)]</text>
</g>
<!-- node0x503000000070&#45;&gt;node0x5030000000d0 -->
<g id="edge3" class="edge">
<title>node0x503000000070&#45;&gt;node0x5030000000d0</title>
<path fill="none" stroke="black" d="M263.5,-212.38C240.24,-201.95 214.46,-190.39 190.62,-179.71"/>
<polygon fill="black" stroke="black" points="191.8,-176.4 181.25,-175.51 188.94,-182.79 191.8,-176.4"/>
</g>
<!-- node0x503000000100 -->
<g id="node5" class="node">
<title>node0x503000000100</title>
<path fill="#ffffd0" stroke="black" d="M243.5,-106.5C243.5,-106.5 529.5,-106.5 529.5,-106.5 535.5,-106.5 541.5,-112.5 541.5,-118.5 541.5,-118.5 541.5,-163.5 541.5,-163.5 541.5,-169.5 535.5,-175.5 529.5,-175.5 529.5,-175.5 243.5,-175.5 243.5,-175.5 237.5,-175.5 231.5,-169.5 231.5,-163.5 231.5,-163.5 231.5,-118.5 231.5,-118.5 231.5,-112.5 237.5,-106.5 243.5,-106.5"/>
<text text-anchor="middle" x="386.5" y="-160.3" font-family="Times,serif" font-size="14.00">[0x503000000100]</text>
<polyline fill="none" stroke="black" points="231.5,-152.5 541.5,-152.5 "/>
<text text-anchor="middle" x="386.5" y="-137.3" font-family="Times,serif" font-size="14.00">data = 15</text>
<polyline fill="none" stroke="black" points="231.5,-129.5 541.5,-129.5 "/>
<text text-anchor="middle" x="282" y="-114.3" font-family="Times,serif" font-size="14.00">left = [(nil)]</text>
<polyline fill="none" stroke="black" points="332.5,-106.5 332.5,-129.5 "/>
<text text-anchor="middle" x="437" y="-114.3" font-family="Times,serif" font-size="14.00">right = [0x503000000160]</text>
</g>
<!-- node0x503000000070&#45;&gt;node0x503000000100 -->
<g id="edge4" class="edge">
<title>node0x503000000070&#45;&gt;node0x503000000100</title>
<path fill="none" stroke="black" d="M354.08,-212.23C358.11,-203.52 362.49,-194.02 366.7,-184.91"/>
<polygon fill="black" stroke="black" points="369.98,-186.14 370.99,-175.6 363.63,-183.21 369.98,-186.14"/>
</g>
<!-- node0x503000000130 -->
<g id="node7" class="node">
<title>node0x503000000130</title>
<path fill="#ffffd0" stroke="black" d="M619,-106.5C619,-106.5 808,-106.5 808,-106.5 814,-106.5 820,-112.5 820,-118.5 820,-118.5 820,-163.5 820,-163.5 820,-169.5 814,-175.5 808,-175.5 808,-175.5 619,-175.5 619,-175.5 613,-175.5 607,-169.5 607,-163.5 607,-163.5 607,-118.5 607,-118.5 607,-112.5 613,-106.5 619,-106.5"/>
<text text-anchor="middle" x="713.5" y="-160.3" font-family="Times,serif" font-size="14.00">[0x503000000130]</text>
<polyline fill="none" stroke="black" points="607,-152.5 820,-152.5 "/>
<text text-anchor="middle" x="713.5" y="-137.3" font-family="Times,serif" font-size="14.00">data = 60</text>
<polyline fill="none" stroke="black" points="607,-129.5 820,-129.5 "/>
<text text-anchor="middle" x="657.5" y="-114.3" font-family="Times,serif" font-size="14.00">left = [(nil)]</text>
<polyline fill="none" stroke="black" points="708,-106.5 708,-129.5 "/>
<text text-anchor="middle" x="764" y="-114.3" font-family="Times,serif" font-size="14.00">right = [(nil)]</text>
</g>
<!-- node0x5030000000a0&#45;&gt;node0x503000000130 -->
<g id="edge6" class="edge">
<title>node0x5030000000a0&#45;&gt;node0x503000000130</title>
<path fill="none" stroke="black" d="M713.5,-212.23C713.5,-203.79 713.5,-194.62 713.5,-185.77"/>
<polygon fill="black" stroke="black" points="717,-185.6 713.5,-175.6 710,-185.6 717,-185.6"/>
</g>
<!-- node0x503000000160 -->
<g id="node6" class="node">
<title>node0x503000000160</title>
<path fill="#ffffd0" stroke="black" d="M292,-0.5C292,-0.5 481,-0.5 481,-0.5 487,-0.5 493,-6.5 493,-12.5 493,-12.5 493,-57.5 493,-57.5 493,-63.5 487,-69.5 481,-69.5 481,-69.5 292,-69.5 292,-69.5 286,-69.5 280,-63.5 280,-57.5 280,-57.5 280,-12.5 280,-12.5 280,-6.5 286,-0.5 292,-0.5"/>
<text text-anchor="middle" x="386.5" y="-54.3" font-family="Times,serif" font-size="14.00">[0x503000000160]</text>
<polyline fill="none" stroke="black" points="280,-46.5 493,-46.5 "/>
<text text-anchor="middle" x="386.5" y="-31.3" font-family="Times,serif" font-size="14.00">data = 17</text>
<polyline fill="none" stroke="black" points="280,-23.5 493,-23.5 "/>
<text text-anchor="middle" x="330.5" y="-8.3" font-family="Times,serif" font-size="14.00">left = [(nil)]</text>
<polyline fill="none" stroke="black" points="381,-0.5 381,-23.5 "/>
<text text-anchor="middle" x="437" y="-8.3" font-family="Times,serif" font-size="14.00">right = [(nil)]</text>
</g>
<!-- node0x503000000100&#45;&gt;node0x503000000160 -->
<g id="edge5" class="edge">
<title>node0x503000000100&#45;&gt;node0x503000000160</title>
<path fill="none" stroke="black" d="M386.5,-106.23C386.5,-97.79 386.5,-88.62 386.5,-79.77"/>
<polygon fill="black" stroke="black" points="390,-79.6 386.5,-69.6 383,-79.6 390,-79.6"/>
</g>
</g>
</svg>
