<?xml version="1.0" encoding="UTF-8" standalone="no"?>
<!DOCTYPE svg PUBLIC "-//W3C//DTD SVG 1.1//EN"
 "http://www.w3.org/Graphics/SVG/1.1/DTD/svg11.dtd">
<!-- Generated by graphviz version 2.43.0 (0)
 -->
<!-- Title: %3 Pages: 1 -->
<svg width="317pt" height="714pt"
 viewBox="0.00 0.00 317.00 714.00" xmlns="http://www.w3.org/2000/svg" xmlns:xlink="http://www.w3.org/1999/xlink">
<g id="graph0" class="graph" transform="scale(1 1) rotate(0) translate(4 710)">
<title>%3</title>
<!-- node0x503000000040 -->
<g id="node1" class="node">
<title>node0x503000000040</title>
<path fill="#ffffd0" stroke="black" d="M12,-636.5C12,-636.5 297,-636.5 297,-636.5 303,-636.5 309,-642.5 309,-648.5 309,-648.5 309,-693.5 309,-693.5 309,-699.5 303,-705.5 297,-705.5 297,-705.5 12,-705.5 12,-705.5 6,-705.5 0,-699.5 0,-693.5 0,-693.5 0,-648.5 0,-648.5 0,-642.5 6,-636.5 12,-636.5"/>
<text text-anchor="middle" x="154.5" y="-690.3" font-family="Times,serif" font-size="14.00">[0x503000000040]</text>
<polyline fill="none" stroke="black" points="0,-682.5 309,-682.5 "/>
<text text-anchor="middle" x="154.5" y="-667.3" font-family="Times,serif" font-size="14.00">data = animal</text>
<polyline fill="none" stroke="black" points="0,-659.5 309,-659.5 "/>
<text text-anchor="middle" x="98.5" y="-644.3" font-family="Times,serif" font-size="14.00">left = [0x503000000070]</text>
<polyline fill="none" stroke="black" points="197,-636.5 197,-659.5 "/>
<text text-anchor="middle" x="253" y="-644.3" font-family="Times,serif" font-size="14.00">right = [(nil)]</text>
</g>
<!-- node0x503000000070 -->
<g id="node2" class="node">
<title>node0x503000000070</title>
<path fill="#ffffd0" stroke="black" d="M12,-530.5C12,-530.5 297,-530.5 297,-530.5 303,-530.5 309,-536.5 309,-542.5 309,-542.5 309,-587.5 309,-587.5 309,-593.5 303,-599.5 297,-599.5 297,-599.5 12,-599.5 12,-599.5 6,-599.5 0,-593.5 0,-587.5 0,-587.5 0,-542.5 0,-542.5 0,-536.5 6,-530.5 12,-530.5"/>
<text text-anchor="middle" x="154.5" y="-584.3" font-family="Times,serif" font-size="14.00">[0x503000000070]</text>
<polyline fill="none" stroke="black" points="0,-576.5 309,-576.5 "/>
<text text-anchor="middle" x="154.5" y="-561.3" font-family="Times,serif" font-size="14.00">data = poltorashka</text>
<polyline fill="none" stroke="black" points="0,-553.5 309,-553.5 "/>
<text text-anchor="middle" x="98.5" y="-538.3" font-family="Times,serif" font-size="14.00">left = [0x5030000000d0]</text>
<polyline fill="none" stroke="black" points="197,-530.5 197,-553.5 "/>
<text text-anchor="middle" x="253" y="-538.3" font-family="Times,serif" font-size="14.00">right = [(nil)]</text>
</g>
<!-- node0x503000000040&#45;&gt;node0x503000000070 -->
<g id="edge1" class="edge">
<title>node0x503000000040&#45;&gt;node0x503000000070</title>
<path fill="none" stroke="black" d="M154.5,-636.23C154.5,-627.79 154.5,-618.62 154.5,-609.77"/>
<polygon fill="black" stroke="black" points="158,-609.6 154.5,-599.6 151,-609.6 158,-609.6"/>
</g>
<!-- node0x5030000000d0 -->
<g id="node3" class="node">
<title>node0x5030000000d0</title>
<path fill="#ffffd0" stroke="black" d="M12,-424.5C12,-424.5 297,-424.5 297,-424.5 303,-424.5 309,-430.5 309,-436.5 309,-436.5 309,-481.5 309,-481.5 309,-487.5 303,-493.5 297,-493.5 297,-493.5 12,-493.5 12,-493.5 6,-493.5 0,-487.5 0,-481.5 0,-481.5 0,-436.5 0,-436.5 0,-430.5 6,-424.5 12,-424.5"/>
<text text-anchor="middle" x="154.5" y="-478.3" font-family="Times,serif" font-size="14.00">[0x5030000000d0]</text>
<polyline fill="none" stroke="black" points="0,-470.5 309,-470.5 "/>
<text text-anchor="middle" x="154.5" y="-455.3" font-family="Times,serif" font-size="14.00">data = teaches discrete math</text>
<polyline fill="none" stroke="black" points="0,-447.5 309,-447.5 "/>
<text text-anchor="middle" x="98.5" y="-432.3" font-family="Times,serif" font-size="14.00">left = [0x503000000100]</text>
<polyline fill="none" stroke="black" points="197,-424.5 197,-447.5 "/>
<text text-anchor="middle" x="253" y="-432.3" font-family="Times,serif" font-size="14.00">right = [(nil)]</text>
</g>
<!-- node0x503000000070&#45;&gt;node0x5030000000d0 -->
<g id="edge2" class="edge">
<title>node0x503000000070&#45;&gt;node0x5030000000d0</title>
<path fill="none" stroke="black" d="M154.5,-530.23C154.5,-521.79 154.5,-512.62 154.5,-503.77"/>
<polygon fill="black" stroke="black" points="158,-503.6 154.5,-493.6 151,-503.6 158,-503.6"/>
</g>
<!-- node0x503000000100 -->
<g id="node4" class="node">
<title>node0x503000000100</title>
<path fill="#ffffd0" stroke="black" d="M12,-318.5C12,-318.5 297,-318.5 297,-318.5 303,-318.5 309,-324.5 309,-330.5 309,-330.5 309,-375.5 309,-375.5 309,-381.5 303,-387.5 297,-387.5 297,-387.5 12,-387.5 12,-387.5 6,-387.5 0,-381.5 0,-375.5 0,-375.5 0,-330.5 0,-330.5 0,-324.5 6,-318.5 12,-318.5"/>
<text text-anchor="middle" x="154.5" y="-372.3" font-family="Times,serif" font-size="14.00">[0x503000000100]</text>
<polyline fill="none" stroke="black" points="0,-364.5 309,-364.5 "/>
<text text-anchor="middle" x="154.5" y="-349.3" font-family="Times,serif" font-size="14.00">data = burcev</text>
<polyline fill="none" stroke="black" points="0,-341.5 309,-341.5 "/>
<text text-anchor="middle" x="98.5" y="-326.3" font-family="Times,serif" font-size="14.00">left = [0x503000000130]</text>
<polyline fill="none" stroke="black" points="197,-318.5 197,-341.5 "/>
<text text-anchor="middle" x="253" y="-326.3" font-family="Times,serif" font-size="14.00">right = [(nil)]</text>
</g>
<!-- node0x5030000000d0&#45;&gt;node0x503000000100 -->
<g id="edge3" class="edge">
<title>node0x5030000000d0&#45;&gt;node0x503000000100</title>
<path fill="none" stroke="black" d="M154.5,-424.23C154.5,-415.79 154.5,-406.62 154.5,-397.77"/>
<polygon fill="black" stroke="black" points="158,-397.6 154.5,-387.6 151,-397.6 158,-397.6"/>
</g>
<!-- node0x503000000130 -->
<g id="node5" class="node">
<title>node0x503000000130</title>
<path fill="#ffffd0" stroke="black" d="M12,-212.5C12,-212.5 297,-212.5 297,-212.5 303,-212.5 309,-218.5 309,-224.5 309,-224.5 309,-269.5 309,-269.5 309,-275.5 303,-281.5 297,-281.5 297,-281.5 12,-281.5 12,-281.5 6,-281.5 0,-275.5 0,-269.5 0,-269.5 0,-224.5 0,-224.5 0,-218.5 6,-212.5 12,-212.5"/>
<text text-anchor="middle" x="154.5" y="-266.3" font-family="Times,serif" font-size="14.00">[0x503000000130]</text>
<polyline fill="none" stroke="black" points="0,-258.5 309,-258.5 "/>
<text text-anchor="middle" x="154.5" y="-243.3" font-family="Times,serif" font-size="14.00">data = teaches physics</text>
<polyline fill="none" stroke="black" points="0,-235.5 309,-235.5 "/>
<text text-anchor="middle" x="98.5" y="-220.3" font-family="Times,serif" font-size="14.00">left = [0x503000000160]</text>
<polyline fill="none" stroke="black" points="197,-212.5 197,-235.5 "/>
<text text-anchor="middle" x="253" y="-220.3" font-family="Times,serif" font-size="14.00">right = [(nil)]</text>
</g>
<!-- node0x503000000100&#45;&gt;node0x503000000130 -->
<g id="edge4" class="edge">
<title>node0x503000000100&#45;&gt;node0x503000000130</title>
<path fill="none" stroke="black" d="M154.5,-318.23C154.5,-309.79 154.5,-300.62 154.5,-291.77"/>
<polygon fill="black" stroke="black" points="158,-291.6 154.5,-281.6 151,-291.6 158,-291.6"/>
</g>
<!-- node0x503000000160 -->
<g id="node6" class="node">
<title>node0x503000000160</title>
<path fill="#ffffd0" stroke="black" d="M12,-106.5C12,-106.5 297,-106.5 297,-106.5 303,-106.5 309,-112.5 309,-118.5 309,-118.5 309,-163.5 309,-163.5 309,-169.5 303,-175.5 297,-175.5 297,-175.5 12,-175.5 12,-175.5 6,-175.5 0,-169.5 0,-163.5 0,-163.5 0,-118.5 0,-118.5 0,-112.5 6,-106.5 12,-106.5"/>
<text text-anchor="middle" x="154.5" y="-160.3" font-family="Times,serif" font-size="14.00">[0x503000000160]</text>
<polyline fill="none" stroke="black" points="0,-152.5 309,-152.5 "/>
<text text-anchor="middle" x="154.5" y="-137.3" font-family="Times,serif" font-size="14.00">data = ovchos</text>
<polyline fill="none" stroke="black" points="0,-129.5 309,-129.5 "/>
<text text-anchor="middle" x="98.5" y="-114.3" font-family="Times,serif" font-size="14.00">left = [0x503000000190]</text>
<polyline fill="none" stroke="black" points="197,-106.5 197,-129.5 "/>
<text text-anchor="middle" x="253" y="-114.3" font-family="Times,serif" font-size="14.00">right = [(nil)]</text>
</g>
<!-- node0x503000000130&#45;&gt;node0x503000000160 -->
<g id="edge5" class="edge">
<title>node0x503000000130&#45;&gt;node0x503000000160</title>
<path fill="none" stroke="black" d="M154.5,-212.23C154.5,-203.79 154.5,-194.62 154.5,-185.77"/>
<polygon fill="black" stroke="black" points="158,-185.6 154.5,-175.6 151,-185.6 158,-185.6"/>
</g>
<!-- node0x503000000190 -->
<g id="node7" class="node">
<title>node0x503000000190</title>
<path fill="#ffffd0" stroke="black" d="M60,-0.5C60,-0.5 249,-0.5 249,-0.5 255,-0.5 261,-6.5 261,-12.5 261,-12.5 261,-57.5 261,-57.5 261,-63.5 255,-69.5 249,-69.5 249,-69.5 60,-69.5 60,-69.5 54,-69.5 48,-63.5 48,-57.5 48,-57.5 48,-12.5 48,-12.5 48,-6.5 54,-0.5 60,-0.5"/>
<text text-anchor="middle" x="154.5" y="-54.3" font-family="Times,serif" font-size="14.00">[0x503000000190]</text>
<polyline fill="none" stroke="black" points="48,-46.5 261,-46.5 "/>
<text text-anchor="middle" x="154.5" y="-31.3" font-family="Times,serif" font-size="14.00">data = chubarov</text>
<polyline fill="none" stroke="black" points="48,-23.5 261,-23.5 "/>
<text text-anchor="middle" x="98.5" y="-8.3" font-family="Times,serif" font-size="14.00">left = [(nil)]</text>
<polyline fill="none" stroke="black" points="149,-0.5 149,-23.5 "/>
<text text-anchor="middle" x="205" y="-8.3" font-family="Times,serif" font-size="14.00">right = [(nil)]</text>
</g>
<!-- node0x503000000160&#45;&gt;node0x503000000190 -->
<g id="edge6" class="edge">
<title>node0x503000000160&#45;&gt;node0x503000000190</title>
<path fill="none" stroke="black" d="M154.5,-106.23C154.5,-97.79 154.5,-88.62 154.5,-79.77"/>
<polygon fill="black" stroke="black" points="158,-79.6 154.5,-69.6 151,-79.6 158,-79.6"/>
</g>
</g>
</svg>
