<?xml version="1.0" encoding="UTF-8" standalone="no"?>
<!DOCTYPE svg PUBLIC "-//W3C//DTD SVG 1.1//EN"
 "http://www.w3.org/Graphics/SVG/1.1/DTD/svg11.dtd">
<!-- Generated by graphviz version 2.43.0 (0)
 -->
<!-- Title: %3 Pages: 1 -->
<svg width="618pt" height="276pt"
 viewBox="0.00 0.00 617.50 276.00" xmlns="http://www.w3.org/2000/svg" xmlns:xlink="http://www.w3.org/1999/xlink">
<g id="graph0" class="graph" transform="scale(1 1) rotate(0) translate(4 272)">
<title>%3</title>
<!-- node0x5040000002d0 -->
<g id="node1" class="node">
<title>node0x5040000002d0</title>
<path fill="#ffe0e0" stroke="black" d="M100.5,-152.5C100.5,-152.5 482.5,-152.5 482.5,-152.5 488.5,-152.5 494.5,-158.5 494.5,-164.5 494.5,-164.5 494.5,-255.5 494.5,-255.5 494.5,-261.5 488.5,-267.5 482.5,-267.5 482.5,-267.5 100.5,-267.5 100.5,-267.5 94.5,-267.5 88.5,-261.5 88.5,-255.5 88.5,-255.5 88.5,-164.5 88.5,-164.5 88.5,-158.5 94.5,-152.5 100.5,-152.5"/>
<text text-anchor="middle" x="291.5" y="-252.3" font-family="Times,serif" font-size="14.00">ADDR = [0x5040000002d0]</text>
<polyline fill="none" stroke="black" points="88.5,-244.5 494.5,-244.5 "/>
<text text-anchor="middle" x="291.5" y="-229.3" font-family="Times,serif" font-size="14.00">data [0x503000000040] = discrete analysises semi</text>
<polyline fill="none" stroke="black" points="88.5,-221.5 494.5,-221.5 "/>
<text text-anchor="middle" x="291.5" y="-206.3" font-family="Times,serif" font-size="14.00">shoot_free = 1</text>
<polyline fill="none" stroke="black" points="88.5,-198.5 494.5,-198.5 "/>
<text text-anchor="middle" x="291.5" y="-183.3" font-family="Times,serif" font-size="14.00">parent = [0x504000000250]</text>
<polyline fill="none" stroke="black" points="88.5,-175.5 494.5,-175.5 "/>
<text text-anchor="middle" x="187" y="-160.3" font-family="Times,serif" font-size="14.00">left = [0x5040000008d0]</text>
<polyline fill="none" stroke="black" points="285.5,-152.5 285.5,-175.5 "/>
<text text-anchor="middle" x="390" y="-160.3" font-family="Times,serif" font-size="14.00">right = [0x504000000910]</text>
</g>
<!-- node0x5040000008d0 -->
<g id="node2" class="node">
<title>node0x5040000008d0</title>
<path fill="#ffe0e0" stroke="black" d="M12,-0.5C12,-0.5 257,-0.5 257,-0.5 263,-0.5 269,-6.5 269,-12.5 269,-12.5 269,-103.5 269,-103.5 269,-109.5 263,-115.5 257,-115.5 257,-115.5 12,-115.5 12,-115.5 6,-115.5 0,-109.5 0,-103.5 0,-103.5 0,-12.5 0,-12.5 0,-6.5 6,-0.5 12,-0.5"/>
<text text-anchor="middle" x="134.5" y="-100.3" font-family="Times,serif" font-size="14.00">ADDR = [0x5040000008d0]</text>
<polyline fill="none" stroke="black" points="0,-92.5 269,-92.5 "/>
<text text-anchor="middle" x="134.5" y="-77.3" font-family="Times,serif" font-size="14.00">data [0x502000000010] = Saveliev</text>
<polyline fill="none" stroke="black" points="0,-69.5 269,-69.5 "/>
<text text-anchor="middle" x="134.5" y="-54.3" font-family="Times,serif" font-size="14.00">shoot_free = 1</text>
<polyline fill="none" stroke="black" points="0,-46.5 269,-46.5 "/>
<text text-anchor="middle" x="134.5" y="-31.3" font-family="Times,serif" font-size="14.00">parent = [0x5040000002d0]</text>
<polyline fill="none" stroke="black" points="0,-23.5 269,-23.5 "/>
<text text-anchor="middle" x="64.5" y="-8.3" font-family="Times,serif" font-size="14.00">left = [(nil)]</text>
<polyline fill="none" stroke="black" points="129,-0.5 129,-23.5 "/>
<text text-anchor="middle" x="199" y="-8.3" font-family="Times,serif" font-size="14.00">right = [(nil)]</text>
</g>
<!-- node0x5040000002d0&#45;&gt;node0x5040000008d0 -->
<g id="edge1" class="edge">
<title>node0x5040000002d0&#45;&gt;node0x5040000008d0</title>
<path fill="none" stroke="black" d="M232.15,-152.29C222.01,-142.61 211.43,-132.5 201.12,-122.65"/>
<polygon fill="black" stroke="black" points="203.33,-119.92 193.68,-115.54 198.49,-124.98 203.33,-119.92"/>
</g>
<!-- node0x504000000910 -->
<g id="node3" class="node">
<title>node0x504000000910</title>
<path fill="#ffffd0" stroke="black" d="M299.5,-0.5C299.5,-0.5 597.5,-0.5 597.5,-0.5 603.5,-0.5 609.5,-6.5 609.5,-12.5 609.5,-12.5 609.5,-103.5 609.5,-103.5 609.5,-109.5 603.5,-115.5 597.5,-115.5 597.5,-115.5 299.5,-115.5 299.5,-115.5 293.5,-115.5 287.5,-109.5 287.5,-103.5 287.5,-103.5 287.5,-12.5 287.5,-12.5 287.5,-6.5 293.5,-0.5 299.5,-0.5"/>
<text text-anchor="middle" x="448.5" y="-100.3" font-family="Times,serif" font-size="14.00">ADDR = [0x504000000910]</text>
<polyline fill="none" stroke="black" points="287.5,-92.5 609.5,-92.5 "/>
<text text-anchor="middle" x="448.5" y="-77.3" font-family="Times,serif" font-size="14.00">data [0x51a0000001ef] = unknown person</text>
<polyline fill="none" stroke="black" points="287.5,-69.5 609.5,-69.5 "/>
<text text-anchor="middle" x="448.5" y="-54.3" font-family="Times,serif" font-size="14.00">shoot_free = 0</text>
<polyline fill="none" stroke="black" points="287.5,-46.5 609.5,-46.5 "/>
<text text-anchor="middle" x="448.5" y="-31.3" font-family="Times,serif" font-size="14.00">parent = [0x5040000002d0]</text>
<polyline fill="none" stroke="black" points="287.5,-23.5 609.5,-23.5 "/>
<text text-anchor="middle" x="365" y="-8.3" font-family="Times,serif" font-size="14.00">left = [(nil)]</text>
<polyline fill="none" stroke="black" points="442.5,-0.5 442.5,-23.5 "/>
<text text-anchor="middle" x="526" y="-8.3" font-family="Times,serif" font-size="14.00">right = [(nil)]</text>
</g>
<!-- node0x5040000002d0&#45;&gt;node0x504000000910 -->
<g id="edge2" class="edge">
<title>node0x5040000002d0&#45;&gt;node0x504000000910</title>
<path fill="none" stroke="black" d="M350.85,-152.29C360.99,-142.61 371.57,-132.5 381.88,-122.65"/>
<polygon fill="black" stroke="black" points="384.51,-124.98 389.32,-115.54 379.67,-119.92 384.51,-124.98"/>
</g>
</g>
</svg>
