<?xml version="1.0" encoding="UTF-8" standalone="no"?>
<!DOCTYPE svg PUBLIC "-//W3C//DTD SVG 1.1//EN"
 "http://www.w3.org/Graphics/SVG/1.1/DTD/svg11.dtd">
<!-- Generated by graphviz version 2.43.0 (0)
 -->
<!-- Title: %3 Pages: 1 -->
<svg width="1996pt" height="1004pt"
 viewBox="0.00 0.00 1995.50 1004.00" xmlns="http://www.w3.org/2000/svg" xmlns:xlink="http://www.w3.org/1999/xlink">
<g id="graph0" class="graph" transform="scale(1 1) rotate(0) translate(4 1000)">
<title>%3</title>
<!-- node0x504000000010 -->
<g id="node1" class="node">
<title>node0x504000000010</title>
<path fill="#ffffd0" stroke="black" d="M535.5,-903.5C535.5,-903.5 917.5,-903.5 917.5,-903.5 923.5,-903.5 929.5,-909.5 929.5,-915.5 929.5,-915.5 929.5,-983.5 929.5,-983.5 929.5,-989.5 923.5,-995.5 917.5,-995.5 917.5,-995.5 535.5,-995.5 535.5,-995.5 529.5,-995.5 523.5,-989.5 523.5,-983.5 523.5,-983.5 523.5,-915.5 523.5,-915.5 523.5,-909.5 529.5,-903.5 535.5,-903.5"/>
<text text-anchor="middle" x="726.5" y="-980.3" font-family="Times,serif" font-size="14.00">[0x504000000010]</text>
<polyline fill="none" stroke="black" points="523.5,-972.5 929.5,-972.5 "/>
<text text-anchor="middle" x="726.5" y="-957.3" font-family="Times,serif" font-size="14.00">data = teacher</text>
<polyline fill="none" stroke="black" points="523.5,-949.5 929.5,-949.5 "/>
<text text-anchor="middle" x="726.5" y="-934.3" font-family="Times,serif" font-size="14.00">shoot_free = 0</text>
<polyline fill="none" stroke="black" points="523.5,-926.5 929.5,-926.5 "/>
<text text-anchor="middle" x="622" y="-911.3" font-family="Times,serif" font-size="14.00">left = [0x504000000050]</text>
<polyline fill="none" stroke="black" points="720.5,-903.5 720.5,-926.5 "/>
<text text-anchor="middle" x="825" y="-911.3" font-family="Times,serif" font-size="14.00">right = [0x504000000110]</text>
</g>
<!-- node0x504000000050 -->
<g id="node2" class="node">
<title>node0x504000000050</title>
<path fill="#ffffd0" stroke="black" d="M323.5,-774.5C323.5,-774.5 705.5,-774.5 705.5,-774.5 711.5,-774.5 717.5,-780.5 717.5,-786.5 717.5,-786.5 717.5,-854.5 717.5,-854.5 717.5,-860.5 711.5,-866.5 705.5,-866.5 705.5,-866.5 323.5,-866.5 323.5,-866.5 317.5,-866.5 311.5,-860.5 311.5,-854.5 311.5,-854.5 311.5,-786.5 311.5,-786.5 311.5,-780.5 317.5,-774.5 323.5,-774.5"/>
<text text-anchor="middle" x="514.5" y="-851.3" font-family="Times,serif" font-size="14.00">[0x504000000050]</text>
<polyline fill="none" stroke="black" points="311.5,-843.5 717.5,-843.5 "/>
<text text-anchor="middle" x="514.5" y="-828.3" font-family="Times,serif" font-size="14.00">data = teacher of programming</text>
<polyline fill="none" stroke="black" points="311.5,-820.5 717.5,-820.5 "/>
<text text-anchor="middle" x="514.5" y="-805.3" font-family="Times,serif" font-size="14.00">shoot_free = 0</text>
<polyline fill="none" stroke="black" points="311.5,-797.5 717.5,-797.5 "/>
<text text-anchor="middle" x="410" y="-782.3" font-family="Times,serif" font-size="14.00">left = [0x504000000090]</text>
<polyline fill="none" stroke="black" points="508.5,-774.5 508.5,-797.5 "/>
<text text-anchor="middle" x="613" y="-782.3" font-family="Times,serif" font-size="14.00">right = [0x5040000000d0]</text>
</g>
<!-- node0x504000000010&#45;&gt;node0x504000000050 -->
<g id="edge1" class="edge">
<title>node0x504000000010&#45;&gt;node0x504000000050</title>
<path fill="none" stroke="black" d="M651.16,-903.37C634.23,-893.23 616.17,-882.41 598.9,-872.06"/>
<polygon fill="black" stroke="black" points="600.33,-868.84 589.95,-866.7 596.73,-874.84 600.33,-868.84"/>
</g>
<!-- node0x504000000110 -->
<g id="node3" class="node">
<title>node0x504000000110</title>
<path fill="#ffffd0" stroke="black" d="M747.5,-774.5C747.5,-774.5 1129.5,-774.5 1129.5,-774.5 1135.5,-774.5 1141.5,-780.5 1141.5,-786.5 1141.5,-786.5 1141.5,-854.5 1141.5,-854.5 1141.5,-860.5 1135.5,-866.5 1129.5,-866.5 1129.5,-866.5 747.5,-866.5 747.5,-866.5 741.5,-866.5 735.5,-860.5 735.5,-854.5 735.5,-854.5 735.5,-786.5 735.5,-786.5 735.5,-780.5 741.5,-774.5 747.5,-774.5"/>
<text text-anchor="middle" x="938.5" y="-851.3" font-family="Times,serif" font-size="14.00">[0x504000000110]</text>
<polyline fill="none" stroke="black" points="735.5,-843.5 1141.5,-843.5 "/>
<text text-anchor="middle" x="938.5" y="-828.3" font-family="Times,serif" font-size="14.00">data = football player</text>
<polyline fill="none" stroke="black" points="735.5,-820.5 1141.5,-820.5 "/>
<text text-anchor="middle" x="938.5" y="-805.3" font-family="Times,serif" font-size="14.00">shoot_free = 0</text>
<polyline fill="none" stroke="black" points="735.5,-797.5 1141.5,-797.5 "/>
<text text-anchor="middle" x="834" y="-782.3" font-family="Times,serif" font-size="14.00">left = [0x504000000150]</text>
<polyline fill="none" stroke="black" points="932.5,-774.5 932.5,-797.5 "/>
<text text-anchor="middle" x="1037" y="-782.3" font-family="Times,serif" font-size="14.00">right = [0x504000000410]</text>
</g>
<!-- node0x504000000010&#45;&gt;node0x504000000110 -->
<g id="edge2" class="edge">
<title>node0x504000000010&#45;&gt;node0x504000000110</title>
<path fill="none" stroke="black" d="M801.84,-903.37C818.77,-893.23 836.83,-882.41 854.1,-872.06"/>
<polygon fill="black" stroke="black" points="856.27,-874.84 863.05,-866.7 852.67,-868.84 856.27,-874.84"/>
</g>
<!-- node0x504000000090 -->
<g id="node4" class="node">
<title>node0x504000000090</title>
<path fill="#ffffd0" stroke="black" d="M214,-645.5C214,-645.5 403,-645.5 403,-645.5 409,-645.5 415,-651.5 415,-657.5 415,-657.5 415,-725.5 415,-725.5 415,-731.5 409,-737.5 403,-737.5 403,-737.5 214,-737.5 214,-737.5 208,-737.5 202,-731.5 202,-725.5 202,-725.5 202,-657.5 202,-657.5 202,-651.5 208,-645.5 214,-645.5"/>
<text text-anchor="middle" x="308.5" y="-722.3" font-family="Times,serif" font-size="14.00">[0x504000000090]</text>
<polyline fill="none" stroke="black" points="202,-714.5 415,-714.5 "/>
<text text-anchor="middle" x="308.5" y="-699.3" font-family="Times,serif" font-size="14.00">data = ded32</text>
<polyline fill="none" stroke="black" points="202,-691.5 415,-691.5 "/>
<text text-anchor="middle" x="308.5" y="-676.3" font-family="Times,serif" font-size="14.00">shoot_free = 0</text>
<polyline fill="none" stroke="black" points="202,-668.5 415,-668.5 "/>
<text text-anchor="middle" x="252.5" y="-653.3" font-family="Times,serif" font-size="14.00">left = [(nil)]</text>
<polyline fill="none" stroke="black" points="303,-645.5 303,-668.5 "/>
<text text-anchor="middle" x="359" y="-653.3" font-family="Times,serif" font-size="14.00">right = [(nil)]</text>
</g>
<!-- node0x504000000050&#45;&gt;node0x504000000090 -->
<g id="edge3" class="edge">
<title>node0x504000000050&#45;&gt;node0x504000000090</title>
<path fill="none" stroke="black" d="M441.29,-774.37C424.85,-764.23 407.29,-753.41 390.51,-743.06"/>
<polygon fill="black" stroke="black" points="392.17,-739.97 381.82,-737.7 388.49,-745.93 392.17,-739.97"/>
</g>
<!-- node0x5040000000d0 -->
<g id="node5" class="node">
<title>node0x5040000000d0</title>
<path fill="#ffffd0" stroke="black" d="M445,-645.5C445,-645.5 634,-645.5 634,-645.5 640,-645.5 646,-651.5 646,-657.5 646,-657.5 646,-725.5 646,-725.5 646,-731.5 640,-737.5 634,-737.5 634,-737.5 445,-737.5 445,-737.5 439,-737.5 433,-731.5 433,-725.5 433,-725.5 433,-657.5 433,-657.5 433,-651.5 439,-645.5 445,-645.5"/>
<text text-anchor="middle" x="539.5" y="-722.3" font-family="Times,serif" font-size="14.00">[0x5040000000d0]</text>
<polyline fill="none" stroke="black" points="433,-714.5 646,-714.5 "/>
<text text-anchor="middle" x="539.5" y="-699.3" font-family="Times,serif" font-size="14.00">data = ovchinkin</text>
<polyline fill="none" stroke="black" points="433,-691.5 646,-691.5 "/>
<text text-anchor="middle" x="539.5" y="-676.3" font-family="Times,serif" font-size="14.00">shoot_free = 0</text>
<polyline fill="none" stroke="black" points="433,-668.5 646,-668.5 "/>
<text text-anchor="middle" x="483.5" y="-653.3" font-family="Times,serif" font-size="14.00">left = [(nil)]</text>
<polyline fill="none" stroke="black" points="534,-645.5 534,-668.5 "/>
<text text-anchor="middle" x="590" y="-653.3" font-family="Times,serif" font-size="14.00">right = [(nil)]</text>
</g>
<!-- node0x504000000050&#45;&gt;node0x5040000000d0 -->
<g id="edge4" class="edge">
<title>node0x504000000050&#45;&gt;node0x5040000000d0</title>
<path fill="none" stroke="black" d="M523.38,-774.37C525.08,-765.77 526.87,-756.68 528.61,-747.8"/>
<polygon fill="black" stroke="black" points="532.06,-748.4 530.56,-737.92 525.19,-747.05 532.06,-748.4"/>
</g>
<!-- node0x504000000150 -->
<g id="node6" class="node">
<title>node0x504000000150</title>
<path fill="#ffffd0" stroke="black" d="M723.5,-645.5C723.5,-645.5 1105.5,-645.5 1105.5,-645.5 1111.5,-645.5 1117.5,-651.5 1117.5,-657.5 1117.5,-657.5 1117.5,-725.5 1117.5,-725.5 1117.5,-731.5 1111.5,-737.5 1105.5,-737.5 1105.5,-737.5 723.5,-737.5 723.5,-737.5 717.5,-737.5 711.5,-731.5 711.5,-725.5 711.5,-725.5 711.5,-657.5 711.5,-657.5 711.5,-651.5 717.5,-645.5 723.5,-645.5"/>
<text text-anchor="middle" x="914.5" y="-722.3" font-family="Times,serif" font-size="14.00">[0x504000000150]</text>
<polyline fill="none" stroke="black" points="711.5,-714.5 1117.5,-714.5 "/>
<text text-anchor="middle" x="914.5" y="-699.3" font-family="Times,serif" font-size="14.00">data = plays for the caRTel</text>
<polyline fill="none" stroke="black" points="711.5,-691.5 1117.5,-691.5 "/>
<text text-anchor="middle" x="914.5" y="-676.3" font-family="Times,serif" font-size="14.00">shoot_free = 0</text>
<polyline fill="none" stroke="black" points="711.5,-668.5 1117.5,-668.5 "/>
<text text-anchor="middle" x="810" y="-653.3" font-family="Times,serif" font-size="14.00">left = [0x504000000190]</text>
<polyline fill="none" stroke="black" points="908.5,-645.5 908.5,-668.5 "/>
<text text-anchor="middle" x="1013" y="-653.3" font-family="Times,serif" font-size="14.00">right = [0x5040000003d0]</text>
</g>
<!-- node0x504000000110&#45;&gt;node0x504000000150 -->
<g id="edge5" class="edge">
<title>node0x504000000110&#45;&gt;node0x504000000150</title>
<path fill="none" stroke="black" d="M929.97,-774.37C928.35,-765.77 926.63,-756.68 924.95,-747.8"/>
<polygon fill="black" stroke="black" points="928.38,-747.09 923.08,-737.92 921.5,-748.39 928.38,-747.09"/>
</g>
<!-- node0x504000000410 -->
<g id="node7" class="node">
<title>node0x504000000410</title>
<path fill="#ffffd0" stroke="black" d="M1147.5,-645.5C1147.5,-645.5 1529.5,-645.5 1529.5,-645.5 1535.5,-645.5 1541.5,-651.5 1541.5,-657.5 1541.5,-657.5 1541.5,-725.5 1541.5,-725.5 1541.5,-731.5 1535.5,-737.5 1529.5,-737.5 1529.5,-737.5 1147.5,-737.5 1147.5,-737.5 1141.5,-737.5 1135.5,-731.5 1135.5,-725.5 1135.5,-725.5 1135.5,-657.5 1135.5,-657.5 1135.5,-651.5 1141.5,-645.5 1147.5,-645.5"/>
<text text-anchor="middle" x="1338.5" y="-722.3" font-family="Times,serif" font-size="14.00">[0x504000000410]</text>
<polyline fill="none" stroke="black" points="1135.5,-714.5 1541.5,-714.5 "/>
<text text-anchor="middle" x="1338.5" y="-699.3" font-family="Times,serif" font-size="14.00">data = coach</text>
<polyline fill="none" stroke="black" points="1135.5,-691.5 1541.5,-691.5 "/>
<text text-anchor="middle" x="1338.5" y="-676.3" font-family="Times,serif" font-size="14.00">shoot_free = 0</text>
<polyline fill="none" stroke="black" points="1135.5,-668.5 1541.5,-668.5 "/>
<text text-anchor="middle" x="1234" y="-653.3" font-family="Times,serif" font-size="14.00">left = [0x504000000450]</text>
<polyline fill="none" stroke="black" points="1332.5,-645.5 1332.5,-668.5 "/>
<text text-anchor="middle" x="1437" y="-653.3" font-family="Times,serif" font-size="14.00">right = [0x504000000490]</text>
</g>
<!-- node0x504000000110&#45;&gt;node0x504000000410 -->
<g id="edge6" class="edge">
<title>node0x504000000110&#45;&gt;node0x504000000410</title>
<path fill="none" stroke="black" d="M1080.37,-774.46C1114.87,-763.5 1151.89,-751.75 1186.82,-740.66"/>
<polygon fill="black" stroke="black" points="1188.15,-743.91 1196.62,-737.55 1186.03,-737.24 1188.15,-743.91"/>
</g>
<!-- node0x504000000190 -->
<g id="node8" class="node">
<title>node0x504000000190</title>
<path fill="#ffffd0" stroke="black" d="M445.5,-516.5C445.5,-516.5 827.5,-516.5 827.5,-516.5 833.5,-516.5 839.5,-522.5 839.5,-528.5 839.5,-528.5 839.5,-596.5 839.5,-596.5 839.5,-602.5 833.5,-608.5 827.5,-608.5 827.5,-608.5 445.5,-608.5 445.5,-608.5 439.5,-608.5 433.5,-602.5 433.5,-596.5 433.5,-596.5 433.5,-528.5 433.5,-528.5 433.5,-522.5 439.5,-516.5 445.5,-516.5"/>
<text text-anchor="middle" x="636.5" y="-593.3" font-family="Times,serif" font-size="14.00">[0x504000000190]</text>
<polyline fill="none" stroke="black" points="433.5,-585.5 839.5,-585.5 "/>
<text text-anchor="middle" x="636.5" y="-570.3" font-family="Times,serif" font-size="14.00">data = defender</text>
<polyline fill="none" stroke="black" points="433.5,-562.5 839.5,-562.5 "/>
<text text-anchor="middle" x="636.5" y="-547.3" font-family="Times,serif" font-size="14.00">shoot_free = 0</text>
<polyline fill="none" stroke="black" points="433.5,-539.5 839.5,-539.5 "/>
<text text-anchor="middle" x="532" y="-524.3" font-family="Times,serif" font-size="14.00">left = [0x5040000001d0]</text>
<polyline fill="none" stroke="black" points="630.5,-516.5 630.5,-539.5 "/>
<text text-anchor="middle" x="735" y="-524.3" font-family="Times,serif" font-size="14.00">right = [0x504000000290]</text>
</g>
<!-- node0x504000000150&#45;&gt;node0x504000000190 -->
<g id="edge7" class="edge">
<title>node0x504000000150&#45;&gt;node0x504000000190</title>
<path fill="none" stroke="black" d="M815.7,-645.37C792.7,-634.86 768.08,-623.61 744.69,-612.92"/>
<polygon fill="black" stroke="black" points="746,-609.67 735.45,-608.7 743.09,-616.04 746,-609.67"/>
</g>
<!-- node0x5040000003d0 -->
<g id="node9" class="node">
<title>node0x5040000003d0</title>
<path fill="#ffffd0" stroke="black" d="M869,-516.5C869,-516.5 1058,-516.5 1058,-516.5 1064,-516.5 1070,-522.5 1070,-528.5 1070,-528.5 1070,-596.5 1070,-596.5 1070,-602.5 1064,-608.5 1058,-608.5 1058,-608.5 869,-608.5 869,-608.5 863,-608.5 857,-602.5 857,-596.5 857,-596.5 857,-528.5 857,-528.5 857,-522.5 863,-516.5 869,-516.5"/>
<text text-anchor="middle" x="963.5" y="-593.3" font-family="Times,serif" font-size="14.00">[0x5040000003d0]</text>
<polyline fill="none" stroke="black" points="857,-585.5 1070,-585.5 "/>
<text text-anchor="middle" x="963.5" y="-570.3" font-family="Times,serif" font-size="14.00">data = loh</text>
<polyline fill="none" stroke="black" points="857,-562.5 1070,-562.5 "/>
<text text-anchor="middle" x="963.5" y="-547.3" font-family="Times,serif" font-size="14.00">shoot_free = 0</text>
<polyline fill="none" stroke="black" points="857,-539.5 1070,-539.5 "/>
<text text-anchor="middle" x="907.5" y="-524.3" font-family="Times,serif" font-size="14.00">left = [(nil)]</text>
<polyline fill="none" stroke="black" points="958,-516.5 958,-539.5 "/>
<text text-anchor="middle" x="1014" y="-524.3" font-family="Times,serif" font-size="14.00">right = [(nil)]</text>
</g>
<!-- node0x504000000150&#45;&gt;node0x5040000003d0 -->
<g id="edge8" class="edge">
<title>node0x504000000150&#45;&gt;node0x5040000003d0</title>
<path fill="none" stroke="black" d="M931.91,-645.37C935.27,-636.68 938.81,-627.48 942.27,-618.52"/>
<polygon fill="black" stroke="black" points="945.64,-619.51 945.98,-608.92 939.11,-616.99 945.64,-619.51"/>
</g>
<!-- node0x504000000450 -->
<g id="node20" class="node">
<title>node0x504000000450</title>
<path fill="#ffffd0" stroke="black" d="M1178,-516.5C1178,-516.5 1403,-516.5 1403,-516.5 1409,-516.5 1415,-522.5 1415,-528.5 1415,-528.5 1415,-596.5 1415,-596.5 1415,-602.5 1409,-608.5 1403,-608.5 1403,-608.5 1178,-608.5 1178,-608.5 1172,-608.5 1166,-602.5 1166,-596.5 1166,-596.5 1166,-528.5 1166,-528.5 1166,-522.5 1172,-516.5 1178,-516.5"/>
<text text-anchor="middle" x="1290.5" y="-593.3" font-family="Times,serif" font-size="14.00">[0x504000000450]</text>
<polyline fill="none" stroke="black" points="1166,-585.5 1415,-585.5 "/>
<text text-anchor="middle" x="1290.5" y="-570.3" font-family="Times,serif" font-size="14.00">data = valentin spivak guardiola</text>
<polyline fill="none" stroke="black" points="1166,-562.5 1415,-562.5 "/>
<text text-anchor="middle" x="1290.5" y="-547.3" font-family="Times,serif" font-size="14.00">shoot_free = 0</text>
<polyline fill="none" stroke="black" points="1166,-539.5 1415,-539.5 "/>
<text text-anchor="middle" x="1225.5" y="-524.3" font-family="Times,serif" font-size="14.00">left = [(nil)]</text>
<polyline fill="none" stroke="black" points="1285,-516.5 1285,-539.5 "/>
<text text-anchor="middle" x="1350" y="-524.3" font-family="Times,serif" font-size="14.00">right = [(nil)]</text>
</g>
<!-- node0x504000000410&#45;&gt;node0x504000000450 -->
<g id="edge19" class="edge">
<title>node0x504000000410&#45;&gt;node0x504000000450</title>
<path fill="none" stroke="black" d="M1321.44,-645.37C1318.16,-636.68 1314.68,-627.48 1311.29,-618.52"/>
<polygon fill="black" stroke="black" points="1314.47,-617.03 1307.66,-608.92 1307.93,-619.51 1314.47,-617.03"/>
</g>
<!-- node0x504000000490 -->
<g id="node21" class="node">
<title>node0x504000000490</title>
<path fill="#ffffd0" stroke="black" d="M1445.5,-516.5C1445.5,-516.5 1827.5,-516.5 1827.5,-516.5 1833.5,-516.5 1839.5,-522.5 1839.5,-528.5 1839.5,-528.5 1839.5,-596.5 1839.5,-596.5 1839.5,-602.5 1833.5,-608.5 1827.5,-608.5 1827.5,-608.5 1445.5,-608.5 1445.5,-608.5 1439.5,-608.5 1433.5,-602.5 1433.5,-596.5 1433.5,-596.5 1433.5,-528.5 1433.5,-528.5 1433.5,-522.5 1439.5,-516.5 1445.5,-516.5"/>
<text text-anchor="middle" x="1636.5" y="-593.3" font-family="Times,serif" font-size="14.00">[0x504000000490]</text>
<polyline fill="none" stroke="black" points="1433.5,-585.5 1839.5,-585.5 "/>
<text text-anchor="middle" x="1636.5" y="-570.3" font-family="Times,serif" font-size="14.00">data = lives in 209 room</text>
<polyline fill="none" stroke="black" points="1433.5,-562.5 1839.5,-562.5 "/>
<text text-anchor="middle" x="1636.5" y="-547.3" font-family="Times,serif" font-size="14.00">shoot_free = 0</text>
<polyline fill="none" stroke="black" points="1433.5,-539.5 1839.5,-539.5 "/>
<text text-anchor="middle" x="1532" y="-524.3" font-family="Times,serif" font-size="14.00">left = [0x5040000004d0]</text>
<polyline fill="none" stroke="black" points="1630.5,-516.5 1630.5,-539.5 "/>
<text text-anchor="middle" x="1735" y="-524.3" font-family="Times,serif" font-size="14.00">right = [0x504000000610]</text>
</g>
<!-- node0x504000000410&#45;&gt;node0x504000000490 -->
<g id="edge20" class="edge">
<title>node0x504000000410&#45;&gt;node0x504000000490</title>
<path fill="none" stroke="black" d="M1444.4,-645.37C1469.36,-634.73 1496.08,-623.34 1521.42,-612.54"/>
<polygon fill="black" stroke="black" points="1522.86,-615.74 1530.69,-608.59 1520.12,-609.3 1522.86,-615.74"/>
</g>
<!-- node0x5040000001d0 -->
<g id="node10" class="node">
<title>node0x5040000001d0</title>
<path fill="#ffffd0" stroke="black" d="M97.5,-387.5C97.5,-387.5 479.5,-387.5 479.5,-387.5 485.5,-387.5 491.5,-393.5 491.5,-399.5 491.5,-399.5 491.5,-467.5 491.5,-467.5 491.5,-473.5 485.5,-479.5 479.5,-479.5 479.5,-479.5 97.5,-479.5 97.5,-479.5 91.5,-479.5 85.5,-473.5 85.5,-467.5 85.5,-467.5 85.5,-399.5 85.5,-399.5 85.5,-393.5 91.5,-387.5 97.5,-387.5"/>
<text text-anchor="middle" x="288.5" y="-464.3" font-family="Times,serif" font-size="14.00">[0x5040000001d0]</text>
<polyline fill="none" stroke="black" points="85.5,-456.5 491.5,-456.5 "/>
<text text-anchor="middle" x="288.5" y="-441.3" font-family="Times,serif" font-size="14.00">data = left defender</text>
<polyline fill="none" stroke="black" points="85.5,-433.5 491.5,-433.5 "/>
<text text-anchor="middle" x="288.5" y="-418.3" font-family="Times,serif" font-size="14.00">shoot_free = 0</text>
<polyline fill="none" stroke="black" points="85.5,-410.5 491.5,-410.5 "/>
<text text-anchor="middle" x="184" y="-395.3" font-family="Times,serif" font-size="14.00">left = [0x504000000210]</text>
<polyline fill="none" stroke="black" points="282.5,-387.5 282.5,-410.5 "/>
<text text-anchor="middle" x="387" y="-395.3" font-family="Times,serif" font-size="14.00">right = [0x504000000250]</text>
</g>
<!-- node0x504000000190&#45;&gt;node0x5040000001d0 -->
<g id="edge9" class="edge">
<title>node0x504000000190&#45;&gt;node0x5040000001d0</title>
<path fill="none" stroke="black" d="M512.83,-516.37C483.3,-505.59 451.66,-494.04 421.72,-483.12"/>
<polygon fill="black" stroke="black" points="422.66,-479.74 412.07,-479.59 420.26,-486.31 422.66,-479.74"/>
</g>
<!-- node0x504000000290 -->
<g id="node11" class="node">
<title>node0x504000000290</title>
<path fill="#ffffd0" stroke="black" d="M521.5,-387.5C521.5,-387.5 903.5,-387.5 903.5,-387.5 909.5,-387.5 915.5,-393.5 915.5,-399.5 915.5,-399.5 915.5,-467.5 915.5,-467.5 915.5,-473.5 909.5,-479.5 903.5,-479.5 903.5,-479.5 521.5,-479.5 521.5,-479.5 515.5,-479.5 509.5,-473.5 509.5,-467.5 509.5,-467.5 509.5,-399.5 509.5,-399.5 509.5,-393.5 515.5,-387.5 521.5,-387.5"/>
<text text-anchor="middle" x="712.5" y="-464.3" font-family="Times,serif" font-size="14.00">[0x504000000290]</text>
<polyline fill="none" stroke="black" points="509.5,-456.5 915.5,-456.5 "/>
<text text-anchor="middle" x="712.5" y="-441.3" font-family="Times,serif" font-size="14.00">data = center forward</text>
<polyline fill="none" stroke="black" points="509.5,-433.5 915.5,-433.5 "/>
<text text-anchor="middle" x="712.5" y="-418.3" font-family="Times,serif" font-size="14.00">shoot_free = 0</text>
<polyline fill="none" stroke="black" points="509.5,-410.5 915.5,-410.5 "/>
<text text-anchor="middle" x="608" y="-395.3" font-family="Times,serif" font-size="14.00">left = [0x5040000002d0]</text>
<polyline fill="none" stroke="black" points="706.5,-387.5 706.5,-410.5 "/>
<text text-anchor="middle" x="811" y="-395.3" font-family="Times,serif" font-size="14.00">right = [0x504000000310]</text>
</g>
<!-- node0x504000000190&#45;&gt;node0x504000000290 -->
<g id="edge10" class="edge">
<title>node0x504000000190&#45;&gt;node0x504000000290</title>
<path fill="none" stroke="black" d="M663.51,-516.37C668.88,-507.4 674.56,-497.89 680.09,-488.66"/>
<polygon fill="black" stroke="black" points="683.19,-490.29 685.32,-479.92 677.18,-486.7 683.19,-490.29"/>
</g>
<!-- node0x504000000210 -->
<g id="node12" class="node">
<title>node0x504000000210</title>
<path fill="#ffffd0" stroke="black" d="M12,-258.5C12,-258.5 201,-258.5 201,-258.5 207,-258.5 213,-264.5 213,-270.5 213,-270.5 213,-338.5 213,-338.5 213,-344.5 207,-350.5 201,-350.5 201,-350.5 12,-350.5 12,-350.5 6,-350.5 0,-344.5 0,-338.5 0,-338.5 0,-270.5 0,-270.5 0,-264.5 6,-258.5 12,-258.5"/>
<text text-anchor="middle" x="106.5" y="-335.3" font-family="Times,serif" font-size="14.00">[0x504000000210]</text>
<polyline fill="none" stroke="black" points="0,-327.5 213,-327.5 "/>
<text text-anchor="middle" x="106.5" y="-312.3" font-family="Times,serif" font-size="14.00">data = tolik</text>
<polyline fill="none" stroke="black" points="0,-304.5 213,-304.5 "/>
<text text-anchor="middle" x="106.5" y="-289.3" font-family="Times,serif" font-size="14.00">shoot_free = 0</text>
<polyline fill="none" stroke="black" points="0,-281.5 213,-281.5 "/>
<text text-anchor="middle" x="50.5" y="-266.3" font-family="Times,serif" font-size="14.00">left = [(nil)]</text>
<polyline fill="none" stroke="black" points="101,-258.5 101,-281.5 "/>
<text text-anchor="middle" x="157" y="-266.3" font-family="Times,serif" font-size="14.00">right = [(nil)]</text>
</g>
<!-- node0x5040000001d0&#45;&gt;node0x504000000210 -->
<g id="edge11" class="edge">
<title>node0x5040000001d0&#45;&gt;node0x504000000210</title>
<path fill="none" stroke="black" d="M223.82,-387.37C209.56,-377.41 194.35,-366.8 179.77,-356.63"/>
<polygon fill="black" stroke="black" points="181.48,-353.55 171.28,-350.7 177.47,-359.29 181.48,-353.55"/>
</g>
<!-- node0x504000000250 -->
<g id="node13" class="node">
<title>node0x504000000250</title>
<path fill="#ffffd0" stroke="black" d="M243,-258.5C243,-258.5 432,-258.5 432,-258.5 438,-258.5 444,-264.5 444,-270.5 444,-270.5 444,-338.5 444,-338.5 444,-344.5 438,-350.5 432,-350.5 432,-350.5 243,-350.5 243,-350.5 237,-350.5 231,-344.5 231,-338.5 231,-338.5 231,-270.5 231,-270.5 231,-264.5 237,-258.5 243,-258.5"/>
<text text-anchor="middle" x="337.5" y="-335.3" font-family="Times,serif" font-size="14.00">[0x504000000250]</text>
<polyline fill="none" stroke="black" points="231,-327.5 444,-327.5 "/>
<text text-anchor="middle" x="337.5" y="-312.3" font-family="Times,serif" font-size="14.00">data = dan</text>
<polyline fill="none" stroke="black" points="231,-304.5 444,-304.5 "/>
<text text-anchor="middle" x="337.5" y="-289.3" font-family="Times,serif" font-size="14.00">shoot_free = 0</text>
<polyline fill="none" stroke="black" points="231,-281.5 444,-281.5 "/>
<text text-anchor="middle" x="281.5" y="-266.3" font-family="Times,serif" font-size="14.00">left = [(nil)]</text>
<polyline fill="none" stroke="black" points="332,-258.5 332,-281.5 "/>
<text text-anchor="middle" x="388" y="-266.3" font-family="Times,serif" font-size="14.00">right = [(nil)]</text>
</g>
<!-- node0x5040000001d0&#45;&gt;node0x504000000250 -->
<g id="edge12" class="edge">
<title>node0x5040000001d0&#45;&gt;node0x504000000250</title>
<path fill="none" stroke="black" d="M305.91,-387.37C309.27,-378.68 312.81,-369.48 316.27,-360.52"/>
<polygon fill="black" stroke="black" points="319.64,-361.51 319.98,-350.92 313.11,-358.99 319.64,-361.51"/>
</g>
<!-- node0x5040000002d0 -->
<g id="node14" class="node">
<title>node0x5040000002d0</title>
<path fill="#ffffd0" stroke="black" d="M570,-258.5C570,-258.5 759,-258.5 759,-258.5 765,-258.5 771,-264.5 771,-270.5 771,-270.5 771,-338.5 771,-338.5 771,-344.5 765,-350.5 759,-350.5 759,-350.5 570,-350.5 570,-350.5 564,-350.5 558,-344.5 558,-338.5 558,-338.5 558,-270.5 558,-270.5 558,-264.5 564,-258.5 570,-258.5"/>
<text text-anchor="middle" x="664.5" y="-335.3" font-family="Times,serif" font-size="14.00">[0x5040000002d0]</text>
<polyline fill="none" stroke="black" points="558,-327.5 771,-327.5 "/>
<text text-anchor="middle" x="664.5" y="-312.3" font-family="Times,serif" font-size="14.00">data = artem</text>
<polyline fill="none" stroke="black" points="558,-304.5 771,-304.5 "/>
<text text-anchor="middle" x="664.5" y="-289.3" font-family="Times,serif" font-size="14.00">shoot_free = 0</text>
<polyline fill="none" stroke="black" points="558,-281.5 771,-281.5 "/>
<text text-anchor="middle" x="608.5" y="-266.3" font-family="Times,serif" font-size="14.00">left = [(nil)]</text>
<polyline fill="none" stroke="black" points="659,-258.5 659,-281.5 "/>
<text text-anchor="middle" x="715" y="-266.3" font-family="Times,serif" font-size="14.00">right = [(nil)]</text>
</g>
<!-- node0x504000000290&#45;&gt;node0x5040000002d0 -->
<g id="edge13" class="edge">
<title>node0x504000000290&#45;&gt;node0x5040000002d0</title>
<path fill="none" stroke="black" d="M695.44,-387.37C692.16,-378.68 688.68,-369.48 685.29,-360.52"/>
<polygon fill="black" stroke="black" points="688.47,-359.03 681.66,-350.92 681.93,-361.51 688.47,-359.03"/>
</g>
<!-- node0x504000000310 -->
<g id="node15" class="node">
<title>node0x504000000310</title>
<path fill="#ffffd0" stroke="black" d="M800.5,-258.5C800.5,-258.5 1182.5,-258.5 1182.5,-258.5 1188.5,-258.5 1194.5,-264.5 1194.5,-270.5 1194.5,-270.5 1194.5,-338.5 1194.5,-338.5 1194.5,-344.5 1188.5,-350.5 1182.5,-350.5 1182.5,-350.5 800.5,-350.5 800.5,-350.5 794.5,-350.5 788.5,-344.5 788.5,-338.5 788.5,-338.5 788.5,-270.5 788.5,-270.5 788.5,-264.5 794.5,-258.5 800.5,-258.5"/>
<text text-anchor="middle" x="991.5" y="-335.3" font-family="Times,serif" font-size="14.00">[0x504000000310]</text>
<polyline fill="none" stroke="black" points="788.5,-327.5 1194.5,-327.5 "/>
<text text-anchor="middle" x="991.5" y="-312.3" font-family="Times,serif" font-size="14.00">data = middle defender</text>
<polyline fill="none" stroke="black" points="788.5,-304.5 1194.5,-304.5 "/>
<text text-anchor="middle" x="991.5" y="-289.3" font-family="Times,serif" font-size="14.00">shoot_free = 0</text>
<polyline fill="none" stroke="black" points="788.5,-281.5 1194.5,-281.5 "/>
<text text-anchor="middle" x="887" y="-266.3" font-family="Times,serif" font-size="14.00">left = [0x504000000350]</text>
<polyline fill="none" stroke="black" points="985.5,-258.5 985.5,-281.5 "/>
<text text-anchor="middle" x="1090" y="-266.3" font-family="Times,serif" font-size="14.00">right = [0x504000000390]</text>
</g>
<!-- node0x504000000290&#45;&gt;node0x504000000310 -->
<g id="edge14" class="edge">
<title>node0x504000000290&#45;&gt;node0x504000000310</title>
<path fill="none" stroke="black" d="M811.65,-387.37C834.74,-376.86 859.45,-365.61 882.92,-354.92"/>
<polygon fill="black" stroke="black" points="884.55,-358.03 892.2,-350.7 881.65,-351.66 884.55,-358.03"/>
</g>
<!-- node0x504000000350 -->
<g id="node16" class="node">
<title>node0x504000000350</title>
<path fill="#ffffd0" stroke="black" d="M827,-129.5C827,-129.5 1016,-129.5 1016,-129.5 1022,-129.5 1028,-135.5 1028,-141.5 1028,-141.5 1028,-209.5 1028,-209.5 1028,-215.5 1022,-221.5 1016,-221.5 1016,-221.5 827,-221.5 827,-221.5 821,-221.5 815,-215.5 815,-209.5 815,-209.5 815,-141.5 815,-141.5 815,-135.5 821,-129.5 827,-129.5"/>
<text text-anchor="middle" x="921.5" y="-206.3" font-family="Times,serif" font-size="14.00">[0x504000000350]</text>
<polyline fill="none" stroke="black" points="815,-198.5 1028,-198.5 "/>
<text text-anchor="middle" x="921.5" y="-183.3" font-family="Times,serif" font-size="14.00">data = maxon</text>
<polyline fill="none" stroke="black" points="815,-175.5 1028,-175.5 "/>
<text text-anchor="middle" x="921.5" y="-160.3" font-family="Times,serif" font-size="14.00">shoot_free = 0</text>
<polyline fill="none" stroke="black" points="815,-152.5 1028,-152.5 "/>
<text text-anchor="middle" x="865.5" y="-137.3" font-family="Times,serif" font-size="14.00">left = [(nil)]</text>
<polyline fill="none" stroke="black" points="916,-129.5 916,-152.5 "/>
<text text-anchor="middle" x="972" y="-137.3" font-family="Times,serif" font-size="14.00">right = [(nil)]</text>
</g>
<!-- node0x504000000310&#45;&gt;node0x504000000350 -->
<g id="edge15" class="edge">
<title>node0x504000000310&#45;&gt;node0x504000000350</title>
<path fill="none" stroke="black" d="M966.62,-258.37C961.73,-249.49 956.55,-240.09 951.51,-230.95"/>
<polygon fill="black" stroke="black" points="954.42,-228.98 946.53,-221.92 948.29,-232.36 954.42,-228.98"/>
</g>
<!-- node0x504000000390 -->
<g id="node17" class="node">
<title>node0x504000000390</title>
<path fill="#ffe0e0" stroke="black" d="M1057.5,-129.5C1057.5,-129.5 1439.5,-129.5 1439.5,-129.5 1445.5,-129.5 1451.5,-135.5 1451.5,-141.5 1451.5,-141.5 1451.5,-209.5 1451.5,-209.5 1451.5,-215.5 1445.5,-221.5 1439.5,-221.5 1439.5,-221.5 1057.5,-221.5 1057.5,-221.5 1051.5,-221.5 1045.5,-215.5 1045.5,-209.5 1045.5,-209.5 1045.5,-141.5 1045.5,-141.5 1045.5,-135.5 1051.5,-129.5 1057.5,-129.5"/>
<text text-anchor="middle" x="1248.5" y="-206.3" font-family="Times,serif" font-size="14.00">[0x504000000390]</text>
<polyline fill="none" stroke="black" points="1045.5,-198.5 1451.5,-198.5 "/>
<text text-anchor="middle" x="1248.5" y="-183.3" font-family="Times,serif" font-size="14.00">data = goalkeeper</text>
<polyline fill="none" stroke="black" points="1045.5,-175.5 1451.5,-175.5 "/>
<text text-anchor="middle" x="1248.5" y="-160.3" font-family="Times,serif" font-size="14.00">shoot_free = 1</text>
<polyline fill="none" stroke="black" points="1045.5,-152.5 1451.5,-152.5 "/>
<text text-anchor="middle" x="1144" y="-137.3" font-family="Times,serif" font-size="14.00">left = [0x504000000650]</text>
<polyline fill="none" stroke="black" points="1242.5,-129.5 1242.5,-152.5 "/>
<text text-anchor="middle" x="1347" y="-137.3" font-family="Times,serif" font-size="14.00">right = [0x504000000690]</text>
</g>
<!-- node0x504000000310&#45;&gt;node0x504000000390 -->
<g id="edge16" class="edge">
<title>node0x504000000310&#45;&gt;node0x504000000390</title>
<path fill="none" stroke="black" d="M1082.83,-258.37C1103.91,-247.95 1126.46,-236.81 1147.91,-226.21"/>
<polygon fill="black" stroke="black" points="1149.61,-229.27 1157.03,-221.7 1146.51,-222.99 1149.61,-229.27"/>
</g>
<!-- node0x504000000650 -->
<g id="node18" class="node">
<title>node0x504000000650</title>
<path fill="#ffe0e0" stroke="black" d="M1038,-0.5C1038,-0.5 1227,-0.5 1227,-0.5 1233,-0.5 1239,-6.5 1239,-12.5 1239,-12.5 1239,-80.5 1239,-80.5 1239,-86.5 1233,-92.5 1227,-92.5 1227,-92.5 1038,-92.5 1038,-92.5 1032,-92.5 1026,-86.5 1026,-80.5 1026,-80.5 1026,-12.5 1026,-12.5 1026,-6.5 1032,-0.5 1038,-0.5"/>
<text text-anchor="middle" x="1132.5" y="-77.3" font-family="Times,serif" font-size="14.00">[0x504000000650]</text>
<polyline fill="none" stroke="black" points="1026,-69.5 1239,-69.5 "/>
<text text-anchor="middle" x="1132.5" y="-54.3" font-family="Times,serif" font-size="14.00">data = dmitri</text>
<polyline fill="none" stroke="black" points="1026,-46.5 1239,-46.5 "/>
<text text-anchor="middle" x="1132.5" y="-31.3" font-family="Times,serif" font-size="14.00">shoot_free = 1</text>
<polyline fill="none" stroke="black" points="1026,-23.5 1239,-23.5 "/>
<text text-anchor="middle" x="1076.5" y="-8.3" font-family="Times,serif" font-size="14.00">left = [(nil)]</text>
<polyline fill="none" stroke="black" points="1127,-0.5 1127,-23.5 "/>
<text text-anchor="middle" x="1183" y="-8.3" font-family="Times,serif" font-size="14.00">right = [(nil)]</text>
</g>
<!-- node0x504000000390&#45;&gt;node0x504000000650 -->
<g id="edge17" class="edge">
<title>node0x504000000390&#45;&gt;node0x504000000650</title>
<path fill="none" stroke="black" d="M1207.28,-129.37C1198.75,-120.03 1189.69,-110.11 1180.93,-100.52"/>
<polygon fill="black" stroke="black" points="1183.31,-97.94 1173.98,-92.92 1178.14,-102.66 1183.31,-97.94"/>
</g>
<!-- node0x504000000690 -->
<g id="node19" class="node">
<title>node0x504000000690</title>
<path fill="#ffffd0" stroke="black" d="M1269,-0.5C1269,-0.5 1458,-0.5 1458,-0.5 1464,-0.5 1470,-6.5 1470,-12.5 1470,-12.5 1470,-80.5 1470,-80.5 1470,-86.5 1464,-92.5 1458,-92.5 1458,-92.5 1269,-92.5 1269,-92.5 1263,-92.5 1257,-86.5 1257,-80.5 1257,-80.5 1257,-12.5 1257,-12.5 1257,-6.5 1263,-0.5 1269,-0.5"/>
<text text-anchor="middle" x="1363.5" y="-77.3" font-family="Times,serif" font-size="14.00">[0x504000000690]</text>
<polyline fill="none" stroke="black" points="1257,-69.5 1470,-69.5 "/>
<text text-anchor="middle" x="1363.5" y="-54.3" font-family="Times,serif" font-size="14.00">data = gosha</text>
<polyline fill="none" stroke="black" points="1257,-46.5 1470,-46.5 "/>
<text text-anchor="middle" x="1363.5" y="-31.3" font-family="Times,serif" font-size="14.00">shoot_free = 0</text>
<polyline fill="none" stroke="black" points="1257,-23.5 1470,-23.5 "/>
<text text-anchor="middle" x="1307.5" y="-8.3" font-family="Times,serif" font-size="14.00">left = [(nil)]</text>
<polyline fill="none" stroke="black" points="1358,-0.5 1358,-23.5 "/>
<text text-anchor="middle" x="1414" y="-8.3" font-family="Times,serif" font-size="14.00">right = [(nil)]</text>
</g>
<!-- node0x504000000390&#45;&gt;node0x504000000690 -->
<g id="edge18" class="edge">
<title>node0x504000000390&#45;&gt;node0x504000000690</title>
<path fill="none" stroke="black" d="M1289.37,-129.37C1297.82,-120.03 1306.81,-110.11 1315.49,-100.52"/>
<polygon fill="black" stroke="black" points="1318.26,-102.68 1322.38,-92.92 1313.07,-97.98 1318.26,-102.68"/>
</g>
<!-- node0x5040000004d0 -->
<g id="node22" class="node">
<title>node0x5040000004d0</title>
<path fill="#ffffd0" stroke="black" d="M1342.5,-387.5C1342.5,-387.5 1724.5,-387.5 1724.5,-387.5 1730.5,-387.5 1736.5,-393.5 1736.5,-399.5 1736.5,-399.5 1736.5,-467.5 1736.5,-467.5 1736.5,-473.5 1730.5,-479.5 1724.5,-479.5 1724.5,-479.5 1342.5,-479.5 1342.5,-479.5 1336.5,-479.5 1330.5,-473.5 1330.5,-467.5 1330.5,-467.5 1330.5,-399.5 1330.5,-399.5 1330.5,-393.5 1336.5,-387.5 1342.5,-387.5"/>
<text text-anchor="middle" x="1533.5" y="-464.3" font-family="Times,serif" font-size="14.00">[0x5040000004d0]</text>
<polyline fill="none" stroke="black" points="1330.5,-456.5 1736.5,-456.5 "/>
<text text-anchor="middle" x="1533.5" y="-441.3" font-family="Times,serif" font-size="14.00">data = loves kefir</text>
<polyline fill="none" stroke="black" points="1330.5,-433.5 1736.5,-433.5 "/>
<text text-anchor="middle" x="1533.5" y="-418.3" font-family="Times,serif" font-size="14.00">shoot_free = 0</text>
<polyline fill="none" stroke="black" points="1330.5,-410.5 1736.5,-410.5 "/>
<text text-anchor="middle" x="1429" y="-395.3" font-family="Times,serif" font-size="14.00">left = [0x504000000510]</text>
<polyline fill="none" stroke="black" points="1527.5,-387.5 1527.5,-410.5 "/>
<text text-anchor="middle" x="1632" y="-395.3" font-family="Times,serif" font-size="14.00">right = [0x504000000550]</text>
</g>
<!-- node0x504000000490&#45;&gt;node0x5040000004d0 -->
<g id="edge21" class="edge">
<title>node0x504000000490&#45;&gt;node0x5040000004d0</title>
<path fill="none" stroke="black" d="M1599.9,-516.37C1592.4,-507.12 1584.44,-497.31 1576.73,-487.8"/>
<polygon fill="black" stroke="black" points="1579.35,-485.48 1570.33,-479.92 1573.91,-489.89 1579.35,-485.48"/>
</g>
<!-- node0x504000000610 -->
<g id="node23" class="node">
<title>node0x504000000610</title>
<path fill="#ffffd0" stroke="black" d="M1766,-387.5C1766,-387.5 1955,-387.5 1955,-387.5 1961,-387.5 1967,-393.5 1967,-399.5 1967,-399.5 1967,-467.5 1967,-467.5 1967,-473.5 1961,-479.5 1955,-479.5 1955,-479.5 1766,-479.5 1766,-479.5 1760,-479.5 1754,-473.5 1754,-467.5 1754,-467.5 1754,-399.5 1754,-399.5 1754,-393.5 1760,-387.5 1766,-387.5"/>
<text text-anchor="middle" x="1860.5" y="-464.3" font-family="Times,serif" font-size="14.00">[0x504000000610]</text>
<polyline fill="none" stroke="black" points="1754,-456.5 1967,-456.5 "/>
<text text-anchor="middle" x="1860.5" y="-441.3" font-family="Times,serif" font-size="14.00">data = FUPM REF</text>
<polyline fill="none" stroke="black" points="1754,-433.5 1967,-433.5 "/>
<text text-anchor="middle" x="1860.5" y="-418.3" font-family="Times,serif" font-size="14.00">shoot_free = 0</text>
<polyline fill="none" stroke="black" points="1754,-410.5 1967,-410.5 "/>
<text text-anchor="middle" x="1804.5" y="-395.3" font-family="Times,serif" font-size="14.00">left = [(nil)]</text>
<polyline fill="none" stroke="black" points="1855,-387.5 1855,-410.5 "/>
<text text-anchor="middle" x="1911" y="-395.3" font-family="Times,serif" font-size="14.00">right = [(nil)]</text>
</g>
<!-- node0x504000000490&#45;&gt;node0x504000000610 -->
<g id="edge22" class="edge">
<title>node0x504000000490&#45;&gt;node0x504000000610</title>
<path fill="none" stroke="black" d="M1716.1,-516.37C1734.23,-506.09 1753.6,-495.11 1772.07,-484.63"/>
<polygon fill="black" stroke="black" points="1773.8,-487.68 1780.77,-479.7 1770.35,-481.59 1773.8,-487.68"/>
</g>
<!-- node0x504000000510 -->
<g id="node24" class="node">
<title>node0x504000000510</title>
<path fill="#ffffd0" stroke="black" d="M1363,-258.5C1363,-258.5 1552,-258.5 1552,-258.5 1558,-258.5 1564,-264.5 1564,-270.5 1564,-270.5 1564,-338.5 1564,-338.5 1564,-344.5 1558,-350.5 1552,-350.5 1552,-350.5 1363,-350.5 1363,-350.5 1357,-350.5 1351,-344.5 1351,-338.5 1351,-338.5 1351,-270.5 1351,-270.5 1351,-264.5 1357,-258.5 1363,-258.5"/>
<text text-anchor="middle" x="1457.5" y="-335.3" font-family="Times,serif" font-size="14.00">[0x504000000510]</text>
<polyline fill="none" stroke="black" points="1351,-327.5 1564,-327.5 "/>
<text text-anchor="middle" x="1457.5" y="-312.3" font-family="Times,serif" font-size="14.00">data = damir</text>
<polyline fill="none" stroke="black" points="1351,-304.5 1564,-304.5 "/>
<text text-anchor="middle" x="1457.5" y="-289.3" font-family="Times,serif" font-size="14.00">shoot_free = 0</text>
<polyline fill="none" stroke="black" points="1351,-281.5 1564,-281.5 "/>
<text text-anchor="middle" x="1401.5" y="-266.3" font-family="Times,serif" font-size="14.00">left = [(nil)]</text>
<polyline fill="none" stroke="black" points="1452,-258.5 1452,-281.5 "/>
<text text-anchor="middle" x="1508" y="-266.3" font-family="Times,serif" font-size="14.00">right = [(nil)]</text>
</g>
<!-- node0x5040000004d0&#45;&gt;node0x504000000510 -->
<g id="edge23" class="edge">
<title>node0x5040000004d0&#45;&gt;node0x504000000510</title>
<path fill="none" stroke="black" d="M1506.49,-387.37C1501.12,-378.4 1495.44,-368.89 1489.91,-359.66"/>
<polygon fill="black" stroke="black" points="1492.82,-357.7 1484.68,-350.92 1486.81,-361.29 1492.82,-357.7"/>
</g>
<!-- node0x504000000550 -->
<g id="node25" class="node">
<title>node0x504000000550</title>
<path fill="#ffffd0" stroke="black" d="M1593.5,-258.5C1593.5,-258.5 1975.5,-258.5 1975.5,-258.5 1981.5,-258.5 1987.5,-264.5 1987.5,-270.5 1987.5,-270.5 1987.5,-338.5 1987.5,-338.5 1987.5,-344.5 1981.5,-350.5 1975.5,-350.5 1975.5,-350.5 1593.5,-350.5 1593.5,-350.5 1587.5,-350.5 1581.5,-344.5 1581.5,-338.5 1581.5,-338.5 1581.5,-270.5 1581.5,-270.5 1581.5,-264.5 1587.5,-258.5 1593.5,-258.5"/>
<text text-anchor="middle" x="1784.5" y="-335.3" font-family="Times,serif" font-size="14.00">[0x504000000550]</text>
<polyline fill="none" stroke="black" points="1581.5,-327.5 1987.5,-327.5 "/>
<text text-anchor="middle" x="1784.5" y="-312.3" font-family="Times,serif" font-size="14.00">data = has glasses</text>
<polyline fill="none" stroke="black" points="1581.5,-304.5 1987.5,-304.5 "/>
<text text-anchor="middle" x="1784.5" y="-289.3" font-family="Times,serif" font-size="14.00">shoot_free = 0</text>
<polyline fill="none" stroke="black" points="1581.5,-281.5 1987.5,-281.5 "/>
<text text-anchor="middle" x="1680" y="-266.3" font-family="Times,serif" font-size="14.00">left = [0x504000000590]</text>
<polyline fill="none" stroke="black" points="1778.5,-258.5 1778.5,-281.5 "/>
<text text-anchor="middle" x="1883" y="-266.3" font-family="Times,serif" font-size="14.00">right = [0x5040000005d0]</text>
</g>
<!-- node0x5040000004d0&#45;&gt;node0x504000000550 -->
<g id="edge24" class="edge">
<title>node0x5040000004d0&#45;&gt;node0x504000000550</title>
<path fill="none" stroke="black" d="M1622.7,-387.37C1643.2,-377 1665.11,-365.91 1685.98,-355.35"/>
<polygon fill="black" stroke="black" points="1687.82,-358.34 1695.16,-350.7 1684.66,-352.09 1687.82,-358.34"/>
</g>
<!-- node0x504000000590 -->
<g id="node26" class="node">
<title>node0x504000000590</title>
<path fill="#ffffd0" stroke="black" d="M1529,-129.5C1529,-129.5 1718,-129.5 1718,-129.5 1724,-129.5 1730,-135.5 1730,-141.5 1730,-141.5 1730,-209.5 1730,-209.5 1730,-215.5 1724,-221.5 1718,-221.5 1718,-221.5 1529,-221.5 1529,-221.5 1523,-221.5 1517,-215.5 1517,-209.5 1517,-209.5 1517,-141.5 1517,-141.5 1517,-135.5 1523,-129.5 1529,-129.5"/>
<text text-anchor="middle" x="1623.5" y="-206.3" font-family="Times,serif" font-size="14.00">[0x504000000590]</text>
<polyline fill="none" stroke="black" points="1517,-198.5 1730,-198.5 "/>
<text text-anchor="middle" x="1623.5" y="-183.3" font-family="Times,serif" font-size="14.00">data = yura</text>
<polyline fill="none" stroke="black" points="1517,-175.5 1730,-175.5 "/>
<text text-anchor="middle" x="1623.5" y="-160.3" font-family="Times,serif" font-size="14.00">shoot_free = 0</text>
<polyline fill="none" stroke="black" points="1517,-152.5 1730,-152.5 "/>
<text text-anchor="middle" x="1567.5" y="-137.3" font-family="Times,serif" font-size="14.00">left = [(nil)]</text>
<polyline fill="none" stroke="black" points="1618,-129.5 1618,-152.5 "/>
<text text-anchor="middle" x="1674" y="-137.3" font-family="Times,serif" font-size="14.00">right = [(nil)]</text>
</g>
<!-- node0x504000000550&#45;&gt;node0x504000000590 -->
<g id="edge25" class="edge">
<title>node0x504000000550&#45;&gt;node0x504000000590</title>
<path fill="none" stroke="black" d="M1727.28,-258.37C1714.78,-248.51 1701.47,-238 1688.68,-227.92"/>
<polygon fill="black" stroke="black" points="1690.82,-225.15 1680.8,-221.7 1686.49,-230.64 1690.82,-225.15"/>
</g>
<!-- node0x5040000005d0 -->
<g id="node27" class="node">
<title>node0x5040000005d0</title>
<path fill="#ffffd0" stroke="black" d="M1760,-129.5C1760,-129.5 1949,-129.5 1949,-129.5 1955,-129.5 1961,-135.5 1961,-141.5 1961,-141.5 1961,-209.5 1961,-209.5 1961,-215.5 1955,-221.5 1949,-221.5 1949,-221.5 1760,-221.5 1760,-221.5 1754,-221.5 1748,-215.5 1748,-209.5 1748,-209.5 1748,-141.5 1748,-141.5 1748,-135.5 1754,-129.5 1760,-129.5"/>
<text text-anchor="middle" x="1854.5" y="-206.3" font-family="Times,serif" font-size="14.00">[0x5040000005d0]</text>
<polyline fill="none" stroke="black" points="1748,-198.5 1961,-198.5 "/>
<text text-anchor="middle" x="1854.5" y="-183.3" font-family="Times,serif" font-size="14.00">data = dima</text>
<polyline fill="none" stroke="black" points="1748,-175.5 1961,-175.5 "/>
<text text-anchor="middle" x="1854.5" y="-160.3" font-family="Times,serif" font-size="14.00">shoot_free = 0</text>
<polyline fill="none" stroke="black" points="1748,-152.5 1961,-152.5 "/>
<text text-anchor="middle" x="1798.5" y="-137.3" font-family="Times,serif" font-size="14.00">left = [(nil)]</text>
<polyline fill="none" stroke="black" points="1849,-129.5 1849,-152.5 "/>
<text text-anchor="middle" x="1905" y="-137.3" font-family="Times,serif" font-size="14.00">right = [(nil)]</text>
</g>
<!-- node0x504000000550&#45;&gt;node0x5040000005d0 -->
<g id="edge26" class="edge">
<title>node0x504000000550&#45;&gt;node0x5040000005d0</title>
<path fill="none" stroke="black" d="M1809.38,-258.37C1814.27,-249.49 1819.45,-240.09 1824.49,-230.95"/>
<polygon fill="black" stroke="black" points="1827.71,-232.36 1829.47,-221.92 1821.58,-228.98 1827.71,-232.36"/>
</g>
</g>
</svg>
