<?xml version="1.0" encoding="UTF-8" standalone="no"?>
<!DOCTYPE svg PUBLIC "-//W3C//DTD SVG 1.1//EN"
 "http://www.w3.org/Graphics/SVG/1.1/DTD/svg11.dtd">
<!-- Generated by graphviz version 2.43.0 (0)
 -->
<!-- Title: %3 Pages: 1 -->
<svg width="2048pt" height="875pt"
 viewBox="0.00 0.00 2048.00 875.00" xmlns="http://www.w3.org/2000/svg" xmlns:xlink="http://www.w3.org/1999/xlink">
<g id="graph0" class="graph" transform="scale(1 1) rotate(0) translate(4 871)">
<title>%3</title>
<!-- node0x504000000010 -->
<g id="node1" class="node">
<title>node0x504000000010</title>
<path fill="#ffffd0" stroke="black" d="M543.5,-774.5C543.5,-774.5 925.5,-774.5 925.5,-774.5 931.5,-774.5 937.5,-780.5 937.5,-786.5 937.5,-786.5 937.5,-854.5 937.5,-854.5 937.5,-860.5 931.5,-866.5 925.5,-866.5 925.5,-866.5 543.5,-866.5 543.5,-866.5 537.5,-866.5 531.5,-860.5 531.5,-854.5 531.5,-854.5 531.5,-786.5 531.5,-786.5 531.5,-780.5 537.5,-774.5 543.5,-774.5"/>
<text text-anchor="middle" x="734.5" y="-851.3" font-family="Times,serif" font-size="14.00">[0x504000000010]</text>
<polyline fill="none" stroke="black" points="531.5,-843.5 937.5,-843.5 "/>
<text text-anchor="middle" x="734.5" y="-828.3" font-family="Times,serif" font-size="14.00">data = teacher</text>
<polyline fill="none" stroke="black" points="531.5,-820.5 937.5,-820.5 "/>
<text text-anchor="middle" x="734.5" y="-805.3" font-family="Times,serif" font-size="14.00">shoot_free = 0</text>
<polyline fill="none" stroke="black" points="531.5,-797.5 937.5,-797.5 "/>
<text text-anchor="middle" x="630" y="-782.3" font-family="Times,serif" font-size="14.00">left = [0x504000000050]</text>
<polyline fill="none" stroke="black" points="728.5,-774.5 728.5,-797.5 "/>
<text text-anchor="middle" x="833" y="-782.3" font-family="Times,serif" font-size="14.00">right = [0x504000000110]</text>
</g>
<!-- node0x504000000050 -->
<g id="node2" class="node">
<title>node0x504000000050</title>
<path fill="#ffffd0" stroke="black" d="M331.5,-645.5C331.5,-645.5 713.5,-645.5 713.5,-645.5 719.5,-645.5 725.5,-651.5 725.5,-657.5 725.5,-657.5 725.5,-725.5 725.5,-725.5 725.5,-731.5 719.5,-737.5 713.5,-737.5 713.5,-737.5 331.5,-737.5 331.5,-737.5 325.5,-737.5 319.5,-731.5 319.5,-725.5 319.5,-725.5 319.5,-657.5 319.5,-657.5 319.5,-651.5 325.5,-645.5 331.5,-645.5"/>
<text text-anchor="middle" x="522.5" y="-722.3" font-family="Times,serif" font-size="14.00">[0x504000000050]</text>
<polyline fill="none" stroke="black" points="319.5,-714.5 725.5,-714.5 "/>
<text text-anchor="middle" x="522.5" y="-699.3" font-family="Times,serif" font-size="14.00">data = teacher of programming</text>
<polyline fill="none" stroke="black" points="319.5,-691.5 725.5,-691.5 "/>
<text text-anchor="middle" x="522.5" y="-676.3" font-family="Times,serif" font-size="14.00">shoot_free = 0</text>
<polyline fill="none" stroke="black" points="319.5,-668.5 725.5,-668.5 "/>
<text text-anchor="middle" x="418" y="-653.3" font-family="Times,serif" font-size="14.00">left = [0x504000000090]</text>
<polyline fill="none" stroke="black" points="516.5,-645.5 516.5,-668.5 "/>
<text text-anchor="middle" x="621" y="-653.3" font-family="Times,serif" font-size="14.00">right = [0x5040000000d0]</text>
</g>
<!-- node0x504000000010&#45;&gt;node0x504000000050 -->
<g id="edge1" class="edge">
<title>node0x504000000010&#45;&gt;node0x504000000050</title>
<path fill="none" stroke="black" d="M659.16,-774.37C642.23,-764.23 624.17,-753.41 606.9,-743.06"/>
<polygon fill="black" stroke="black" points="608.33,-739.84 597.95,-737.7 604.73,-745.84 608.33,-739.84"/>
</g>
<!-- node0x504000000110 -->
<g id="node3" class="node">
<title>node0x504000000110</title>
<path fill="#ffffd0" stroke="black" d="M755.5,-645.5C755.5,-645.5 1137.5,-645.5 1137.5,-645.5 1143.5,-645.5 1149.5,-651.5 1149.5,-657.5 1149.5,-657.5 1149.5,-725.5 1149.5,-725.5 1149.5,-731.5 1143.5,-737.5 1137.5,-737.5 1137.5,-737.5 755.5,-737.5 755.5,-737.5 749.5,-737.5 743.5,-731.5 743.5,-725.5 743.5,-725.5 743.5,-657.5 743.5,-657.5 743.5,-651.5 749.5,-645.5 755.5,-645.5"/>
<text text-anchor="middle" x="946.5" y="-722.3" font-family="Times,serif" font-size="14.00">[0x504000000110]</text>
<polyline fill="none" stroke="black" points="743.5,-714.5 1149.5,-714.5 "/>
<text text-anchor="middle" x="946.5" y="-699.3" font-family="Times,serif" font-size="14.00">data = football player</text>
<polyline fill="none" stroke="black" points="743.5,-691.5 1149.5,-691.5 "/>
<text text-anchor="middle" x="946.5" y="-676.3" font-family="Times,serif" font-size="14.00">shoot_free = 0</text>
<polyline fill="none" stroke="black" points="743.5,-668.5 1149.5,-668.5 "/>
<text text-anchor="middle" x="842" y="-653.3" font-family="Times,serif" font-size="14.00">left = [0x504000000150]</text>
<polyline fill="none" stroke="black" points="940.5,-645.5 940.5,-668.5 "/>
<text text-anchor="middle" x="1045" y="-653.3" font-family="Times,serif" font-size="14.00">right = [0x504000000410]</text>
</g>
<!-- node0x504000000010&#45;&gt;node0x504000000110 -->
<g id="edge2" class="edge">
<title>node0x504000000010&#45;&gt;node0x504000000110</title>
<path fill="none" stroke="black" d="M809.84,-774.37C826.77,-764.23 844.83,-753.41 862.1,-743.06"/>
<polygon fill="black" stroke="black" points="864.27,-745.84 871.05,-737.7 860.67,-739.84 864.27,-745.84"/>
</g>
<!-- node0x504000000090 -->
<g id="node4" class="node">
<title>node0x504000000090</title>
<path fill="#ffffd0" stroke="black" d="M222,-516.5C222,-516.5 411,-516.5 411,-516.5 417,-516.5 423,-522.5 423,-528.5 423,-528.5 423,-596.5 423,-596.5 423,-602.5 417,-608.5 411,-608.5 411,-608.5 222,-608.5 222,-608.5 216,-608.5 210,-602.5 210,-596.5 210,-596.5 210,-528.5 210,-528.5 210,-522.5 216,-516.5 222,-516.5"/>
<text text-anchor="middle" x="316.5" y="-593.3" font-family="Times,serif" font-size="14.00">[0x504000000090]</text>
<polyline fill="none" stroke="black" points="210,-585.5 423,-585.5 "/>
<text text-anchor="middle" x="316.5" y="-570.3" font-family="Times,serif" font-size="14.00">data = ded32</text>
<polyline fill="none" stroke="black" points="210,-562.5 423,-562.5 "/>
<text text-anchor="middle" x="316.5" y="-547.3" font-family="Times,serif" font-size="14.00">shoot_free = 0</text>
<polyline fill="none" stroke="black" points="210,-539.5 423,-539.5 "/>
<text text-anchor="middle" x="260.5" y="-524.3" font-family="Times,serif" font-size="14.00">left = [(nil)]</text>
<polyline fill="none" stroke="black" points="311,-516.5 311,-539.5 "/>
<text text-anchor="middle" x="367" y="-524.3" font-family="Times,serif" font-size="14.00">right = [(nil)]</text>
</g>
<!-- node0x504000000050&#45;&gt;node0x504000000090 -->
<g id="edge3" class="edge">
<title>node0x504000000050&#45;&gt;node0x504000000090</title>
<path fill="none" stroke="black" d="M449.29,-645.37C432.85,-635.23 415.29,-624.41 398.51,-614.06"/>
<polygon fill="black" stroke="black" points="400.17,-610.97 389.82,-608.7 396.49,-616.93 400.17,-610.97"/>
</g>
<!-- node0x5040000000d0 -->
<g id="node5" class="node">
<title>node0x5040000000d0</title>
<path fill="#ffffd0" stroke="black" d="M453,-516.5C453,-516.5 642,-516.5 642,-516.5 648,-516.5 654,-522.5 654,-528.5 654,-528.5 654,-596.5 654,-596.5 654,-602.5 648,-608.5 642,-608.5 642,-608.5 453,-608.5 453,-608.5 447,-608.5 441,-602.5 441,-596.5 441,-596.5 441,-528.5 441,-528.5 441,-522.5 447,-516.5 453,-516.5"/>
<text text-anchor="middle" x="547.5" y="-593.3" font-family="Times,serif" font-size="14.00">[0x5040000000d0]</text>
<polyline fill="none" stroke="black" points="441,-585.5 654,-585.5 "/>
<text text-anchor="middle" x="547.5" y="-570.3" font-family="Times,serif" font-size="14.00">data = ovchinkin</text>
<polyline fill="none" stroke="black" points="441,-562.5 654,-562.5 "/>
<text text-anchor="middle" x="547.5" y="-547.3" font-family="Times,serif" font-size="14.00">shoot_free = 0</text>
<polyline fill="none" stroke="black" points="441,-539.5 654,-539.5 "/>
<text text-anchor="middle" x="491.5" y="-524.3" font-family="Times,serif" font-size="14.00">left = [(nil)]</text>
<polyline fill="none" stroke="black" points="542,-516.5 542,-539.5 "/>
<text text-anchor="middle" x="598" y="-524.3" font-family="Times,serif" font-size="14.00">right = [(nil)]</text>
</g>
<!-- node0x504000000050&#45;&gt;node0x5040000000d0 -->
<g id="edge4" class="edge">
<title>node0x504000000050&#45;&gt;node0x5040000000d0</title>
<path fill="none" stroke="black" d="M531.38,-645.37C533.08,-636.77 534.87,-627.68 536.61,-618.8"/>
<polygon fill="black" stroke="black" points="540.06,-619.4 538.56,-608.92 533.19,-618.05 540.06,-619.4"/>
</g>
<!-- node0x504000000150 -->
<g id="node6" class="node">
<title>node0x504000000150</title>
<path fill="#ffffd0" stroke="black" d="M731.5,-516.5C731.5,-516.5 1113.5,-516.5 1113.5,-516.5 1119.5,-516.5 1125.5,-522.5 1125.5,-528.5 1125.5,-528.5 1125.5,-596.5 1125.5,-596.5 1125.5,-602.5 1119.5,-608.5 1113.5,-608.5 1113.5,-608.5 731.5,-608.5 731.5,-608.5 725.5,-608.5 719.5,-602.5 719.5,-596.5 719.5,-596.5 719.5,-528.5 719.5,-528.5 719.5,-522.5 725.5,-516.5 731.5,-516.5"/>
<text text-anchor="middle" x="922.5" y="-593.3" font-family="Times,serif" font-size="14.00">[0x504000000150]</text>
<polyline fill="none" stroke="black" points="719.5,-585.5 1125.5,-585.5 "/>
<text text-anchor="middle" x="922.5" y="-570.3" font-family="Times,serif" font-size="14.00">data = plays for the caRTel</text>
<polyline fill="none" stroke="black" points="719.5,-562.5 1125.5,-562.5 "/>
<text text-anchor="middle" x="922.5" y="-547.3" font-family="Times,serif" font-size="14.00">shoot_free = 0</text>
<polyline fill="none" stroke="black" points="719.5,-539.5 1125.5,-539.5 "/>
<text text-anchor="middle" x="818" y="-524.3" font-family="Times,serif" font-size="14.00">left = [0x504000000190]</text>
<polyline fill="none" stroke="black" points="916.5,-516.5 916.5,-539.5 "/>
<text text-anchor="middle" x="1021" y="-524.3" font-family="Times,serif" font-size="14.00">right = [0x5040000003d0]</text>
</g>
<!-- node0x504000000110&#45;&gt;node0x504000000150 -->
<g id="edge5" class="edge">
<title>node0x504000000110&#45;&gt;node0x504000000150</title>
<path fill="none" stroke="black" d="M937.97,-645.37C936.35,-636.77 934.63,-627.68 932.95,-618.8"/>
<polygon fill="black" stroke="black" points="936.38,-618.09 931.08,-608.92 929.5,-619.39 936.38,-618.09"/>
</g>
<!-- node0x504000000410 -->
<g id="node7" class="node">
<title>node0x504000000410</title>
<path fill="#ffffd0" stroke="black" d="M1155.5,-516.5C1155.5,-516.5 1537.5,-516.5 1537.5,-516.5 1543.5,-516.5 1549.5,-522.5 1549.5,-528.5 1549.5,-528.5 1549.5,-596.5 1549.5,-596.5 1549.5,-602.5 1543.5,-608.5 1537.5,-608.5 1537.5,-608.5 1155.5,-608.5 1155.5,-608.5 1149.5,-608.5 1143.5,-602.5 1143.5,-596.5 1143.5,-596.5 1143.5,-528.5 1143.5,-528.5 1143.5,-522.5 1149.5,-516.5 1155.5,-516.5"/>
<text text-anchor="middle" x="1346.5" y="-593.3" font-family="Times,serif" font-size="14.00">[0x504000000410]</text>
<polyline fill="none" stroke="black" points="1143.5,-585.5 1549.5,-585.5 "/>
<text text-anchor="middle" x="1346.5" y="-570.3" font-family="Times,serif" font-size="14.00">data = coach</text>
<polyline fill="none" stroke="black" points="1143.5,-562.5 1549.5,-562.5 "/>
<text text-anchor="middle" x="1346.5" y="-547.3" font-family="Times,serif" font-size="14.00">shoot_free = 0</text>
<polyline fill="none" stroke="black" points="1143.5,-539.5 1549.5,-539.5 "/>
<text text-anchor="middle" x="1242" y="-524.3" font-family="Times,serif" font-size="14.00">left = [0x504000000450]</text>
<polyline fill="none" stroke="black" points="1340.5,-516.5 1340.5,-539.5 "/>
<text text-anchor="middle" x="1445" y="-524.3" font-family="Times,serif" font-size="14.00">right = [0x504000000490]</text>
</g>
<!-- node0x504000000110&#45;&gt;node0x504000000410 -->
<g id="edge6" class="edge">
<title>node0x504000000110&#45;&gt;node0x504000000410</title>
<path fill="none" stroke="black" d="M1088.37,-645.46C1122.87,-634.5 1159.89,-622.75 1194.82,-611.66"/>
<polygon fill="black" stroke="black" points="1196.15,-614.91 1204.62,-608.55 1194.03,-608.24 1196.15,-614.91"/>
</g>
<!-- node0x504000000190 -->
<g id="node8" class="node">
<title>node0x504000000190</title>
<path fill="#ffffd0" stroke="black" d="M453.5,-387.5C453.5,-387.5 835.5,-387.5 835.5,-387.5 841.5,-387.5 847.5,-393.5 847.5,-399.5 847.5,-399.5 847.5,-467.5 847.5,-467.5 847.5,-473.5 841.5,-479.5 835.5,-479.5 835.5,-479.5 453.5,-479.5 453.5,-479.5 447.5,-479.5 441.5,-473.5 441.5,-467.5 441.5,-467.5 441.5,-399.5 441.5,-399.5 441.5,-393.5 447.5,-387.5 453.5,-387.5"/>
<text text-anchor="middle" x="644.5" y="-464.3" font-family="Times,serif" font-size="14.00">[0x504000000190]</text>
<polyline fill="none" stroke="black" points="441.5,-456.5 847.5,-456.5 "/>
<text text-anchor="middle" x="644.5" y="-441.3" font-family="Times,serif" font-size="14.00">data = defender</text>
<polyline fill="none" stroke="black" points="441.5,-433.5 847.5,-433.5 "/>
<text text-anchor="middle" x="644.5" y="-418.3" font-family="Times,serif" font-size="14.00">shoot_free = 0</text>
<polyline fill="none" stroke="black" points="441.5,-410.5 847.5,-410.5 "/>
<text text-anchor="middle" x="540" y="-395.3" font-family="Times,serif" font-size="14.00">left = [0x5040000001d0]</text>
<polyline fill="none" stroke="black" points="638.5,-387.5 638.5,-410.5 "/>
<text text-anchor="middle" x="743" y="-395.3" font-family="Times,serif" font-size="14.00">right = [0x504000000290]</text>
</g>
<!-- node0x504000000150&#45;&gt;node0x504000000190 -->
<g id="edge7" class="edge">
<title>node0x504000000150&#45;&gt;node0x504000000190</title>
<path fill="none" stroke="black" d="M823.7,-516.37C800.7,-505.86 776.08,-494.61 752.69,-483.92"/>
<polygon fill="black" stroke="black" points="754,-480.67 743.45,-479.7 751.09,-487.04 754,-480.67"/>
</g>
<!-- node0x5040000003d0 -->
<g id="node9" class="node">
<title>node0x5040000003d0</title>
<path fill="#ffffd0" stroke="black" d="M877,-387.5C877,-387.5 1066,-387.5 1066,-387.5 1072,-387.5 1078,-393.5 1078,-399.5 1078,-399.5 1078,-467.5 1078,-467.5 1078,-473.5 1072,-479.5 1066,-479.5 1066,-479.5 877,-479.5 877,-479.5 871,-479.5 865,-473.5 865,-467.5 865,-467.5 865,-399.5 865,-399.5 865,-393.5 871,-387.5 877,-387.5"/>
<text text-anchor="middle" x="971.5" y="-464.3" font-family="Times,serif" font-size="14.00">[0x5040000003d0]</text>
<polyline fill="none" stroke="black" points="865,-456.5 1078,-456.5 "/>
<text text-anchor="middle" x="971.5" y="-441.3" font-family="Times,serif" font-size="14.00">data = loh</text>
<polyline fill="none" stroke="black" points="865,-433.5 1078,-433.5 "/>
<text text-anchor="middle" x="971.5" y="-418.3" font-family="Times,serif" font-size="14.00">shoot_free = 0</text>
<polyline fill="none" stroke="black" points="865,-410.5 1078,-410.5 "/>
<text text-anchor="middle" x="915.5" y="-395.3" font-family="Times,serif" font-size="14.00">left = [(nil)]</text>
<polyline fill="none" stroke="black" points="966,-387.5 966,-410.5 "/>
<text text-anchor="middle" x="1022" y="-395.3" font-family="Times,serif" font-size="14.00">right = [(nil)]</text>
</g>
<!-- node0x504000000150&#45;&gt;node0x5040000003d0 -->
<g id="edge8" class="edge">
<title>node0x504000000150&#45;&gt;node0x5040000003d0</title>
<path fill="none" stroke="black" d="M939.91,-516.37C943.27,-507.68 946.81,-498.48 950.27,-489.52"/>
<polygon fill="black" stroke="black" points="953.64,-490.51 953.98,-479.92 947.11,-487.99 953.64,-490.51"/>
</g>
<!-- node0x504000000450 -->
<g id="node18" class="node">
<title>node0x504000000450</title>
<path fill="#ffffd0" stroke="black" d="M1186,-387.5C1186,-387.5 1411,-387.5 1411,-387.5 1417,-387.5 1423,-393.5 1423,-399.5 1423,-399.5 1423,-467.5 1423,-467.5 1423,-473.5 1417,-479.5 1411,-479.5 1411,-479.5 1186,-479.5 1186,-479.5 1180,-479.5 1174,-473.5 1174,-467.5 1174,-467.5 1174,-399.5 1174,-399.5 1174,-393.5 1180,-387.5 1186,-387.5"/>
<text text-anchor="middle" x="1298.5" y="-464.3" font-family="Times,serif" font-size="14.00">[0x504000000450]</text>
<polyline fill="none" stroke="black" points="1174,-456.5 1423,-456.5 "/>
<text text-anchor="middle" x="1298.5" y="-441.3" font-family="Times,serif" font-size="14.00">data = valentin spivak guardiola</text>
<polyline fill="none" stroke="black" points="1174,-433.5 1423,-433.5 "/>
<text text-anchor="middle" x="1298.5" y="-418.3" font-family="Times,serif" font-size="14.00">shoot_free = 0</text>
<polyline fill="none" stroke="black" points="1174,-410.5 1423,-410.5 "/>
<text text-anchor="middle" x="1233.5" y="-395.3" font-family="Times,serif" font-size="14.00">left = [(nil)]</text>
<polyline fill="none" stroke="black" points="1293,-387.5 1293,-410.5 "/>
<text text-anchor="middle" x="1358" y="-395.3" font-family="Times,serif" font-size="14.00">right = [(nil)]</text>
</g>
<!-- node0x504000000410&#45;&gt;node0x504000000450 -->
<g id="edge17" class="edge">
<title>node0x504000000410&#45;&gt;node0x504000000450</title>
<path fill="none" stroke="black" d="M1329.44,-516.37C1326.16,-507.68 1322.68,-498.48 1319.29,-489.52"/>
<polygon fill="black" stroke="black" points="1322.47,-488.03 1315.66,-479.92 1315.93,-490.51 1322.47,-488.03"/>
</g>
<!-- node0x504000000490 -->
<g id="node19" class="node">
<title>node0x504000000490</title>
<path fill="#ffffd0" stroke="black" d="M1453.5,-387.5C1453.5,-387.5 1835.5,-387.5 1835.5,-387.5 1841.5,-387.5 1847.5,-393.5 1847.5,-399.5 1847.5,-399.5 1847.5,-467.5 1847.5,-467.5 1847.5,-473.5 1841.5,-479.5 1835.5,-479.5 1835.5,-479.5 1453.5,-479.5 1453.5,-479.5 1447.5,-479.5 1441.5,-473.5 1441.5,-467.5 1441.5,-467.5 1441.5,-399.5 1441.5,-399.5 1441.5,-393.5 1447.5,-387.5 1453.5,-387.5"/>
<text text-anchor="middle" x="1644.5" y="-464.3" font-family="Times,serif" font-size="14.00">[0x504000000490]</text>
<polyline fill="none" stroke="black" points="1441.5,-456.5 1847.5,-456.5 "/>
<text text-anchor="middle" x="1644.5" y="-441.3" font-family="Times,serif" font-size="14.00">data = lives in 209 room</text>
<polyline fill="none" stroke="black" points="1441.5,-433.5 1847.5,-433.5 "/>
<text text-anchor="middle" x="1644.5" y="-418.3" font-family="Times,serif" font-size="14.00">shoot_free = 0</text>
<polyline fill="none" stroke="black" points="1441.5,-410.5 1847.5,-410.5 "/>
<text text-anchor="middle" x="1540" y="-395.3" font-family="Times,serif" font-size="14.00">left = [0x5040000004d0]</text>
<polyline fill="none" stroke="black" points="1638.5,-387.5 1638.5,-410.5 "/>
<text text-anchor="middle" x="1743" y="-395.3" font-family="Times,serif" font-size="14.00">right = [0x504000000610]</text>
</g>
<!-- node0x504000000410&#45;&gt;node0x504000000490 -->
<g id="edge18" class="edge">
<title>node0x504000000410&#45;&gt;node0x504000000490</title>
<path fill="none" stroke="black" d="M1452.4,-516.37C1477.36,-505.73 1504.08,-494.34 1529.42,-483.54"/>
<polygon fill="black" stroke="black" points="1530.86,-486.74 1538.69,-479.59 1528.12,-480.3 1530.86,-486.74"/>
</g>
<!-- node0x5040000001d0 -->
<g id="node10" class="node">
<title>node0x5040000001d0</title>
<path fill="#ffffd0" stroke="black" d="M97.5,-258.5C97.5,-258.5 479.5,-258.5 479.5,-258.5 485.5,-258.5 491.5,-264.5 491.5,-270.5 491.5,-270.5 491.5,-338.5 491.5,-338.5 491.5,-344.5 485.5,-350.5 479.5,-350.5 479.5,-350.5 97.5,-350.5 97.5,-350.5 91.5,-350.5 85.5,-344.5 85.5,-338.5 85.5,-338.5 85.5,-270.5 85.5,-270.5 85.5,-264.5 91.5,-258.5 97.5,-258.5"/>
<text text-anchor="middle" x="288.5" y="-335.3" font-family="Times,serif" font-size="14.00">[0x5040000001d0]</text>
<polyline fill="none" stroke="black" points="85.5,-327.5 491.5,-327.5 "/>
<text text-anchor="middle" x="288.5" y="-312.3" font-family="Times,serif" font-size="14.00">data = left defender</text>
<polyline fill="none" stroke="black" points="85.5,-304.5 491.5,-304.5 "/>
<text text-anchor="middle" x="288.5" y="-289.3" font-family="Times,serif" font-size="14.00">shoot_free = 0</text>
<polyline fill="none" stroke="black" points="85.5,-281.5 491.5,-281.5 "/>
<text text-anchor="middle" x="184" y="-266.3" font-family="Times,serif" font-size="14.00">left = [0x504000000210]</text>
<polyline fill="none" stroke="black" points="282.5,-258.5 282.5,-281.5 "/>
<text text-anchor="middle" x="387" y="-266.3" font-family="Times,serif" font-size="14.00">right = [0x504000000250]</text>
</g>
<!-- node0x504000000190&#45;&gt;node0x5040000001d0 -->
<g id="edge9" class="edge">
<title>node0x504000000190&#45;&gt;node0x5040000001d0</title>
<path fill="none" stroke="black" d="M518.24,-387.46C487.8,-376.6 455.14,-364.95 424.29,-353.94"/>
<polygon fill="black" stroke="black" points="425.37,-350.61 414.78,-350.55 423.02,-357.2 425.37,-350.61"/>
</g>
<!-- node0x504000000290 -->
<g id="node11" class="node">
<title>node0x504000000290</title>
<path fill="#ffffd0" stroke="black" d="M521.5,-258.5C521.5,-258.5 903.5,-258.5 903.5,-258.5 909.5,-258.5 915.5,-264.5 915.5,-270.5 915.5,-270.5 915.5,-338.5 915.5,-338.5 915.5,-344.5 909.5,-350.5 903.5,-350.5 903.5,-350.5 521.5,-350.5 521.5,-350.5 515.5,-350.5 509.5,-344.5 509.5,-338.5 509.5,-338.5 509.5,-270.5 509.5,-270.5 509.5,-264.5 515.5,-258.5 521.5,-258.5"/>
<text text-anchor="middle" x="712.5" y="-335.3" font-family="Times,serif" font-size="14.00">[0x504000000290]</text>
<polyline fill="none" stroke="black" points="509.5,-327.5 915.5,-327.5 "/>
<text text-anchor="middle" x="712.5" y="-312.3" font-family="Times,serif" font-size="14.00">data = center forward</text>
<polyline fill="none" stroke="black" points="509.5,-304.5 915.5,-304.5 "/>
<text text-anchor="middle" x="712.5" y="-289.3" font-family="Times,serif" font-size="14.00">shoot_free = 0</text>
<polyline fill="none" stroke="black" points="509.5,-281.5 915.5,-281.5 "/>
<text text-anchor="middle" x="608" y="-266.3" font-family="Times,serif" font-size="14.00">left = [0x5040000002d0]</text>
<polyline fill="none" stroke="black" points="706.5,-258.5 706.5,-281.5 "/>
<text text-anchor="middle" x="811" y="-266.3" font-family="Times,serif" font-size="14.00">right = [0x504000000310]</text>
</g>
<!-- node0x504000000190&#45;&gt;node0x504000000290 -->
<g id="edge10" class="edge">
<title>node0x504000000190&#45;&gt;node0x504000000290</title>
<path fill="none" stroke="black" d="M668.67,-387.37C673.42,-378.49 678.45,-369.09 683.35,-359.95"/>
<polygon fill="black" stroke="black" points="686.55,-361.38 688.18,-350.92 680.38,-358.08 686.55,-361.38"/>
</g>
<!-- node0x504000000210 -->
<g id="node12" class="node">
<title>node0x504000000210</title>
<path fill="#ffffd0" stroke="black" d="M12,-129.5C12,-129.5 201,-129.5 201,-129.5 207,-129.5 213,-135.5 213,-141.5 213,-141.5 213,-209.5 213,-209.5 213,-215.5 207,-221.5 201,-221.5 201,-221.5 12,-221.5 12,-221.5 6,-221.5 0,-215.5 0,-209.5 0,-209.5 0,-141.5 0,-141.5 0,-135.5 6,-129.5 12,-129.5"/>
<text text-anchor="middle" x="106.5" y="-206.3" font-family="Times,serif" font-size="14.00">[0x504000000210]</text>
<polyline fill="none" stroke="black" points="0,-198.5 213,-198.5 "/>
<text text-anchor="middle" x="106.5" y="-183.3" font-family="Times,serif" font-size="14.00">data = tolik</text>
<polyline fill="none" stroke="black" points="0,-175.5 213,-175.5 "/>
<text text-anchor="middle" x="106.5" y="-160.3" font-family="Times,serif" font-size="14.00">shoot_free = 0</text>
<polyline fill="none" stroke="black" points="0,-152.5 213,-152.5 "/>
<text text-anchor="middle" x="50.5" y="-137.3" font-family="Times,serif" font-size="14.00">left = [(nil)]</text>
<polyline fill="none" stroke="black" points="101,-129.5 101,-152.5 "/>
<text text-anchor="middle" x="157" y="-137.3" font-family="Times,serif" font-size="14.00">right = [(nil)]</text>
</g>
<!-- node0x5040000001d0&#45;&gt;node0x504000000210 -->
<g id="edge11" class="edge">
<title>node0x5040000001d0&#45;&gt;node0x504000000210</title>
<path fill="none" stroke="black" d="M223.82,-258.37C209.56,-248.41 194.35,-237.8 179.77,-227.63"/>
<polygon fill="black" stroke="black" points="181.48,-224.55 171.28,-221.7 177.47,-230.29 181.48,-224.55"/>
</g>
<!-- node0x504000000250 -->
<g id="node13" class="node">
<title>node0x504000000250</title>
<path fill="#ffffd0" stroke="black" d="M243,-129.5C243,-129.5 432,-129.5 432,-129.5 438,-129.5 444,-135.5 444,-141.5 444,-141.5 444,-209.5 444,-209.5 444,-215.5 438,-221.5 432,-221.5 432,-221.5 243,-221.5 243,-221.5 237,-221.5 231,-215.5 231,-209.5 231,-209.5 231,-141.5 231,-141.5 231,-135.5 237,-129.5 243,-129.5"/>
<text text-anchor="middle" x="337.5" y="-206.3" font-family="Times,serif" font-size="14.00">[0x504000000250]</text>
<polyline fill="none" stroke="black" points="231,-198.5 444,-198.5 "/>
<text text-anchor="middle" x="337.5" y="-183.3" font-family="Times,serif" font-size="14.00">data = dan</text>
<polyline fill="none" stroke="black" points="231,-175.5 444,-175.5 "/>
<text text-anchor="middle" x="337.5" y="-160.3" font-family="Times,serif" font-size="14.00">shoot_free = 0</text>
<polyline fill="none" stroke="black" points="231,-152.5 444,-152.5 "/>
<text text-anchor="middle" x="281.5" y="-137.3" font-family="Times,serif" font-size="14.00">left = [(nil)]</text>
<polyline fill="none" stroke="black" points="332,-129.5 332,-152.5 "/>
<text text-anchor="middle" x="388" y="-137.3" font-family="Times,serif" font-size="14.00">right = [(nil)]</text>
</g>
<!-- node0x5040000001d0&#45;&gt;node0x504000000250 -->
<g id="edge12" class="edge">
<title>node0x5040000001d0&#45;&gt;node0x504000000250</title>
<path fill="none" stroke="black" d="M305.91,-258.37C309.27,-249.68 312.81,-240.48 316.27,-231.52"/>
<polygon fill="black" stroke="black" points="319.64,-232.51 319.98,-221.92 313.11,-229.99 319.64,-232.51"/>
</g>
<!-- node0x5040000002d0 -->
<g id="node14" class="node">
<title>node0x5040000002d0</title>
<path fill="#ffffd0" stroke="black" d="M570,-129.5C570,-129.5 759,-129.5 759,-129.5 765,-129.5 771,-135.5 771,-141.5 771,-141.5 771,-209.5 771,-209.5 771,-215.5 765,-221.5 759,-221.5 759,-221.5 570,-221.5 570,-221.5 564,-221.5 558,-215.5 558,-209.5 558,-209.5 558,-141.5 558,-141.5 558,-135.5 564,-129.5 570,-129.5"/>
<text text-anchor="middle" x="664.5" y="-206.3" font-family="Times,serif" font-size="14.00">[0x5040000002d0]</text>
<polyline fill="none" stroke="black" points="558,-198.5 771,-198.5 "/>
<text text-anchor="middle" x="664.5" y="-183.3" font-family="Times,serif" font-size="14.00">data = artem</text>
<polyline fill="none" stroke="black" points="558,-175.5 771,-175.5 "/>
<text text-anchor="middle" x="664.5" y="-160.3" font-family="Times,serif" font-size="14.00">shoot_free = 0</text>
<polyline fill="none" stroke="black" points="558,-152.5 771,-152.5 "/>
<text text-anchor="middle" x="608.5" y="-137.3" font-family="Times,serif" font-size="14.00">left = [(nil)]</text>
<polyline fill="none" stroke="black" points="659,-129.5 659,-152.5 "/>
<text text-anchor="middle" x="715" y="-137.3" font-family="Times,serif" font-size="14.00">right = [(nil)]</text>
</g>
<!-- node0x504000000290&#45;&gt;node0x5040000002d0 -->
<g id="edge13" class="edge">
<title>node0x504000000290&#45;&gt;node0x5040000002d0</title>
<path fill="none" stroke="black" d="M695.44,-258.37C692.16,-249.68 688.68,-240.48 685.29,-231.52"/>
<polygon fill="black" stroke="black" points="688.47,-230.03 681.66,-221.92 681.93,-232.51 688.47,-230.03"/>
</g>
<!-- node0x504000000310 -->
<g id="node15" class="node">
<title>node0x504000000310</title>
<path fill="#ffffd0" stroke="black" d="M800.5,-129.5C800.5,-129.5 1182.5,-129.5 1182.5,-129.5 1188.5,-129.5 1194.5,-135.5 1194.5,-141.5 1194.5,-141.5 1194.5,-209.5 1194.5,-209.5 1194.5,-215.5 1188.5,-221.5 1182.5,-221.5 1182.5,-221.5 800.5,-221.5 800.5,-221.5 794.5,-221.5 788.5,-215.5 788.5,-209.5 788.5,-209.5 788.5,-141.5 788.5,-141.5 788.5,-135.5 794.5,-129.5 800.5,-129.5"/>
<text text-anchor="middle" x="991.5" y="-206.3" font-family="Times,serif" font-size="14.00">[0x504000000310]</text>
<polyline fill="none" stroke="black" points="788.5,-198.5 1194.5,-198.5 "/>
<text text-anchor="middle" x="991.5" y="-183.3" font-family="Times,serif" font-size="14.00">data = middle defender</text>
<polyline fill="none" stroke="black" points="788.5,-175.5 1194.5,-175.5 "/>
<text text-anchor="middle" x="991.5" y="-160.3" font-family="Times,serif" font-size="14.00">shoot_free = 0</text>
<polyline fill="none" stroke="black" points="788.5,-152.5 1194.5,-152.5 "/>
<text text-anchor="middle" x="887" y="-137.3" font-family="Times,serif" font-size="14.00">left = [0x504000000350]</text>
<polyline fill="none" stroke="black" points="985.5,-129.5 985.5,-152.5 "/>
<text text-anchor="middle" x="1090" y="-137.3" font-family="Times,serif" font-size="14.00">right = [0x504000000390]</text>
</g>
<!-- node0x504000000290&#45;&gt;node0x504000000310 -->
<g id="edge14" class="edge">
<title>node0x504000000290&#45;&gt;node0x504000000310</title>
<path fill="none" stroke="black" d="M811.65,-258.37C834.74,-247.86 859.45,-236.61 882.92,-225.92"/>
<polygon fill="black" stroke="black" points="884.55,-229.03 892.2,-221.7 881.65,-222.66 884.55,-229.03"/>
</g>
<!-- node0x504000000350 -->
<g id="node16" class="node">
<title>node0x504000000350</title>
<path fill="#ffffd0" stroke="black" d="M781,-0.5C781,-0.5 970,-0.5 970,-0.5 976,-0.5 982,-6.5 982,-12.5 982,-12.5 982,-80.5 982,-80.5 982,-86.5 976,-92.5 970,-92.5 970,-92.5 781,-92.5 781,-92.5 775,-92.5 769,-86.5 769,-80.5 769,-80.5 769,-12.5 769,-12.5 769,-6.5 775,-0.5 781,-0.5"/>
<text text-anchor="middle" x="875.5" y="-77.3" font-family="Times,serif" font-size="14.00">[0x504000000350]</text>
<polyline fill="none" stroke="black" points="769,-69.5 982,-69.5 "/>
<text text-anchor="middle" x="875.5" y="-54.3" font-family="Times,serif" font-size="14.00">data = maxon</text>
<polyline fill="none" stroke="black" points="769,-46.5 982,-46.5 "/>
<text text-anchor="middle" x="875.5" y="-31.3" font-family="Times,serif" font-size="14.00">shoot_free = 0</text>
<polyline fill="none" stroke="black" points="769,-23.5 982,-23.5 "/>
<text text-anchor="middle" x="819.5" y="-8.3" font-family="Times,serif" font-size="14.00">left = [(nil)]</text>
<polyline fill="none" stroke="black" points="870,-0.5 870,-23.5 "/>
<text text-anchor="middle" x="926" y="-8.3" font-family="Times,serif" font-size="14.00">right = [(nil)]</text>
</g>
<!-- node0x504000000310&#45;&gt;node0x504000000350 -->
<g id="edge15" class="edge">
<title>node0x504000000310&#45;&gt;node0x504000000350</title>
<path fill="none" stroke="black" d="M950.28,-129.37C941.75,-120.03 932.69,-110.11 923.93,-100.52"/>
<polygon fill="black" stroke="black" points="926.31,-97.94 916.98,-92.92 921.14,-102.66 926.31,-97.94"/>
</g>
<!-- node0x504000000390 -->
<g id="node17" class="node">
<title>node0x504000000390</title>
<path fill="#ffffd0" stroke="black" d="M1012,-0.5C1012,-0.5 1201,-0.5 1201,-0.5 1207,-0.5 1213,-6.5 1213,-12.5 1213,-12.5 1213,-80.5 1213,-80.5 1213,-86.5 1207,-92.5 1201,-92.5 1201,-92.5 1012,-92.5 1012,-92.5 1006,-92.5 1000,-86.5 1000,-80.5 1000,-80.5 1000,-12.5 1000,-12.5 1000,-6.5 1006,-0.5 1012,-0.5"/>
<text text-anchor="middle" x="1106.5" y="-77.3" font-family="Times,serif" font-size="14.00">[0x504000000390]</text>
<polyline fill="none" stroke="black" points="1000,-69.5 1213,-69.5 "/>
<text text-anchor="middle" x="1106.5" y="-54.3" font-family="Times,serif" font-size="14.00">data = gosha</text>
<polyline fill="none" stroke="black" points="1000,-46.5 1213,-46.5 "/>
<text text-anchor="middle" x="1106.5" y="-31.3" font-family="Times,serif" font-size="14.00">shoot_free = 0</text>
<polyline fill="none" stroke="black" points="1000,-23.5 1213,-23.5 "/>
<text text-anchor="middle" x="1050.5" y="-8.3" font-family="Times,serif" font-size="14.00">left = [(nil)]</text>
<polyline fill="none" stroke="black" points="1101,-0.5 1101,-23.5 "/>
<text text-anchor="middle" x="1157" y="-8.3" font-family="Times,serif" font-size="14.00">right = [(nil)]</text>
</g>
<!-- node0x504000000310&#45;&gt;node0x504000000390 -->
<g id="edge16" class="edge">
<title>node0x504000000310&#45;&gt;node0x504000000390</title>
<path fill="none" stroke="black" d="M1032.37,-129.37C1040.82,-120.03 1049.81,-110.11 1058.49,-100.52"/>
<polygon fill="black" stroke="black" points="1061.26,-102.68 1065.38,-92.92 1056.07,-97.98 1061.26,-102.68"/>
</g>
<!-- node0x5040000004d0 -->
<g id="node20" class="node">
<title>node0x5040000004d0</title>
<path fill="#ffffd0" stroke="black" d="M1367.5,-258.5C1367.5,-258.5 1749.5,-258.5 1749.5,-258.5 1755.5,-258.5 1761.5,-264.5 1761.5,-270.5 1761.5,-270.5 1761.5,-338.5 1761.5,-338.5 1761.5,-344.5 1755.5,-350.5 1749.5,-350.5 1749.5,-350.5 1367.5,-350.5 1367.5,-350.5 1361.5,-350.5 1355.5,-344.5 1355.5,-338.5 1355.5,-338.5 1355.5,-270.5 1355.5,-270.5 1355.5,-264.5 1361.5,-258.5 1367.5,-258.5"/>
<text text-anchor="middle" x="1558.5" y="-335.3" font-family="Times,serif" font-size="14.00">[0x5040000004d0]</text>
<polyline fill="none" stroke="black" points="1355.5,-327.5 1761.5,-327.5 "/>
<text text-anchor="middle" x="1558.5" y="-312.3" font-family="Times,serif" font-size="14.00">data = loves kefir</text>
<polyline fill="none" stroke="black" points="1355.5,-304.5 1761.5,-304.5 "/>
<text text-anchor="middle" x="1558.5" y="-289.3" font-family="Times,serif" font-size="14.00">shoot_free = 0</text>
<polyline fill="none" stroke="black" points="1355.5,-281.5 1761.5,-281.5 "/>
<text text-anchor="middle" x="1454" y="-266.3" font-family="Times,serif" font-size="14.00">left = [0x504000000510]</text>
<polyline fill="none" stroke="black" points="1552.5,-258.5 1552.5,-281.5 "/>
<text text-anchor="middle" x="1657" y="-266.3" font-family="Times,serif" font-size="14.00">right = [0x504000000550]</text>
</g>
<!-- node0x504000000490&#45;&gt;node0x5040000004d0 -->
<g id="edge19" class="edge">
<title>node0x504000000490&#45;&gt;node0x5040000004d0</title>
<path fill="none" stroke="black" d="M1613.94,-387.37C1607.8,-378.31 1601.3,-368.7 1594.98,-359.37"/>
<polygon fill="black" stroke="black" points="1597.76,-357.23 1589.25,-350.92 1591.96,-361.16 1597.76,-357.23"/>
</g>
<!-- node0x504000000610 -->
<g id="node21" class="node">
<title>node0x504000000610</title>
<path fill="#ffffd0" stroke="black" d="M1791,-258.5C1791,-258.5 1980,-258.5 1980,-258.5 1986,-258.5 1992,-264.5 1992,-270.5 1992,-270.5 1992,-338.5 1992,-338.5 1992,-344.5 1986,-350.5 1980,-350.5 1980,-350.5 1791,-350.5 1791,-350.5 1785,-350.5 1779,-344.5 1779,-338.5 1779,-338.5 1779,-270.5 1779,-270.5 1779,-264.5 1785,-258.5 1791,-258.5"/>
<text text-anchor="middle" x="1885.5" y="-335.3" font-family="Times,serif" font-size="14.00">[0x504000000610]</text>
<polyline fill="none" stroke="black" points="1779,-327.5 1992,-327.5 "/>
<text text-anchor="middle" x="1885.5" y="-312.3" font-family="Times,serif" font-size="14.00">data = FUPM REF</text>
<polyline fill="none" stroke="black" points="1779,-304.5 1992,-304.5 "/>
<text text-anchor="middle" x="1885.5" y="-289.3" font-family="Times,serif" font-size="14.00">shoot_free = 0</text>
<polyline fill="none" stroke="black" points="1779,-281.5 1992,-281.5 "/>
<text text-anchor="middle" x="1829.5" y="-266.3" font-family="Times,serif" font-size="14.00">left = [(nil)]</text>
<polyline fill="none" stroke="black" points="1880,-258.5 1880,-281.5 "/>
<text text-anchor="middle" x="1936" y="-266.3" font-family="Times,serif" font-size="14.00">right = [(nil)]</text>
</g>
<!-- node0x504000000490&#45;&gt;node0x504000000610 -->
<g id="edge20" class="edge">
<title>node0x504000000490&#45;&gt;node0x504000000610</title>
<path fill="none" stroke="black" d="M1730.15,-387.37C1749.74,-377.04 1770.68,-366.01 1790.63,-355.49"/>
<polygon fill="black" stroke="black" points="1792.51,-358.46 1799.72,-350.7 1789.25,-352.27 1792.51,-358.46"/>
</g>
<!-- node0x504000000510 -->
<g id="node22" class="node">
<title>node0x504000000510</title>
<path fill="#ffffd0" stroke="black" d="M1397,-129.5C1397,-129.5 1586,-129.5 1586,-129.5 1592,-129.5 1598,-135.5 1598,-141.5 1598,-141.5 1598,-209.5 1598,-209.5 1598,-215.5 1592,-221.5 1586,-221.5 1586,-221.5 1397,-221.5 1397,-221.5 1391,-221.5 1385,-215.5 1385,-209.5 1385,-209.5 1385,-141.5 1385,-141.5 1385,-135.5 1391,-129.5 1397,-129.5"/>
<text text-anchor="middle" x="1491.5" y="-206.3" font-family="Times,serif" font-size="14.00">[0x504000000510]</text>
<polyline fill="none" stroke="black" points="1385,-198.5 1598,-198.5 "/>
<text text-anchor="middle" x="1491.5" y="-183.3" font-family="Times,serif" font-size="14.00">data = damir</text>
<polyline fill="none" stroke="black" points="1385,-175.5 1598,-175.5 "/>
<text text-anchor="middle" x="1491.5" y="-160.3" font-family="Times,serif" font-size="14.00">shoot_free = 0</text>
<polyline fill="none" stroke="black" points="1385,-152.5 1598,-152.5 "/>
<text text-anchor="middle" x="1435.5" y="-137.3" font-family="Times,serif" font-size="14.00">left = [(nil)]</text>
<polyline fill="none" stroke="black" points="1486,-129.5 1486,-152.5 "/>
<text text-anchor="middle" x="1542" y="-137.3" font-family="Times,serif" font-size="14.00">right = [(nil)]</text>
</g>
<!-- node0x5040000004d0&#45;&gt;node0x504000000510 -->
<g id="edge21" class="edge">
<title>node0x5040000004d0&#45;&gt;node0x504000000510</title>
<path fill="none" stroke="black" d="M1534.69,-258.37C1530.01,-249.49 1525.05,-240.09 1520.22,-230.95"/>
<polygon fill="black" stroke="black" points="1523.22,-229.13 1515.46,-221.92 1517.03,-232.39 1523.22,-229.13"/>
</g>
<!-- node0x504000000550 -->
<g id="node23" class="node">
<title>node0x504000000550</title>
<path fill="#ffffd0" stroke="black" d="M1627.5,-129.5C1627.5,-129.5 2009.5,-129.5 2009.5,-129.5 2015.5,-129.5 2021.5,-135.5 2021.5,-141.5 2021.5,-141.5 2021.5,-209.5 2021.5,-209.5 2021.5,-215.5 2015.5,-221.5 2009.5,-221.5 2009.5,-221.5 1627.5,-221.5 1627.5,-221.5 1621.5,-221.5 1615.5,-215.5 1615.5,-209.5 1615.5,-209.5 1615.5,-141.5 1615.5,-141.5 1615.5,-135.5 1621.5,-129.5 1627.5,-129.5"/>
<text text-anchor="middle" x="1818.5" y="-206.3" font-family="Times,serif" font-size="14.00">[0x504000000550]</text>
<polyline fill="none" stroke="black" points="1615.5,-198.5 2021.5,-198.5 "/>
<text text-anchor="middle" x="1818.5" y="-183.3" font-family="Times,serif" font-size="14.00">data = has glasses</text>
<polyline fill="none" stroke="black" points="1615.5,-175.5 2021.5,-175.5 "/>
<text text-anchor="middle" x="1818.5" y="-160.3" font-family="Times,serif" font-size="14.00">shoot_free = 0</text>
<polyline fill="none" stroke="black" points="1615.5,-152.5 2021.5,-152.5 "/>
<text text-anchor="middle" x="1714" y="-137.3" font-family="Times,serif" font-size="14.00">left = [0x504000000590]</text>
<polyline fill="none" stroke="black" points="1812.5,-129.5 1812.5,-152.5 "/>
<text text-anchor="middle" x="1917" y="-137.3" font-family="Times,serif" font-size="14.00">right = [0x5040000005d0]</text>
</g>
<!-- node0x5040000004d0&#45;&gt;node0x504000000550 -->
<g id="edge22" class="edge">
<title>node0x5040000004d0&#45;&gt;node0x504000000550</title>
<path fill="none" stroke="black" d="M1650.9,-258.37C1672.23,-247.95 1695.03,-236.81 1716.74,-226.21"/>
<polygon fill="black" stroke="black" points="1718.51,-229.24 1725.96,-221.7 1715.44,-222.95 1718.51,-229.24"/>
</g>
<!-- node0x504000000590 -->
<g id="node24" class="node">
<title>node0x504000000590</title>
<path fill="#ffffd0" stroke="black" d="M1608,-0.5C1608,-0.5 1797,-0.5 1797,-0.5 1803,-0.5 1809,-6.5 1809,-12.5 1809,-12.5 1809,-80.5 1809,-80.5 1809,-86.5 1803,-92.5 1797,-92.5 1797,-92.5 1608,-92.5 1608,-92.5 1602,-92.5 1596,-86.5 1596,-80.5 1596,-80.5 1596,-12.5 1596,-12.5 1596,-6.5 1602,-0.5 1608,-0.5"/>
<text text-anchor="middle" x="1702.5" y="-77.3" font-family="Times,serif" font-size="14.00">[0x504000000590]</text>
<polyline fill="none" stroke="black" points="1596,-69.5 1809,-69.5 "/>
<text text-anchor="middle" x="1702.5" y="-54.3" font-family="Times,serif" font-size="14.00">data = yura</text>
<polyline fill="none" stroke="black" points="1596,-46.5 1809,-46.5 "/>
<text text-anchor="middle" x="1702.5" y="-31.3" font-family="Times,serif" font-size="14.00">shoot_free = 0</text>
<polyline fill="none" stroke="black" points="1596,-23.5 1809,-23.5 "/>
<text text-anchor="middle" x="1646.5" y="-8.3" font-family="Times,serif" font-size="14.00">left = [(nil)]</text>
<polyline fill="none" stroke="black" points="1697,-0.5 1697,-23.5 "/>
<text text-anchor="middle" x="1753" y="-8.3" font-family="Times,serif" font-size="14.00">right = [(nil)]</text>
</g>
<!-- node0x504000000550&#45;&gt;node0x504000000590 -->
<g id="edge23" class="edge">
<title>node0x504000000550&#45;&gt;node0x504000000590</title>
<path fill="none" stroke="black" d="M1777.28,-129.37C1768.75,-120.03 1759.69,-110.11 1750.93,-100.52"/>
<polygon fill="black" stroke="black" points="1753.31,-97.94 1743.98,-92.92 1748.14,-102.66 1753.31,-97.94"/>
</g>
<!-- node0x5040000005d0 -->
<g id="node25" class="node">
<title>node0x5040000005d0</title>
<path fill="#ffffd0" stroke="black" d="M1839,-0.5C1839,-0.5 2028,-0.5 2028,-0.5 2034,-0.5 2040,-6.5 2040,-12.5 2040,-12.5 2040,-80.5 2040,-80.5 2040,-86.5 2034,-92.5 2028,-92.5 2028,-92.5 1839,-92.5 1839,-92.5 1833,-92.5 1827,-86.5 1827,-80.5 1827,-80.5 1827,-12.5 1827,-12.5 1827,-6.5 1833,-0.5 1839,-0.5"/>
<text text-anchor="middle" x="1933.5" y="-77.3" font-family="Times,serif" font-size="14.00">[0x5040000005d0]</text>
<polyline fill="none" stroke="black" points="1827,-69.5 2040,-69.5 "/>
<text text-anchor="middle" x="1933.5" y="-54.3" font-family="Times,serif" font-size="14.00">data = dima</text>
<polyline fill="none" stroke="black" points="1827,-46.5 2040,-46.5 "/>
<text text-anchor="middle" x="1933.5" y="-31.3" font-family="Times,serif" font-size="14.00">shoot_free = 0</text>
<polyline fill="none" stroke="black" points="1827,-23.5 2040,-23.5 "/>
<text text-anchor="middle" x="1877.5" y="-8.3" font-family="Times,serif" font-size="14.00">left = [(nil)]</text>
<polyline fill="none" stroke="black" points="1928,-0.5 1928,-23.5 "/>
<text text-anchor="middle" x="1984" y="-8.3" font-family="Times,serif" font-size="14.00">right = [(nil)]</text>
</g>
<!-- node0x504000000550&#45;&gt;node0x5040000005d0 -->
<g id="edge24" class="edge">
<title>node0x504000000550&#45;&gt;node0x5040000005d0</title>
<path fill="none" stroke="black" d="M1859.37,-129.37C1867.82,-120.03 1876.81,-110.11 1885.49,-100.52"/>
<polygon fill="black" stroke="black" points="1888.26,-102.68 1892.38,-92.92 1883.07,-97.98 1888.26,-102.68"/>
</g>
</g>
</svg>
