<?xml version="1.0" encoding="UTF-8" standalone="no"?>
<!DOCTYPE svg PUBLIC "-//W3C//DTD SVG 1.1//EN"
 "http://www.w3.org/Graphics/SVG/1.1/DTD/svg11.dtd">
<!-- Generated by graphviz version 2.43.0 (0)
 -->
<!-- Title: %3 Pages: 1 -->
<svg width="1220pt" height="396pt"
 viewBox="0.00 0.00 1220.00 396.00" xmlns="http://www.w3.org/2000/svg" xmlns:xlink="http://www.w3.org/1999/xlink">
<g id="graph0" class="graph" transform="scale(1 1) rotate(0) translate(4 392)">
<title>%3</title>
<!-- node0x503000000040 -->
<g id="node1" class="node">
<title>node0x503000000040</title>
<path fill="#ffffd0" stroke="black" d="M308.5,-318.5C308.5,-318.5 690.5,-318.5 690.5,-318.5 696.5,-318.5 702.5,-324.5 702.5,-330.5 702.5,-330.5 702.5,-375.5 702.5,-375.5 702.5,-381.5 696.5,-387.5 690.5,-387.5 690.5,-387.5 308.5,-387.5 308.5,-387.5 302.5,-387.5 296.5,-381.5 296.5,-375.5 296.5,-375.5 296.5,-330.5 296.5,-330.5 296.5,-324.5 302.5,-318.5 308.5,-318.5"/>
<text text-anchor="middle" x="499.5" y="-372.3" font-family="Times,serif" font-size="14.00">[0x503000000040]</text>
<polyline fill="none" stroke="black" points="296.5,-364.5 702.5,-364.5 "/>
<text text-anchor="middle" x="499.5" y="-349.3" font-family="Times,serif" font-size="14.00">data = animal</text>
<polyline fill="none" stroke="black" points="296.5,-341.5 702.5,-341.5 "/>
<text text-anchor="middle" x="395" y="-326.3" font-family="Times,serif" font-size="14.00">left = [0x503000000070]</text>
<polyline fill="none" stroke="black" points="493.5,-318.5 493.5,-341.5 "/>
<text text-anchor="middle" x="598" y="-326.3" font-family="Times,serif" font-size="14.00">right = [0x5030000000d0]</text>
</g>
<!-- node0x503000000070 -->
<g id="node2" class="node">
<title>node0x503000000070</title>
<path fill="#ffffd0" stroke="black" d="M101,-212.5C101,-212.5 478,-212.5 478,-212.5 484,-212.5 490,-218.5 490,-224.5 490,-224.5 490,-269.5 490,-269.5 490,-275.5 484,-281.5 478,-281.5 478,-281.5 101,-281.5 101,-281.5 95,-281.5 89,-275.5 89,-269.5 89,-269.5 89,-224.5 89,-224.5 89,-218.5 95,-212.5 101,-212.5"/>
<text text-anchor="middle" x="289.5" y="-266.3" font-family="Times,serif" font-size="14.00">[0x503000000070]</text>
<polyline fill="none" stroke="black" points="89,-258.5 490,-258.5 "/>
<text text-anchor="middle" x="289.5" y="-243.3" font-family="Times,serif" font-size="14.00">data = lohhhhh</text>
<polyline fill="none" stroke="black" points="89,-235.5 490,-235.5 "/>
<text text-anchor="middle" x="187" y="-220.3" font-family="Times,serif" font-size="14.00">left = [0x5030000001c0]</text>
<polyline fill="none" stroke="black" points="285,-212.5 285,-235.5 "/>
<text text-anchor="middle" x="387.5" y="-220.3" font-family="Times,serif" font-size="14.00">right = [0x5030000001f0]</text>
</g>
<!-- node0x503000000040&#45;&gt;node0x503000000070 -->
<g id="edge1" class="edge">
<title>node0x503000000040&#45;&gt;node0x503000000070</title>
<path fill="none" stroke="black" d="M431.61,-318.38C410.74,-308.04 387.63,-296.6 366.22,-285.99"/>
<polygon fill="black" stroke="black" points="367.67,-282.81 357.16,-281.51 364.57,-289.08 367.67,-282.81"/>
</g>
<!-- node0x5030000000d0 -->
<g id="node3" class="node">
<title>node0x5030000000d0</title>
<path fill="#ffffd0" stroke="black" d="M519.5,-212.5C519.5,-212.5 901.5,-212.5 901.5,-212.5 907.5,-212.5 913.5,-218.5 913.5,-224.5 913.5,-224.5 913.5,-269.5 913.5,-269.5 913.5,-275.5 907.5,-281.5 901.5,-281.5 901.5,-281.5 519.5,-281.5 519.5,-281.5 513.5,-281.5 507.5,-275.5 507.5,-269.5 507.5,-269.5 507.5,-224.5 507.5,-224.5 507.5,-218.5 513.5,-212.5 519.5,-212.5"/>
<text text-anchor="middle" x="710.5" y="-266.3" font-family="Times,serif" font-size="14.00">[0x5030000000d0]</text>
<polyline fill="none" stroke="black" points="507.5,-258.5 913.5,-258.5 "/>
<text text-anchor="middle" x="710.5" y="-243.3" font-family="Times,serif" font-size="14.00">data = teaches discrete math</text>
<polyline fill="none" stroke="black" points="507.5,-235.5 913.5,-235.5 "/>
<text text-anchor="middle" x="606" y="-220.3" font-family="Times,serif" font-size="14.00">left = [0x503000000100]</text>
<polyline fill="none" stroke="black" points="704.5,-212.5 704.5,-235.5 "/>
<text text-anchor="middle" x="809" y="-220.3" font-family="Times,serif" font-size="14.00">right = [0x503000000130]</text>
</g>
<!-- node0x503000000040&#45;&gt;node0x5030000000d0 -->
<g id="edge2" class="edge">
<title>node0x503000000040&#45;&gt;node0x5030000000d0</title>
<path fill="none" stroke="black" d="M567.71,-318.38C588.68,-308.04 611.9,-296.6 633.42,-285.99"/>
<polygon fill="black" stroke="black" points="635.1,-289.07 642.52,-281.51 632,-282.79 635.1,-289.07"/>
</g>
<!-- node0x5030000001c0 -->
<g id="node4" class="node">
<title>node0x5030000001c0</title>
<path fill="#ffffd0" stroke="black" d="M12,-106.5C12,-106.5 201,-106.5 201,-106.5 207,-106.5 213,-112.5 213,-118.5 213,-118.5 213,-163.5 213,-163.5 213,-169.5 207,-175.5 201,-175.5 201,-175.5 12,-175.5 12,-175.5 6,-175.5 0,-169.5 0,-163.5 0,-163.5 0,-118.5 0,-118.5 0,-112.5 6,-106.5 12,-106.5"/>
<text text-anchor="middle" x="106.5" y="-160.3" font-family="Times,serif" font-size="14.00">[0x5030000001c0]</text>
<polyline fill="none" stroke="black" points="0,-152.5 213,-152.5 "/>
<text text-anchor="middle" x="106.5" y="-137.3" font-family="Times,serif" font-size="14.00">data = ded</text>
<polyline fill="none" stroke="black" points="0,-129.5 213,-129.5 "/>
<text text-anchor="middle" x="50.5" y="-114.3" font-family="Times,serif" font-size="14.00">left = [(nil)]</text>
<polyline fill="none" stroke="black" points="101,-106.5 101,-129.5 "/>
<text text-anchor="middle" x="157" y="-114.3" font-family="Times,serif" font-size="14.00">right = [(nil)]</text>
</g>
<!-- node0x503000000070&#45;&gt;node0x5030000001c0 -->
<g id="edge3" class="edge">
<title>node0x503000000070&#45;&gt;node0x5030000001c0</title>
<path fill="none" stroke="black" d="M230.34,-212.38C212.48,-202.23 192.73,-191.01 174.36,-180.56"/>
<polygon fill="black" stroke="black" points="175.88,-177.4 165.46,-175.51 172.42,-183.49 175.88,-177.4"/>
</g>
<!-- node0x5030000001f0 -->
<g id="node5" class="node">
<title>node0x5030000001f0</title>
<path fill="#ffffd0" stroke="black" d="M243,-106.5C243,-106.5 432,-106.5 432,-106.5 438,-106.5 444,-112.5 444,-118.5 444,-118.5 444,-163.5 444,-163.5 444,-169.5 438,-175.5 432,-175.5 432,-175.5 243,-175.5 243,-175.5 237,-175.5 231,-169.5 231,-163.5 231,-163.5 231,-118.5 231,-118.5 231,-112.5 237,-106.5 243,-106.5"/>
<text text-anchor="middle" x="337.5" y="-160.3" font-family="Times,serif" font-size="14.00">[0x5030000001f0]</text>
<polyline fill="none" stroke="black" points="231,-152.5 444,-152.5 "/>
<text text-anchor="middle" x="337.5" y="-137.3" font-family="Times,serif" font-size="14.00">data = poltorashka</text>
<polyline fill="none" stroke="black" points="231,-129.5 444,-129.5 "/>
<text text-anchor="middle" x="281.5" y="-114.3" font-family="Times,serif" font-size="14.00">left = [(nil)]</text>
<polyline fill="none" stroke="black" points="332,-106.5 332,-129.5 "/>
<text text-anchor="middle" x="388" y="-114.3" font-family="Times,serif" font-size="14.00">right = [(nil)]</text>
</g>
<!-- node0x503000000070&#45;&gt;node0x5030000001f0 -->
<g id="edge4" class="edge">
<title>node0x503000000070&#45;&gt;node0x5030000001f0</title>
<path fill="none" stroke="black" d="M305.08,-212.23C309.11,-203.52 313.49,-194.02 317.7,-184.91"/>
<polygon fill="black" stroke="black" points="320.98,-186.14 321.99,-175.6 314.63,-183.21 320.98,-186.14"/>
</g>
<!-- node0x503000000100 -->
<g id="node6" class="node">
<title>node0x503000000100</title>
<path fill="#ffffd0" stroke="black" d="M569,-106.5C569,-106.5 758,-106.5 758,-106.5 764,-106.5 770,-112.5 770,-118.5 770,-118.5 770,-163.5 770,-163.5 770,-169.5 764,-175.5 758,-175.5 758,-175.5 569,-175.5 569,-175.5 563,-175.5 557,-169.5 557,-163.5 557,-163.5 557,-118.5 557,-118.5 557,-112.5 563,-106.5 569,-106.5"/>
<text text-anchor="middle" x="663.5" y="-160.3" font-family="Times,serif" font-size="14.00">[0x503000000100]</text>
<polyline fill="none" stroke="black" points="557,-152.5 770,-152.5 "/>
<text text-anchor="middle" x="663.5" y="-137.3" font-family="Times,serif" font-size="14.00">data = burcev</text>
<polyline fill="none" stroke="black" points="557,-129.5 770,-129.5 "/>
<text text-anchor="middle" x="607.5" y="-114.3" font-family="Times,serif" font-size="14.00">left = [(nil)]</text>
<polyline fill="none" stroke="black" points="658,-106.5 658,-129.5 "/>
<text text-anchor="middle" x="714" y="-114.3" font-family="Times,serif" font-size="14.00">right = [(nil)]</text>
</g>
<!-- node0x5030000000d0&#45;&gt;node0x503000000100 -->
<g id="edge5" class="edge">
<title>node0x5030000000d0&#45;&gt;node0x503000000100</title>
<path fill="none" stroke="black" d="M695.24,-212.23C691.3,-203.52 687.01,-194.02 682.89,-184.91"/>
<polygon fill="black" stroke="black" points="685.99,-183.27 678.68,-175.6 679.61,-186.15 685.99,-183.27"/>
</g>
<!-- node0x503000000130 -->
<g id="node7" class="node">
<title>node0x503000000130</title>
<path fill="#ffffd0" stroke="black" d="M799.5,-106.5C799.5,-106.5 1181.5,-106.5 1181.5,-106.5 1187.5,-106.5 1193.5,-112.5 1193.5,-118.5 1193.5,-118.5 1193.5,-163.5 1193.5,-163.5 1193.5,-169.5 1187.5,-175.5 1181.5,-175.5 1181.5,-175.5 799.5,-175.5 799.5,-175.5 793.5,-175.5 787.5,-169.5 787.5,-163.5 787.5,-163.5 787.5,-118.5 787.5,-118.5 787.5,-112.5 793.5,-106.5 799.5,-106.5"/>
<text text-anchor="middle" x="990.5" y="-160.3" font-family="Times,serif" font-size="14.00">[0x503000000130]</text>
<polyline fill="none" stroke="black" points="787.5,-152.5 1193.5,-152.5 "/>
<text text-anchor="middle" x="990.5" y="-137.3" font-family="Times,serif" font-size="14.00">data = teaches physics</text>
<polyline fill="none" stroke="black" points="787.5,-129.5 1193.5,-129.5 "/>
<text text-anchor="middle" x="886" y="-114.3" font-family="Times,serif" font-size="14.00">left = [0x503000000160]</text>
<polyline fill="none" stroke="black" points="984.5,-106.5 984.5,-129.5 "/>
<text text-anchor="middle" x="1089" y="-114.3" font-family="Times,serif" font-size="14.00">right = [0x503000000190]</text>
</g>
<!-- node0x5030000000d0&#45;&gt;node0x503000000130 -->
<g id="edge6" class="edge">
<title>node0x5030000000d0&#45;&gt;node0x503000000130</title>
<path fill="none" stroke="black" d="M801.02,-212.38C829.71,-201.72 861.58,-189.88 890.88,-179"/>
<polygon fill="black" stroke="black" points="892.13,-182.27 900.29,-175.51 889.7,-175.71 892.13,-182.27"/>
</g>
<!-- node0x503000000160 -->
<g id="node8" class="node">
<title>node0x503000000160</title>
<path fill="#ffffd0" stroke="black" d="M780,-0.5C780,-0.5 969,-0.5 969,-0.5 975,-0.5 981,-6.5 981,-12.5 981,-12.5 981,-57.5 981,-57.5 981,-63.5 975,-69.5 969,-69.5 969,-69.5 780,-69.5 780,-69.5 774,-69.5 768,-63.5 768,-57.5 768,-57.5 768,-12.5 768,-12.5 768,-6.5 774,-0.5 780,-0.5"/>
<text text-anchor="middle" x="874.5" y="-54.3" font-family="Times,serif" font-size="14.00">[0x503000000160]</text>
<polyline fill="none" stroke="black" points="768,-46.5 981,-46.5 "/>
<text text-anchor="middle" x="874.5" y="-31.3" font-family="Times,serif" font-size="14.00">data = ovchos</text>
<polyline fill="none" stroke="black" points="768,-23.5 981,-23.5 "/>
<text text-anchor="middle" x="818.5" y="-8.3" font-family="Times,serif" font-size="14.00">left = [(nil)]</text>
<polyline fill="none" stroke="black" points="869,-0.5 869,-23.5 "/>
<text text-anchor="middle" x="925" y="-8.3" font-family="Times,serif" font-size="14.00">right = [(nil)]</text>
</g>
<!-- node0x503000000130&#45;&gt;node0x503000000160 -->
<g id="edge7" class="edge">
<title>node0x503000000130&#45;&gt;node0x503000000160</title>
<path fill="none" stroke="black" d="M952.84,-106.23C942.2,-96.69 930.51,-86.21 919.48,-76.33"/>
<polygon fill="black" stroke="black" points="921.76,-73.67 911.97,-69.6 917.08,-78.88 921.76,-73.67"/>
</g>
<!-- node0x503000000190 -->
<g id="node9" class="node">
<title>node0x503000000190</title>
<path fill="#ffffd0" stroke="black" d="M1011,-0.5C1011,-0.5 1200,-0.5 1200,-0.5 1206,-0.5 1212,-6.5 1212,-12.5 1212,-12.5 1212,-57.5 1212,-57.5 1212,-63.5 1206,-69.5 1200,-69.5 1200,-69.5 1011,-69.5 1011,-69.5 1005,-69.5 999,-63.5 999,-57.5 999,-57.5 999,-12.5 999,-12.5 999,-6.5 1005,-0.5 1011,-0.5"/>
<text text-anchor="middle" x="1105.5" y="-54.3" font-family="Times,serif" font-size="14.00">[0x503000000190]</text>
<polyline fill="none" stroke="black" points="999,-46.5 1212,-46.5 "/>
<text text-anchor="middle" x="1105.5" y="-31.3" font-family="Times,serif" font-size="14.00">data = chubarov</text>
<polyline fill="none" stroke="black" points="999,-23.5 1212,-23.5 "/>
<text text-anchor="middle" x="1049.5" y="-8.3" font-family="Times,serif" font-size="14.00">left = [(nil)]</text>
<polyline fill="none" stroke="black" points="1100,-0.5 1100,-23.5 "/>
<text text-anchor="middle" x="1156" y="-8.3" font-family="Times,serif" font-size="14.00">right = [(nil)]</text>
</g>
<!-- node0x503000000130&#45;&gt;node0x503000000190 -->
<g id="edge8" class="edge">
<title>node0x503000000130&#45;&gt;node0x503000000190</title>
<path fill="none" stroke="black" d="M1027.84,-106.23C1038.39,-96.69 1049.98,-86.21 1060.91,-76.33"/>
<polygon fill="black" stroke="black" points="1063.28,-78.9 1068.35,-69.6 1058.59,-73.71 1063.28,-78.9"/>
</g>
</g>
</svg>
