<?xml version="1.0" encoding="UTF-8" standalone="no"?>
<!DOCTYPE svg PUBLIC "-//W3C//DTD SVG 1.1//EN"
 "http://www.w3.org/Graphics/SVG/1.1/DTD/svg11.dtd">
<!-- Generated by graphviz version 2.43.0 (0)
 -->
<!-- Title: %3 Pages: 1 -->
<svg width="1526pt" height="608pt"
 viewBox="0.00 0.00 1526.00 608.00" xmlns="http://www.w3.org/2000/svg" xmlns:xlink="http://www.w3.org/1999/xlink">
<g id="graph0" class="graph" transform="scale(1 1) rotate(0) translate(4 604)">
<title>%3</title>
<!-- node0x503000000040 -->
<g id="node1" class="node">
<title>node0x503000000040</title>
<path fill="#ffffd0" stroke="black" d="M403.5,-530.5C403.5,-530.5 785.5,-530.5 785.5,-530.5 791.5,-530.5 797.5,-536.5 797.5,-542.5 797.5,-542.5 797.5,-587.5 797.5,-587.5 797.5,-593.5 791.5,-599.5 785.5,-599.5 785.5,-599.5 403.5,-599.5 403.5,-599.5 397.5,-599.5 391.5,-593.5 391.5,-587.5 391.5,-587.5 391.5,-542.5 391.5,-542.5 391.5,-536.5 397.5,-530.5 403.5,-530.5"/>
<text text-anchor="middle" x="594.5" y="-584.3" font-family="Times,serif" font-size="14.00">[0x503000000040]</text>
<polyline fill="none" stroke="black" points="391.5,-576.5 797.5,-576.5 "/>
<text text-anchor="middle" x="594.5" y="-561.3" font-family="Times,serif" font-size="14.00">data = teacher</text>
<polyline fill="none" stroke="black" points="391.5,-553.5 797.5,-553.5 "/>
<text text-anchor="middle" x="490" y="-538.3" font-family="Times,serif" font-size="14.00">left = [0x503000000070]</text>
<polyline fill="none" stroke="black" points="588.5,-530.5 588.5,-553.5 "/>
<text text-anchor="middle" x="693" y="-538.3" font-family="Times,serif" font-size="14.00">right = [0x503000000130]</text>
</g>
<!-- node0x503000000070 -->
<g id="node2" class="node">
<title>node0x503000000070</title>
<path fill="#ffffd0" stroke="black" d="M191.5,-424.5C191.5,-424.5 573.5,-424.5 573.5,-424.5 579.5,-424.5 585.5,-430.5 585.5,-436.5 585.5,-436.5 585.5,-481.5 585.5,-481.5 585.5,-487.5 579.5,-493.5 573.5,-493.5 573.5,-493.5 191.5,-493.5 191.5,-493.5 185.5,-493.5 179.5,-487.5 179.5,-481.5 179.5,-481.5 179.5,-436.5 179.5,-436.5 179.5,-430.5 185.5,-424.5 191.5,-424.5"/>
<text text-anchor="middle" x="382.5" y="-478.3" font-family="Times,serif" font-size="14.00">[0x503000000070]</text>
<polyline fill="none" stroke="black" points="179.5,-470.5 585.5,-470.5 "/>
<text text-anchor="middle" x="382.5" y="-455.3" font-family="Times,serif" font-size="14.00">data = teacher of programming</text>
<polyline fill="none" stroke="black" points="179.5,-447.5 585.5,-447.5 "/>
<text text-anchor="middle" x="278" y="-432.3" font-family="Times,serif" font-size="14.00">left = [0x5030000000d0]</text>
<polyline fill="none" stroke="black" points="376.5,-424.5 376.5,-447.5 "/>
<text text-anchor="middle" x="481" y="-432.3" font-family="Times,serif" font-size="14.00">right = [0x503000000100]</text>
</g>
<!-- node0x503000000040&#45;&gt;node0x503000000070 -->
<g id="edge1" class="edge">
<title>node0x503000000040&#45;&gt;node0x503000000070</title>
<path fill="none" stroke="black" d="M525.96,-530.38C504.9,-520.04 481.57,-508.6 459.95,-497.99"/>
<polygon fill="black" stroke="black" points="461.32,-494.77 450.8,-493.51 458.24,-501.05 461.32,-494.77"/>
</g>
<!-- node0x503000000130 -->
<g id="node3" class="node">
<title>node0x503000000130</title>
<path fill="#ffffd0" stroke="black" d="M615.5,-424.5C615.5,-424.5 997.5,-424.5 997.5,-424.5 1003.5,-424.5 1009.5,-430.5 1009.5,-436.5 1009.5,-436.5 1009.5,-481.5 1009.5,-481.5 1009.5,-487.5 1003.5,-493.5 997.5,-493.5 997.5,-493.5 615.5,-493.5 615.5,-493.5 609.5,-493.5 603.5,-487.5 603.5,-481.5 603.5,-481.5 603.5,-436.5 603.5,-436.5 603.5,-430.5 609.5,-424.5 615.5,-424.5"/>
<text text-anchor="middle" x="806.5" y="-478.3" font-family="Times,serif" font-size="14.00">[0x503000000130]</text>
<polyline fill="none" stroke="black" points="603.5,-470.5 1009.5,-470.5 "/>
<text text-anchor="middle" x="806.5" y="-455.3" font-family="Times,serif" font-size="14.00">data = football player</text>
<polyline fill="none" stroke="black" points="603.5,-447.5 1009.5,-447.5 "/>
<text text-anchor="middle" x="702" y="-432.3" font-family="Times,serif" font-size="14.00">left = [0x503000000160]</text>
<polyline fill="none" stroke="black" points="800.5,-424.5 800.5,-447.5 "/>
<text text-anchor="middle" x="905" y="-432.3" font-family="Times,serif" font-size="14.00">right = [0x503000000340]</text>
</g>
<!-- node0x503000000040&#45;&gt;node0x503000000130 -->
<g id="edge2" class="edge">
<title>node0x503000000040&#45;&gt;node0x503000000130</title>
<path fill="none" stroke="black" d="M663.04,-530.38C684.1,-520.04 707.43,-508.6 729.05,-497.99"/>
<polygon fill="black" stroke="black" points="730.76,-501.05 738.2,-493.51 727.68,-494.77 730.76,-501.05"/>
</g>
<!-- node0x5030000000d0 -->
<g id="node4" class="node">
<title>node0x5030000000d0</title>
<path fill="#ffffd0" stroke="black" d="M82,-318.5C82,-318.5 271,-318.5 271,-318.5 277,-318.5 283,-324.5 283,-330.5 283,-330.5 283,-375.5 283,-375.5 283,-381.5 277,-387.5 271,-387.5 271,-387.5 82,-387.5 82,-387.5 76,-387.5 70,-381.5 70,-375.5 70,-375.5 70,-330.5 70,-330.5 70,-324.5 76,-318.5 82,-318.5"/>
<text text-anchor="middle" x="176.5" y="-372.3" font-family="Times,serif" font-size="14.00">[0x5030000000d0]</text>
<polyline fill="none" stroke="black" points="70,-364.5 283,-364.5 "/>
<text text-anchor="middle" x="176.5" y="-349.3" font-family="Times,serif" font-size="14.00">data = ded32</text>
<polyline fill="none" stroke="black" points="70,-341.5 283,-341.5 "/>
<text text-anchor="middle" x="120.5" y="-326.3" font-family="Times,serif" font-size="14.00">left = [(nil)]</text>
<polyline fill="none" stroke="black" points="171,-318.5 171,-341.5 "/>
<text text-anchor="middle" x="227" y="-326.3" font-family="Times,serif" font-size="14.00">right = [(nil)]</text>
</g>
<!-- node0x503000000070&#45;&gt;node0x5030000000d0 -->
<g id="edge3" class="edge">
<title>node0x503000000070&#45;&gt;node0x5030000000d0</title>
<path fill="none" stroke="black" d="M315.9,-424.38C295.53,-414.09 272.97,-402.7 252.04,-392.14"/>
<polygon fill="black" stroke="black" points="253.37,-388.89 242.87,-387.51 250.22,-395.14 253.37,-388.89"/>
</g>
<!-- node0x503000000100 -->
<g id="node5" class="node">
<title>node0x503000000100</title>
<path fill="#ffffd0" stroke="black" d="M313,-318.5C313,-318.5 502,-318.5 502,-318.5 508,-318.5 514,-324.5 514,-330.5 514,-330.5 514,-375.5 514,-375.5 514,-381.5 508,-387.5 502,-387.5 502,-387.5 313,-387.5 313,-387.5 307,-387.5 301,-381.5 301,-375.5 301,-375.5 301,-330.5 301,-330.5 301,-324.5 307,-318.5 313,-318.5"/>
<text text-anchor="middle" x="407.5" y="-372.3" font-family="Times,serif" font-size="14.00">[0x503000000100]</text>
<polyline fill="none" stroke="black" points="301,-364.5 514,-364.5 "/>
<text text-anchor="middle" x="407.5" y="-349.3" font-family="Times,serif" font-size="14.00">data = ovchinkin</text>
<polyline fill="none" stroke="black" points="301,-341.5 514,-341.5 "/>
<text text-anchor="middle" x="351.5" y="-326.3" font-family="Times,serif" font-size="14.00">left = [(nil)]</text>
<polyline fill="none" stroke="black" points="402,-318.5 402,-341.5 "/>
<text text-anchor="middle" x="458" y="-326.3" font-family="Times,serif" font-size="14.00">right = [(nil)]</text>
</g>
<!-- node0x503000000070&#45;&gt;node0x503000000100 -->
<g id="edge4" class="edge">
<title>node0x503000000070&#45;&gt;node0x503000000100</title>
<path fill="none" stroke="black" d="M390.62,-424.23C392.67,-415.7 394.9,-406.42 397.05,-397.48"/>
<polygon fill="black" stroke="black" points="400.49,-398.14 399.42,-387.6 393.68,-396.5 400.49,-398.14"/>
</g>
<!-- node0x503000000160 -->
<g id="node6" class="node">
<title>node0x503000000160</title>
<path fill="#ffffd0" stroke="black" d="M592,-318.5C592,-318.5 973,-318.5 973,-318.5 979,-318.5 985,-324.5 985,-330.5 985,-330.5 985,-375.5 985,-375.5 985,-381.5 979,-387.5 973,-387.5 973,-387.5 592,-387.5 592,-387.5 586,-387.5 580,-381.5 580,-375.5 580,-375.5 580,-330.5 580,-330.5 580,-324.5 586,-318.5 592,-318.5"/>
<text text-anchor="middle" x="782.5" y="-372.3" font-family="Times,serif" font-size="14.00">[0x503000000160]</text>
<polyline fill="none" stroke="black" points="580,-364.5 985,-364.5 "/>
<text text-anchor="middle" x="782.5" y="-349.3" font-family="Times,serif" font-size="14.00">data = plays for the caRTel</text>
<polyline fill="none" stroke="black" points="580,-341.5 985,-341.5 "/>
<text text-anchor="middle" x="678" y="-326.3" font-family="Times,serif" font-size="14.00">left = [0x5030000001c0]</text>
<polyline fill="none" stroke="black" points="776,-318.5 776,-341.5 "/>
<text text-anchor="middle" x="880.5" y="-326.3" font-family="Times,serif" font-size="14.00">right = [0x503000000310]</text>
</g>
<!-- node0x503000000130&#45;&gt;node0x503000000160 -->
<g id="edge5" class="edge">
<title>node0x503000000130&#45;&gt;node0x503000000160</title>
<path fill="none" stroke="black" d="M798.71,-424.23C796.74,-415.7 794.6,-406.42 792.53,-397.48"/>
<polygon fill="black" stroke="black" points="795.91,-396.55 790.25,-387.6 789.09,-398.13 795.91,-396.55"/>
</g>
<!-- node0x503000000340 -->
<g id="node7" class="node">
<title>node0x503000000340</title>
<path fill="#ffffd0" stroke="black" d="M1015.5,-318.5C1015.5,-318.5 1397.5,-318.5 1397.5,-318.5 1403.5,-318.5 1409.5,-324.5 1409.5,-330.5 1409.5,-330.5 1409.5,-375.5 1409.5,-375.5 1409.5,-381.5 1403.5,-387.5 1397.5,-387.5 1397.5,-387.5 1015.5,-387.5 1015.5,-387.5 1009.5,-387.5 1003.5,-381.5 1003.5,-375.5 1003.5,-375.5 1003.5,-330.5 1003.5,-330.5 1003.5,-324.5 1009.5,-318.5 1015.5,-318.5"/>
<text text-anchor="middle" x="1206.5" y="-372.3" font-family="Times,serif" font-size="14.00">[0x503000000340]</text>
<polyline fill="none" stroke="black" points="1003.5,-364.5 1409.5,-364.5 "/>
<text text-anchor="middle" x="1206.5" y="-349.3" font-family="Times,serif" font-size="14.00">data = coach</text>
<polyline fill="none" stroke="black" points="1003.5,-341.5 1409.5,-341.5 "/>
<text text-anchor="middle" x="1102" y="-326.3" font-family="Times,serif" font-size="14.00">left = [0x503000000370]</text>
<polyline fill="none" stroke="black" points="1200.5,-318.5 1200.5,-341.5 "/>
<text text-anchor="middle" x="1305" y="-326.3" font-family="Times,serif" font-size="14.00">right = [0x5030000003d0]</text>
</g>
<!-- node0x503000000130&#45;&gt;node0x503000000340 -->
<g id="edge6" class="edge">
<title>node0x503000000130&#45;&gt;node0x503000000340</title>
<path fill="none" stroke="black" d="M935.54,-424.45C977.69,-413.49 1024.68,-401.27 1067.53,-390.13"/>
<polygon fill="black" stroke="black" points="1068.66,-393.45 1077.46,-387.55 1066.9,-386.68 1068.66,-393.45"/>
</g>
<!-- node0x5030000001c0 -->
<g id="node8" class="node">
<title>node0x5030000001c0</title>
<path fill="#ffffd0" stroke="black" d="M311,-212.5C311,-212.5 690,-212.5 690,-212.5 696,-212.5 702,-218.5 702,-224.5 702,-224.5 702,-269.5 702,-269.5 702,-275.5 696,-281.5 690,-281.5 690,-281.5 311,-281.5 311,-281.5 305,-281.5 299,-275.5 299,-269.5 299,-269.5 299,-224.5 299,-224.5 299,-218.5 305,-212.5 311,-212.5"/>
<text text-anchor="middle" x="500.5" y="-266.3" font-family="Times,serif" font-size="14.00">[0x5030000001c0]</text>
<polyline fill="none" stroke="black" points="299,-258.5 702,-258.5 "/>
<text text-anchor="middle" x="500.5" y="-243.3" font-family="Times,serif" font-size="14.00">data = defender</text>
<polyline fill="none" stroke="black" points="299,-235.5 702,-235.5 "/>
<text text-anchor="middle" x="396" y="-220.3" font-family="Times,serif" font-size="14.00">left = [0x5030000001f0]</text>
<polyline fill="none" stroke="black" points="493,-212.5 493,-235.5 "/>
<text text-anchor="middle" x="597.5" y="-220.3" font-family="Times,serif" font-size="14.00">right = [0x503000000280]</text>
</g>
<!-- node0x503000000160&#45;&gt;node0x5030000001c0 -->
<g id="edge7" class="edge">
<title>node0x503000000160&#45;&gt;node0x5030000001c0</title>
<path fill="none" stroke="black" d="M691.33,-318.38C662.44,-307.72 630.34,-295.88 600.83,-285"/>
<polygon fill="black" stroke="black" points="601.95,-281.68 591.35,-281.51 599.53,-288.25 601.95,-281.68"/>
</g>
<!-- node0x503000000310 -->
<g id="node9" class="node">
<title>node0x503000000310</title>
<path fill="#ffffd0" stroke="black" d="M732,-212.5C732,-212.5 921,-212.5 921,-212.5 927,-212.5 933,-218.5 933,-224.5 933,-224.5 933,-269.5 933,-269.5 933,-275.5 927,-281.5 921,-281.5 921,-281.5 732,-281.5 732,-281.5 726,-281.5 720,-275.5 720,-269.5 720,-269.5 720,-224.5 720,-224.5 720,-218.5 726,-212.5 732,-212.5"/>
<text text-anchor="middle" x="826.5" y="-266.3" font-family="Times,serif" font-size="14.00">[0x503000000310]</text>
<polyline fill="none" stroke="black" points="720,-258.5 933,-258.5 "/>
<text text-anchor="middle" x="826.5" y="-243.3" font-family="Times,serif" font-size="14.00">data = loh</text>
<polyline fill="none" stroke="black" points="720,-235.5 933,-235.5 "/>
<text text-anchor="middle" x="770.5" y="-220.3" font-family="Times,serif" font-size="14.00">left = [(nil)]</text>
<polyline fill="none" stroke="black" points="821,-212.5 821,-235.5 "/>
<text text-anchor="middle" x="877" y="-220.3" font-family="Times,serif" font-size="14.00">right = [(nil)]</text>
</g>
<!-- node0x503000000160&#45;&gt;node0x503000000310 -->
<g id="edge8" class="edge">
<title>node0x503000000160&#45;&gt;node0x503000000310</title>
<path fill="none" stroke="black" d="M796.79,-318.23C800.47,-309.52 804.49,-300.02 808.35,-290.91"/>
<polygon fill="black" stroke="black" points="811.61,-292.17 812.29,-281.6 805.17,-289.44 811.61,-292.17"/>
</g>
<!-- node0x503000000370 -->
<g id="node16" class="node">
<title>node0x503000000370</title>
<path fill="#ffffd0" stroke="black" d="M1050,-212.5C1050,-212.5 1275,-212.5 1275,-212.5 1281,-212.5 1287,-218.5 1287,-224.5 1287,-224.5 1287,-269.5 1287,-269.5 1287,-275.5 1281,-281.5 1275,-281.5 1275,-281.5 1050,-281.5 1050,-281.5 1044,-281.5 1038,-275.5 1038,-269.5 1038,-269.5 1038,-224.5 1038,-224.5 1038,-218.5 1044,-212.5 1050,-212.5"/>
<text text-anchor="middle" x="1162.5" y="-266.3" font-family="Times,serif" font-size="14.00">[0x503000000370]</text>
<polyline fill="none" stroke="black" points="1038,-258.5 1287,-258.5 "/>
<text text-anchor="middle" x="1162.5" y="-243.3" font-family="Times,serif" font-size="14.00">data = valentin spivak guardiola</text>
<polyline fill="none" stroke="black" points="1038,-235.5 1287,-235.5 "/>
<text text-anchor="middle" x="1097.5" y="-220.3" font-family="Times,serif" font-size="14.00">left = [(nil)]</text>
<polyline fill="none" stroke="black" points="1157,-212.5 1157,-235.5 "/>
<text text-anchor="middle" x="1222" y="-220.3" font-family="Times,serif" font-size="14.00">right = [(nil)]</text>
</g>
<!-- node0x503000000340&#45;&gt;node0x503000000370 -->
<g id="edge15" class="edge">
<title>node0x503000000340&#45;&gt;node0x503000000370</title>
<path fill="none" stroke="black" d="M1192.21,-318.23C1188.53,-309.52 1184.51,-300.02 1180.65,-290.91"/>
<polygon fill="black" stroke="black" points="1183.83,-289.44 1176.71,-281.6 1177.39,-292.17 1183.83,-289.44"/>
</g>
<!-- node0x5030000003d0 -->
<g id="node17" class="node">
<title>node0x5030000003d0</title>
<path fill="#ffffd0" stroke="black" d="M1317,-212.5C1317,-212.5 1506,-212.5 1506,-212.5 1512,-212.5 1518,-218.5 1518,-224.5 1518,-224.5 1518,-269.5 1518,-269.5 1518,-275.5 1512,-281.5 1506,-281.5 1506,-281.5 1317,-281.5 1317,-281.5 1311,-281.5 1305,-275.5 1305,-269.5 1305,-269.5 1305,-224.5 1305,-224.5 1305,-218.5 1311,-212.5 1317,-212.5"/>
<text text-anchor="middle" x="1411.5" y="-266.3" font-family="Times,serif" font-size="14.00">[0x5030000003d0]</text>
<polyline fill="none" stroke="black" points="1305,-258.5 1518,-258.5 "/>
<text text-anchor="middle" x="1411.5" y="-243.3" font-family="Times,serif" font-size="14.00">data = FUPM REF</text>
<polyline fill="none" stroke="black" points="1305,-235.5 1518,-235.5 "/>
<text text-anchor="middle" x="1355.5" y="-220.3" font-family="Times,serif" font-size="14.00">left = [(nil)]</text>
<polyline fill="none" stroke="black" points="1406,-212.5 1406,-235.5 "/>
<text text-anchor="middle" x="1462" y="-220.3" font-family="Times,serif" font-size="14.00">right = [(nil)]</text>
</g>
<!-- node0x503000000340&#45;&gt;node0x5030000003d0 -->
<g id="edge16" class="edge">
<title>node0x503000000340&#45;&gt;node0x5030000003d0</title>
<path fill="none" stroke="black" d="M1272.77,-318.38C1293.05,-308.09 1315.5,-296.7 1336.33,-286.14"/>
<polygon fill="black" stroke="black" points="1338.12,-289.15 1345.45,-281.51 1334.95,-282.91 1338.12,-289.15"/>
</g>
<!-- node0x5030000001f0 -->
<g id="node10" class="node">
<title>node0x5030000001f0</title>
<path fill="#ffffd0" stroke="black" d="M97.5,-106.5C97.5,-106.5 479.5,-106.5 479.5,-106.5 485.5,-106.5 491.5,-112.5 491.5,-118.5 491.5,-118.5 491.5,-163.5 491.5,-163.5 491.5,-169.5 485.5,-175.5 479.5,-175.5 479.5,-175.5 97.5,-175.5 97.5,-175.5 91.5,-175.5 85.5,-169.5 85.5,-163.5 85.5,-163.5 85.5,-118.5 85.5,-118.5 85.5,-112.5 91.5,-106.5 97.5,-106.5"/>
<text text-anchor="middle" x="288.5" y="-160.3" font-family="Times,serif" font-size="14.00">[0x5030000001f0]</text>
<polyline fill="none" stroke="black" points="85.5,-152.5 491.5,-152.5 "/>
<text text-anchor="middle" x="288.5" y="-137.3" font-family="Times,serif" font-size="14.00">data = left defender</text>
<polyline fill="none" stroke="black" points="85.5,-129.5 491.5,-129.5 "/>
<text text-anchor="middle" x="184" y="-114.3" font-family="Times,serif" font-size="14.00">left = [0x503000000220]</text>
<polyline fill="none" stroke="black" points="282.5,-106.5 282.5,-129.5 "/>
<text text-anchor="middle" x="387" y="-114.3" font-family="Times,serif" font-size="14.00">right = [0x503000000250]</text>
</g>
<!-- node0x5030000001c0&#45;&gt;node0x5030000001f0 -->
<g id="edge9" class="edge">
<title>node0x5030000001c0&#45;&gt;node0x5030000001f0</title>
<path fill="none" stroke="black" d="M431.96,-212.38C410.9,-202.04 387.57,-190.6 365.95,-179.99"/>
<polygon fill="black" stroke="black" points="367.32,-176.77 356.8,-175.51 364.24,-183.05 367.32,-176.77"/>
</g>
<!-- node0x503000000280 -->
<g id="node11" class="node">
<title>node0x503000000280</title>
<path fill="#ffffd0" stroke="black" d="M522,-106.5C522,-106.5 903,-106.5 903,-106.5 909,-106.5 915,-112.5 915,-118.5 915,-118.5 915,-163.5 915,-163.5 915,-169.5 909,-175.5 903,-175.5 903,-175.5 522,-175.5 522,-175.5 516,-175.5 510,-169.5 510,-163.5 510,-163.5 510,-118.5 510,-118.5 510,-112.5 516,-106.5 522,-106.5"/>
<text text-anchor="middle" x="712.5" y="-160.3" font-family="Times,serif" font-size="14.00">[0x503000000280]</text>
<polyline fill="none" stroke="black" points="510,-152.5 915,-152.5 "/>
<text text-anchor="middle" x="712.5" y="-137.3" font-family="Times,serif" font-size="14.00">data = center forward</text>
<polyline fill="none" stroke="black" points="510,-129.5 915,-129.5 "/>
<text text-anchor="middle" x="608.5" y="-114.3" font-family="Times,serif" font-size="14.00">left = [0x5030000002b0]</text>
<polyline fill="none" stroke="black" points="707,-106.5 707,-129.5 "/>
<text text-anchor="middle" x="811" y="-114.3" font-family="Times,serif" font-size="14.00">right = [0x5030000002e0]</text>
</g>
<!-- node0x5030000001c0&#45;&gt;node0x503000000280 -->
<g id="edge10" class="edge">
<title>node0x5030000001c0&#45;&gt;node0x503000000280</title>
<path fill="none" stroke="black" d="M569.04,-212.38C590.1,-202.04 613.43,-190.6 635.05,-179.99"/>
<polygon fill="black" stroke="black" points="636.76,-183.05 644.2,-175.51 633.68,-176.77 636.76,-183.05"/>
</g>
<!-- node0x503000000220 -->
<g id="node12" class="node">
<title>node0x503000000220</title>
<path fill="#ffffd0" stroke="black" d="M12,-0.5C12,-0.5 201,-0.5 201,-0.5 207,-0.5 213,-6.5 213,-12.5 213,-12.5 213,-57.5 213,-57.5 213,-63.5 207,-69.5 201,-69.5 201,-69.5 12,-69.5 12,-69.5 6,-69.5 0,-63.5 0,-57.5 0,-57.5 0,-12.5 0,-12.5 0,-6.5 6,-0.5 12,-0.5"/>
<text text-anchor="middle" x="106.5" y="-54.3" font-family="Times,serif" font-size="14.00">[0x503000000220]</text>
<polyline fill="none" stroke="black" points="0,-46.5 213,-46.5 "/>
<text text-anchor="middle" x="106.5" y="-31.3" font-family="Times,serif" font-size="14.00">data = tolik</text>
<polyline fill="none" stroke="black" points="0,-23.5 213,-23.5 "/>
<text text-anchor="middle" x="50.5" y="-8.3" font-family="Times,serif" font-size="14.00">left = [(nil)]</text>
<polyline fill="none" stroke="black" points="101,-0.5 101,-23.5 "/>
<text text-anchor="middle" x="157" y="-8.3" font-family="Times,serif" font-size="14.00">right = [(nil)]</text>
</g>
<!-- node0x5030000001f0&#45;&gt;node0x503000000220 -->
<g id="edge11" class="edge">
<title>node0x5030000001f0&#45;&gt;node0x503000000220</title>
<path fill="none" stroke="black" d="M229.66,-106.38C211.9,-96.23 192.26,-85.01 173.99,-74.56"/>
<polygon fill="black" stroke="black" points="175.56,-71.43 165.14,-69.51 172.08,-77.51 175.56,-71.43"/>
</g>
<!-- node0x503000000250 -->
<g id="node13" class="node">
<title>node0x503000000250</title>
<path fill="#ffffd0" stroke="black" d="M243,-0.5C243,-0.5 432,-0.5 432,-0.5 438,-0.5 444,-6.5 444,-12.5 444,-12.5 444,-57.5 444,-57.5 444,-63.5 438,-69.5 432,-69.5 432,-69.5 243,-69.5 243,-69.5 237,-69.5 231,-63.5 231,-57.5 231,-57.5 231,-12.5 231,-12.5 231,-6.5 237,-0.5 243,-0.5"/>
<text text-anchor="middle" x="337.5" y="-54.3" font-family="Times,serif" font-size="14.00">[0x503000000250]</text>
<polyline fill="none" stroke="black" points="231,-46.5 444,-46.5 "/>
<text text-anchor="middle" x="337.5" y="-31.3" font-family="Times,serif" font-size="14.00">data = dan</text>
<polyline fill="none" stroke="black" points="231,-23.5 444,-23.5 "/>
<text text-anchor="middle" x="281.5" y="-8.3" font-family="Times,serif" font-size="14.00">left = [(nil)]</text>
<polyline fill="none" stroke="black" points="332,-0.5 332,-23.5 "/>
<text text-anchor="middle" x="388" y="-8.3" font-family="Times,serif" font-size="14.00">right = [(nil)]</text>
</g>
<!-- node0x5030000001f0&#45;&gt;node0x503000000250 -->
<g id="edge12" class="edge">
<title>node0x5030000001f0&#45;&gt;node0x503000000250</title>
<path fill="none" stroke="black" d="M304.41,-106.23C308.52,-97.52 312.99,-88.02 317.28,-78.91"/>
<polygon fill="black" stroke="black" points="320.57,-80.13 321.67,-69.6 314.24,-77.15 320.57,-80.13"/>
</g>
<!-- node0x5030000002b0 -->
<g id="node14" class="node">
<title>node0x5030000002b0</title>
<path fill="#ffffd0" stroke="black" d="M570,-0.5C570,-0.5 759,-0.5 759,-0.5 765,-0.5 771,-6.5 771,-12.5 771,-12.5 771,-57.5 771,-57.5 771,-63.5 765,-69.5 759,-69.5 759,-69.5 570,-69.5 570,-69.5 564,-69.5 558,-63.5 558,-57.5 558,-57.5 558,-12.5 558,-12.5 558,-6.5 564,-0.5 570,-0.5"/>
<text text-anchor="middle" x="664.5" y="-54.3" font-family="Times,serif" font-size="14.00">[0x5030000002b0]</text>
<polyline fill="none" stroke="black" points="558,-46.5 771,-46.5 "/>
<text text-anchor="middle" x="664.5" y="-31.3" font-family="Times,serif" font-size="14.00">data = artem</text>
<polyline fill="none" stroke="black" points="558,-23.5 771,-23.5 "/>
<text text-anchor="middle" x="608.5" y="-8.3" font-family="Times,serif" font-size="14.00">left = [(nil)]</text>
<polyline fill="none" stroke="black" points="659,-0.5 659,-23.5 "/>
<text text-anchor="middle" x="715" y="-8.3" font-family="Times,serif" font-size="14.00">right = [(nil)]</text>
</g>
<!-- node0x503000000280&#45;&gt;node0x5030000002b0 -->
<g id="edge13" class="edge">
<title>node0x503000000280&#45;&gt;node0x5030000002b0</title>
<path fill="none" stroke="black" d="M696.92,-106.23C692.89,-97.52 688.51,-88.02 684.3,-78.91"/>
<polygon fill="black" stroke="black" points="687.37,-77.21 680.01,-69.6 681.02,-80.14 687.37,-77.21"/>
</g>
<!-- node0x5030000002e0 -->
<g id="node15" class="node">
<title>node0x5030000002e0</title>
<path fill="#ffffd0" stroke="black" d="M801,-0.5C801,-0.5 990,-0.5 990,-0.5 996,-0.5 1002,-6.5 1002,-12.5 1002,-12.5 1002,-57.5 1002,-57.5 1002,-63.5 996,-69.5 990,-69.5 990,-69.5 801,-69.5 801,-69.5 795,-69.5 789,-63.5 789,-57.5 789,-57.5 789,-12.5 789,-12.5 789,-6.5 795,-0.5 801,-0.5"/>
<text text-anchor="middle" x="895.5" y="-54.3" font-family="Times,serif" font-size="14.00">[0x5030000002e0]</text>
<polyline fill="none" stroke="black" points="789,-46.5 1002,-46.5 "/>
<text text-anchor="middle" x="895.5" y="-31.3" font-family="Times,serif" font-size="14.00">data = gosha</text>
<polyline fill="none" stroke="black" points="789,-23.5 1002,-23.5 "/>
<text text-anchor="middle" x="839.5" y="-8.3" font-family="Times,serif" font-size="14.00">left = [(nil)]</text>
<polyline fill="none" stroke="black" points="890,-0.5 890,-23.5 "/>
<text text-anchor="middle" x="946" y="-8.3" font-family="Times,serif" font-size="14.00">right = [(nil)]</text>
</g>
<!-- node0x503000000280&#45;&gt;node0x5030000002e0 -->
<g id="edge14" class="edge">
<title>node0x503000000280&#45;&gt;node0x5030000002e0</title>
<path fill="none" stroke="black" d="M771.66,-106.38C789.52,-96.23 809.27,-85.01 827.64,-74.56"/>
<polygon fill="black" stroke="black" points="829.58,-77.49 836.54,-69.51 826.12,-71.4 829.58,-77.49"/>
</g>
</g>
</svg>
