<?xml version="1.0" encoding="UTF-8" standalone="no"?>
<!DOCTYPE svg PUBLIC "-//W3C//DTD SVG 1.1//EN"
 "http://www.w3.org/Graphics/SVG/1.1/DTD/svg11.dtd">
<!-- Generated by graphviz version 2.43.0 (0)
 -->
<!-- Title: %3 Pages: 1 -->
<svg width="874pt" height="502pt"
 viewBox="0.00 0.00 874.00 502.00" xmlns="http://www.w3.org/2000/svg" xmlns:xlink="http://www.w3.org/1999/xlink">
<g id="graph0" class="graph" transform="scale(1 1) rotate(0) translate(4 498)">
<title>%3</title>
<!-- node0x503000000040 -->
<g id="node1" class="node">
<title>node0x503000000040</title>
<path fill="#ffffd0" stroke="black" d="M78.5,-424.5C78.5,-424.5 460.5,-424.5 460.5,-424.5 466.5,-424.5 472.5,-430.5 472.5,-436.5 472.5,-436.5 472.5,-481.5 472.5,-481.5 472.5,-487.5 466.5,-493.5 460.5,-493.5 460.5,-493.5 78.5,-493.5 78.5,-493.5 72.5,-493.5 66.5,-487.5 66.5,-481.5 66.5,-481.5 66.5,-436.5 66.5,-436.5 66.5,-430.5 72.5,-424.5 78.5,-424.5"/>
<text text-anchor="middle" x="269.5" y="-478.3" font-family="Times,serif" font-size="14.00">[0x503000000040]</text>
<polyline fill="none" stroke="black" points="66.5,-470.5 472.5,-470.5 "/>
<text text-anchor="middle" x="269.5" y="-455.3" font-family="Times,serif" font-size="14.00">data = animal</text>
<polyline fill="none" stroke="black" points="66.5,-447.5 472.5,-447.5 "/>
<text text-anchor="middle" x="165" y="-432.3" font-family="Times,serif" font-size="14.00">left = [0x503000000070]</text>
<polyline fill="none" stroke="black" points="263.5,-424.5 263.5,-447.5 "/>
<text text-anchor="middle" x="368" y="-432.3" font-family="Times,serif" font-size="14.00">right = [0x5030000000d0]</text>
</g>
<!-- node0x503000000070 -->
<g id="node2" class="node">
<title>node0x503000000070</title>
<path fill="#ffffd0" stroke="black" d="M12,-318.5C12,-318.5 201,-318.5 201,-318.5 207,-318.5 213,-324.5 213,-330.5 213,-330.5 213,-375.5 213,-375.5 213,-381.5 207,-387.5 201,-387.5 201,-387.5 12,-387.5 12,-387.5 6,-387.5 0,-381.5 0,-375.5 0,-375.5 0,-330.5 0,-330.5 0,-324.5 6,-318.5 12,-318.5"/>
<text text-anchor="middle" x="106.5" y="-372.3" font-family="Times,serif" font-size="14.00">[0x503000000070]</text>
<polyline fill="none" stroke="black" points="0,-364.5 213,-364.5 "/>
<text text-anchor="middle" x="106.5" y="-349.3" font-family="Times,serif" font-size="14.00">data = poltorashka</text>
<polyline fill="none" stroke="black" points="0,-341.5 213,-341.5 "/>
<text text-anchor="middle" x="50.5" y="-326.3" font-family="Times,serif" font-size="14.00">left = [(nil)]</text>
<polyline fill="none" stroke="black" points="101,-318.5 101,-341.5 "/>
<text text-anchor="middle" x="157" y="-326.3" font-family="Times,serif" font-size="14.00">right = [(nil)]</text>
</g>
<!-- node0x503000000040&#45;&gt;node0x503000000070 -->
<g id="edge1" class="edge">
<title>node0x503000000040&#45;&gt;node0x503000000070</title>
<path fill="none" stroke="black" d="M216.58,-424.23C201.05,-414.33 183.93,-403.41 167.92,-393.19"/>
<polygon fill="black" stroke="black" points="169.47,-390.02 159.16,-387.6 165.7,-395.93 169.47,-390.02"/>
</g>
<!-- node0x5030000000d0 -->
<g id="node3" class="node">
<title>node0x5030000000d0</title>
<path fill="#ffffd0" stroke="black" d="M242.5,-318.5C242.5,-318.5 624.5,-318.5 624.5,-318.5 630.5,-318.5 636.5,-324.5 636.5,-330.5 636.5,-330.5 636.5,-375.5 636.5,-375.5 636.5,-381.5 630.5,-387.5 624.5,-387.5 624.5,-387.5 242.5,-387.5 242.5,-387.5 236.5,-387.5 230.5,-381.5 230.5,-375.5 230.5,-375.5 230.5,-330.5 230.5,-330.5 230.5,-324.5 236.5,-318.5 242.5,-318.5"/>
<text text-anchor="middle" x="433.5" y="-372.3" font-family="Times,serif" font-size="14.00">[0x5030000000d0]</text>
<polyline fill="none" stroke="black" points="230.5,-364.5 636.5,-364.5 "/>
<text text-anchor="middle" x="433.5" y="-349.3" font-family="Times,serif" font-size="14.00">data = teaches discrete math</text>
<polyline fill="none" stroke="black" points="230.5,-341.5 636.5,-341.5 "/>
<text text-anchor="middle" x="329" y="-326.3" font-family="Times,serif" font-size="14.00">left = [0x503000000100]</text>
<polyline fill="none" stroke="black" points="427.5,-318.5 427.5,-341.5 "/>
<text text-anchor="middle" x="532" y="-326.3" font-family="Times,serif" font-size="14.00">right = [0x503000000130]</text>
</g>
<!-- node0x503000000040&#45;&gt;node0x5030000000d0 -->
<g id="edge2" class="edge">
<title>node0x503000000040&#45;&gt;node0x5030000000d0</title>
<path fill="none" stroke="black" d="M322.75,-424.23C338.37,-414.33 355.59,-403.41 371.7,-393.19"/>
<polygon fill="black" stroke="black" points="373.95,-395.91 380.52,-387.6 370.2,-390 373.95,-395.91"/>
</g>
<!-- node0x503000000100 -->
<g id="node4" class="node">
<title>node0x503000000100</title>
<path fill="#ffffd0" stroke="black" d="M176,-212.5C176,-212.5 365,-212.5 365,-212.5 371,-212.5 377,-218.5 377,-224.5 377,-224.5 377,-269.5 377,-269.5 377,-275.5 371,-281.5 365,-281.5 365,-281.5 176,-281.5 176,-281.5 170,-281.5 164,-275.5 164,-269.5 164,-269.5 164,-224.5 164,-224.5 164,-218.5 170,-212.5 176,-212.5"/>
<text text-anchor="middle" x="270.5" y="-266.3" font-family="Times,serif" font-size="14.00">[0x503000000100]</text>
<polyline fill="none" stroke="black" points="164,-258.5 377,-258.5 "/>
<text text-anchor="middle" x="270.5" y="-243.3" font-family="Times,serif" font-size="14.00">data = burcev</text>
<polyline fill="none" stroke="black" points="164,-235.5 377,-235.5 "/>
<text text-anchor="middle" x="214.5" y="-220.3" font-family="Times,serif" font-size="14.00">left = [(nil)]</text>
<polyline fill="none" stroke="black" points="265,-212.5 265,-235.5 "/>
<text text-anchor="middle" x="321" y="-220.3" font-family="Times,serif" font-size="14.00">right = [(nil)]</text>
</g>
<!-- node0x5030000000d0&#45;&gt;node0x503000000100 -->
<g id="edge3" class="edge">
<title>node0x5030000000d0&#45;&gt;node0x503000000100</title>
<path fill="none" stroke="black" d="M380.58,-318.23C365.05,-308.33 347.93,-297.41 331.92,-287.19"/>
<polygon fill="black" stroke="black" points="333.47,-284.02 323.16,-281.6 329.7,-289.93 333.47,-284.02"/>
</g>
<!-- node0x503000000130 -->
<g id="node5" class="node">
<title>node0x503000000130</title>
<path fill="#ffffd0" stroke="black" d="M406.5,-212.5C406.5,-212.5 788.5,-212.5 788.5,-212.5 794.5,-212.5 800.5,-218.5 800.5,-224.5 800.5,-224.5 800.5,-269.5 800.5,-269.5 800.5,-275.5 794.5,-281.5 788.5,-281.5 788.5,-281.5 406.5,-281.5 406.5,-281.5 400.5,-281.5 394.5,-275.5 394.5,-269.5 394.5,-269.5 394.5,-224.5 394.5,-224.5 394.5,-218.5 400.5,-212.5 406.5,-212.5"/>
<text text-anchor="middle" x="597.5" y="-266.3" font-family="Times,serif" font-size="14.00">[0x503000000130]</text>
<polyline fill="none" stroke="black" points="394.5,-258.5 800.5,-258.5 "/>
<text text-anchor="middle" x="597.5" y="-243.3" font-family="Times,serif" font-size="14.00">data = teaches physics</text>
<polyline fill="none" stroke="black" points="394.5,-235.5 800.5,-235.5 "/>
<text text-anchor="middle" x="493" y="-220.3" font-family="Times,serif" font-size="14.00">left = [0x503000000160]</text>
<polyline fill="none" stroke="black" points="591.5,-212.5 591.5,-235.5 "/>
<text text-anchor="middle" x="696" y="-220.3" font-family="Times,serif" font-size="14.00">right = [0x503000000190]</text>
</g>
<!-- node0x5030000000d0&#45;&gt;node0x503000000130 -->
<g id="edge4" class="edge">
<title>node0x5030000000d0&#45;&gt;node0x503000000130</title>
<path fill="none" stroke="black" d="M486.75,-318.23C502.37,-308.33 519.59,-297.41 535.7,-287.19"/>
<polygon fill="black" stroke="black" points="537.95,-289.91 544.52,-281.6 534.2,-284 537.95,-289.91"/>
</g>
<!-- node0x503000000160 -->
<g id="node6" class="node">
<title>node0x503000000160</title>
<path fill="#ffffd0" stroke="black" d="M246,-106.5C246,-106.5 623,-106.5 623,-106.5 629,-106.5 635,-112.5 635,-118.5 635,-118.5 635,-163.5 635,-163.5 635,-169.5 629,-175.5 623,-175.5 623,-175.5 246,-175.5 246,-175.5 240,-175.5 234,-169.5 234,-163.5 234,-163.5 234,-118.5 234,-118.5 234,-112.5 240,-106.5 246,-106.5"/>
<text text-anchor="middle" x="434.5" y="-160.3" font-family="Times,serif" font-size="14.00">[0x503000000160]</text>
<polyline fill="none" stroke="black" points="234,-152.5 635,-152.5 "/>
<text text-anchor="middle" x="434.5" y="-137.3" font-family="Times,serif" font-size="14.00">data = teaches in online&#45;school</text>
<polyline fill="none" stroke="black" points="234,-129.5 635,-129.5 "/>
<text text-anchor="middle" x="332" y="-114.3" font-family="Times,serif" font-size="14.00">left = [0x5030000001c0]</text>
<polyline fill="none" stroke="black" points="430,-106.5 430,-129.5 "/>
<text text-anchor="middle" x="532.5" y="-114.3" font-family="Times,serif" font-size="14.00">right = [0x5030000001f0]</text>
</g>
<!-- node0x503000000130&#45;&gt;node0x503000000160 -->
<g id="edge5" class="edge">
<title>node0x503000000130&#45;&gt;node0x503000000160</title>
<path fill="none" stroke="black" d="M544.58,-212.23C529.05,-202.33 511.93,-191.41 495.92,-181.19"/>
<polygon fill="black" stroke="black" points="497.47,-178.02 487.16,-175.6 493.7,-183.93 497.47,-178.02"/>
</g>
<!-- node0x503000000190 -->
<g id="node7" class="node">
<title>node0x503000000190</title>
<path fill="#ffffd0" stroke="black" d="M665,-106.5C665,-106.5 854,-106.5 854,-106.5 860,-106.5 866,-112.5 866,-118.5 866,-118.5 866,-163.5 866,-163.5 866,-169.5 860,-175.5 854,-175.5 854,-175.5 665,-175.5 665,-175.5 659,-175.5 653,-169.5 653,-163.5 653,-163.5 653,-118.5 653,-118.5 653,-112.5 659,-106.5 665,-106.5"/>
<text text-anchor="middle" x="759.5" y="-160.3" font-family="Times,serif" font-size="14.00">[0x503000000190]</text>
<polyline fill="none" stroke="black" points="653,-152.5 866,-152.5 "/>
<text text-anchor="middle" x="759.5" y="-137.3" font-family="Times,serif" font-size="14.00">data = chubarov</text>
<polyline fill="none" stroke="black" points="653,-129.5 866,-129.5 "/>
<text text-anchor="middle" x="703.5" y="-114.3" font-family="Times,serif" font-size="14.00">left = [(nil)]</text>
<polyline fill="none" stroke="black" points="754,-106.5 754,-129.5 "/>
<text text-anchor="middle" x="810" y="-114.3" font-family="Times,serif" font-size="14.00">right = [(nil)]</text>
</g>
<!-- node0x503000000130&#45;&gt;node0x503000000190 -->
<g id="edge6" class="edge">
<title>node0x503000000130&#45;&gt;node0x503000000190</title>
<path fill="none" stroke="black" d="M650.1,-212.23C665.53,-202.33 682.54,-191.41 698.46,-181.19"/>
<polygon fill="black" stroke="black" points="700.64,-183.94 707.17,-175.6 696.86,-178.05 700.64,-183.94"/>
</g>
<!-- node0x5030000001c0 -->
<g id="node8" class="node">
<title>node0x5030000001c0</title>
<path fill="#ffffd0" stroke="black" d="M225,-0.5C225,-0.5 414,-0.5 414,-0.5 420,-0.5 426,-6.5 426,-12.5 426,-12.5 426,-57.5 426,-57.5 426,-63.5 420,-69.5 414,-69.5 414,-69.5 225,-69.5 225,-69.5 219,-69.5 213,-63.5 213,-57.5 213,-57.5 213,-12.5 213,-12.5 213,-6.5 219,-0.5 225,-0.5"/>
<text text-anchor="middle" x="319.5" y="-54.3" font-family="Times,serif" font-size="14.00">[0x5030000001c0]</text>
<polyline fill="none" stroke="black" points="213,-46.5 426,-46.5 "/>
<text text-anchor="middle" x="319.5" y="-31.3" font-family="Times,serif" font-size="14.00">data = penkin</text>
<polyline fill="none" stroke="black" points="213,-23.5 426,-23.5 "/>
<text text-anchor="middle" x="263.5" y="-8.3" font-family="Times,serif" font-size="14.00">left = [(nil)]</text>
<polyline fill="none" stroke="black" points="314,-0.5 314,-23.5 "/>
<text text-anchor="middle" x="370" y="-8.3" font-family="Times,serif" font-size="14.00">right = [(nil)]</text>
</g>
<!-- node0x503000000160&#45;&gt;node0x5030000001c0 -->
<g id="edge7" class="edge">
<title>node0x503000000160&#45;&gt;node0x5030000001c0</title>
<path fill="none" stroke="black" d="M397.16,-106.23C386.61,-96.69 375.02,-86.21 364.09,-76.33"/>
<polygon fill="black" stroke="black" points="366.41,-73.71 356.65,-69.6 361.72,-78.9 366.41,-73.71"/>
</g>
<!-- node0x5030000001f0 -->
<g id="node9" class="node">
<title>node0x5030000001f0</title>
<path fill="#ffffd0" stroke="black" d="M456,-0.5C456,-0.5 645,-0.5 645,-0.5 651,-0.5 657,-6.5 657,-12.5 657,-12.5 657,-57.5 657,-57.5 657,-63.5 651,-69.5 645,-69.5 645,-69.5 456,-69.5 456,-69.5 450,-69.5 444,-63.5 444,-57.5 444,-57.5 444,-12.5 444,-12.5 444,-6.5 450,-0.5 456,-0.5"/>
<text text-anchor="middle" x="550.5" y="-54.3" font-family="Times,serif" font-size="14.00">[0x5030000001f0]</text>
<polyline fill="none" stroke="black" points="444,-46.5 657,-46.5 "/>
<text text-anchor="middle" x="550.5" y="-31.3" font-family="Times,serif" font-size="14.00">data = ovchos</text>
<polyline fill="none" stroke="black" points="444,-23.5 657,-23.5 "/>
<text text-anchor="middle" x="494.5" y="-8.3" font-family="Times,serif" font-size="14.00">left = [(nil)]</text>
<polyline fill="none" stroke="black" points="545,-0.5 545,-23.5 "/>
<text text-anchor="middle" x="601" y="-8.3" font-family="Times,serif" font-size="14.00">right = [(nil)]</text>
</g>
<!-- node0x503000000160&#45;&gt;node0x5030000001f0 -->
<g id="edge8" class="edge">
<title>node0x503000000160&#45;&gt;node0x5030000001f0</title>
<path fill="none" stroke="black" d="M472.16,-106.23C482.8,-96.69 494.49,-86.21 505.52,-76.33"/>
<polygon fill="black" stroke="black" points="507.92,-78.88 513.03,-69.6 503.24,-73.67 507.92,-78.88"/>
</g>
</g>
</svg>
