<?xml version="1.0" encoding="UTF-8" standalone="no"?>
<!DOCTYPE svg PUBLIC "-//W3C//DTD SVG 1.1//EN"
 "http://www.w3.org/Graphics/SVG/1.1/DTD/svg11.dtd">
<!-- Generated by graphviz version 2.43.0 (0)
 -->
<!-- Title: %3 Pages: 1 -->
<svg width="1527pt" height="746pt"
 viewBox="0.00 0.00 1527.00 746.00" xmlns="http://www.w3.org/2000/svg" xmlns:xlink="http://www.w3.org/1999/xlink">
<g id="graph0" class="graph" transform="scale(1 1) rotate(0) translate(4 742)">
<title>%3</title>
<!-- node0x504000000010 -->
<g id="node1" class="node">
<title>node0x504000000010</title>
<path fill="#ffffd0" stroke="black" d="M404.5,-645.5C404.5,-645.5 786.5,-645.5 786.5,-645.5 792.5,-645.5 798.5,-651.5 798.5,-657.5 798.5,-657.5 798.5,-725.5 798.5,-725.5 798.5,-731.5 792.5,-737.5 786.5,-737.5 786.5,-737.5 404.5,-737.5 404.5,-737.5 398.5,-737.5 392.5,-731.5 392.5,-725.5 392.5,-725.5 392.5,-657.5 392.5,-657.5 392.5,-651.5 398.5,-645.5 404.5,-645.5"/>
<text text-anchor="middle" x="595.5" y="-722.3" font-family="Times,serif" font-size="14.00">[0x504000000010]</text>
<polyline fill="none" stroke="black" points="392.5,-714.5 798.5,-714.5 "/>
<text text-anchor="middle" x="595.5" y="-699.3" font-family="Times,serif" font-size="14.00">data = teacher</text>
<polyline fill="none" stroke="black" points="392.5,-691.5 798.5,-691.5 "/>
<text text-anchor="middle" x="595.5" y="-676.3" font-family="Times,serif" font-size="14.00">shoot_free = 0</text>
<polyline fill="none" stroke="black" points="392.5,-668.5 798.5,-668.5 "/>
<text text-anchor="middle" x="491" y="-653.3" font-family="Times,serif" font-size="14.00">left = [0x504000000050]</text>
<polyline fill="none" stroke="black" points="589.5,-645.5 589.5,-668.5 "/>
<text text-anchor="middle" x="694" y="-653.3" font-family="Times,serif" font-size="14.00">right = [0x504000000110]</text>
</g>
<!-- node0x504000000050 -->
<g id="node2" class="node">
<title>node0x504000000050</title>
<path fill="#ffffd0" stroke="black" d="M192.5,-516.5C192.5,-516.5 574.5,-516.5 574.5,-516.5 580.5,-516.5 586.5,-522.5 586.5,-528.5 586.5,-528.5 586.5,-596.5 586.5,-596.5 586.5,-602.5 580.5,-608.5 574.5,-608.5 574.5,-608.5 192.5,-608.5 192.5,-608.5 186.5,-608.5 180.5,-602.5 180.5,-596.5 180.5,-596.5 180.5,-528.5 180.5,-528.5 180.5,-522.5 186.5,-516.5 192.5,-516.5"/>
<text text-anchor="middle" x="383.5" y="-593.3" font-family="Times,serif" font-size="14.00">[0x504000000050]</text>
<polyline fill="none" stroke="black" points="180.5,-585.5 586.5,-585.5 "/>
<text text-anchor="middle" x="383.5" y="-570.3" font-family="Times,serif" font-size="14.00">data = teacher of programming</text>
<polyline fill="none" stroke="black" points="180.5,-562.5 586.5,-562.5 "/>
<text text-anchor="middle" x="383.5" y="-547.3" font-family="Times,serif" font-size="14.00">shoot_free = 0</text>
<polyline fill="none" stroke="black" points="180.5,-539.5 586.5,-539.5 "/>
<text text-anchor="middle" x="279" y="-524.3" font-family="Times,serif" font-size="14.00">left = [0x504000000090]</text>
<polyline fill="none" stroke="black" points="377.5,-516.5 377.5,-539.5 "/>
<text text-anchor="middle" x="482" y="-524.3" font-family="Times,serif" font-size="14.00">right = [0x5040000000d0]</text>
</g>
<!-- node0x504000000010&#45;&gt;node0x504000000050 -->
<g id="edge1" class="edge">
<title>node0x504000000010&#45;&gt;node0x504000000050</title>
<path fill="none" stroke="black" d="M520.16,-645.37C503.23,-635.23 485.17,-624.41 467.9,-614.06"/>
<polygon fill="black" stroke="black" points="469.33,-610.84 458.95,-608.7 465.73,-616.84 469.33,-610.84"/>
</g>
<!-- node0x504000000110 -->
<g id="node3" class="node">
<title>node0x504000000110</title>
<path fill="#ffffd0" stroke="black" d="M616.5,-516.5C616.5,-516.5 998.5,-516.5 998.5,-516.5 1004.5,-516.5 1010.5,-522.5 1010.5,-528.5 1010.5,-528.5 1010.5,-596.5 1010.5,-596.5 1010.5,-602.5 1004.5,-608.5 998.5,-608.5 998.5,-608.5 616.5,-608.5 616.5,-608.5 610.5,-608.5 604.5,-602.5 604.5,-596.5 604.5,-596.5 604.5,-528.5 604.5,-528.5 604.5,-522.5 610.5,-516.5 616.5,-516.5"/>
<text text-anchor="middle" x="807.5" y="-593.3" font-family="Times,serif" font-size="14.00">[0x504000000110]</text>
<polyline fill="none" stroke="black" points="604.5,-585.5 1010.5,-585.5 "/>
<text text-anchor="middle" x="807.5" y="-570.3" font-family="Times,serif" font-size="14.00">data = football player</text>
<polyline fill="none" stroke="black" points="604.5,-562.5 1010.5,-562.5 "/>
<text text-anchor="middle" x="807.5" y="-547.3" font-family="Times,serif" font-size="14.00">shoot_free = 0</text>
<polyline fill="none" stroke="black" points="604.5,-539.5 1010.5,-539.5 "/>
<text text-anchor="middle" x="703" y="-524.3" font-family="Times,serif" font-size="14.00">left = [0x504000000150]</text>
<polyline fill="none" stroke="black" points="801.5,-516.5 801.5,-539.5 "/>
<text text-anchor="middle" x="906" y="-524.3" font-family="Times,serif" font-size="14.00">right = [0x504000000390]</text>
</g>
<!-- node0x504000000010&#45;&gt;node0x504000000110 -->
<g id="edge2" class="edge">
<title>node0x504000000010&#45;&gt;node0x504000000110</title>
<path fill="none" stroke="black" d="M670.84,-645.37C687.77,-635.23 705.83,-624.41 723.1,-614.06"/>
<polygon fill="black" stroke="black" points="725.27,-616.84 732.05,-608.7 721.67,-610.84 725.27,-616.84"/>
</g>
<!-- node0x504000000090 -->
<g id="node4" class="node">
<title>node0x504000000090</title>
<path fill="#ffffd0" stroke="black" d="M83,-387.5C83,-387.5 272,-387.5 272,-387.5 278,-387.5 284,-393.5 284,-399.5 284,-399.5 284,-467.5 284,-467.5 284,-473.5 278,-479.5 272,-479.5 272,-479.5 83,-479.5 83,-479.5 77,-479.5 71,-473.5 71,-467.5 71,-467.5 71,-399.5 71,-399.5 71,-393.5 77,-387.5 83,-387.5"/>
<text text-anchor="middle" x="177.5" y="-464.3" font-family="Times,serif" font-size="14.00">[0x504000000090]</text>
<polyline fill="none" stroke="black" points="71,-456.5 284,-456.5 "/>
<text text-anchor="middle" x="177.5" y="-441.3" font-family="Times,serif" font-size="14.00">data = ded32</text>
<polyline fill="none" stroke="black" points="71,-433.5 284,-433.5 "/>
<text text-anchor="middle" x="177.5" y="-418.3" font-family="Times,serif" font-size="14.00">shoot_free = 0</text>
<polyline fill="none" stroke="black" points="71,-410.5 284,-410.5 "/>
<text text-anchor="middle" x="121.5" y="-395.3" font-family="Times,serif" font-size="14.00">left = [(nil)]</text>
<polyline fill="none" stroke="black" points="172,-387.5 172,-410.5 "/>
<text text-anchor="middle" x="228" y="-395.3" font-family="Times,serif" font-size="14.00">right = [(nil)]</text>
</g>
<!-- node0x504000000050&#45;&gt;node0x504000000090 -->
<g id="edge3" class="edge">
<title>node0x504000000050&#45;&gt;node0x504000000090</title>
<path fill="none" stroke="black" d="M310.29,-516.37C293.85,-506.23 276.29,-495.41 259.51,-485.06"/>
<polygon fill="black" stroke="black" points="261.17,-481.97 250.82,-479.7 257.49,-487.93 261.17,-481.97"/>
</g>
<!-- node0x5040000000d0 -->
<g id="node5" class="node">
<title>node0x5040000000d0</title>
<path fill="#ffffd0" stroke="black" d="M314,-387.5C314,-387.5 503,-387.5 503,-387.5 509,-387.5 515,-393.5 515,-399.5 515,-399.5 515,-467.5 515,-467.5 515,-473.5 509,-479.5 503,-479.5 503,-479.5 314,-479.5 314,-479.5 308,-479.5 302,-473.5 302,-467.5 302,-467.5 302,-399.5 302,-399.5 302,-393.5 308,-387.5 314,-387.5"/>
<text text-anchor="middle" x="408.5" y="-464.3" font-family="Times,serif" font-size="14.00">[0x5040000000d0]</text>
<polyline fill="none" stroke="black" points="302,-456.5 515,-456.5 "/>
<text text-anchor="middle" x="408.5" y="-441.3" font-family="Times,serif" font-size="14.00">data = ovchinkin</text>
<polyline fill="none" stroke="black" points="302,-433.5 515,-433.5 "/>
<text text-anchor="middle" x="408.5" y="-418.3" font-family="Times,serif" font-size="14.00">shoot_free = 0</text>
<polyline fill="none" stroke="black" points="302,-410.5 515,-410.5 "/>
<text text-anchor="middle" x="352.5" y="-395.3" font-family="Times,serif" font-size="14.00">left = [(nil)]</text>
<polyline fill="none" stroke="black" points="403,-387.5 403,-410.5 "/>
<text text-anchor="middle" x="459" y="-395.3" font-family="Times,serif" font-size="14.00">right = [(nil)]</text>
</g>
<!-- node0x504000000050&#45;&gt;node0x5040000000d0 -->
<g id="edge4" class="edge">
<title>node0x504000000050&#45;&gt;node0x5040000000d0</title>
<path fill="none" stroke="black" d="M392.38,-516.37C394.08,-507.77 395.87,-498.68 397.61,-489.8"/>
<polygon fill="black" stroke="black" points="401.06,-490.4 399.56,-479.92 394.19,-489.05 401.06,-490.4"/>
</g>
<!-- node0x504000000150 -->
<g id="node6" class="node">
<title>node0x504000000150</title>
<path fill="#ffffd0" stroke="black" d="M592.5,-387.5C592.5,-387.5 974.5,-387.5 974.5,-387.5 980.5,-387.5 986.5,-393.5 986.5,-399.5 986.5,-399.5 986.5,-467.5 986.5,-467.5 986.5,-473.5 980.5,-479.5 974.5,-479.5 974.5,-479.5 592.5,-479.5 592.5,-479.5 586.5,-479.5 580.5,-473.5 580.5,-467.5 580.5,-467.5 580.5,-399.5 580.5,-399.5 580.5,-393.5 586.5,-387.5 592.5,-387.5"/>
<text text-anchor="middle" x="783.5" y="-464.3" font-family="Times,serif" font-size="14.00">[0x504000000150]</text>
<polyline fill="none" stroke="black" points="580.5,-456.5 986.5,-456.5 "/>
<text text-anchor="middle" x="783.5" y="-441.3" font-family="Times,serif" font-size="14.00">data = plays for the caRTel</text>
<polyline fill="none" stroke="black" points="580.5,-433.5 986.5,-433.5 "/>
<text text-anchor="middle" x="783.5" y="-418.3" font-family="Times,serif" font-size="14.00">shoot_free = 0</text>
<polyline fill="none" stroke="black" points="580.5,-410.5 986.5,-410.5 "/>
<text text-anchor="middle" x="679" y="-395.3" font-family="Times,serif" font-size="14.00">left = [0x504000000190]</text>
<polyline fill="none" stroke="black" points="777.5,-387.5 777.5,-410.5 "/>
<text text-anchor="middle" x="882" y="-395.3" font-family="Times,serif" font-size="14.00">right = [0x504000000350]</text>
</g>
<!-- node0x504000000110&#45;&gt;node0x504000000150 -->
<g id="edge5" class="edge">
<title>node0x504000000110&#45;&gt;node0x504000000150</title>
<path fill="none" stroke="black" d="M798.97,-516.37C797.35,-507.77 795.63,-498.68 793.95,-489.8"/>
<polygon fill="black" stroke="black" points="797.38,-489.09 792.08,-479.92 790.5,-490.39 797.38,-489.09"/>
</g>
<!-- node0x504000000390 -->
<g id="node7" class="node">
<title>node0x504000000390</title>
<path fill="#ffffd0" stroke="black" d="M1016.5,-387.5C1016.5,-387.5 1398.5,-387.5 1398.5,-387.5 1404.5,-387.5 1410.5,-393.5 1410.5,-399.5 1410.5,-399.5 1410.5,-467.5 1410.5,-467.5 1410.5,-473.5 1404.5,-479.5 1398.5,-479.5 1398.5,-479.5 1016.5,-479.5 1016.5,-479.5 1010.5,-479.5 1004.5,-473.5 1004.5,-467.5 1004.5,-467.5 1004.5,-399.5 1004.5,-399.5 1004.5,-393.5 1010.5,-387.5 1016.5,-387.5"/>
<text text-anchor="middle" x="1207.5" y="-464.3" font-family="Times,serif" font-size="14.00">[0x504000000390]</text>
<polyline fill="none" stroke="black" points="1004.5,-456.5 1410.5,-456.5 "/>
<text text-anchor="middle" x="1207.5" y="-441.3" font-family="Times,serif" font-size="14.00">data = coach</text>
<polyline fill="none" stroke="black" points="1004.5,-433.5 1410.5,-433.5 "/>
<text text-anchor="middle" x="1207.5" y="-418.3" font-family="Times,serif" font-size="14.00">shoot_free = 0</text>
<polyline fill="none" stroke="black" points="1004.5,-410.5 1410.5,-410.5 "/>
<text text-anchor="middle" x="1103" y="-395.3" font-family="Times,serif" font-size="14.00">left = [0x5040000003d0]</text>
<polyline fill="none" stroke="black" points="1201.5,-387.5 1201.5,-410.5 "/>
<text text-anchor="middle" x="1306" y="-395.3" font-family="Times,serif" font-size="14.00">right = [0x504000000410]</text>
</g>
<!-- node0x504000000110&#45;&gt;node0x504000000390 -->
<g id="edge6" class="edge">
<title>node0x504000000110&#45;&gt;node0x504000000390</title>
<path fill="none" stroke="black" d="M949.37,-516.46C983.87,-505.5 1020.89,-493.75 1055.82,-482.66"/>
<polygon fill="black" stroke="black" points="1057.15,-485.91 1065.62,-479.55 1055.03,-479.24 1057.15,-485.91"/>
</g>
<!-- node0x504000000190 -->
<g id="node8" class="node">
<title>node0x504000000190</title>
<path fill="#ffffd0" stroke="black" d="M309.5,-258.5C309.5,-258.5 691.5,-258.5 691.5,-258.5 697.5,-258.5 703.5,-264.5 703.5,-270.5 703.5,-270.5 703.5,-338.5 703.5,-338.5 703.5,-344.5 697.5,-350.5 691.5,-350.5 691.5,-350.5 309.5,-350.5 309.5,-350.5 303.5,-350.5 297.5,-344.5 297.5,-338.5 297.5,-338.5 297.5,-270.5 297.5,-270.5 297.5,-264.5 303.5,-258.5 309.5,-258.5"/>
<text text-anchor="middle" x="500.5" y="-335.3" font-family="Times,serif" font-size="14.00">[0x504000000190]</text>
<polyline fill="none" stroke="black" points="297.5,-327.5 703.5,-327.5 "/>
<text text-anchor="middle" x="500.5" y="-312.3" font-family="Times,serif" font-size="14.00">data = defender</text>
<polyline fill="none" stroke="black" points="297.5,-304.5 703.5,-304.5 "/>
<text text-anchor="middle" x="500.5" y="-289.3" font-family="Times,serif" font-size="14.00">shoot_free = 0</text>
<polyline fill="none" stroke="black" points="297.5,-281.5 703.5,-281.5 "/>
<text text-anchor="middle" x="396" y="-266.3" font-family="Times,serif" font-size="14.00">left = [0x5040000001d0]</text>
<polyline fill="none" stroke="black" points="494.5,-258.5 494.5,-281.5 "/>
<text text-anchor="middle" x="599" y="-266.3" font-family="Times,serif" font-size="14.00">right = [0x504000000290]</text>
</g>
<!-- node0x504000000150&#45;&gt;node0x504000000190 -->
<g id="edge7" class="edge">
<title>node0x504000000150&#45;&gt;node0x504000000190</title>
<path fill="none" stroke="black" d="M682.93,-387.37C659.51,-376.86 634.45,-365.61 610.63,-354.92"/>
<polygon fill="black" stroke="black" points="611.78,-351.6 601.22,-350.7 608.92,-357.99 611.78,-351.6"/>
</g>
<!-- node0x504000000350 -->
<g id="node9" class="node">
<title>node0x504000000350</title>
<path fill="#ffffd0" stroke="black" d="M733,-258.5C733,-258.5 922,-258.5 922,-258.5 928,-258.5 934,-264.5 934,-270.5 934,-270.5 934,-338.5 934,-338.5 934,-344.5 928,-350.5 922,-350.5 922,-350.5 733,-350.5 733,-350.5 727,-350.5 721,-344.5 721,-338.5 721,-338.5 721,-270.5 721,-270.5 721,-264.5 727,-258.5 733,-258.5"/>
<text text-anchor="middle" x="827.5" y="-335.3" font-family="Times,serif" font-size="14.00">[0x504000000350]</text>
<polyline fill="none" stroke="black" points="721,-327.5 934,-327.5 "/>
<text text-anchor="middle" x="827.5" y="-312.3" font-family="Times,serif" font-size="14.00">data = loh</text>
<polyline fill="none" stroke="black" points="721,-304.5 934,-304.5 "/>
<text text-anchor="middle" x="827.5" y="-289.3" font-family="Times,serif" font-size="14.00">shoot_free = 0</text>
<polyline fill="none" stroke="black" points="721,-281.5 934,-281.5 "/>
<text text-anchor="middle" x="771.5" y="-266.3" font-family="Times,serif" font-size="14.00">left = [(nil)]</text>
<polyline fill="none" stroke="black" points="822,-258.5 822,-281.5 "/>
<text text-anchor="middle" x="878" y="-266.3" font-family="Times,serif" font-size="14.00">right = [(nil)]</text>
</g>
<!-- node0x504000000150&#45;&gt;node0x504000000350 -->
<g id="edge8" class="edge">
<title>node0x504000000150&#45;&gt;node0x504000000350</title>
<path fill="none" stroke="black" d="M799.14,-387.37C802.15,-378.68 805.33,-369.48 808.44,-360.52"/>
<polygon fill="black" stroke="black" points="811.8,-361.51 811.77,-350.92 805.18,-359.22 811.8,-361.51"/>
</g>
<!-- node0x5040000003d0 -->
<g id="node16" class="node">
<title>node0x5040000003d0</title>
<path fill="#ffffd0" stroke="black" d="M1051,-258.5C1051,-258.5 1276,-258.5 1276,-258.5 1282,-258.5 1288,-264.5 1288,-270.5 1288,-270.5 1288,-338.5 1288,-338.5 1288,-344.5 1282,-350.5 1276,-350.5 1276,-350.5 1051,-350.5 1051,-350.5 1045,-350.5 1039,-344.5 1039,-338.5 1039,-338.5 1039,-270.5 1039,-270.5 1039,-264.5 1045,-258.5 1051,-258.5"/>
<text text-anchor="middle" x="1163.5" y="-335.3" font-family="Times,serif" font-size="14.00">[0x5040000003d0]</text>
<polyline fill="none" stroke="black" points="1039,-327.5 1288,-327.5 "/>
<text text-anchor="middle" x="1163.5" y="-312.3" font-family="Times,serif" font-size="14.00">data = valentin spivak guardiola</text>
<polyline fill="none" stroke="black" points="1039,-304.5 1288,-304.5 "/>
<text text-anchor="middle" x="1163.5" y="-289.3" font-family="Times,serif" font-size="14.00">shoot_free = 0</text>
<polyline fill="none" stroke="black" points="1039,-281.5 1288,-281.5 "/>
<text text-anchor="middle" x="1098.5" y="-266.3" font-family="Times,serif" font-size="14.00">left = [(nil)]</text>
<polyline fill="none" stroke="black" points="1158,-258.5 1158,-281.5 "/>
<text text-anchor="middle" x="1223" y="-266.3" font-family="Times,serif" font-size="14.00">right = [(nil)]</text>
</g>
<!-- node0x504000000390&#45;&gt;node0x5040000003d0 -->
<g id="edge15" class="edge">
<title>node0x504000000390&#45;&gt;node0x5040000003d0</title>
<path fill="none" stroke="black" d="M1191.86,-387.37C1188.85,-378.68 1185.67,-369.48 1182.56,-360.52"/>
<polygon fill="black" stroke="black" points="1185.82,-359.22 1179.23,-350.92 1179.2,-361.51 1185.82,-359.22"/>
</g>
<!-- node0x504000000410 -->
<g id="node17" class="node">
<title>node0x504000000410</title>
<path fill="#ffffd0" stroke="black" d="M1318,-258.5C1318,-258.5 1507,-258.5 1507,-258.5 1513,-258.5 1519,-264.5 1519,-270.5 1519,-270.5 1519,-338.5 1519,-338.5 1519,-344.5 1513,-350.5 1507,-350.5 1507,-350.5 1318,-350.5 1318,-350.5 1312,-350.5 1306,-344.5 1306,-338.5 1306,-338.5 1306,-270.5 1306,-270.5 1306,-264.5 1312,-258.5 1318,-258.5"/>
<text text-anchor="middle" x="1412.5" y="-335.3" font-family="Times,serif" font-size="14.00">[0x504000000410]</text>
<polyline fill="none" stroke="black" points="1306,-327.5 1519,-327.5 "/>
<text text-anchor="middle" x="1412.5" y="-312.3" font-family="Times,serif" font-size="14.00">data = FUPM REF</text>
<polyline fill="none" stroke="black" points="1306,-304.5 1519,-304.5 "/>
<text text-anchor="middle" x="1412.5" y="-289.3" font-family="Times,serif" font-size="14.00">shoot_free = 0</text>
<polyline fill="none" stroke="black" points="1306,-281.5 1519,-281.5 "/>
<text text-anchor="middle" x="1356.5" y="-266.3" font-family="Times,serif" font-size="14.00">left = [(nil)]</text>
<polyline fill="none" stroke="black" points="1407,-258.5 1407,-281.5 "/>
<text text-anchor="middle" x="1463" y="-266.3" font-family="Times,serif" font-size="14.00">right = [(nil)]</text>
</g>
<!-- node0x504000000390&#45;&gt;node0x504000000410 -->
<g id="edge16" class="edge">
<title>node0x504000000390&#45;&gt;node0x504000000410</title>
<path fill="none" stroke="black" d="M1280.35,-387.37C1296.72,-377.23 1314.19,-366.41 1330.89,-356.06"/>
<polygon fill="black" stroke="black" points="1332.88,-358.94 1339.54,-350.7 1329.19,-352.99 1332.88,-358.94"/>
</g>
<!-- node0x5040000001d0 -->
<g id="node10" class="node">
<title>node0x5040000001d0</title>
<path fill="#ffffd0" stroke="black" d="M97.5,-129.5C97.5,-129.5 479.5,-129.5 479.5,-129.5 485.5,-129.5 491.5,-135.5 491.5,-141.5 491.5,-141.5 491.5,-209.5 491.5,-209.5 491.5,-215.5 485.5,-221.5 479.5,-221.5 479.5,-221.5 97.5,-221.5 97.5,-221.5 91.5,-221.5 85.5,-215.5 85.5,-209.5 85.5,-209.5 85.5,-141.5 85.5,-141.5 85.5,-135.5 91.5,-129.5 97.5,-129.5"/>
<text text-anchor="middle" x="288.5" y="-206.3" font-family="Times,serif" font-size="14.00">[0x5040000001d0]</text>
<polyline fill="none" stroke="black" points="85.5,-198.5 491.5,-198.5 "/>
<text text-anchor="middle" x="288.5" y="-183.3" font-family="Times,serif" font-size="14.00">data = left defender</text>
<polyline fill="none" stroke="black" points="85.5,-175.5 491.5,-175.5 "/>
<text text-anchor="middle" x="288.5" y="-160.3" font-family="Times,serif" font-size="14.00">shoot_free = 0</text>
<polyline fill="none" stroke="black" points="85.5,-152.5 491.5,-152.5 "/>
<text text-anchor="middle" x="184" y="-137.3" font-family="Times,serif" font-size="14.00">left = [0x504000000210]</text>
<polyline fill="none" stroke="black" points="282.5,-129.5 282.5,-152.5 "/>
<text text-anchor="middle" x="387" y="-137.3" font-family="Times,serif" font-size="14.00">right = [0x504000000250]</text>
</g>
<!-- node0x504000000190&#45;&gt;node0x5040000001d0 -->
<g id="edge9" class="edge">
<title>node0x504000000190&#45;&gt;node0x5040000001d0</title>
<path fill="none" stroke="black" d="M425.16,-258.37C408.23,-248.23 390.17,-237.41 372.9,-227.06"/>
<polygon fill="black" stroke="black" points="374.33,-223.84 363.95,-221.7 370.73,-229.84 374.33,-223.84"/>
</g>
<!-- node0x504000000290 -->
<g id="node11" class="node">
<title>node0x504000000290</title>
<path fill="#ffffd0" stroke="black" d="M521.5,-129.5C521.5,-129.5 903.5,-129.5 903.5,-129.5 909.5,-129.5 915.5,-135.5 915.5,-141.5 915.5,-141.5 915.5,-209.5 915.5,-209.5 915.5,-215.5 909.5,-221.5 903.5,-221.5 903.5,-221.5 521.5,-221.5 521.5,-221.5 515.5,-221.5 509.5,-215.5 509.5,-209.5 509.5,-209.5 509.5,-141.5 509.5,-141.5 509.5,-135.5 515.5,-129.5 521.5,-129.5"/>
<text text-anchor="middle" x="712.5" y="-206.3" font-family="Times,serif" font-size="14.00">[0x504000000290]</text>
<polyline fill="none" stroke="black" points="509.5,-198.5 915.5,-198.5 "/>
<text text-anchor="middle" x="712.5" y="-183.3" font-family="Times,serif" font-size="14.00">data = center forward</text>
<polyline fill="none" stroke="black" points="509.5,-175.5 915.5,-175.5 "/>
<text text-anchor="middle" x="712.5" y="-160.3" font-family="Times,serif" font-size="14.00">shoot_free = 0</text>
<polyline fill="none" stroke="black" points="509.5,-152.5 915.5,-152.5 "/>
<text text-anchor="middle" x="608" y="-137.3" font-family="Times,serif" font-size="14.00">left = [0x5040000002d0]</text>
<polyline fill="none" stroke="black" points="706.5,-129.5 706.5,-152.5 "/>
<text text-anchor="middle" x="811" y="-137.3" font-family="Times,serif" font-size="14.00">right = [0x504000000310]</text>
</g>
<!-- node0x504000000190&#45;&gt;node0x504000000290 -->
<g id="edge10" class="edge">
<title>node0x504000000190&#45;&gt;node0x504000000290</title>
<path fill="none" stroke="black" d="M575.84,-258.37C592.77,-248.23 610.83,-237.41 628.1,-227.06"/>
<polygon fill="black" stroke="black" points="630.27,-229.84 637.05,-221.7 626.67,-223.84 630.27,-229.84"/>
</g>
<!-- node0x504000000210 -->
<g id="node12" class="node">
<title>node0x504000000210</title>
<path fill="#ffffd0" stroke="black" d="M12,-0.5C12,-0.5 201,-0.5 201,-0.5 207,-0.5 213,-6.5 213,-12.5 213,-12.5 213,-80.5 213,-80.5 213,-86.5 207,-92.5 201,-92.5 201,-92.5 12,-92.5 12,-92.5 6,-92.5 0,-86.5 0,-80.5 0,-80.5 0,-12.5 0,-12.5 0,-6.5 6,-0.5 12,-0.5"/>
<text text-anchor="middle" x="106.5" y="-77.3" font-family="Times,serif" font-size="14.00">[0x504000000210]</text>
<polyline fill="none" stroke="black" points="0,-69.5 213,-69.5 "/>
<text text-anchor="middle" x="106.5" y="-54.3" font-family="Times,serif" font-size="14.00">data = tolik</text>
<polyline fill="none" stroke="black" points="0,-46.5 213,-46.5 "/>
<text text-anchor="middle" x="106.5" y="-31.3" font-family="Times,serif" font-size="14.00">shoot_free = 0</text>
<polyline fill="none" stroke="black" points="0,-23.5 213,-23.5 "/>
<text text-anchor="middle" x="50.5" y="-8.3" font-family="Times,serif" font-size="14.00">left = [(nil)]</text>
<polyline fill="none" stroke="black" points="101,-0.5 101,-23.5 "/>
<text text-anchor="middle" x="157" y="-8.3" font-family="Times,serif" font-size="14.00">right = [(nil)]</text>
</g>
<!-- node0x5040000001d0&#45;&gt;node0x504000000210 -->
<g id="edge11" class="edge">
<title>node0x5040000001d0&#45;&gt;node0x504000000210</title>
<path fill="none" stroke="black" d="M223.82,-129.37C209.56,-119.41 194.35,-108.8 179.77,-98.63"/>
<polygon fill="black" stroke="black" points="181.48,-95.55 171.28,-92.7 177.47,-101.29 181.48,-95.55"/>
</g>
<!-- node0x504000000250 -->
<g id="node13" class="node">
<title>node0x504000000250</title>
<path fill="#ffffd0" stroke="black" d="M243,-0.5C243,-0.5 432,-0.5 432,-0.5 438,-0.5 444,-6.5 444,-12.5 444,-12.5 444,-80.5 444,-80.5 444,-86.5 438,-92.5 432,-92.5 432,-92.5 243,-92.5 243,-92.5 237,-92.5 231,-86.5 231,-80.5 231,-80.5 231,-12.5 231,-12.5 231,-6.5 237,-0.5 243,-0.5"/>
<text text-anchor="middle" x="337.5" y="-77.3" font-family="Times,serif" font-size="14.00">[0x504000000250]</text>
<polyline fill="none" stroke="black" points="231,-69.5 444,-69.5 "/>
<text text-anchor="middle" x="337.5" y="-54.3" font-family="Times,serif" font-size="14.00">data = dan</text>
<polyline fill="none" stroke="black" points="231,-46.5 444,-46.5 "/>
<text text-anchor="middle" x="337.5" y="-31.3" font-family="Times,serif" font-size="14.00">shoot_free = 0</text>
<polyline fill="none" stroke="black" points="231,-23.5 444,-23.5 "/>
<text text-anchor="middle" x="281.5" y="-8.3" font-family="Times,serif" font-size="14.00">left = [(nil)]</text>
<polyline fill="none" stroke="black" points="332,-0.5 332,-23.5 "/>
<text text-anchor="middle" x="388" y="-8.3" font-family="Times,serif" font-size="14.00">right = [(nil)]</text>
</g>
<!-- node0x5040000001d0&#45;&gt;node0x504000000250 -->
<g id="edge12" class="edge">
<title>node0x5040000001d0&#45;&gt;node0x504000000250</title>
<path fill="none" stroke="black" d="M305.91,-129.37C309.27,-120.68 312.81,-111.48 316.27,-102.52"/>
<polygon fill="black" stroke="black" points="319.64,-103.51 319.98,-92.92 313.11,-100.99 319.64,-103.51"/>
</g>
<!-- node0x5040000002d0 -->
<g id="node14" class="node">
<title>node0x5040000002d0</title>
<path fill="#ffffd0" stroke="black" d="M570,-0.5C570,-0.5 759,-0.5 759,-0.5 765,-0.5 771,-6.5 771,-12.5 771,-12.5 771,-80.5 771,-80.5 771,-86.5 765,-92.5 759,-92.5 759,-92.5 570,-92.5 570,-92.5 564,-92.5 558,-86.5 558,-80.5 558,-80.5 558,-12.5 558,-12.5 558,-6.5 564,-0.5 570,-0.5"/>
<text text-anchor="middle" x="664.5" y="-77.3" font-family="Times,serif" font-size="14.00">[0x5040000002d0]</text>
<polyline fill="none" stroke="black" points="558,-69.5 771,-69.5 "/>
<text text-anchor="middle" x="664.5" y="-54.3" font-family="Times,serif" font-size="14.00">data = artem</text>
<polyline fill="none" stroke="black" points="558,-46.5 771,-46.5 "/>
<text text-anchor="middle" x="664.5" y="-31.3" font-family="Times,serif" font-size="14.00">shoot_free = 0</text>
<polyline fill="none" stroke="black" points="558,-23.5 771,-23.5 "/>
<text text-anchor="middle" x="608.5" y="-8.3" font-family="Times,serif" font-size="14.00">left = [(nil)]</text>
<polyline fill="none" stroke="black" points="659,-0.5 659,-23.5 "/>
<text text-anchor="middle" x="715" y="-8.3" font-family="Times,serif" font-size="14.00">right = [(nil)]</text>
</g>
<!-- node0x504000000290&#45;&gt;node0x5040000002d0 -->
<g id="edge13" class="edge">
<title>node0x504000000290&#45;&gt;node0x5040000002d0</title>
<path fill="none" stroke="black" d="M695.44,-129.37C692.16,-120.68 688.68,-111.48 685.29,-102.52"/>
<polygon fill="black" stroke="black" points="688.47,-101.03 681.66,-92.92 681.93,-103.51 688.47,-101.03"/>
</g>
<!-- node0x504000000310 -->
<g id="node15" class="node">
<title>node0x504000000310</title>
<path fill="#ffffd0" stroke="black" d="M801,-0.5C801,-0.5 990,-0.5 990,-0.5 996,-0.5 1002,-6.5 1002,-12.5 1002,-12.5 1002,-80.5 1002,-80.5 1002,-86.5 996,-92.5 990,-92.5 990,-92.5 801,-92.5 801,-92.5 795,-92.5 789,-86.5 789,-80.5 789,-80.5 789,-12.5 789,-12.5 789,-6.5 795,-0.5 801,-0.5"/>
<text text-anchor="middle" x="895.5" y="-77.3" font-family="Times,serif" font-size="14.00">[0x504000000310]</text>
<polyline fill="none" stroke="black" points="789,-69.5 1002,-69.5 "/>
<text text-anchor="middle" x="895.5" y="-54.3" font-family="Times,serif" font-size="14.00">data = gosha</text>
<polyline fill="none" stroke="black" points="789,-46.5 1002,-46.5 "/>
<text text-anchor="middle" x="895.5" y="-31.3" font-family="Times,serif" font-size="14.00">shoot_free = 0</text>
<polyline fill="none" stroke="black" points="789,-23.5 1002,-23.5 "/>
<text text-anchor="middle" x="839.5" y="-8.3" font-family="Times,serif" font-size="14.00">left = [(nil)]</text>
<polyline fill="none" stroke="black" points="890,-0.5 890,-23.5 "/>
<text text-anchor="middle" x="946" y="-8.3" font-family="Times,serif" font-size="14.00">right = [(nil)]</text>
</g>
<!-- node0x504000000290&#45;&gt;node0x504000000310 -->
<g id="edge14" class="edge">
<title>node0x504000000290&#45;&gt;node0x504000000310</title>
<path fill="none" stroke="black" d="M777.53,-129.37C791.88,-119.41 807.17,-108.8 821.82,-98.63"/>
<polygon fill="black" stroke="black" points="824.15,-101.28 830.37,-92.7 820.16,-95.53 824.15,-101.28"/>
</g>
</g>
</svg>
