<?xml version="1.0" encoding="UTF-8" standalone="no"?>
<!DOCTYPE svg PUBLIC "-//W3C//DTD SVG 1.1//EN"
 "http://www.w3.org/Graphics/SVG/1.1/DTD/svg11.dtd">
<!-- Generated by graphviz version 2.43.0 (0)
 -->
<!-- Title: %3 Pages: 1 -->
<svg width="1527pt" height="875pt"
 viewBox="0.00 0.00 1527.00 875.00" xmlns="http://www.w3.org/2000/svg" xmlns:xlink="http://www.w3.org/1999/xlink">
<g id="graph0" class="graph" transform="scale(1 1) rotate(0) translate(4 871)">
<title>%3</title>
<!-- node0x504000000010 -->
<g id="node1" class="node">
<title>node0x504000000010</title>
<path fill="#ffffd0" stroke="black" d="M404.5,-774.5C404.5,-774.5 786.5,-774.5 786.5,-774.5 792.5,-774.5 798.5,-780.5 798.5,-786.5 798.5,-786.5 798.5,-854.5 798.5,-854.5 798.5,-860.5 792.5,-866.5 786.5,-866.5 786.5,-866.5 404.5,-866.5 404.5,-866.5 398.5,-866.5 392.5,-860.5 392.5,-854.5 392.5,-854.5 392.5,-786.5 392.5,-786.5 392.5,-780.5 398.5,-774.5 404.5,-774.5"/>
<text text-anchor="middle" x="595.5" y="-851.3" font-family="Times,serif" font-size="14.00">[0x504000000010]</text>
<polyline fill="none" stroke="black" points="392.5,-843.5 798.5,-843.5 "/>
<text text-anchor="middle" x="595.5" y="-828.3" font-family="Times,serif" font-size="14.00">data = teacher</text>
<polyline fill="none" stroke="black" points="392.5,-820.5 798.5,-820.5 "/>
<text text-anchor="middle" x="595.5" y="-805.3" font-family="Times,serif" font-size="14.00">shoot_free = 0</text>
<polyline fill="none" stroke="black" points="392.5,-797.5 798.5,-797.5 "/>
<text text-anchor="middle" x="491" y="-782.3" font-family="Times,serif" font-size="14.00">left = [0x504000000050]</text>
<polyline fill="none" stroke="black" points="589.5,-774.5 589.5,-797.5 "/>
<text text-anchor="middle" x="694" y="-782.3" font-family="Times,serif" font-size="14.00">right = [0x504000000110]</text>
</g>
<!-- node0x504000000050 -->
<g id="node2" class="node">
<title>node0x504000000050</title>
<path fill="#ffffd0" stroke="black" d="M192.5,-645.5C192.5,-645.5 574.5,-645.5 574.5,-645.5 580.5,-645.5 586.5,-651.5 586.5,-657.5 586.5,-657.5 586.5,-725.5 586.5,-725.5 586.5,-731.5 580.5,-737.5 574.5,-737.5 574.5,-737.5 192.5,-737.5 192.5,-737.5 186.5,-737.5 180.5,-731.5 180.5,-725.5 180.5,-725.5 180.5,-657.5 180.5,-657.5 180.5,-651.5 186.5,-645.5 192.5,-645.5"/>
<text text-anchor="middle" x="383.5" y="-722.3" font-family="Times,serif" font-size="14.00">[0x504000000050]</text>
<polyline fill="none" stroke="black" points="180.5,-714.5 586.5,-714.5 "/>
<text text-anchor="middle" x="383.5" y="-699.3" font-family="Times,serif" font-size="14.00">data = teacher of programming</text>
<polyline fill="none" stroke="black" points="180.5,-691.5 586.5,-691.5 "/>
<text text-anchor="middle" x="383.5" y="-676.3" font-family="Times,serif" font-size="14.00">shoot_free = 0</text>
<polyline fill="none" stroke="black" points="180.5,-668.5 586.5,-668.5 "/>
<text text-anchor="middle" x="279" y="-653.3" font-family="Times,serif" font-size="14.00">left = [0x504000000090]</text>
<polyline fill="none" stroke="black" points="377.5,-645.5 377.5,-668.5 "/>
<text text-anchor="middle" x="482" y="-653.3" font-family="Times,serif" font-size="14.00">right = [0x5040000000d0]</text>
</g>
<!-- node0x504000000010&#45;&gt;node0x504000000050 -->
<g id="edge1" class="edge">
<title>node0x504000000010&#45;&gt;node0x504000000050</title>
<path fill="none" stroke="black" d="M520.16,-774.37C503.23,-764.23 485.17,-753.41 467.9,-743.06"/>
<polygon fill="black" stroke="black" points="469.33,-739.84 458.95,-737.7 465.73,-745.84 469.33,-739.84"/>
</g>
<!-- node0x504000000110 -->
<g id="node3" class="node">
<title>node0x504000000110</title>
<path fill="#ffffd0" stroke="black" d="M616.5,-645.5C616.5,-645.5 998.5,-645.5 998.5,-645.5 1004.5,-645.5 1010.5,-651.5 1010.5,-657.5 1010.5,-657.5 1010.5,-725.5 1010.5,-725.5 1010.5,-731.5 1004.5,-737.5 998.5,-737.5 998.5,-737.5 616.5,-737.5 616.5,-737.5 610.5,-737.5 604.5,-731.5 604.5,-725.5 604.5,-725.5 604.5,-657.5 604.5,-657.5 604.5,-651.5 610.5,-645.5 616.5,-645.5"/>
<text text-anchor="middle" x="807.5" y="-722.3" font-family="Times,serif" font-size="14.00">[0x504000000110]</text>
<polyline fill="none" stroke="black" points="604.5,-714.5 1010.5,-714.5 "/>
<text text-anchor="middle" x="807.5" y="-699.3" font-family="Times,serif" font-size="14.00">data = football player</text>
<polyline fill="none" stroke="black" points="604.5,-691.5 1010.5,-691.5 "/>
<text text-anchor="middle" x="807.5" y="-676.3" font-family="Times,serif" font-size="14.00">shoot_free = 0</text>
<polyline fill="none" stroke="black" points="604.5,-668.5 1010.5,-668.5 "/>
<text text-anchor="middle" x="703" y="-653.3" font-family="Times,serif" font-size="14.00">left = [0x504000000150]</text>
<polyline fill="none" stroke="black" points="801.5,-645.5 801.5,-668.5 "/>
<text text-anchor="middle" x="906" y="-653.3" font-family="Times,serif" font-size="14.00">right = [0x504000000390]</text>
</g>
<!-- node0x504000000010&#45;&gt;node0x504000000110 -->
<g id="edge2" class="edge">
<title>node0x504000000010&#45;&gt;node0x504000000110</title>
<path fill="none" stroke="black" d="M670.84,-774.37C687.77,-764.23 705.83,-753.41 723.1,-743.06"/>
<polygon fill="black" stroke="black" points="725.27,-745.84 732.05,-737.7 721.67,-739.84 725.27,-745.84"/>
</g>
<!-- node0x504000000090 -->
<g id="node4" class="node">
<title>node0x504000000090</title>
<path fill="#ffffd0" stroke="black" d="M83,-516.5C83,-516.5 272,-516.5 272,-516.5 278,-516.5 284,-522.5 284,-528.5 284,-528.5 284,-596.5 284,-596.5 284,-602.5 278,-608.5 272,-608.5 272,-608.5 83,-608.5 83,-608.5 77,-608.5 71,-602.5 71,-596.5 71,-596.5 71,-528.5 71,-528.5 71,-522.5 77,-516.5 83,-516.5"/>
<text text-anchor="middle" x="177.5" y="-593.3" font-family="Times,serif" font-size="14.00">[0x504000000090]</text>
<polyline fill="none" stroke="black" points="71,-585.5 284,-585.5 "/>
<text text-anchor="middle" x="177.5" y="-570.3" font-family="Times,serif" font-size="14.00">data = ded32</text>
<polyline fill="none" stroke="black" points="71,-562.5 284,-562.5 "/>
<text text-anchor="middle" x="177.5" y="-547.3" font-family="Times,serif" font-size="14.00">shoot_free = 0</text>
<polyline fill="none" stroke="black" points="71,-539.5 284,-539.5 "/>
<text text-anchor="middle" x="121.5" y="-524.3" font-family="Times,serif" font-size="14.00">left = [(nil)]</text>
<polyline fill="none" stroke="black" points="172,-516.5 172,-539.5 "/>
<text text-anchor="middle" x="228" y="-524.3" font-family="Times,serif" font-size="14.00">right = [(nil)]</text>
</g>
<!-- node0x504000000050&#45;&gt;node0x504000000090 -->
<g id="edge3" class="edge">
<title>node0x504000000050&#45;&gt;node0x504000000090</title>
<path fill="none" stroke="black" d="M310.29,-645.37C293.85,-635.23 276.29,-624.41 259.51,-614.06"/>
<polygon fill="black" stroke="black" points="261.17,-610.97 250.82,-608.7 257.49,-616.93 261.17,-610.97"/>
</g>
<!-- node0x5040000000d0 -->
<g id="node5" class="node">
<title>node0x5040000000d0</title>
<path fill="#ffffd0" stroke="black" d="M314,-516.5C314,-516.5 503,-516.5 503,-516.5 509,-516.5 515,-522.5 515,-528.5 515,-528.5 515,-596.5 515,-596.5 515,-602.5 509,-608.5 503,-608.5 503,-608.5 314,-608.5 314,-608.5 308,-608.5 302,-602.5 302,-596.5 302,-596.5 302,-528.5 302,-528.5 302,-522.5 308,-516.5 314,-516.5"/>
<text text-anchor="middle" x="408.5" y="-593.3" font-family="Times,serif" font-size="14.00">[0x5040000000d0]</text>
<polyline fill="none" stroke="black" points="302,-585.5 515,-585.5 "/>
<text text-anchor="middle" x="408.5" y="-570.3" font-family="Times,serif" font-size="14.00">data = ovchinkin</text>
<polyline fill="none" stroke="black" points="302,-562.5 515,-562.5 "/>
<text text-anchor="middle" x="408.5" y="-547.3" font-family="Times,serif" font-size="14.00">shoot_free = 0</text>
<polyline fill="none" stroke="black" points="302,-539.5 515,-539.5 "/>
<text text-anchor="middle" x="352.5" y="-524.3" font-family="Times,serif" font-size="14.00">left = [(nil)]</text>
<polyline fill="none" stroke="black" points="403,-516.5 403,-539.5 "/>
<text text-anchor="middle" x="459" y="-524.3" font-family="Times,serif" font-size="14.00">right = [(nil)]</text>
</g>
<!-- node0x504000000050&#45;&gt;node0x5040000000d0 -->
<g id="edge4" class="edge">
<title>node0x504000000050&#45;&gt;node0x5040000000d0</title>
<path fill="none" stroke="black" d="M392.38,-645.37C394.08,-636.77 395.87,-627.68 397.61,-618.8"/>
<polygon fill="black" stroke="black" points="401.06,-619.4 399.56,-608.92 394.19,-618.05 401.06,-619.4"/>
</g>
<!-- node0x504000000150 -->
<g id="node6" class="node">
<title>node0x504000000150</title>
<path fill="#ffffd0" stroke="black" d="M592.5,-516.5C592.5,-516.5 974.5,-516.5 974.5,-516.5 980.5,-516.5 986.5,-522.5 986.5,-528.5 986.5,-528.5 986.5,-596.5 986.5,-596.5 986.5,-602.5 980.5,-608.5 974.5,-608.5 974.5,-608.5 592.5,-608.5 592.5,-608.5 586.5,-608.5 580.5,-602.5 580.5,-596.5 580.5,-596.5 580.5,-528.5 580.5,-528.5 580.5,-522.5 586.5,-516.5 592.5,-516.5"/>
<text text-anchor="middle" x="783.5" y="-593.3" font-family="Times,serif" font-size="14.00">[0x504000000150]</text>
<polyline fill="none" stroke="black" points="580.5,-585.5 986.5,-585.5 "/>
<text text-anchor="middle" x="783.5" y="-570.3" font-family="Times,serif" font-size="14.00">data = plays for the caRTel</text>
<polyline fill="none" stroke="black" points="580.5,-562.5 986.5,-562.5 "/>
<text text-anchor="middle" x="783.5" y="-547.3" font-family="Times,serif" font-size="14.00">shoot_free = 0</text>
<polyline fill="none" stroke="black" points="580.5,-539.5 986.5,-539.5 "/>
<text text-anchor="middle" x="679" y="-524.3" font-family="Times,serif" font-size="14.00">left = [0x504000000190]</text>
<polyline fill="none" stroke="black" points="777.5,-516.5 777.5,-539.5 "/>
<text text-anchor="middle" x="882" y="-524.3" font-family="Times,serif" font-size="14.00">right = [0x504000000350]</text>
</g>
<!-- node0x504000000110&#45;&gt;node0x504000000150 -->
<g id="edge5" class="edge">
<title>node0x504000000110&#45;&gt;node0x504000000150</title>
<path fill="none" stroke="black" d="M798.97,-645.37C797.35,-636.77 795.63,-627.68 793.95,-618.8"/>
<polygon fill="black" stroke="black" points="797.38,-618.09 792.08,-608.92 790.5,-619.39 797.38,-618.09"/>
</g>
<!-- node0x504000000390 -->
<g id="node7" class="node">
<title>node0x504000000390</title>
<path fill="#ffffd0" stroke="black" d="M1016.5,-516.5C1016.5,-516.5 1398.5,-516.5 1398.5,-516.5 1404.5,-516.5 1410.5,-522.5 1410.5,-528.5 1410.5,-528.5 1410.5,-596.5 1410.5,-596.5 1410.5,-602.5 1404.5,-608.5 1398.5,-608.5 1398.5,-608.5 1016.5,-608.5 1016.5,-608.5 1010.5,-608.5 1004.5,-602.5 1004.5,-596.5 1004.5,-596.5 1004.5,-528.5 1004.5,-528.5 1004.5,-522.5 1010.5,-516.5 1016.5,-516.5"/>
<text text-anchor="middle" x="1207.5" y="-593.3" font-family="Times,serif" font-size="14.00">[0x504000000390]</text>
<polyline fill="none" stroke="black" points="1004.5,-585.5 1410.5,-585.5 "/>
<text text-anchor="middle" x="1207.5" y="-570.3" font-family="Times,serif" font-size="14.00">data = coach</text>
<polyline fill="none" stroke="black" points="1004.5,-562.5 1410.5,-562.5 "/>
<text text-anchor="middle" x="1207.5" y="-547.3" font-family="Times,serif" font-size="14.00">shoot_free = 0</text>
<polyline fill="none" stroke="black" points="1004.5,-539.5 1410.5,-539.5 "/>
<text text-anchor="middle" x="1103" y="-524.3" font-family="Times,serif" font-size="14.00">left = [0x5040000003d0]</text>
<polyline fill="none" stroke="black" points="1201.5,-516.5 1201.5,-539.5 "/>
<text text-anchor="middle" x="1306" y="-524.3" font-family="Times,serif" font-size="14.00">right = [0x504000000410]</text>
</g>
<!-- node0x504000000110&#45;&gt;node0x504000000390 -->
<g id="edge6" class="edge">
<title>node0x504000000110&#45;&gt;node0x504000000390</title>
<path fill="none" stroke="black" d="M949.37,-645.46C983.87,-634.5 1020.89,-622.75 1055.82,-611.66"/>
<polygon fill="black" stroke="black" points="1057.15,-614.91 1065.62,-608.55 1055.03,-608.24 1057.15,-614.91"/>
</g>
<!-- node0x504000000190 -->
<g id="node8" class="node">
<title>node0x504000000190</title>
<path fill="#ffffd0" stroke="black" d="M309.5,-387.5C309.5,-387.5 691.5,-387.5 691.5,-387.5 697.5,-387.5 703.5,-393.5 703.5,-399.5 703.5,-399.5 703.5,-467.5 703.5,-467.5 703.5,-473.5 697.5,-479.5 691.5,-479.5 691.5,-479.5 309.5,-479.5 309.5,-479.5 303.5,-479.5 297.5,-473.5 297.5,-467.5 297.5,-467.5 297.5,-399.5 297.5,-399.5 297.5,-393.5 303.5,-387.5 309.5,-387.5"/>
<text text-anchor="middle" x="500.5" y="-464.3" font-family="Times,serif" font-size="14.00">[0x504000000190]</text>
<polyline fill="none" stroke="black" points="297.5,-456.5 703.5,-456.5 "/>
<text text-anchor="middle" x="500.5" y="-441.3" font-family="Times,serif" font-size="14.00">data = defender</text>
<polyline fill="none" stroke="black" points="297.5,-433.5 703.5,-433.5 "/>
<text text-anchor="middle" x="500.5" y="-418.3" font-family="Times,serif" font-size="14.00">shoot_free = 0</text>
<polyline fill="none" stroke="black" points="297.5,-410.5 703.5,-410.5 "/>
<text text-anchor="middle" x="396" y="-395.3" font-family="Times,serif" font-size="14.00">left = [0x5040000001d0]</text>
<polyline fill="none" stroke="black" points="494.5,-387.5 494.5,-410.5 "/>
<text text-anchor="middle" x="599" y="-395.3" font-family="Times,serif" font-size="14.00">right = [0x504000000290]</text>
</g>
<!-- node0x504000000150&#45;&gt;node0x504000000190 -->
<g id="edge7" class="edge">
<title>node0x504000000150&#45;&gt;node0x504000000190</title>
<path fill="none" stroke="black" d="M682.93,-516.37C659.51,-505.86 634.45,-494.61 610.63,-483.92"/>
<polygon fill="black" stroke="black" points="611.78,-480.6 601.22,-479.7 608.92,-486.99 611.78,-480.6"/>
</g>
<!-- node0x504000000350 -->
<g id="node9" class="node">
<title>node0x504000000350</title>
<path fill="#ffffd0" stroke="black" d="M733,-387.5C733,-387.5 922,-387.5 922,-387.5 928,-387.5 934,-393.5 934,-399.5 934,-399.5 934,-467.5 934,-467.5 934,-473.5 928,-479.5 922,-479.5 922,-479.5 733,-479.5 733,-479.5 727,-479.5 721,-473.5 721,-467.5 721,-467.5 721,-399.5 721,-399.5 721,-393.5 727,-387.5 733,-387.5"/>
<text text-anchor="middle" x="827.5" y="-464.3" font-family="Times,serif" font-size="14.00">[0x504000000350]</text>
<polyline fill="none" stroke="black" points="721,-456.5 934,-456.5 "/>
<text text-anchor="middle" x="827.5" y="-441.3" font-family="Times,serif" font-size="14.00">data = loh</text>
<polyline fill="none" stroke="black" points="721,-433.5 934,-433.5 "/>
<text text-anchor="middle" x="827.5" y="-418.3" font-family="Times,serif" font-size="14.00">shoot_free = 0</text>
<polyline fill="none" stroke="black" points="721,-410.5 934,-410.5 "/>
<text text-anchor="middle" x="771.5" y="-395.3" font-family="Times,serif" font-size="14.00">left = [(nil)]</text>
<polyline fill="none" stroke="black" points="822,-387.5 822,-410.5 "/>
<text text-anchor="middle" x="878" y="-395.3" font-family="Times,serif" font-size="14.00">right = [(nil)]</text>
</g>
<!-- node0x504000000150&#45;&gt;node0x504000000350 -->
<g id="edge8" class="edge">
<title>node0x504000000150&#45;&gt;node0x504000000350</title>
<path fill="none" stroke="black" d="M799.14,-516.37C802.15,-507.68 805.33,-498.48 808.44,-489.52"/>
<polygon fill="black" stroke="black" points="811.8,-490.51 811.77,-479.92 805.18,-488.22 811.8,-490.51"/>
</g>
<!-- node0x5040000003d0 -->
<g id="node18" class="node">
<title>node0x5040000003d0</title>
<path fill="#ffffd0" stroke="black" d="M1051,-387.5C1051,-387.5 1276,-387.5 1276,-387.5 1282,-387.5 1288,-393.5 1288,-399.5 1288,-399.5 1288,-467.5 1288,-467.5 1288,-473.5 1282,-479.5 1276,-479.5 1276,-479.5 1051,-479.5 1051,-479.5 1045,-479.5 1039,-473.5 1039,-467.5 1039,-467.5 1039,-399.5 1039,-399.5 1039,-393.5 1045,-387.5 1051,-387.5"/>
<text text-anchor="middle" x="1163.5" y="-464.3" font-family="Times,serif" font-size="14.00">[0x5040000003d0]</text>
<polyline fill="none" stroke="black" points="1039,-456.5 1288,-456.5 "/>
<text text-anchor="middle" x="1163.5" y="-441.3" font-family="Times,serif" font-size="14.00">data = valentin spivak guardiola</text>
<polyline fill="none" stroke="black" points="1039,-433.5 1288,-433.5 "/>
<text text-anchor="middle" x="1163.5" y="-418.3" font-family="Times,serif" font-size="14.00">shoot_free = 0</text>
<polyline fill="none" stroke="black" points="1039,-410.5 1288,-410.5 "/>
<text text-anchor="middle" x="1098.5" y="-395.3" font-family="Times,serif" font-size="14.00">left = [(nil)]</text>
<polyline fill="none" stroke="black" points="1158,-387.5 1158,-410.5 "/>
<text text-anchor="middle" x="1223" y="-395.3" font-family="Times,serif" font-size="14.00">right = [(nil)]</text>
</g>
<!-- node0x504000000390&#45;&gt;node0x5040000003d0 -->
<g id="edge17" class="edge">
<title>node0x504000000390&#45;&gt;node0x5040000003d0</title>
<path fill="none" stroke="black" d="M1191.86,-516.37C1188.85,-507.68 1185.67,-498.48 1182.56,-489.52"/>
<polygon fill="black" stroke="black" points="1185.82,-488.22 1179.23,-479.92 1179.2,-490.51 1185.82,-488.22"/>
</g>
<!-- node0x504000000410 -->
<g id="node19" class="node">
<title>node0x504000000410</title>
<path fill="#ffffd0" stroke="black" d="M1318,-387.5C1318,-387.5 1507,-387.5 1507,-387.5 1513,-387.5 1519,-393.5 1519,-399.5 1519,-399.5 1519,-467.5 1519,-467.5 1519,-473.5 1513,-479.5 1507,-479.5 1507,-479.5 1318,-479.5 1318,-479.5 1312,-479.5 1306,-473.5 1306,-467.5 1306,-467.5 1306,-399.5 1306,-399.5 1306,-393.5 1312,-387.5 1318,-387.5"/>
<text text-anchor="middle" x="1412.5" y="-464.3" font-family="Times,serif" font-size="14.00">[0x504000000410]</text>
<polyline fill="none" stroke="black" points="1306,-456.5 1519,-456.5 "/>
<text text-anchor="middle" x="1412.5" y="-441.3" font-family="Times,serif" font-size="14.00">data = FUPM REF</text>
<polyline fill="none" stroke="black" points="1306,-433.5 1519,-433.5 "/>
<text text-anchor="middle" x="1412.5" y="-418.3" font-family="Times,serif" font-size="14.00">shoot_free = 0</text>
<polyline fill="none" stroke="black" points="1306,-410.5 1519,-410.5 "/>
<text text-anchor="middle" x="1356.5" y="-395.3" font-family="Times,serif" font-size="14.00">left = [(nil)]</text>
<polyline fill="none" stroke="black" points="1407,-387.5 1407,-410.5 "/>
<text text-anchor="middle" x="1463" y="-395.3" font-family="Times,serif" font-size="14.00">right = [(nil)]</text>
</g>
<!-- node0x504000000390&#45;&gt;node0x504000000410 -->
<g id="edge18" class="edge">
<title>node0x504000000390&#45;&gt;node0x504000000410</title>
<path fill="none" stroke="black" d="M1280.35,-516.37C1296.72,-506.23 1314.19,-495.41 1330.89,-485.06"/>
<polygon fill="black" stroke="black" points="1332.88,-487.94 1339.54,-479.7 1329.19,-481.99 1332.88,-487.94"/>
</g>
<!-- node0x5040000001d0 -->
<g id="node10" class="node">
<title>node0x5040000001d0</title>
<path fill="#ffffd0" stroke="black" d="M97.5,-258.5C97.5,-258.5 479.5,-258.5 479.5,-258.5 485.5,-258.5 491.5,-264.5 491.5,-270.5 491.5,-270.5 491.5,-338.5 491.5,-338.5 491.5,-344.5 485.5,-350.5 479.5,-350.5 479.5,-350.5 97.5,-350.5 97.5,-350.5 91.5,-350.5 85.5,-344.5 85.5,-338.5 85.5,-338.5 85.5,-270.5 85.5,-270.5 85.5,-264.5 91.5,-258.5 97.5,-258.5"/>
<text text-anchor="middle" x="288.5" y="-335.3" font-family="Times,serif" font-size="14.00">[0x5040000001d0]</text>
<polyline fill="none" stroke="black" points="85.5,-327.5 491.5,-327.5 "/>
<text text-anchor="middle" x="288.5" y="-312.3" font-family="Times,serif" font-size="14.00">data = left defender</text>
<polyline fill="none" stroke="black" points="85.5,-304.5 491.5,-304.5 "/>
<text text-anchor="middle" x="288.5" y="-289.3" font-family="Times,serif" font-size="14.00">shoot_free = 0</text>
<polyline fill="none" stroke="black" points="85.5,-281.5 491.5,-281.5 "/>
<text text-anchor="middle" x="184" y="-266.3" font-family="Times,serif" font-size="14.00">left = [0x504000000210]</text>
<polyline fill="none" stroke="black" points="282.5,-258.5 282.5,-281.5 "/>
<text text-anchor="middle" x="387" y="-266.3" font-family="Times,serif" font-size="14.00">right = [0x504000000250]</text>
</g>
<!-- node0x504000000190&#45;&gt;node0x5040000001d0 -->
<g id="edge9" class="edge">
<title>node0x504000000190&#45;&gt;node0x5040000001d0</title>
<path fill="none" stroke="black" d="M425.16,-387.37C408.23,-377.23 390.17,-366.41 372.9,-356.06"/>
<polygon fill="black" stroke="black" points="374.33,-352.84 363.95,-350.7 370.73,-358.84 374.33,-352.84"/>
</g>
<!-- node0x504000000290 -->
<g id="node11" class="node">
<title>node0x504000000290</title>
<path fill="#ffffd0" stroke="black" d="M521.5,-258.5C521.5,-258.5 903.5,-258.5 903.5,-258.5 909.5,-258.5 915.5,-264.5 915.5,-270.5 915.5,-270.5 915.5,-338.5 915.5,-338.5 915.5,-344.5 909.5,-350.5 903.5,-350.5 903.5,-350.5 521.5,-350.5 521.5,-350.5 515.5,-350.5 509.5,-344.5 509.5,-338.5 509.5,-338.5 509.5,-270.5 509.5,-270.5 509.5,-264.5 515.5,-258.5 521.5,-258.5"/>
<text text-anchor="middle" x="712.5" y="-335.3" font-family="Times,serif" font-size="14.00">[0x504000000290]</text>
<polyline fill="none" stroke="black" points="509.5,-327.5 915.5,-327.5 "/>
<text text-anchor="middle" x="712.5" y="-312.3" font-family="Times,serif" font-size="14.00">data = center forward</text>
<polyline fill="none" stroke="black" points="509.5,-304.5 915.5,-304.5 "/>
<text text-anchor="middle" x="712.5" y="-289.3" font-family="Times,serif" font-size="14.00">shoot_free = 0</text>
<polyline fill="none" stroke="black" points="509.5,-281.5 915.5,-281.5 "/>
<text text-anchor="middle" x="608" y="-266.3" font-family="Times,serif" font-size="14.00">left = [0x5040000002d0]</text>
<polyline fill="none" stroke="black" points="706.5,-258.5 706.5,-281.5 "/>
<text text-anchor="middle" x="811" y="-266.3" font-family="Times,serif" font-size="14.00">right = [0x504000000310]</text>
</g>
<!-- node0x504000000190&#45;&gt;node0x504000000290 -->
<g id="edge10" class="edge">
<title>node0x504000000190&#45;&gt;node0x504000000290</title>
<path fill="none" stroke="black" d="M575.84,-387.37C592.77,-377.23 610.83,-366.41 628.1,-356.06"/>
<polygon fill="black" stroke="black" points="630.27,-358.84 637.05,-350.7 626.67,-352.84 630.27,-358.84"/>
</g>
<!-- node0x504000000210 -->
<g id="node12" class="node">
<title>node0x504000000210</title>
<path fill="#ffffd0" stroke="black" d="M12,-129.5C12,-129.5 201,-129.5 201,-129.5 207,-129.5 213,-135.5 213,-141.5 213,-141.5 213,-209.5 213,-209.5 213,-215.5 207,-221.5 201,-221.5 201,-221.5 12,-221.5 12,-221.5 6,-221.5 0,-215.5 0,-209.5 0,-209.5 0,-141.5 0,-141.5 0,-135.5 6,-129.5 12,-129.5"/>
<text text-anchor="middle" x="106.5" y="-206.3" font-family="Times,serif" font-size="14.00">[0x504000000210]</text>
<polyline fill="none" stroke="black" points="0,-198.5 213,-198.5 "/>
<text text-anchor="middle" x="106.5" y="-183.3" font-family="Times,serif" font-size="14.00">data = tolik</text>
<polyline fill="none" stroke="black" points="0,-175.5 213,-175.5 "/>
<text text-anchor="middle" x="106.5" y="-160.3" font-family="Times,serif" font-size="14.00">shoot_free = 0</text>
<polyline fill="none" stroke="black" points="0,-152.5 213,-152.5 "/>
<text text-anchor="middle" x="50.5" y="-137.3" font-family="Times,serif" font-size="14.00">left = [(nil)]</text>
<polyline fill="none" stroke="black" points="101,-129.5 101,-152.5 "/>
<text text-anchor="middle" x="157" y="-137.3" font-family="Times,serif" font-size="14.00">right = [(nil)]</text>
</g>
<!-- node0x5040000001d0&#45;&gt;node0x504000000210 -->
<g id="edge11" class="edge">
<title>node0x5040000001d0&#45;&gt;node0x504000000210</title>
<path fill="none" stroke="black" d="M223.82,-258.37C209.56,-248.41 194.35,-237.8 179.77,-227.63"/>
<polygon fill="black" stroke="black" points="181.48,-224.55 171.28,-221.7 177.47,-230.29 181.48,-224.55"/>
</g>
<!-- node0x504000000250 -->
<g id="node13" class="node">
<title>node0x504000000250</title>
<path fill="#ffffd0" stroke="black" d="M243,-129.5C243,-129.5 432,-129.5 432,-129.5 438,-129.5 444,-135.5 444,-141.5 444,-141.5 444,-209.5 444,-209.5 444,-215.5 438,-221.5 432,-221.5 432,-221.5 243,-221.5 243,-221.5 237,-221.5 231,-215.5 231,-209.5 231,-209.5 231,-141.5 231,-141.5 231,-135.5 237,-129.5 243,-129.5"/>
<text text-anchor="middle" x="337.5" y="-206.3" font-family="Times,serif" font-size="14.00">[0x504000000250]</text>
<polyline fill="none" stroke="black" points="231,-198.5 444,-198.5 "/>
<text text-anchor="middle" x="337.5" y="-183.3" font-family="Times,serif" font-size="14.00">data = dan</text>
<polyline fill="none" stroke="black" points="231,-175.5 444,-175.5 "/>
<text text-anchor="middle" x="337.5" y="-160.3" font-family="Times,serif" font-size="14.00">shoot_free = 0</text>
<polyline fill="none" stroke="black" points="231,-152.5 444,-152.5 "/>
<text text-anchor="middle" x="281.5" y="-137.3" font-family="Times,serif" font-size="14.00">left = [(nil)]</text>
<polyline fill="none" stroke="black" points="332,-129.5 332,-152.5 "/>
<text text-anchor="middle" x="388" y="-137.3" font-family="Times,serif" font-size="14.00">right = [(nil)]</text>
</g>
<!-- node0x5040000001d0&#45;&gt;node0x504000000250 -->
<g id="edge12" class="edge">
<title>node0x5040000001d0&#45;&gt;node0x504000000250</title>
<path fill="none" stroke="black" d="M305.91,-258.37C309.27,-249.68 312.81,-240.48 316.27,-231.52"/>
<polygon fill="black" stroke="black" points="319.64,-232.51 319.98,-221.92 313.11,-229.99 319.64,-232.51"/>
</g>
<!-- node0x5040000002d0 -->
<g id="node14" class="node">
<title>node0x5040000002d0</title>
<path fill="#ffffd0" stroke="black" d="M570,-129.5C570,-129.5 759,-129.5 759,-129.5 765,-129.5 771,-135.5 771,-141.5 771,-141.5 771,-209.5 771,-209.5 771,-215.5 765,-221.5 759,-221.5 759,-221.5 570,-221.5 570,-221.5 564,-221.5 558,-215.5 558,-209.5 558,-209.5 558,-141.5 558,-141.5 558,-135.5 564,-129.5 570,-129.5"/>
<text text-anchor="middle" x="664.5" y="-206.3" font-family="Times,serif" font-size="14.00">[0x5040000002d0]</text>
<polyline fill="none" stroke="black" points="558,-198.5 771,-198.5 "/>
<text text-anchor="middle" x="664.5" y="-183.3" font-family="Times,serif" font-size="14.00">data = artem</text>
<polyline fill="none" stroke="black" points="558,-175.5 771,-175.5 "/>
<text text-anchor="middle" x="664.5" y="-160.3" font-family="Times,serif" font-size="14.00">shoot_free = 0</text>
<polyline fill="none" stroke="black" points="558,-152.5 771,-152.5 "/>
<text text-anchor="middle" x="608.5" y="-137.3" font-family="Times,serif" font-size="14.00">left = [(nil)]</text>
<polyline fill="none" stroke="black" points="659,-129.5 659,-152.5 "/>
<text text-anchor="middle" x="715" y="-137.3" font-family="Times,serif" font-size="14.00">right = [(nil)]</text>
</g>
<!-- node0x504000000290&#45;&gt;node0x5040000002d0 -->
<g id="edge13" class="edge">
<title>node0x504000000290&#45;&gt;node0x5040000002d0</title>
<path fill="none" stroke="black" d="M695.44,-258.37C692.16,-249.68 688.68,-240.48 685.29,-231.52"/>
<polygon fill="black" stroke="black" points="688.47,-230.03 681.66,-221.92 681.93,-232.51 688.47,-230.03"/>
</g>
<!-- node0x504000000310 -->
<g id="node15" class="node">
<title>node0x504000000310</title>
<path fill="#ffe0e0" stroke="black" d="M800.5,-129.5C800.5,-129.5 1182.5,-129.5 1182.5,-129.5 1188.5,-129.5 1194.5,-135.5 1194.5,-141.5 1194.5,-141.5 1194.5,-209.5 1194.5,-209.5 1194.5,-215.5 1188.5,-221.5 1182.5,-221.5 1182.5,-221.5 800.5,-221.5 800.5,-221.5 794.5,-221.5 788.5,-215.5 788.5,-209.5 788.5,-209.5 788.5,-141.5 788.5,-141.5 788.5,-135.5 794.5,-129.5 800.5,-129.5"/>
<text text-anchor="middle" x="991.5" y="-206.3" font-family="Times,serif" font-size="14.00">[0x504000000310]</text>
<polyline fill="none" stroke="black" points="788.5,-198.5 1194.5,-198.5 "/>
<text text-anchor="middle" x="991.5" y="-183.3" font-family="Times,serif" font-size="14.00">data = middle defender</text>
<polyline fill="none" stroke="black" points="788.5,-175.5 1194.5,-175.5 "/>
<text text-anchor="middle" x="991.5" y="-160.3" font-family="Times,serif" font-size="14.00">shoot_free = 1</text>
<polyline fill="none" stroke="black" points="788.5,-152.5 1194.5,-152.5 "/>
<text text-anchor="middle" x="887" y="-137.3" font-family="Times,serif" font-size="14.00">left = [0x504000000450]</text>
<polyline fill="none" stroke="black" points="985.5,-129.5 985.5,-152.5 "/>
<text text-anchor="middle" x="1090" y="-137.3" font-family="Times,serif" font-size="14.00">right = [0x504000000490]</text>
</g>
<!-- node0x504000000290&#45;&gt;node0x504000000310 -->
<g id="edge14" class="edge">
<title>node0x504000000290&#45;&gt;node0x504000000310</title>
<path fill="none" stroke="black" d="M811.65,-258.37C834.74,-247.86 859.45,-236.61 882.92,-225.92"/>
<polygon fill="black" stroke="black" points="884.55,-229.03 892.2,-221.7 881.65,-222.66 884.55,-229.03"/>
</g>
<!-- node0x504000000450 -->
<g id="node16" class="node">
<title>node0x504000000450</title>
<path fill="#ffe0e0" stroke="black" d="M782,-0.5C782,-0.5 971,-0.5 971,-0.5 977,-0.5 983,-6.5 983,-12.5 983,-12.5 983,-80.5 983,-80.5 983,-86.5 977,-92.5 971,-92.5 971,-92.5 782,-92.5 782,-92.5 776,-92.5 770,-86.5 770,-80.5 770,-80.5 770,-12.5 770,-12.5 770,-6.5 776,-0.5 782,-0.5"/>
<text text-anchor="middle" x="876.5" y="-77.3" font-family="Times,serif" font-size="14.00">[0x504000000450]</text>
<polyline fill="none" stroke="black" points="770,-69.5 983,-69.5 "/>
<text text-anchor="middle" x="876.5" y="-54.3" font-family="Times,serif" font-size="14.00">data = maxon</text>
<polyline fill="none" stroke="black" points="770,-46.5 983,-46.5 "/>
<text text-anchor="middle" x="876.5" y="-31.3" font-family="Times,serif" font-size="14.00">shoot_free = 1</text>
<polyline fill="none" stroke="black" points="770,-23.5 983,-23.5 "/>
<text text-anchor="middle" x="820.5" y="-8.3" font-family="Times,serif" font-size="14.00">left = [(nil)]</text>
<polyline fill="none" stroke="black" points="871,-0.5 871,-23.5 "/>
<text text-anchor="middle" x="927" y="-8.3" font-family="Times,serif" font-size="14.00">right = [(nil)]</text>
</g>
<!-- node0x504000000310&#45;&gt;node0x504000000450 -->
<g id="edge15" class="edge">
<title>node0x504000000310&#45;&gt;node0x504000000450</title>
<path fill="none" stroke="black" d="M950.63,-129.37C942.18,-120.03 933.19,-110.11 924.51,-100.52"/>
<polygon fill="black" stroke="black" points="926.93,-97.98 917.62,-92.92 921.74,-102.68 926.93,-97.98"/>
</g>
<!-- node0x504000000490 -->
<g id="node17" class="node">
<title>node0x504000000490</title>
<path fill="#ffffd0" stroke="black" d="M1013,-0.5C1013,-0.5 1202,-0.5 1202,-0.5 1208,-0.5 1214,-6.5 1214,-12.5 1214,-12.5 1214,-80.5 1214,-80.5 1214,-86.5 1208,-92.5 1202,-92.5 1202,-92.5 1013,-92.5 1013,-92.5 1007,-92.5 1001,-86.5 1001,-80.5 1001,-80.5 1001,-12.5 1001,-12.5 1001,-6.5 1007,-0.5 1013,-0.5"/>
<text text-anchor="middle" x="1107.5" y="-77.3" font-family="Times,serif" font-size="14.00">[0x504000000490]</text>
<polyline fill="none" stroke="black" points="1001,-69.5 1214,-69.5 "/>
<text text-anchor="middle" x="1107.5" y="-54.3" font-family="Times,serif" font-size="14.00">data = gosha</text>
<polyline fill="none" stroke="black" points="1001,-46.5 1214,-46.5 "/>
<text text-anchor="middle" x="1107.5" y="-31.3" font-family="Times,serif" font-size="14.00">shoot_free = 0</text>
<polyline fill="none" stroke="black" points="1001,-23.5 1214,-23.5 "/>
<text text-anchor="middle" x="1051.5" y="-8.3" font-family="Times,serif" font-size="14.00">left = [(nil)]</text>
<polyline fill="none" stroke="black" points="1102,-0.5 1102,-23.5 "/>
<text text-anchor="middle" x="1158" y="-8.3" font-family="Times,serif" font-size="14.00">right = [(nil)]</text>
</g>
<!-- node0x504000000310&#45;&gt;node0x504000000490 -->
<g id="edge16" class="edge">
<title>node0x504000000310&#45;&gt;node0x504000000490</title>
<path fill="none" stroke="black" d="M1032.72,-129.37C1041.25,-120.03 1050.31,-110.11 1059.07,-100.52"/>
<polygon fill="black" stroke="black" points="1061.86,-102.66 1066.02,-92.92 1056.69,-97.94 1061.86,-102.66"/>
</g>
</g>
</svg>
