<?xml version="1.0" encoding="UTF-8" standalone="no"?>
<!DOCTYPE svg PUBLIC "-//W3C//DTD SVG 1.1//EN"
 "http://www.w3.org/Graphics/SVG/1.1/DTD/svg11.dtd">
<!-- Generated by graphviz version 2.43.0 (0)
 -->
<!-- Title: %3 Pages: 1 -->
<svg width="900pt" height="396pt"
 viewBox="0.00 0.00 900.00 396.00" xmlns="http://www.w3.org/2000/svg" xmlns:xlink="http://www.w3.org/1999/xlink">
<g id="graph0" class="graph" transform="scale(1 1) rotate(0) translate(4 392)">
<title>%3</title>
<!-- node0x503000000040 -->
<g id="node1" class="node">
<title>node0x503000000040</title>
<path fill="#ffffd0" stroke="black" d="M359,-318.5C359,-318.5 740,-318.5 740,-318.5 746,-318.5 752,-324.5 752,-330.5 752,-330.5 752,-375.5 752,-375.5 752,-381.5 746,-387.5 740,-387.5 740,-387.5 359,-387.5 359,-387.5 353,-387.5 347,-381.5 347,-375.5 347,-375.5 347,-330.5 347,-330.5 347,-324.5 353,-318.5 359,-318.5"/>
<text text-anchor="middle" x="549.5" y="-372.3" font-family="Times,serif" font-size="14.00">[0x503000000040]</text>
<polyline fill="none" stroke="black" points="347,-364.5 752,-364.5 "/>
<text text-anchor="middle" x="549.5" y="-349.3" font-family="Times,serif" font-size="14.00">data = 50</text>
<polyline fill="none" stroke="black" points="347,-341.5 752,-341.5 "/>
<text text-anchor="middle" x="445.5" y="-326.3" font-family="Times,serif" font-size="14.00">left = [0x503000000070]</text>
<polyline fill="none" stroke="black" points="544,-318.5 544,-341.5 "/>
<text text-anchor="middle" x="648" y="-326.3" font-family="Times,serif" font-size="14.00">right = [0x5030000000a0]</text>
</g>
<!-- node0x503000000070 -->
<g id="node2" class="node">
<title>node0x503000000070</title>
<path fill="#ffffd0" stroke="black" d="M171.5,-212.5C171.5,-212.5 553.5,-212.5 553.5,-212.5 559.5,-212.5 565.5,-218.5 565.5,-224.5 565.5,-224.5 565.5,-269.5 565.5,-269.5 565.5,-275.5 559.5,-281.5 553.5,-281.5 553.5,-281.5 171.5,-281.5 171.5,-281.5 165.5,-281.5 159.5,-275.5 159.5,-269.5 159.5,-269.5 159.5,-224.5 159.5,-224.5 159.5,-218.5 165.5,-212.5 171.5,-212.5"/>
<text text-anchor="middle" x="362.5" y="-266.3" font-family="Times,serif" font-size="14.00">[0x503000000070]</text>
<polyline fill="none" stroke="black" points="159.5,-258.5 565.5,-258.5 "/>
<text text-anchor="middle" x="362.5" y="-243.3" font-family="Times,serif" font-size="14.00">data = 12</text>
<polyline fill="none" stroke="black" points="159.5,-235.5 565.5,-235.5 "/>
<text text-anchor="middle" x="258" y="-220.3" font-family="Times,serif" font-size="14.00">left = [0x5030000000d0]</text>
<polyline fill="none" stroke="black" points="356.5,-212.5 356.5,-235.5 "/>
<text text-anchor="middle" x="461" y="-220.3" font-family="Times,serif" font-size="14.00">right = [0x503000000100]</text>
</g>
<!-- node0x503000000040&#45;&gt;node0x503000000070 -->
<g id="edge1" class="edge">
<title>node0x503000000040&#45;&gt;node0x503000000070</title>
<path fill="none" stroke="black" d="M489.04,-318.38C470.71,-308.18 450.44,-296.91 431.58,-286.42"/>
<polygon fill="black" stroke="black" points="433.19,-283.31 422.75,-281.51 429.79,-289.43 433.19,-283.31"/>
</g>
<!-- node0x5030000000a0 -->
<g id="node3" class="node">
<title>node0x5030000000a0</title>
<path fill="#ffffd0" stroke="black" d="M595,-212.5C595,-212.5 880,-212.5 880,-212.5 886,-212.5 892,-218.5 892,-224.5 892,-224.5 892,-269.5 892,-269.5 892,-275.5 886,-281.5 880,-281.5 880,-281.5 595,-281.5 595,-281.5 589,-281.5 583,-275.5 583,-269.5 583,-269.5 583,-224.5 583,-224.5 583,-218.5 589,-212.5 595,-212.5"/>
<text text-anchor="middle" x="737.5" y="-266.3" font-family="Times,serif" font-size="14.00">[0x5030000000a0]</text>
<polyline fill="none" stroke="black" points="583,-258.5 892,-258.5 "/>
<text text-anchor="middle" x="737.5" y="-243.3" font-family="Times,serif" font-size="14.00">data = 70</text>
<polyline fill="none" stroke="black" points="583,-235.5 892,-235.5 "/>
<text text-anchor="middle" x="681.5" y="-220.3" font-family="Times,serif" font-size="14.00">left = [0x503000000130]</text>
<polyline fill="none" stroke="black" points="780,-212.5 780,-235.5 "/>
<text text-anchor="middle" x="836" y="-220.3" font-family="Times,serif" font-size="14.00">right = [(nil)]</text>
</g>
<!-- node0x503000000040&#45;&gt;node0x5030000000a0 -->
<g id="edge2" class="edge">
<title>node0x503000000040&#45;&gt;node0x5030000000a0</title>
<path fill="none" stroke="black" d="M610.28,-318.38C628.71,-308.18 649.09,-296.91 668.05,-286.42"/>
<polygon fill="black" stroke="black" points="669.87,-289.41 676.93,-281.51 666.49,-283.28 669.87,-289.41"/>
</g>
<!-- node0x5030000000d0 -->
<g id="node4" class="node">
<title>node0x5030000000d0</title>
<path fill="#ffffd0" stroke="black" d="M12,-106.5C12,-106.5 201,-106.5 201,-106.5 207,-106.5 213,-112.5 213,-118.5 213,-118.5 213,-163.5 213,-163.5 213,-169.5 207,-175.5 201,-175.5 201,-175.5 12,-175.5 12,-175.5 6,-175.5 0,-169.5 0,-163.5 0,-163.5 0,-118.5 0,-118.5 0,-112.5 6,-106.5 12,-106.5"/>
<text text-anchor="middle" x="106.5" y="-160.3" font-family="Times,serif" font-size="14.00">[0x5030000000d0]</text>
<polyline fill="none" stroke="black" points="0,-152.5 213,-152.5 "/>
<text text-anchor="middle" x="106.5" y="-137.3" font-family="Times,serif" font-size="14.00">data = 5</text>
<polyline fill="none" stroke="black" points="0,-129.5 213,-129.5 "/>
<text text-anchor="middle" x="50.5" y="-114.3" font-family="Times,serif" font-size="14.00">left = [(nil)]</text>
<polyline fill="none" stroke="black" points="101,-106.5 101,-129.5 "/>
<text text-anchor="middle" x="157" y="-114.3" font-family="Times,serif" font-size="14.00">right = [(nil)]</text>
</g>
<!-- node0x503000000070&#45;&gt;node0x5030000000d0 -->
<g id="edge3" class="edge">
<title>node0x503000000070&#45;&gt;node0x5030000000d0</title>
<path fill="none" stroke="black" d="M279.74,-212.38C253.73,-201.81 224.87,-190.09 198.28,-179.29"/>
<polygon fill="black" stroke="black" points="199.56,-176.03 188.98,-175.51 196.92,-182.51 199.56,-176.03"/>
</g>
<!-- node0x503000000100 -->
<g id="node5" class="node">
<title>node0x503000000100</title>
<path fill="#ffffd0" stroke="black" d="M243.5,-106.5C243.5,-106.5 529.5,-106.5 529.5,-106.5 535.5,-106.5 541.5,-112.5 541.5,-118.5 541.5,-118.5 541.5,-163.5 541.5,-163.5 541.5,-169.5 535.5,-175.5 529.5,-175.5 529.5,-175.5 243.5,-175.5 243.5,-175.5 237.5,-175.5 231.5,-169.5 231.5,-163.5 231.5,-163.5 231.5,-118.5 231.5,-118.5 231.5,-112.5 237.5,-106.5 243.5,-106.5"/>
<text text-anchor="middle" x="386.5" y="-160.3" font-family="Times,serif" font-size="14.00">[0x503000000100]</text>
<polyline fill="none" stroke="black" points="231.5,-152.5 541.5,-152.5 "/>
<text text-anchor="middle" x="386.5" y="-137.3" font-family="Times,serif" font-size="14.00">data = 15</text>
<polyline fill="none" stroke="black" points="231.5,-129.5 541.5,-129.5 "/>
<text text-anchor="middle" x="282" y="-114.3" font-family="Times,serif" font-size="14.00">left = [(nil)]</text>
<polyline fill="none" stroke="black" points="332.5,-106.5 332.5,-129.5 "/>
<text text-anchor="middle" x="437" y="-114.3" font-family="Times,serif" font-size="14.00">right = [0x503000000160]</text>
</g>
<!-- node0x503000000070&#45;&gt;node0x503000000100 -->
<g id="edge4" class="edge">
<title>node0x503000000070&#45;&gt;node0x503000000100</title>
<path fill="none" stroke="black" d="M370.29,-212.23C372.26,-203.7 374.4,-194.42 376.47,-185.48"/>
<polygon fill="black" stroke="black" points="379.91,-186.13 378.75,-175.6 373.09,-184.55 379.91,-186.13"/>
</g>
<!-- node0x503000000130 -->
<g id="node7" class="node">
<title>node0x503000000130</title>
<path fill="#ffffd0" stroke="black" d="M595,-106.5C595,-106.5 880,-106.5 880,-106.5 886,-106.5 892,-112.5 892,-118.5 892,-118.5 892,-163.5 892,-163.5 892,-169.5 886,-175.5 880,-175.5 880,-175.5 595,-175.5 595,-175.5 589,-175.5 583,-169.5 583,-163.5 583,-163.5 583,-118.5 583,-118.5 583,-112.5 589,-106.5 595,-106.5"/>
<text text-anchor="middle" x="737.5" y="-160.3" font-family="Times,serif" font-size="14.00">[0x503000000130]</text>
<polyline fill="none" stroke="black" points="583,-152.5 892,-152.5 "/>
<text text-anchor="middle" x="737.5" y="-137.3" font-family="Times,serif" font-size="14.00">data = 60</text>
<polyline fill="none" stroke="black" points="583,-129.5 892,-129.5 "/>
<text text-anchor="middle" x="681.5" y="-114.3" font-family="Times,serif" font-size="14.00">left = [0x503000000190]</text>
<polyline fill="none" stroke="black" points="780,-106.5 780,-129.5 "/>
<text text-anchor="middle" x="836" y="-114.3" font-family="Times,serif" font-size="14.00">right = [(nil)]</text>
</g>
<!-- node0x5030000000a0&#45;&gt;node0x503000000130 -->
<g id="edge6" class="edge">
<title>node0x5030000000a0&#45;&gt;node0x503000000130</title>
<path fill="none" stroke="black" d="M737.5,-212.23C737.5,-203.79 737.5,-194.62 737.5,-185.77"/>
<polygon fill="black" stroke="black" points="741,-185.6 737.5,-175.6 734,-185.6 741,-185.6"/>
</g>
<!-- node0x503000000160 -->
<g id="node6" class="node">
<title>node0x503000000160</title>
<path fill="#ffffd0" stroke="black" d="M292,-0.5C292,-0.5 481,-0.5 481,-0.5 487,-0.5 493,-6.5 493,-12.5 493,-12.5 493,-57.5 493,-57.5 493,-63.5 487,-69.5 481,-69.5 481,-69.5 292,-69.5 292,-69.5 286,-69.5 280,-63.5 280,-57.5 280,-57.5 280,-12.5 280,-12.5 280,-6.5 286,-0.5 292,-0.5"/>
<text text-anchor="middle" x="386.5" y="-54.3" font-family="Times,serif" font-size="14.00">[0x503000000160]</text>
<polyline fill="none" stroke="black" points="280,-46.5 493,-46.5 "/>
<text text-anchor="middle" x="386.5" y="-31.3" font-family="Times,serif" font-size="14.00">data = 17</text>
<polyline fill="none" stroke="black" points="280,-23.5 493,-23.5 "/>
<text text-anchor="middle" x="330.5" y="-8.3" font-family="Times,serif" font-size="14.00">left = [(nil)]</text>
<polyline fill="none" stroke="black" points="381,-0.5 381,-23.5 "/>
<text text-anchor="middle" x="437" y="-8.3" font-family="Times,serif" font-size="14.00">right = [(nil)]</text>
</g>
<!-- node0x503000000100&#45;&gt;node0x503000000160 -->
<g id="edge5" class="edge">
<title>node0x503000000100&#45;&gt;node0x503000000160</title>
<path fill="none" stroke="black" d="M386.5,-106.23C386.5,-97.79 386.5,-88.62 386.5,-79.77"/>
<polygon fill="black" stroke="black" points="390,-79.6 386.5,-69.6 383,-79.6 390,-79.6"/>
</g>
<!-- node0x503000000190 -->
<g id="node8" class="node">
<title>node0x503000000190</title>
<path fill="#ffffd0" stroke="black" d="M643,-0.5C643,-0.5 832,-0.5 832,-0.5 838,-0.5 844,-6.5 844,-12.5 844,-12.5 844,-57.5 844,-57.5 844,-63.5 838,-69.5 832,-69.5 832,-69.5 643,-69.5 643,-69.5 637,-69.5 631,-63.5 631,-57.5 631,-57.5 631,-12.5 631,-12.5 631,-6.5 637,-0.5 643,-0.5"/>
<text text-anchor="middle" x="737.5" y="-54.3" font-family="Times,serif" font-size="14.00">[0x503000000190]</text>
<polyline fill="none" stroke="black" points="631,-46.5 844,-46.5 "/>
<text text-anchor="middle" x="737.5" y="-31.3" font-family="Times,serif" font-size="14.00">data = 52</text>
<polyline fill="none" stroke="black" points="631,-23.5 844,-23.5 "/>
<text text-anchor="middle" x="681.5" y="-8.3" font-family="Times,serif" font-size="14.00">left = [(nil)]</text>
<polyline fill="none" stroke="black" points="732,-0.5 732,-23.5 "/>
<text text-anchor="middle" x="788" y="-8.3" font-family="Times,serif" font-size="14.00">right = [(nil)]</text>
</g>
<!-- node0x503000000130&#45;&gt;node0x503000000190 -->
<g id="edge7" class="edge">
<title>node0x503000000130&#45;&gt;node0x503000000190</title>
<path fill="none" stroke="black" d="M737.5,-106.23C737.5,-97.79 737.5,-88.62 737.5,-79.77"/>
<polygon fill="black" stroke="black" points="741,-79.6 737.5,-69.6 734,-79.6 741,-79.6"/>
</g>
</g>
</svg>
