<?xml version="1.0" encoding="UTF-8" standalone="no"?>
<!DOCTYPE svg PUBLIC "-//W3C//DTD SVG 1.1//EN"
 "http://www.w3.org/Graphics/SVG/1.1/DTD/svg11.dtd">
<!-- Generated by graphviz version 2.43.0 (0)
 -->
<!-- Title: %3 Pages: 1 -->
<svg width="826pt" height="396pt"
 viewBox="0.00 0.00 826.00 396.00" xmlns="http://www.w3.org/2000/svg" xmlns:xlink="http://www.w3.org/1999/xlink">
<g id="graph0" class="graph" transform="scale(1 1) rotate(0) translate(4 392)">
<title>%3</title>
<!-- node0x503000000040 -->
<g id="node1" class="node">
<title>node0x503000000040</title>
<path fill="#ffffd0" stroke="black" d="M78.5,-318.5C78.5,-318.5 460.5,-318.5 460.5,-318.5 466.5,-318.5 472.5,-324.5 472.5,-330.5 472.5,-330.5 472.5,-375.5 472.5,-375.5 472.5,-381.5 466.5,-387.5 460.5,-387.5 460.5,-387.5 78.5,-387.5 78.5,-387.5 72.5,-387.5 66.5,-381.5 66.5,-375.5 66.5,-375.5 66.5,-330.5 66.5,-330.5 66.5,-324.5 72.5,-318.5 78.5,-318.5"/>
<text text-anchor="middle" x="269.5" y="-372.3" font-family="Times,serif" font-size="14.00">[0x503000000040]</text>
<polyline fill="none" stroke="black" points="66.5,-364.5 472.5,-364.5 "/>
<text text-anchor="middle" x="269.5" y="-349.3" font-family="Times,serif" font-size="14.00">data = animal</text>
<polyline fill="none" stroke="black" points="66.5,-341.5 472.5,-341.5 "/>
<text text-anchor="middle" x="165" y="-326.3" font-family="Times,serif" font-size="14.00">left = [0x503000000070]</text>
<polyline fill="none" stroke="black" points="263.5,-318.5 263.5,-341.5 "/>
<text text-anchor="middle" x="368" y="-326.3" font-family="Times,serif" font-size="14.00">right = [0x5030000000d0]</text>
</g>
<!-- node0x503000000070 -->
<g id="node2" class="node">
<title>node0x503000000070</title>
<path fill="#ffffd0" stroke="black" d="M12,-212.5C12,-212.5 201,-212.5 201,-212.5 207,-212.5 213,-218.5 213,-224.5 213,-224.5 213,-269.5 213,-269.5 213,-275.5 207,-281.5 201,-281.5 201,-281.5 12,-281.5 12,-281.5 6,-281.5 0,-275.5 0,-269.5 0,-269.5 0,-224.5 0,-224.5 0,-218.5 6,-212.5 12,-212.5"/>
<text text-anchor="middle" x="106.5" y="-266.3" font-family="Times,serif" font-size="14.00">[0x503000000070]</text>
<polyline fill="none" stroke="black" points="0,-258.5 213,-258.5 "/>
<text text-anchor="middle" x="106.5" y="-243.3" font-family="Times,serif" font-size="14.00">data = poltorashka</text>
<polyline fill="none" stroke="black" points="0,-235.5 213,-235.5 "/>
<text text-anchor="middle" x="50.5" y="-220.3" font-family="Times,serif" font-size="14.00">left = [(nil)]</text>
<polyline fill="none" stroke="black" points="101,-212.5 101,-235.5 "/>
<text text-anchor="middle" x="157" y="-220.3" font-family="Times,serif" font-size="14.00">right = [(nil)]</text>
</g>
<!-- node0x503000000040&#45;&gt;node0x503000000070 -->
<g id="edge1" class="edge">
<title>node0x503000000040&#45;&gt;node0x503000000070</title>
<path fill="none" stroke="black" d="M216.58,-318.23C201.05,-308.33 183.93,-297.41 167.92,-287.19"/>
<polygon fill="black" stroke="black" points="169.47,-284.02 159.16,-281.6 165.7,-289.93 169.47,-284.02"/>
</g>
<!-- node0x5030000000d0 -->
<g id="node3" class="node">
<title>node0x5030000000d0</title>
<path fill="#ffffd0" stroke="black" d="M242.5,-212.5C242.5,-212.5 624.5,-212.5 624.5,-212.5 630.5,-212.5 636.5,-218.5 636.5,-224.5 636.5,-224.5 636.5,-269.5 636.5,-269.5 636.5,-275.5 630.5,-281.5 624.5,-281.5 624.5,-281.5 242.5,-281.5 242.5,-281.5 236.5,-281.5 230.5,-275.5 230.5,-269.5 230.5,-269.5 230.5,-224.5 230.5,-224.5 230.5,-218.5 236.5,-212.5 242.5,-212.5"/>
<text text-anchor="middle" x="433.5" y="-266.3" font-family="Times,serif" font-size="14.00">[0x5030000000d0]</text>
<polyline fill="none" stroke="black" points="230.5,-258.5 636.5,-258.5 "/>
<text text-anchor="middle" x="433.5" y="-243.3" font-family="Times,serif" font-size="14.00">data = teaches discrete math</text>
<polyline fill="none" stroke="black" points="230.5,-235.5 636.5,-235.5 "/>
<text text-anchor="middle" x="329" y="-220.3" font-family="Times,serif" font-size="14.00">left = [0x503000000100]</text>
<polyline fill="none" stroke="black" points="427.5,-212.5 427.5,-235.5 "/>
<text text-anchor="middle" x="532" y="-220.3" font-family="Times,serif" font-size="14.00">right = [0x503000000130]</text>
</g>
<!-- node0x503000000040&#45;&gt;node0x5030000000d0 -->
<g id="edge2" class="edge">
<title>node0x503000000040&#45;&gt;node0x5030000000d0</title>
<path fill="none" stroke="black" d="M322.75,-318.23C338.37,-308.33 355.59,-297.41 371.7,-287.19"/>
<polygon fill="black" stroke="black" points="373.95,-289.91 380.52,-281.6 370.2,-284 373.95,-289.91"/>
</g>
<!-- node0x503000000100 -->
<g id="node4" class="node">
<title>node0x503000000100</title>
<path fill="#ffffd0" stroke="black" d="M175,-106.5C175,-106.5 364,-106.5 364,-106.5 370,-106.5 376,-112.5 376,-118.5 376,-118.5 376,-163.5 376,-163.5 376,-169.5 370,-175.5 364,-175.5 364,-175.5 175,-175.5 175,-175.5 169,-175.5 163,-169.5 163,-163.5 163,-163.5 163,-118.5 163,-118.5 163,-112.5 169,-106.5 175,-106.5"/>
<text text-anchor="middle" x="269.5" y="-160.3" font-family="Times,serif" font-size="14.00">[0x503000000100]</text>
<polyline fill="none" stroke="black" points="163,-152.5 376,-152.5 "/>
<text text-anchor="middle" x="269.5" y="-137.3" font-family="Times,serif" font-size="14.00">data = burcev</text>
<polyline fill="none" stroke="black" points="163,-129.5 376,-129.5 "/>
<text text-anchor="middle" x="213.5" y="-114.3" font-family="Times,serif" font-size="14.00">left = [(nil)]</text>
<polyline fill="none" stroke="black" points="264,-106.5 264,-129.5 "/>
<text text-anchor="middle" x="320" y="-114.3" font-family="Times,serif" font-size="14.00">right = [(nil)]</text>
</g>
<!-- node0x5030000000d0&#45;&gt;node0x503000000100 -->
<g id="edge3" class="edge">
<title>node0x5030000000d0&#45;&gt;node0x503000000100</title>
<path fill="none" stroke="black" d="M380.25,-212.23C364.63,-202.33 347.41,-191.41 331.3,-181.19"/>
<polygon fill="black" stroke="black" points="332.8,-178 322.48,-175.6 329.05,-183.91 332.8,-178"/>
</g>
<!-- node0x503000000130 -->
<g id="node5" class="node">
<title>node0x503000000130</title>
<path fill="#ffffd0" stroke="black" d="M405.5,-106.5C405.5,-106.5 787.5,-106.5 787.5,-106.5 793.5,-106.5 799.5,-112.5 799.5,-118.5 799.5,-118.5 799.5,-163.5 799.5,-163.5 799.5,-169.5 793.5,-175.5 787.5,-175.5 787.5,-175.5 405.5,-175.5 405.5,-175.5 399.5,-175.5 393.5,-169.5 393.5,-163.5 393.5,-163.5 393.5,-118.5 393.5,-118.5 393.5,-112.5 399.5,-106.5 405.5,-106.5"/>
<text text-anchor="middle" x="596.5" y="-160.3" font-family="Times,serif" font-size="14.00">[0x503000000130]</text>
<polyline fill="none" stroke="black" points="393.5,-152.5 799.5,-152.5 "/>
<text text-anchor="middle" x="596.5" y="-137.3" font-family="Times,serif" font-size="14.00">data = teaches physics</text>
<polyline fill="none" stroke="black" points="393.5,-129.5 799.5,-129.5 "/>
<text text-anchor="middle" x="492" y="-114.3" font-family="Times,serif" font-size="14.00">left = [0x503000000160]</text>
<polyline fill="none" stroke="black" points="590.5,-106.5 590.5,-129.5 "/>
<text text-anchor="middle" x="695" y="-114.3" font-family="Times,serif" font-size="14.00">right = [0x503000000190]</text>
</g>
<!-- node0x5030000000d0&#45;&gt;node0x503000000130 -->
<g id="edge4" class="edge">
<title>node0x5030000000d0&#45;&gt;node0x503000000130</title>
<path fill="none" stroke="black" d="M486.42,-212.23C501.95,-202.33 519.07,-191.41 535.08,-181.19"/>
<polygon fill="black" stroke="black" points="537.3,-183.93 543.84,-175.6 533.53,-178.02 537.3,-183.93"/>
</g>
<!-- node0x503000000160 -->
<g id="node6" class="node">
<title>node0x503000000160</title>
<path fill="#ffffd0" stroke="black" d="M386,-0.5C386,-0.5 575,-0.5 575,-0.5 581,-0.5 587,-6.5 587,-12.5 587,-12.5 587,-57.5 587,-57.5 587,-63.5 581,-69.5 575,-69.5 575,-69.5 386,-69.5 386,-69.5 380,-69.5 374,-63.5 374,-57.5 374,-57.5 374,-12.5 374,-12.5 374,-6.5 380,-0.5 386,-0.5"/>
<text text-anchor="middle" x="480.5" y="-54.3" font-family="Times,serif" font-size="14.00">[0x503000000160]</text>
<polyline fill="none" stroke="black" points="374,-46.5 587,-46.5 "/>
<text text-anchor="middle" x="480.5" y="-31.3" font-family="Times,serif" font-size="14.00">data = ovchos</text>
<polyline fill="none" stroke="black" points="374,-23.5 587,-23.5 "/>
<text text-anchor="middle" x="424.5" y="-8.3" font-family="Times,serif" font-size="14.00">left = [(nil)]</text>
<polyline fill="none" stroke="black" points="475,-0.5 475,-23.5 "/>
<text text-anchor="middle" x="531" y="-8.3" font-family="Times,serif" font-size="14.00">right = [(nil)]</text>
</g>
<!-- node0x503000000130&#45;&gt;node0x503000000160 -->
<g id="edge5" class="edge">
<title>node0x503000000130&#45;&gt;node0x503000000160</title>
<path fill="none" stroke="black" d="M558.84,-106.23C548.2,-96.69 536.51,-86.21 525.48,-76.33"/>
<polygon fill="black" stroke="black" points="527.76,-73.67 517.97,-69.6 523.08,-78.88 527.76,-73.67"/>
</g>
<!-- node0x503000000190 -->
<g id="node7" class="node">
<title>node0x503000000190</title>
<path fill="#ffffd0" stroke="black" d="M617,-0.5C617,-0.5 806,-0.5 806,-0.5 812,-0.5 818,-6.5 818,-12.5 818,-12.5 818,-57.5 818,-57.5 818,-63.5 812,-69.5 806,-69.5 806,-69.5 617,-69.5 617,-69.5 611,-69.5 605,-63.5 605,-57.5 605,-57.5 605,-12.5 605,-12.5 605,-6.5 611,-0.5 617,-0.5"/>
<text text-anchor="middle" x="711.5" y="-54.3" font-family="Times,serif" font-size="14.00">[0x503000000190]</text>
<polyline fill="none" stroke="black" points="605,-46.5 818,-46.5 "/>
<text text-anchor="middle" x="711.5" y="-31.3" font-family="Times,serif" font-size="14.00">data = chubarov</text>
<polyline fill="none" stroke="black" points="605,-23.5 818,-23.5 "/>
<text text-anchor="middle" x="655.5" y="-8.3" font-family="Times,serif" font-size="14.00">left = [(nil)]</text>
<polyline fill="none" stroke="black" points="706,-0.5 706,-23.5 "/>
<text text-anchor="middle" x="762" y="-8.3" font-family="Times,serif" font-size="14.00">right = [(nil)]</text>
</g>
<!-- node0x503000000130&#45;&gt;node0x503000000190 -->
<g id="edge6" class="edge">
<title>node0x503000000130&#45;&gt;node0x503000000190</title>
<path fill="none" stroke="black" d="M633.84,-106.23C644.39,-96.69 655.98,-86.21 666.91,-76.33"/>
<polygon fill="black" stroke="black" points="669.28,-78.9 674.35,-69.6 664.59,-73.71 669.28,-78.9"/>
</g>
</g>
</svg>
