<?xml version="1.0" encoding="UTF-8" standalone="no"?>
<!DOCTYPE svg PUBLIC "-//W3C//DTD SVG 1.1//EN"
 "http://www.w3.org/Graphics/SVG/1.1/DTD/svg11.dtd">
<!-- Generated by graphviz version 2.43.0 (0)
 -->
<!-- Title: %3 Pages: 1 -->
<svg width="1640pt" height="875pt"
 viewBox="0.00 0.00 1640.00 875.00" xmlns="http://www.w3.org/2000/svg" xmlns:xlink="http://www.w3.org/1999/xlink">
<g id="graph0" class="graph" transform="scale(1 1) rotate(0) translate(4 871)">
<title>%3</title>
<!-- node0x504000000010 -->
<g id="node1" class="node">
<title>node0x504000000010</title>
<path fill="#ffffd0" stroke="black" d="M333.5,-774.5C333.5,-774.5 715.5,-774.5 715.5,-774.5 721.5,-774.5 727.5,-780.5 727.5,-786.5 727.5,-786.5 727.5,-854.5 727.5,-854.5 727.5,-860.5 721.5,-866.5 715.5,-866.5 715.5,-866.5 333.5,-866.5 333.5,-866.5 327.5,-866.5 321.5,-860.5 321.5,-854.5 321.5,-854.5 321.5,-786.5 321.5,-786.5 321.5,-780.5 327.5,-774.5 333.5,-774.5"/>
<text text-anchor="middle" x="524.5" y="-851.3" font-family="Times,serif" font-size="14.00">[0x504000000010]</text>
<polyline fill="none" stroke="black" points="321.5,-843.5 727.5,-843.5 "/>
<text text-anchor="middle" x="524.5" y="-828.3" font-family="Times,serif" font-size="14.00">data = teacher</text>
<polyline fill="none" stroke="black" points="321.5,-820.5 727.5,-820.5 "/>
<text text-anchor="middle" x="524.5" y="-805.3" font-family="Times,serif" font-size="14.00">shoot_free = 0</text>
<polyline fill="none" stroke="black" points="321.5,-797.5 727.5,-797.5 "/>
<text text-anchor="middle" x="420" y="-782.3" font-family="Times,serif" font-size="14.00">left = [0x504000000050]</text>
<polyline fill="none" stroke="black" points="518.5,-774.5 518.5,-797.5 "/>
<text text-anchor="middle" x="623" y="-782.3" font-family="Times,serif" font-size="14.00">right = [0x504000000110]</text>
</g>
<!-- node0x504000000050 -->
<g id="node2" class="node">
<title>node0x504000000050</title>
<path fill="#ffffd0" stroke="black" d="M121.5,-645.5C121.5,-645.5 503.5,-645.5 503.5,-645.5 509.5,-645.5 515.5,-651.5 515.5,-657.5 515.5,-657.5 515.5,-725.5 515.5,-725.5 515.5,-731.5 509.5,-737.5 503.5,-737.5 503.5,-737.5 121.5,-737.5 121.5,-737.5 115.5,-737.5 109.5,-731.5 109.5,-725.5 109.5,-725.5 109.5,-657.5 109.5,-657.5 109.5,-651.5 115.5,-645.5 121.5,-645.5"/>
<text text-anchor="middle" x="312.5" y="-722.3" font-family="Times,serif" font-size="14.00">[0x504000000050]</text>
<polyline fill="none" stroke="black" points="109.5,-714.5 515.5,-714.5 "/>
<text text-anchor="middle" x="312.5" y="-699.3" font-family="Times,serif" font-size="14.00">data = teacher of programming</text>
<polyline fill="none" stroke="black" points="109.5,-691.5 515.5,-691.5 "/>
<text text-anchor="middle" x="312.5" y="-676.3" font-family="Times,serif" font-size="14.00">shoot_free = 0</text>
<polyline fill="none" stroke="black" points="109.5,-668.5 515.5,-668.5 "/>
<text text-anchor="middle" x="208" y="-653.3" font-family="Times,serif" font-size="14.00">left = [0x504000000090]</text>
<polyline fill="none" stroke="black" points="306.5,-645.5 306.5,-668.5 "/>
<text text-anchor="middle" x="411" y="-653.3" font-family="Times,serif" font-size="14.00">right = [0x5040000000d0]</text>
</g>
<!-- node0x504000000010&#45;&gt;node0x504000000050 -->
<g id="edge1" class="edge">
<title>node0x504000000010&#45;&gt;node0x504000000050</title>
<path fill="none" stroke="black" d="M449.16,-774.37C432.23,-764.23 414.17,-753.41 396.9,-743.06"/>
<polygon fill="black" stroke="black" points="398.33,-739.84 387.95,-737.7 394.73,-745.84 398.33,-739.84"/>
</g>
<!-- node0x504000000110 -->
<g id="node3" class="node">
<title>node0x504000000110</title>
<path fill="#ffffd0" stroke="black" d="M545.5,-645.5C545.5,-645.5 927.5,-645.5 927.5,-645.5 933.5,-645.5 939.5,-651.5 939.5,-657.5 939.5,-657.5 939.5,-725.5 939.5,-725.5 939.5,-731.5 933.5,-737.5 927.5,-737.5 927.5,-737.5 545.5,-737.5 545.5,-737.5 539.5,-737.5 533.5,-731.5 533.5,-725.5 533.5,-725.5 533.5,-657.5 533.5,-657.5 533.5,-651.5 539.5,-645.5 545.5,-645.5"/>
<text text-anchor="middle" x="736.5" y="-722.3" font-family="Times,serif" font-size="14.00">[0x504000000110]</text>
<polyline fill="none" stroke="black" points="533.5,-714.5 939.5,-714.5 "/>
<text text-anchor="middle" x="736.5" y="-699.3" font-family="Times,serif" font-size="14.00">data = football player</text>
<polyline fill="none" stroke="black" points="533.5,-691.5 939.5,-691.5 "/>
<text text-anchor="middle" x="736.5" y="-676.3" font-family="Times,serif" font-size="14.00">shoot_free = 0</text>
<polyline fill="none" stroke="black" points="533.5,-668.5 939.5,-668.5 "/>
<text text-anchor="middle" x="632" y="-653.3" font-family="Times,serif" font-size="14.00">left = [0x504000000150]</text>
<polyline fill="none" stroke="black" points="730.5,-645.5 730.5,-668.5 "/>
<text text-anchor="middle" x="835" y="-653.3" font-family="Times,serif" font-size="14.00">right = [0x504000000390]</text>
</g>
<!-- node0x504000000010&#45;&gt;node0x504000000110 -->
<g id="edge2" class="edge">
<title>node0x504000000010&#45;&gt;node0x504000000110</title>
<path fill="none" stroke="black" d="M599.84,-774.37C616.77,-764.23 634.83,-753.41 652.1,-743.06"/>
<polygon fill="black" stroke="black" points="654.27,-745.84 661.05,-737.7 650.67,-739.84 654.27,-745.84"/>
</g>
<!-- node0x504000000090 -->
<g id="node4" class="node">
<title>node0x504000000090</title>
<path fill="#ffffd0" stroke="black" d="M12,-516.5C12,-516.5 201,-516.5 201,-516.5 207,-516.5 213,-522.5 213,-528.5 213,-528.5 213,-596.5 213,-596.5 213,-602.5 207,-608.5 201,-608.5 201,-608.5 12,-608.5 12,-608.5 6,-608.5 0,-602.5 0,-596.5 0,-596.5 0,-528.5 0,-528.5 0,-522.5 6,-516.5 12,-516.5"/>
<text text-anchor="middle" x="106.5" y="-593.3" font-family="Times,serif" font-size="14.00">[0x504000000090]</text>
<polyline fill="none" stroke="black" points="0,-585.5 213,-585.5 "/>
<text text-anchor="middle" x="106.5" y="-570.3" font-family="Times,serif" font-size="14.00">data = ded32</text>
<polyline fill="none" stroke="black" points="0,-562.5 213,-562.5 "/>
<text text-anchor="middle" x="106.5" y="-547.3" font-family="Times,serif" font-size="14.00">shoot_free = 0</text>
<polyline fill="none" stroke="black" points="0,-539.5 213,-539.5 "/>
<text text-anchor="middle" x="50.5" y="-524.3" font-family="Times,serif" font-size="14.00">left = [(nil)]</text>
<polyline fill="none" stroke="black" points="101,-516.5 101,-539.5 "/>
<text text-anchor="middle" x="157" y="-524.3" font-family="Times,serif" font-size="14.00">right = [(nil)]</text>
</g>
<!-- node0x504000000050&#45;&gt;node0x504000000090 -->
<g id="edge3" class="edge">
<title>node0x504000000050&#45;&gt;node0x504000000090</title>
<path fill="none" stroke="black" d="M239.29,-645.37C222.85,-635.23 205.29,-624.41 188.51,-614.06"/>
<polygon fill="black" stroke="black" points="190.17,-610.97 179.82,-608.7 186.49,-616.93 190.17,-610.97"/>
</g>
<!-- node0x5040000000d0 -->
<g id="node5" class="node">
<title>node0x5040000000d0</title>
<path fill="#ffffd0" stroke="black" d="M243,-516.5C243,-516.5 432,-516.5 432,-516.5 438,-516.5 444,-522.5 444,-528.5 444,-528.5 444,-596.5 444,-596.5 444,-602.5 438,-608.5 432,-608.5 432,-608.5 243,-608.5 243,-608.5 237,-608.5 231,-602.5 231,-596.5 231,-596.5 231,-528.5 231,-528.5 231,-522.5 237,-516.5 243,-516.5"/>
<text text-anchor="middle" x="337.5" y="-593.3" font-family="Times,serif" font-size="14.00">[0x5040000000d0]</text>
<polyline fill="none" stroke="black" points="231,-585.5 444,-585.5 "/>
<text text-anchor="middle" x="337.5" y="-570.3" font-family="Times,serif" font-size="14.00">data = ovchinkin</text>
<polyline fill="none" stroke="black" points="231,-562.5 444,-562.5 "/>
<text text-anchor="middle" x="337.5" y="-547.3" font-family="Times,serif" font-size="14.00">shoot_free = 0</text>
<polyline fill="none" stroke="black" points="231,-539.5 444,-539.5 "/>
<text text-anchor="middle" x="281.5" y="-524.3" font-family="Times,serif" font-size="14.00">left = [(nil)]</text>
<polyline fill="none" stroke="black" points="332,-516.5 332,-539.5 "/>
<text text-anchor="middle" x="388" y="-524.3" font-family="Times,serif" font-size="14.00">right = [(nil)]</text>
</g>
<!-- node0x504000000050&#45;&gt;node0x5040000000d0 -->
<g id="edge4" class="edge">
<title>node0x504000000050&#45;&gt;node0x5040000000d0</title>
<path fill="none" stroke="black" d="M321.38,-645.37C323.08,-636.77 324.87,-627.68 326.61,-618.8"/>
<polygon fill="black" stroke="black" points="330.06,-619.4 328.56,-608.92 323.19,-618.05 330.06,-619.4"/>
</g>
<!-- node0x504000000150 -->
<g id="node6" class="node">
<title>node0x504000000150</title>
<path fill="#ffffd0" stroke="black" d="M521.5,-516.5C521.5,-516.5 903.5,-516.5 903.5,-516.5 909.5,-516.5 915.5,-522.5 915.5,-528.5 915.5,-528.5 915.5,-596.5 915.5,-596.5 915.5,-602.5 909.5,-608.5 903.5,-608.5 903.5,-608.5 521.5,-608.5 521.5,-608.5 515.5,-608.5 509.5,-602.5 509.5,-596.5 509.5,-596.5 509.5,-528.5 509.5,-528.5 509.5,-522.5 515.5,-516.5 521.5,-516.5"/>
<text text-anchor="middle" x="712.5" y="-593.3" font-family="Times,serif" font-size="14.00">[0x504000000150]</text>
<polyline fill="none" stroke="black" points="509.5,-585.5 915.5,-585.5 "/>
<text text-anchor="middle" x="712.5" y="-570.3" font-family="Times,serif" font-size="14.00">data = plays for the caRTel</text>
<polyline fill="none" stroke="black" points="509.5,-562.5 915.5,-562.5 "/>
<text text-anchor="middle" x="712.5" y="-547.3" font-family="Times,serif" font-size="14.00">shoot_free = 0</text>
<polyline fill="none" stroke="black" points="509.5,-539.5 915.5,-539.5 "/>
<text text-anchor="middle" x="608" y="-524.3" font-family="Times,serif" font-size="14.00">left = [0x504000000190]</text>
<polyline fill="none" stroke="black" points="706.5,-516.5 706.5,-539.5 "/>
<text text-anchor="middle" x="811" y="-524.3" font-family="Times,serif" font-size="14.00">right = [0x504000000350]</text>
</g>
<!-- node0x504000000110&#45;&gt;node0x504000000150 -->
<g id="edge5" class="edge">
<title>node0x504000000110&#45;&gt;node0x504000000150</title>
<path fill="none" stroke="black" d="M727.97,-645.37C726.35,-636.77 724.63,-627.68 722.95,-618.8"/>
<polygon fill="black" stroke="black" points="726.38,-618.09 721.08,-608.92 719.5,-619.39 726.38,-618.09"/>
</g>
<!-- node0x504000000390 -->
<g id="node7" class="node">
<title>node0x504000000390</title>
<path fill="#ffffd0" stroke="black" d="M945.5,-516.5C945.5,-516.5 1327.5,-516.5 1327.5,-516.5 1333.5,-516.5 1339.5,-522.5 1339.5,-528.5 1339.5,-528.5 1339.5,-596.5 1339.5,-596.5 1339.5,-602.5 1333.5,-608.5 1327.5,-608.5 1327.5,-608.5 945.5,-608.5 945.5,-608.5 939.5,-608.5 933.5,-602.5 933.5,-596.5 933.5,-596.5 933.5,-528.5 933.5,-528.5 933.5,-522.5 939.5,-516.5 945.5,-516.5"/>
<text text-anchor="middle" x="1136.5" y="-593.3" font-family="Times,serif" font-size="14.00">[0x504000000390]</text>
<polyline fill="none" stroke="black" points="933.5,-585.5 1339.5,-585.5 "/>
<text text-anchor="middle" x="1136.5" y="-570.3" font-family="Times,serif" font-size="14.00">data = coach</text>
<polyline fill="none" stroke="black" points="933.5,-562.5 1339.5,-562.5 "/>
<text text-anchor="middle" x="1136.5" y="-547.3" font-family="Times,serif" font-size="14.00">shoot_free = 0</text>
<polyline fill="none" stroke="black" points="933.5,-539.5 1339.5,-539.5 "/>
<text text-anchor="middle" x="1032" y="-524.3" font-family="Times,serif" font-size="14.00">left = [0x5040000003d0]</text>
<polyline fill="none" stroke="black" points="1130.5,-516.5 1130.5,-539.5 "/>
<text text-anchor="middle" x="1235" y="-524.3" font-family="Times,serif" font-size="14.00">right = [0x504000000410]</text>
</g>
<!-- node0x504000000110&#45;&gt;node0x504000000390 -->
<g id="edge6" class="edge">
<title>node0x504000000110&#45;&gt;node0x504000000390</title>
<path fill="none" stroke="black" d="M878.37,-645.46C912.87,-634.5 949.89,-622.75 984.82,-611.66"/>
<polygon fill="black" stroke="black" points="986.15,-614.91 994.62,-608.55 984.03,-608.24 986.15,-614.91"/>
</g>
<!-- node0x504000000190 -->
<g id="node8" class="node">
<title>node0x504000000190</title>
<path fill="#ffffd0" stroke="black" d="M274.5,-387.5C274.5,-387.5 656.5,-387.5 656.5,-387.5 662.5,-387.5 668.5,-393.5 668.5,-399.5 668.5,-399.5 668.5,-467.5 668.5,-467.5 668.5,-473.5 662.5,-479.5 656.5,-479.5 656.5,-479.5 274.5,-479.5 274.5,-479.5 268.5,-479.5 262.5,-473.5 262.5,-467.5 262.5,-467.5 262.5,-399.5 262.5,-399.5 262.5,-393.5 268.5,-387.5 274.5,-387.5"/>
<text text-anchor="middle" x="465.5" y="-464.3" font-family="Times,serif" font-size="14.00">[0x504000000190]</text>
<polyline fill="none" stroke="black" points="262.5,-456.5 668.5,-456.5 "/>
<text text-anchor="middle" x="465.5" y="-441.3" font-family="Times,serif" font-size="14.00">data = defender</text>
<polyline fill="none" stroke="black" points="262.5,-433.5 668.5,-433.5 "/>
<text text-anchor="middle" x="465.5" y="-418.3" font-family="Times,serif" font-size="14.00">shoot_free = 0</text>
<polyline fill="none" stroke="black" points="262.5,-410.5 668.5,-410.5 "/>
<text text-anchor="middle" x="361" y="-395.3" font-family="Times,serif" font-size="14.00">left = [0x5040000001d0]</text>
<polyline fill="none" stroke="black" points="459.5,-387.5 459.5,-410.5 "/>
<text text-anchor="middle" x="564" y="-395.3" font-family="Times,serif" font-size="14.00">right = [0x504000000290]</text>
</g>
<!-- node0x504000000150&#45;&gt;node0x504000000190 -->
<g id="edge7" class="edge">
<title>node0x504000000150&#45;&gt;node0x504000000190</title>
<path fill="none" stroke="black" d="M624.72,-516.37C604.55,-506 582.99,-494.91 562.45,-484.35"/>
<polygon fill="black" stroke="black" points="563.91,-481.16 553.41,-479.7 560.7,-487.39 563.91,-481.16"/>
</g>
<!-- node0x504000000350 -->
<g id="node9" class="node">
<title>node0x504000000350</title>
<path fill="#ffffd0" stroke="black" d="M698,-387.5C698,-387.5 887,-387.5 887,-387.5 893,-387.5 899,-393.5 899,-399.5 899,-399.5 899,-467.5 899,-467.5 899,-473.5 893,-479.5 887,-479.5 887,-479.5 698,-479.5 698,-479.5 692,-479.5 686,-473.5 686,-467.5 686,-467.5 686,-399.5 686,-399.5 686,-393.5 692,-387.5 698,-387.5"/>
<text text-anchor="middle" x="792.5" y="-464.3" font-family="Times,serif" font-size="14.00">[0x504000000350]</text>
<polyline fill="none" stroke="black" points="686,-456.5 899,-456.5 "/>
<text text-anchor="middle" x="792.5" y="-441.3" font-family="Times,serif" font-size="14.00">data = loh</text>
<polyline fill="none" stroke="black" points="686,-433.5 899,-433.5 "/>
<text text-anchor="middle" x="792.5" y="-418.3" font-family="Times,serif" font-size="14.00">shoot_free = 0</text>
<polyline fill="none" stroke="black" points="686,-410.5 899,-410.5 "/>
<text text-anchor="middle" x="736.5" y="-395.3" font-family="Times,serif" font-size="14.00">left = [(nil)]</text>
<polyline fill="none" stroke="black" points="787,-387.5 787,-410.5 "/>
<text text-anchor="middle" x="843" y="-395.3" font-family="Times,serif" font-size="14.00">right = [(nil)]</text>
</g>
<!-- node0x504000000150&#45;&gt;node0x504000000350 -->
<g id="edge8" class="edge">
<title>node0x504000000150&#45;&gt;node0x504000000350</title>
<path fill="none" stroke="black" d="M740.93,-516.37C746.58,-507.4 752.57,-497.89 758.38,-488.66"/>
<polygon fill="black" stroke="black" points="761.52,-490.24 763.89,-479.92 755.6,-486.51 761.52,-490.24"/>
</g>
<!-- node0x5040000003d0 -->
<g id="node18" class="node">
<title>node0x5040000003d0</title>
<path fill="#ffffd0" stroke="black" d="M944,-387.5C944,-387.5 1169,-387.5 1169,-387.5 1175,-387.5 1181,-393.5 1181,-399.5 1181,-399.5 1181,-467.5 1181,-467.5 1181,-473.5 1175,-479.5 1169,-479.5 1169,-479.5 944,-479.5 944,-479.5 938,-479.5 932,-473.5 932,-467.5 932,-467.5 932,-399.5 932,-399.5 932,-393.5 938,-387.5 944,-387.5"/>
<text text-anchor="middle" x="1056.5" y="-464.3" font-family="Times,serif" font-size="14.00">[0x5040000003d0]</text>
<polyline fill="none" stroke="black" points="932,-456.5 1181,-456.5 "/>
<text text-anchor="middle" x="1056.5" y="-441.3" font-family="Times,serif" font-size="14.00">data = valentin spivak guardiola</text>
<polyline fill="none" stroke="black" points="932,-433.5 1181,-433.5 "/>
<text text-anchor="middle" x="1056.5" y="-418.3" font-family="Times,serif" font-size="14.00">shoot_free = 0</text>
<polyline fill="none" stroke="black" points="932,-410.5 1181,-410.5 "/>
<text text-anchor="middle" x="991.5" y="-395.3" font-family="Times,serif" font-size="14.00">left = [(nil)]</text>
<polyline fill="none" stroke="black" points="1051,-387.5 1051,-410.5 "/>
<text text-anchor="middle" x="1116" y="-395.3" font-family="Times,serif" font-size="14.00">right = [(nil)]</text>
</g>
<!-- node0x504000000390&#45;&gt;node0x5040000003d0 -->
<g id="edge17" class="edge">
<title>node0x504000000390&#45;&gt;node0x5040000003d0</title>
<path fill="none" stroke="black" d="M1108.07,-516.37C1102.42,-507.4 1096.43,-497.89 1090.62,-488.66"/>
<polygon fill="black" stroke="black" points="1093.4,-486.51 1085.11,-479.92 1087.48,-490.24 1093.4,-486.51"/>
</g>
<!-- node0x504000000410 -->
<g id="node19" class="node">
<title>node0x504000000410</title>
<path fill="#ffe0e0" stroke="black" d="M1211.5,-387.5C1211.5,-387.5 1593.5,-387.5 1593.5,-387.5 1599.5,-387.5 1605.5,-393.5 1605.5,-399.5 1605.5,-399.5 1605.5,-467.5 1605.5,-467.5 1605.5,-473.5 1599.5,-479.5 1593.5,-479.5 1593.5,-479.5 1211.5,-479.5 1211.5,-479.5 1205.5,-479.5 1199.5,-473.5 1199.5,-467.5 1199.5,-467.5 1199.5,-399.5 1199.5,-399.5 1199.5,-393.5 1205.5,-387.5 1211.5,-387.5"/>
<text text-anchor="middle" x="1402.5" y="-464.3" font-family="Times,serif" font-size="14.00">[0x504000000410]</text>
<polyline fill="none" stroke="black" points="1199.5,-456.5 1605.5,-456.5 "/>
<text text-anchor="middle" x="1402.5" y="-441.3" font-family="Times,serif" font-size="14.00">data = loh</text>
<polyline fill="none" stroke="black" points="1199.5,-433.5 1605.5,-433.5 "/>
<text text-anchor="middle" x="1402.5" y="-418.3" font-family="Times,serif" font-size="14.00">shoot_free = 1</text>
<polyline fill="none" stroke="black" points="1199.5,-410.5 1605.5,-410.5 "/>
<text text-anchor="middle" x="1298" y="-395.3" font-family="Times,serif" font-size="14.00">left = [0x504000000450]</text>
<polyline fill="none" stroke="black" points="1396.5,-387.5 1396.5,-410.5 "/>
<text text-anchor="middle" x="1501" y="-395.3" font-family="Times,serif" font-size="14.00">right = [0x504000000490]</text>
</g>
<!-- node0x504000000390&#45;&gt;node0x504000000410 -->
<g id="edge18" class="edge">
<title>node0x504000000390&#45;&gt;node0x504000000410</title>
<path fill="none" stroke="black" d="M1231.03,-516.37C1252.95,-505.9 1276.39,-494.71 1298.68,-484.07"/>
<polygon fill="black" stroke="black" points="1300.31,-487.17 1307.83,-479.7 1297.29,-480.85 1300.31,-487.17"/>
</g>
<!-- node0x5040000001d0 -->
<g id="node10" class="node">
<title>node0x5040000001d0</title>
<path fill="#ffffd0" stroke="black" d="M244.5,-258.5C244.5,-258.5 626.5,-258.5 626.5,-258.5 632.5,-258.5 638.5,-264.5 638.5,-270.5 638.5,-270.5 638.5,-338.5 638.5,-338.5 638.5,-344.5 632.5,-350.5 626.5,-350.5 626.5,-350.5 244.5,-350.5 244.5,-350.5 238.5,-350.5 232.5,-344.5 232.5,-338.5 232.5,-338.5 232.5,-270.5 232.5,-270.5 232.5,-264.5 238.5,-258.5 244.5,-258.5"/>
<text text-anchor="middle" x="435.5" y="-335.3" font-family="Times,serif" font-size="14.00">[0x5040000001d0]</text>
<polyline fill="none" stroke="black" points="232.5,-327.5 638.5,-327.5 "/>
<text text-anchor="middle" x="435.5" y="-312.3" font-family="Times,serif" font-size="14.00">data = left defender</text>
<polyline fill="none" stroke="black" points="232.5,-304.5 638.5,-304.5 "/>
<text text-anchor="middle" x="435.5" y="-289.3" font-family="Times,serif" font-size="14.00">shoot_free = 0</text>
<polyline fill="none" stroke="black" points="232.5,-281.5 638.5,-281.5 "/>
<text text-anchor="middle" x="331" y="-266.3" font-family="Times,serif" font-size="14.00">left = [0x504000000210]</text>
<polyline fill="none" stroke="black" points="429.5,-258.5 429.5,-281.5 "/>
<text text-anchor="middle" x="534" y="-266.3" font-family="Times,serif" font-size="14.00">right = [0x504000000250]</text>
</g>
<!-- node0x504000000190&#45;&gt;node0x5040000001d0 -->
<g id="edge9" class="edge">
<title>node0x504000000190&#45;&gt;node0x5040000001d0</title>
<path fill="none" stroke="black" d="M454.84,-387.37C452.81,-378.77 450.66,-369.68 448.56,-360.8"/>
<polygon fill="black" stroke="black" points="451.93,-359.84 446.23,-350.92 445.12,-361.45 451.93,-359.84"/>
</g>
<!-- node0x504000000290 -->
<g id="node11" class="node">
<title>node0x504000000290</title>
<path fill="#ffffd0" stroke="black" d="M668.5,-258.5C668.5,-258.5 1050.5,-258.5 1050.5,-258.5 1056.5,-258.5 1062.5,-264.5 1062.5,-270.5 1062.5,-270.5 1062.5,-338.5 1062.5,-338.5 1062.5,-344.5 1056.5,-350.5 1050.5,-350.5 1050.5,-350.5 668.5,-350.5 668.5,-350.5 662.5,-350.5 656.5,-344.5 656.5,-338.5 656.5,-338.5 656.5,-270.5 656.5,-270.5 656.5,-264.5 662.5,-258.5 668.5,-258.5"/>
<text text-anchor="middle" x="859.5" y="-335.3" font-family="Times,serif" font-size="14.00">[0x504000000290]</text>
<polyline fill="none" stroke="black" points="656.5,-327.5 1062.5,-327.5 "/>
<text text-anchor="middle" x="859.5" y="-312.3" font-family="Times,serif" font-size="14.00">data = center forward</text>
<polyline fill="none" stroke="black" points="656.5,-304.5 1062.5,-304.5 "/>
<text text-anchor="middle" x="859.5" y="-289.3" font-family="Times,serif" font-size="14.00">shoot_free = 0</text>
<polyline fill="none" stroke="black" points="656.5,-281.5 1062.5,-281.5 "/>
<text text-anchor="middle" x="755" y="-266.3" font-family="Times,serif" font-size="14.00">left = [0x5040000002d0]</text>
<polyline fill="none" stroke="black" points="853.5,-258.5 853.5,-281.5 "/>
<text text-anchor="middle" x="958" y="-266.3" font-family="Times,serif" font-size="14.00">right = [0x504000000310]</text>
</g>
<!-- node0x504000000190&#45;&gt;node0x504000000290 -->
<g id="edge10" class="edge">
<title>node0x504000000190&#45;&gt;node0x504000000290</title>
<path fill="none" stroke="black" d="M605.24,-387.46C639.22,-376.5 675.69,-364.75 710.1,-353.66"/>
<polygon fill="black" stroke="black" points="711.3,-356.95 719.75,-350.55 709.15,-350.28 711.3,-356.95"/>
</g>
<!-- node0x504000000210 -->
<g id="node12" class="node">
<title>node0x504000000210</title>
<path fill="#ffffd0" stroke="black" d="M159,-129.5C159,-129.5 348,-129.5 348,-129.5 354,-129.5 360,-135.5 360,-141.5 360,-141.5 360,-209.5 360,-209.5 360,-215.5 354,-221.5 348,-221.5 348,-221.5 159,-221.5 159,-221.5 153,-221.5 147,-215.5 147,-209.5 147,-209.5 147,-141.5 147,-141.5 147,-135.5 153,-129.5 159,-129.5"/>
<text text-anchor="middle" x="253.5" y="-206.3" font-family="Times,serif" font-size="14.00">[0x504000000210]</text>
<polyline fill="none" stroke="black" points="147,-198.5 360,-198.5 "/>
<text text-anchor="middle" x="253.5" y="-183.3" font-family="Times,serif" font-size="14.00">data = tolik</text>
<polyline fill="none" stroke="black" points="147,-175.5 360,-175.5 "/>
<text text-anchor="middle" x="253.5" y="-160.3" font-family="Times,serif" font-size="14.00">shoot_free = 0</text>
<polyline fill="none" stroke="black" points="147,-152.5 360,-152.5 "/>
<text text-anchor="middle" x="197.5" y="-137.3" font-family="Times,serif" font-size="14.00">left = [(nil)]</text>
<polyline fill="none" stroke="black" points="248,-129.5 248,-152.5 "/>
<text text-anchor="middle" x="304" y="-137.3" font-family="Times,serif" font-size="14.00">right = [(nil)]</text>
</g>
<!-- node0x5040000001d0&#45;&gt;node0x504000000210 -->
<g id="edge11" class="edge">
<title>node0x5040000001d0&#45;&gt;node0x504000000210</title>
<path fill="none" stroke="black" d="M370.82,-258.37C356.56,-248.41 341.35,-237.8 326.77,-227.63"/>
<polygon fill="black" stroke="black" points="328.48,-224.55 318.28,-221.7 324.47,-230.29 328.48,-224.55"/>
</g>
<!-- node0x504000000250 -->
<g id="node13" class="node">
<title>node0x504000000250</title>
<path fill="#ffffd0" stroke="black" d="M390,-129.5C390,-129.5 579,-129.5 579,-129.5 585,-129.5 591,-135.5 591,-141.5 591,-141.5 591,-209.5 591,-209.5 591,-215.5 585,-221.5 579,-221.5 579,-221.5 390,-221.5 390,-221.5 384,-221.5 378,-215.5 378,-209.5 378,-209.5 378,-141.5 378,-141.5 378,-135.5 384,-129.5 390,-129.5"/>
<text text-anchor="middle" x="484.5" y="-206.3" font-family="Times,serif" font-size="14.00">[0x504000000250]</text>
<polyline fill="none" stroke="black" points="378,-198.5 591,-198.5 "/>
<text text-anchor="middle" x="484.5" y="-183.3" font-family="Times,serif" font-size="14.00">data = dan</text>
<polyline fill="none" stroke="black" points="378,-175.5 591,-175.5 "/>
<text text-anchor="middle" x="484.5" y="-160.3" font-family="Times,serif" font-size="14.00">shoot_free = 0</text>
<polyline fill="none" stroke="black" points="378,-152.5 591,-152.5 "/>
<text text-anchor="middle" x="428.5" y="-137.3" font-family="Times,serif" font-size="14.00">left = [(nil)]</text>
<polyline fill="none" stroke="black" points="479,-129.5 479,-152.5 "/>
<text text-anchor="middle" x="535" y="-137.3" font-family="Times,serif" font-size="14.00">right = [(nil)]</text>
</g>
<!-- node0x5040000001d0&#45;&gt;node0x504000000250 -->
<g id="edge12" class="edge">
<title>node0x5040000001d0&#45;&gt;node0x504000000250</title>
<path fill="none" stroke="black" d="M452.91,-258.37C456.27,-249.68 459.81,-240.48 463.27,-231.52"/>
<polygon fill="black" stroke="black" points="466.64,-232.51 466.98,-221.92 460.11,-229.99 466.64,-232.51"/>
</g>
<!-- node0x5040000002d0 -->
<g id="node14" class="node">
<title>node0x5040000002d0</title>
<path fill="#ffffd0" stroke="black" d="M717,-129.5C717,-129.5 906,-129.5 906,-129.5 912,-129.5 918,-135.5 918,-141.5 918,-141.5 918,-209.5 918,-209.5 918,-215.5 912,-221.5 906,-221.5 906,-221.5 717,-221.5 717,-221.5 711,-221.5 705,-215.5 705,-209.5 705,-209.5 705,-141.5 705,-141.5 705,-135.5 711,-129.5 717,-129.5"/>
<text text-anchor="middle" x="811.5" y="-206.3" font-family="Times,serif" font-size="14.00">[0x5040000002d0]</text>
<polyline fill="none" stroke="black" points="705,-198.5 918,-198.5 "/>
<text text-anchor="middle" x="811.5" y="-183.3" font-family="Times,serif" font-size="14.00">data = artem</text>
<polyline fill="none" stroke="black" points="705,-175.5 918,-175.5 "/>
<text text-anchor="middle" x="811.5" y="-160.3" font-family="Times,serif" font-size="14.00">shoot_free = 0</text>
<polyline fill="none" stroke="black" points="705,-152.5 918,-152.5 "/>
<text text-anchor="middle" x="755.5" y="-137.3" font-family="Times,serif" font-size="14.00">left = [(nil)]</text>
<polyline fill="none" stroke="black" points="806,-129.5 806,-152.5 "/>
<text text-anchor="middle" x="862" y="-137.3" font-family="Times,serif" font-size="14.00">right = [(nil)]</text>
</g>
<!-- node0x504000000290&#45;&gt;node0x5040000002d0 -->
<g id="edge13" class="edge">
<title>node0x504000000290&#45;&gt;node0x5040000002d0</title>
<path fill="none" stroke="black" d="M842.44,-258.37C839.16,-249.68 835.68,-240.48 832.29,-231.52"/>
<polygon fill="black" stroke="black" points="835.47,-230.03 828.66,-221.92 828.93,-232.51 835.47,-230.03"/>
</g>
<!-- node0x504000000310 -->
<g id="node15" class="node">
<title>node0x504000000310</title>
<path fill="#ffe0e0" stroke="black" d="M947.5,-129.5C947.5,-129.5 1329.5,-129.5 1329.5,-129.5 1335.5,-129.5 1341.5,-135.5 1341.5,-141.5 1341.5,-141.5 1341.5,-209.5 1341.5,-209.5 1341.5,-215.5 1335.5,-221.5 1329.5,-221.5 1329.5,-221.5 947.5,-221.5 947.5,-221.5 941.5,-221.5 935.5,-215.5 935.5,-209.5 935.5,-209.5 935.5,-141.5 935.5,-141.5 935.5,-135.5 941.5,-129.5 947.5,-129.5"/>
<text text-anchor="middle" x="1138.5" y="-206.3" font-family="Times,serif" font-size="14.00">[0x504000000310]</text>
<polyline fill="none" stroke="black" points="935.5,-198.5 1341.5,-198.5 "/>
<text text-anchor="middle" x="1138.5" y="-183.3" font-family="Times,serif" font-size="14.00">data = middle defender</text>
<polyline fill="none" stroke="black" points="935.5,-175.5 1341.5,-175.5 "/>
<text text-anchor="middle" x="1138.5" y="-160.3" font-family="Times,serif" font-size="14.00">shoot_free = 1</text>
<polyline fill="none" stroke="black" points="935.5,-152.5 1341.5,-152.5 "/>
<text text-anchor="middle" x="1034" y="-137.3" font-family="Times,serif" font-size="14.00">left = [0x5040000004d0]</text>
<polyline fill="none" stroke="black" points="1132.5,-129.5 1132.5,-152.5 "/>
<text text-anchor="middle" x="1237" y="-137.3" font-family="Times,serif" font-size="14.00">right = [0x504000000510]</text>
</g>
<!-- node0x504000000290&#45;&gt;node0x504000000310 -->
<g id="edge14" class="edge">
<title>node0x504000000290&#45;&gt;node0x504000000310</title>
<path fill="none" stroke="black" d="M958.65,-258.37C981.74,-247.86 1006.45,-236.61 1029.92,-225.92"/>
<polygon fill="black" stroke="black" points="1031.55,-229.03 1039.2,-221.7 1028.65,-222.66 1031.55,-229.03"/>
</g>
<!-- node0x5040000004d0 -->
<g id="node16" class="node">
<title>node0x5040000004d0</title>
<path fill="#ffe0e0" stroke="black" d="M928,-0.5C928,-0.5 1117,-0.5 1117,-0.5 1123,-0.5 1129,-6.5 1129,-12.5 1129,-12.5 1129,-80.5 1129,-80.5 1129,-86.5 1123,-92.5 1117,-92.5 1117,-92.5 928,-92.5 928,-92.5 922,-92.5 916,-86.5 916,-80.5 916,-80.5 916,-12.5 916,-12.5 916,-6.5 922,-0.5 928,-0.5"/>
<text text-anchor="middle" x="1022.5" y="-77.3" font-family="Times,serif" font-size="14.00">[0x5040000004d0]</text>
<polyline fill="none" stroke="black" points="916,-69.5 1129,-69.5 "/>
<text text-anchor="middle" x="1022.5" y="-54.3" font-family="Times,serif" font-size="14.00">data = max</text>
<polyline fill="none" stroke="black" points="916,-46.5 1129,-46.5 "/>
<text text-anchor="middle" x="1022.5" y="-31.3" font-family="Times,serif" font-size="14.00">shoot_free = 1</text>
<polyline fill="none" stroke="black" points="916,-23.5 1129,-23.5 "/>
<text text-anchor="middle" x="966.5" y="-8.3" font-family="Times,serif" font-size="14.00">left = [(nil)]</text>
<polyline fill="none" stroke="black" points="1017,-0.5 1017,-23.5 "/>
<text text-anchor="middle" x="1073" y="-8.3" font-family="Times,serif" font-size="14.00">right = [(nil)]</text>
</g>
<!-- node0x504000000310&#45;&gt;node0x5040000004d0 -->
<g id="edge15" class="edge">
<title>node0x504000000310&#45;&gt;node0x5040000004d0</title>
<path fill="none" stroke="black" d="M1097.28,-129.37C1088.75,-120.03 1079.69,-110.11 1070.93,-100.52"/>
<polygon fill="black" stroke="black" points="1073.31,-97.94 1063.98,-92.92 1068.14,-102.66 1073.31,-97.94"/>
</g>
<!-- node0x504000000510 -->
<g id="node17" class="node">
<title>node0x504000000510</title>
<path fill="#ffffd0" stroke="black" d="M1159,-0.5C1159,-0.5 1348,-0.5 1348,-0.5 1354,-0.5 1360,-6.5 1360,-12.5 1360,-12.5 1360,-80.5 1360,-80.5 1360,-86.5 1354,-92.5 1348,-92.5 1348,-92.5 1159,-92.5 1159,-92.5 1153,-92.5 1147,-86.5 1147,-80.5 1147,-80.5 1147,-12.5 1147,-12.5 1147,-6.5 1153,-0.5 1159,-0.5"/>
<text text-anchor="middle" x="1253.5" y="-77.3" font-family="Times,serif" font-size="14.00">[0x504000000510]</text>
<polyline fill="none" stroke="black" points="1147,-69.5 1360,-69.5 "/>
<text text-anchor="middle" x="1253.5" y="-54.3" font-family="Times,serif" font-size="14.00">data = gosha</text>
<polyline fill="none" stroke="black" points="1147,-46.5 1360,-46.5 "/>
<text text-anchor="middle" x="1253.5" y="-31.3" font-family="Times,serif" font-size="14.00">shoot_free = 0</text>
<polyline fill="none" stroke="black" points="1147,-23.5 1360,-23.5 "/>
<text text-anchor="middle" x="1197.5" y="-8.3" font-family="Times,serif" font-size="14.00">left = [(nil)]</text>
<polyline fill="none" stroke="black" points="1248,-0.5 1248,-23.5 "/>
<text text-anchor="middle" x="1304" y="-8.3" font-family="Times,serif" font-size="14.00">right = [(nil)]</text>
</g>
<!-- node0x504000000310&#45;&gt;node0x504000000510 -->
<g id="edge16" class="edge">
<title>node0x504000000310&#45;&gt;node0x504000000510</title>
<path fill="none" stroke="black" d="M1179.37,-129.37C1187.82,-120.03 1196.81,-110.11 1205.49,-100.52"/>
<polygon fill="black" stroke="black" points="1208.26,-102.68 1212.38,-92.92 1203.07,-97.98 1208.26,-102.68"/>
</g>
<!-- node0x504000000450 -->
<g id="node20" class="node">
<title>node0x504000000450</title>
<path fill="#ffe0e0" stroke="black" d="M1200,-258.5C1200,-258.5 1389,-258.5 1389,-258.5 1395,-258.5 1401,-264.5 1401,-270.5 1401,-270.5 1401,-338.5 1401,-338.5 1401,-344.5 1395,-350.5 1389,-350.5 1389,-350.5 1200,-350.5 1200,-350.5 1194,-350.5 1188,-344.5 1188,-338.5 1188,-338.5 1188,-270.5 1188,-270.5 1188,-264.5 1194,-258.5 1200,-258.5"/>
<text text-anchor="middle" x="1294.5" y="-335.3" font-family="Times,serif" font-size="14.00">[0x504000000450]</text>
<polyline fill="none" stroke="black" points="1188,-327.5 1401,-327.5 "/>
<text text-anchor="middle" x="1294.5" y="-312.3" font-family="Times,serif" font-size="14.00">data = agsrfgarwg</text>
<polyline fill="none" stroke="black" points="1188,-304.5 1401,-304.5 "/>
<text text-anchor="middle" x="1294.5" y="-289.3" font-family="Times,serif" font-size="14.00">shoot_free = 1</text>
<polyline fill="none" stroke="black" points="1188,-281.5 1401,-281.5 "/>
<text text-anchor="middle" x="1238.5" y="-266.3" font-family="Times,serif" font-size="14.00">left = [(nil)]</text>
<polyline fill="none" stroke="black" points="1289,-258.5 1289,-281.5 "/>
<text text-anchor="middle" x="1345" y="-266.3" font-family="Times,serif" font-size="14.00">right = [(nil)]</text>
</g>
<!-- node0x504000000410&#45;&gt;node0x504000000450 -->
<g id="edge19" class="edge">
<title>node0x504000000410&#45;&gt;node0x504000000450</title>
<path fill="none" stroke="black" d="M1364.12,-387.37C1356.26,-378.12 1347.91,-368.31 1339.83,-358.8"/>
<polygon fill="black" stroke="black" points="1342.27,-356.27 1333.12,-350.92 1336.93,-360.8 1342.27,-356.27"/>
</g>
<!-- node0x504000000490 -->
<g id="node21" class="node">
<title>node0x504000000490</title>
<path fill="#ffffd0" stroke="black" d="M1431,-258.5C1431,-258.5 1620,-258.5 1620,-258.5 1626,-258.5 1632,-264.5 1632,-270.5 1632,-270.5 1632,-338.5 1632,-338.5 1632,-344.5 1626,-350.5 1620,-350.5 1620,-350.5 1431,-350.5 1431,-350.5 1425,-350.5 1419,-344.5 1419,-338.5 1419,-338.5 1419,-270.5 1419,-270.5 1419,-264.5 1425,-258.5 1431,-258.5"/>
<text text-anchor="middle" x="1525.5" y="-335.3" font-family="Times,serif" font-size="14.00">[0x504000000490]</text>
<polyline fill="none" stroke="black" points="1419,-327.5 1632,-327.5 "/>
<text text-anchor="middle" x="1525.5" y="-312.3" font-family="Times,serif" font-size="14.00">data = FUPM REF</text>
<polyline fill="none" stroke="black" points="1419,-304.5 1632,-304.5 "/>
<text text-anchor="middle" x="1525.5" y="-289.3" font-family="Times,serif" font-size="14.00">shoot_free = 0</text>
<polyline fill="none" stroke="black" points="1419,-281.5 1632,-281.5 "/>
<text text-anchor="middle" x="1469.5" y="-266.3" font-family="Times,serif" font-size="14.00">left = [(nil)]</text>
<polyline fill="none" stroke="black" points="1520,-258.5 1520,-281.5 "/>
<text text-anchor="middle" x="1576" y="-266.3" font-family="Times,serif" font-size="14.00">right = [(nil)]</text>
</g>
<!-- node0x504000000410&#45;&gt;node0x504000000490 -->
<g id="edge20" class="edge">
<title>node0x504000000410&#45;&gt;node0x504000000490</title>
<path fill="none" stroke="black" d="M1446.21,-387.37C1455.35,-377.94 1465.05,-367.91 1474.43,-358.23"/>
<polygon fill="black" stroke="black" points="1477.07,-360.53 1481.51,-350.92 1472.04,-355.66 1477.07,-360.53"/>
</g>
</g>
</svg>
